G04 #@! TF.GenerationSoftware,KiCad,Pcbnew,(5.1.5-0-10_14)*
G04 #@! TF.CreationDate,2020-05-10T22:12:37+02:00*
G04 #@! TF.ProjectId,sensor,73656e73-6f72-42e6-9b69-6361645f7063,rev?*
G04 #@! TF.SameCoordinates,Original*
G04 #@! TF.FileFunction,Copper,L2,Bot*
G04 #@! TF.FilePolarity,Positive*
%FSLAX46Y46*%
G04 Gerber Fmt 4.6, Leading zero omitted, Abs format (unit mm)*
G04 Created by KiCad (PCBNEW (5.1.5-0-10_14)) date 2020-05-10 22:12:37*
%MOMM*%
%LPD*%
G04 APERTURE LIST*
%ADD10O,1.700000X1.700000*%
%ADD11R,1.700000X1.700000*%
%ADD12C,1.500000*%
%ADD13C,0.800000*%
%ADD14C,0.250000*%
%ADD15C,0.254000*%
G04 APERTURE END LIST*
D10*
X49500000Y-39760000D03*
D11*
X49500000Y-42300000D03*
D12*
X64680000Y-61000000D03*
X59800000Y-61000000D03*
D10*
X109000000Y-40460000D03*
D11*
X109000000Y-43000000D03*
D10*
X109000000Y-53460000D03*
D11*
X109000000Y-56000000D03*
D10*
X84200000Y-34200000D03*
X81660000Y-34200000D03*
X79120000Y-34200000D03*
X76580000Y-34200000D03*
X74040000Y-34200000D03*
D11*
X71500000Y-34200000D03*
D10*
X51060000Y-51840000D03*
X53600000Y-51840000D03*
X51060000Y-54380000D03*
X53600000Y-54380000D03*
X51060000Y-56920000D03*
X53600000Y-56920000D03*
X51060000Y-59460000D03*
X53600000Y-59460000D03*
X51060000Y-62000000D03*
D11*
X53600000Y-62000000D03*
D10*
X52700000Y-34100000D03*
X55240000Y-34100000D03*
X57780000Y-34100000D03*
X60320000Y-34100000D03*
X62860000Y-34100000D03*
D11*
X65400000Y-34100000D03*
D13*
X100300000Y-53500000D03*
X100300000Y-58000000D03*
X105500000Y-64000000D03*
X90600000Y-38700000D03*
X80300000Y-63500000D03*
X63500000Y-54500000D03*
X61000000Y-53500000D03*
X83200000Y-43000000D03*
X74800000Y-40100000D03*
X81600000Y-36000000D03*
X70600000Y-38300000D03*
X57000000Y-47600000D03*
X49200000Y-51800000D03*
X106000000Y-47800000D03*
X91200000Y-53600000D03*
X59500000Y-49800000D03*
X50000000Y-34000000D03*
X48500000Y-44700000D03*
X57600000Y-38000000D03*
X100800000Y-40800000D03*
X91359260Y-60111060D03*
X68300000Y-34500000D03*
X58000000Y-64500000D03*
X109100000Y-65000000D03*
X102900000Y-35400000D03*
X113300000Y-47800000D03*
X67900000Y-44000000D03*
X87200000Y-38900000D03*
X81300000Y-43100000D03*
X81200000Y-37500000D03*
X85400000Y-36800000D03*
X74500000Y-63400000D03*
X70000000Y-63400000D03*
X77500000Y-40900000D03*
X75900000Y-37700000D03*
X58900000Y-42700000D03*
X64300000Y-42700000D03*
X57300000Y-51000000D03*
X67000000Y-48300000D03*
X69000000Y-50500000D03*
X83100000Y-38500000D03*
X104000000Y-40600000D03*
X57200000Y-52700000D03*
X61600000Y-38000000D03*
X60300000Y-36499999D03*
X52200000Y-45700000D03*
X61600002Y-36500000D03*
X54900004Y-46200004D03*
D14*
X60700000Y-38000000D02*
X61600000Y-38000000D01*
X56025001Y-42674999D02*
X60700000Y-38000000D01*
X56025001Y-51525001D02*
X56025001Y-42674999D01*
X57200000Y-52700000D02*
X56025001Y-51525001D01*
X59900001Y-36899998D02*
X60300000Y-36499999D01*
X59900001Y-37499999D02*
X59900001Y-36899998D01*
X52200000Y-45700000D02*
X52100000Y-45300000D01*
X52100000Y-45300000D02*
X59900001Y-37499999D01*
X61600002Y-36500000D02*
X61200003Y-36899999D01*
X54900004Y-43136406D02*
X54900004Y-46200004D01*
X61200003Y-36899999D02*
X61136411Y-36899999D01*
X61136411Y-36899999D02*
X54900004Y-43136406D01*
D15*
G36*
X115315001Y-67315000D02*
G01*
X16685000Y-67315000D01*
X16685000Y-64350793D01*
X16798382Y-64464175D01*
X17107118Y-64670466D01*
X17450166Y-64812561D01*
X17814344Y-64885000D01*
X18185656Y-64885000D01*
X18549834Y-64812561D01*
X18892882Y-64670466D01*
X19201618Y-64464175D01*
X19464175Y-64201618D01*
X19670466Y-63892882D01*
X19812561Y-63549834D01*
X19885000Y-63185656D01*
X19885000Y-62814344D01*
X23115000Y-62814344D01*
X23115000Y-63185656D01*
X23187439Y-63549834D01*
X23329534Y-63892882D01*
X23535825Y-64201618D01*
X23798382Y-64464175D01*
X24107118Y-64670466D01*
X24450166Y-64812561D01*
X24814344Y-64885000D01*
X25185656Y-64885000D01*
X25549834Y-64812561D01*
X25892882Y-64670466D01*
X26201618Y-64464175D01*
X26464175Y-64201618D01*
X26670466Y-63892882D01*
X26812561Y-63549834D01*
X26885000Y-63185656D01*
X26885000Y-62814344D01*
X43115000Y-62814344D01*
X43115000Y-63185656D01*
X43187439Y-63549834D01*
X43329534Y-63892882D01*
X43535825Y-64201618D01*
X43798382Y-64464175D01*
X44107118Y-64670466D01*
X44450166Y-64812561D01*
X44814344Y-64885000D01*
X45185656Y-64885000D01*
X45549834Y-64812561D01*
X45892882Y-64670466D01*
X46201618Y-64464175D01*
X46464175Y-64201618D01*
X46670466Y-63892882D01*
X46812561Y-63549834D01*
X46885000Y-63185656D01*
X46885000Y-62814344D01*
X46812561Y-62450166D01*
X46670466Y-62107118D01*
X46501165Y-61853740D01*
X49575000Y-61853740D01*
X49575000Y-62146260D01*
X49632068Y-62433158D01*
X49744010Y-62703411D01*
X49906525Y-62946632D01*
X50113368Y-63153475D01*
X50356589Y-63315990D01*
X50626842Y-63427932D01*
X50913740Y-63485000D01*
X51206260Y-63485000D01*
X51493158Y-63427932D01*
X51763411Y-63315990D01*
X52006632Y-63153475D01*
X52138487Y-63021620D01*
X52160498Y-63094180D01*
X52219463Y-63204494D01*
X52298815Y-63301185D01*
X52395506Y-63380537D01*
X52505820Y-63439502D01*
X52625518Y-63475812D01*
X52750000Y-63488072D01*
X54450000Y-63488072D01*
X54574482Y-63475812D01*
X54694180Y-63439502D01*
X54804494Y-63380537D01*
X54901185Y-63301185D01*
X54980537Y-63204494D01*
X55039502Y-63094180D01*
X55075812Y-62974482D01*
X55088072Y-62850000D01*
X55088072Y-62814344D01*
X111115000Y-62814344D01*
X111115000Y-63185656D01*
X111187439Y-63549834D01*
X111329534Y-63892882D01*
X111535825Y-64201618D01*
X111798382Y-64464175D01*
X112107118Y-64670466D01*
X112450166Y-64812561D01*
X112814344Y-64885000D01*
X113185656Y-64885000D01*
X113549834Y-64812561D01*
X113892882Y-64670466D01*
X114201618Y-64464175D01*
X114464175Y-64201618D01*
X114670466Y-63892882D01*
X114812561Y-63549834D01*
X114885000Y-63185656D01*
X114885000Y-62814344D01*
X114812561Y-62450166D01*
X114670466Y-62107118D01*
X114464175Y-61798382D01*
X114201618Y-61535825D01*
X113892882Y-61329534D01*
X113549834Y-61187439D01*
X113185656Y-61115000D01*
X112814344Y-61115000D01*
X112450166Y-61187439D01*
X112107118Y-61329534D01*
X111798382Y-61535825D01*
X111535825Y-61798382D01*
X111329534Y-62107118D01*
X111187439Y-62450166D01*
X111115000Y-62814344D01*
X55088072Y-62814344D01*
X55088072Y-61150000D01*
X55075812Y-61025518D01*
X55039502Y-60905820D01*
X55016929Y-60863589D01*
X58415000Y-60863589D01*
X58415000Y-61136411D01*
X58468225Y-61403989D01*
X58572629Y-61656043D01*
X58724201Y-61882886D01*
X58917114Y-62075799D01*
X59143957Y-62227371D01*
X59396011Y-62331775D01*
X59663589Y-62385000D01*
X59936411Y-62385000D01*
X60203989Y-62331775D01*
X60456043Y-62227371D01*
X60682886Y-62075799D01*
X60875799Y-61882886D01*
X61027371Y-61656043D01*
X61131775Y-61403989D01*
X61185000Y-61136411D01*
X61185000Y-60863589D01*
X63295000Y-60863589D01*
X63295000Y-61136411D01*
X63348225Y-61403989D01*
X63452629Y-61656043D01*
X63604201Y-61882886D01*
X63797114Y-62075799D01*
X64023957Y-62227371D01*
X64276011Y-62331775D01*
X64543589Y-62385000D01*
X64816411Y-62385000D01*
X65083989Y-62331775D01*
X65336043Y-62227371D01*
X65562886Y-62075799D01*
X65755799Y-61882886D01*
X65907371Y-61656043D01*
X66011775Y-61403989D01*
X66065000Y-61136411D01*
X66065000Y-60863589D01*
X66011775Y-60596011D01*
X65907371Y-60343957D01*
X65755799Y-60117114D01*
X65562886Y-59924201D01*
X65336043Y-59772629D01*
X65083989Y-59668225D01*
X64816411Y-59615000D01*
X64543589Y-59615000D01*
X64276011Y-59668225D01*
X64023957Y-59772629D01*
X63797114Y-59924201D01*
X63604201Y-60117114D01*
X63452629Y-60343957D01*
X63348225Y-60596011D01*
X63295000Y-60863589D01*
X61185000Y-60863589D01*
X61131775Y-60596011D01*
X61027371Y-60343957D01*
X60875799Y-60117114D01*
X60682886Y-59924201D01*
X60456043Y-59772629D01*
X60203989Y-59668225D01*
X59936411Y-59615000D01*
X59663589Y-59615000D01*
X59396011Y-59668225D01*
X59143957Y-59772629D01*
X58917114Y-59924201D01*
X58724201Y-60117114D01*
X58572629Y-60343957D01*
X58468225Y-60596011D01*
X58415000Y-60863589D01*
X55016929Y-60863589D01*
X54980537Y-60795506D01*
X54901185Y-60698815D01*
X54804494Y-60619463D01*
X54694180Y-60560498D01*
X54621620Y-60538487D01*
X54753475Y-60406632D01*
X54915990Y-60163411D01*
X55027932Y-59893158D01*
X55085000Y-59606260D01*
X55085000Y-59313740D01*
X55027932Y-59026842D01*
X54915990Y-58756589D01*
X54753475Y-58513368D01*
X54546632Y-58306525D01*
X54372240Y-58190000D01*
X54546632Y-58073475D01*
X54753475Y-57866632D01*
X54915990Y-57623411D01*
X55027932Y-57353158D01*
X55085000Y-57066260D01*
X55085000Y-56773740D01*
X55027932Y-56486842D01*
X54915990Y-56216589D01*
X54753475Y-55973368D01*
X54546632Y-55766525D01*
X54372240Y-55650000D01*
X54546632Y-55533475D01*
X54753475Y-55326632D01*
X54871496Y-55150000D01*
X107511928Y-55150000D01*
X107511928Y-56850000D01*
X107524188Y-56974482D01*
X107560498Y-57094180D01*
X107619463Y-57204494D01*
X107698815Y-57301185D01*
X107795506Y-57380537D01*
X107905820Y-57439502D01*
X108025518Y-57475812D01*
X108150000Y-57488072D01*
X109850000Y-57488072D01*
X109974482Y-57475812D01*
X110094180Y-57439502D01*
X110204494Y-57380537D01*
X110301185Y-57301185D01*
X110380537Y-57204494D01*
X110439502Y-57094180D01*
X110475812Y-56974482D01*
X110488072Y-56850000D01*
X110488072Y-55150000D01*
X110475812Y-55025518D01*
X110439502Y-54905820D01*
X110380537Y-54795506D01*
X110301185Y-54698815D01*
X110204494Y-54619463D01*
X110094180Y-54560498D01*
X110021620Y-54538487D01*
X110153475Y-54406632D01*
X110315990Y-54163411D01*
X110427932Y-53893158D01*
X110485000Y-53606260D01*
X110485000Y-53313740D01*
X110427932Y-53026842D01*
X110315990Y-52756589D01*
X110153475Y-52513368D01*
X109946632Y-52306525D01*
X109703411Y-52144010D01*
X109433158Y-52032068D01*
X109146260Y-51975000D01*
X108853740Y-51975000D01*
X108566842Y-52032068D01*
X108296589Y-52144010D01*
X108053368Y-52306525D01*
X107846525Y-52513368D01*
X107684010Y-52756589D01*
X107572068Y-53026842D01*
X107515000Y-53313740D01*
X107515000Y-53606260D01*
X107572068Y-53893158D01*
X107684010Y-54163411D01*
X107846525Y-54406632D01*
X107978380Y-54538487D01*
X107905820Y-54560498D01*
X107795506Y-54619463D01*
X107698815Y-54698815D01*
X107619463Y-54795506D01*
X107560498Y-54905820D01*
X107524188Y-55025518D01*
X107511928Y-55150000D01*
X54871496Y-55150000D01*
X54915990Y-55083411D01*
X55027932Y-54813158D01*
X55085000Y-54526260D01*
X55085000Y-54233740D01*
X55027932Y-53946842D01*
X54915990Y-53676589D01*
X54753475Y-53433368D01*
X54546632Y-53226525D01*
X54372240Y-53110000D01*
X54546632Y-52993475D01*
X54753475Y-52786632D01*
X54915990Y-52543411D01*
X55027932Y-52273158D01*
X55085000Y-51986260D01*
X55085000Y-51693740D01*
X55027932Y-51406842D01*
X54915990Y-51136589D01*
X54753475Y-50893368D01*
X54546632Y-50686525D01*
X54303411Y-50524010D01*
X54033158Y-50412068D01*
X53746260Y-50355000D01*
X53453740Y-50355000D01*
X53166842Y-50412068D01*
X52896589Y-50524010D01*
X52653368Y-50686525D01*
X52446525Y-50893368D01*
X52328900Y-51069406D01*
X52157588Y-50839731D01*
X51941355Y-50644822D01*
X51691252Y-50495843D01*
X51416891Y-50398519D01*
X51187000Y-50519186D01*
X51187000Y-51713000D01*
X51207000Y-51713000D01*
X51207000Y-51967000D01*
X51187000Y-51967000D01*
X51187000Y-54253000D01*
X51207000Y-54253000D01*
X51207000Y-54507000D01*
X51187000Y-54507000D01*
X51187000Y-56793000D01*
X51207000Y-56793000D01*
X51207000Y-57047000D01*
X51187000Y-57047000D01*
X51187000Y-59333000D01*
X51207000Y-59333000D01*
X51207000Y-59587000D01*
X51187000Y-59587000D01*
X51187000Y-59607000D01*
X50933000Y-59607000D01*
X50933000Y-59587000D01*
X49739845Y-59587000D01*
X49618524Y-59816890D01*
X49663175Y-59964099D01*
X49788359Y-60226920D01*
X49962412Y-60460269D01*
X50178645Y-60655178D01*
X50295534Y-60724805D01*
X50113368Y-60846525D01*
X49906525Y-61053368D01*
X49744010Y-61296589D01*
X49632068Y-61566842D01*
X49575000Y-61853740D01*
X46501165Y-61853740D01*
X46464175Y-61798382D01*
X46201618Y-61535825D01*
X45892882Y-61329534D01*
X45549834Y-61187439D01*
X45185656Y-61115000D01*
X44814344Y-61115000D01*
X44450166Y-61187439D01*
X44107118Y-61329534D01*
X43798382Y-61535825D01*
X43535825Y-61798382D01*
X43329534Y-62107118D01*
X43187439Y-62450166D01*
X43115000Y-62814344D01*
X26885000Y-62814344D01*
X26812561Y-62450166D01*
X26670466Y-62107118D01*
X26464175Y-61798382D01*
X26201618Y-61535825D01*
X25892882Y-61329534D01*
X25549834Y-61187439D01*
X25185656Y-61115000D01*
X24814344Y-61115000D01*
X24450166Y-61187439D01*
X24107118Y-61329534D01*
X23798382Y-61535825D01*
X23535825Y-61798382D01*
X23329534Y-62107118D01*
X23187439Y-62450166D01*
X23115000Y-62814344D01*
X19885000Y-62814344D01*
X19812561Y-62450166D01*
X19670466Y-62107118D01*
X19464175Y-61798382D01*
X19201618Y-61535825D01*
X18892882Y-61329534D01*
X18549834Y-61187439D01*
X18185656Y-61115000D01*
X17814344Y-61115000D01*
X17450166Y-61187439D01*
X17107118Y-61329534D01*
X16798382Y-61535825D01*
X16685000Y-61649207D01*
X16685000Y-57276890D01*
X49618524Y-57276890D01*
X49663175Y-57424099D01*
X49788359Y-57686920D01*
X49962412Y-57920269D01*
X50178645Y-58115178D01*
X50304255Y-58190000D01*
X50178645Y-58264822D01*
X49962412Y-58459731D01*
X49788359Y-58693080D01*
X49663175Y-58955901D01*
X49618524Y-59103110D01*
X49739845Y-59333000D01*
X50933000Y-59333000D01*
X50933000Y-57047000D01*
X49739845Y-57047000D01*
X49618524Y-57276890D01*
X16685000Y-57276890D01*
X16685000Y-54736890D01*
X49618524Y-54736890D01*
X49663175Y-54884099D01*
X49788359Y-55146920D01*
X49962412Y-55380269D01*
X50178645Y-55575178D01*
X50304255Y-55650000D01*
X50178645Y-55724822D01*
X49962412Y-55919731D01*
X49788359Y-56153080D01*
X49663175Y-56415901D01*
X49618524Y-56563110D01*
X49739845Y-56793000D01*
X50933000Y-56793000D01*
X50933000Y-54507000D01*
X49739845Y-54507000D01*
X49618524Y-54736890D01*
X16685000Y-54736890D01*
X16685000Y-52196890D01*
X49618524Y-52196890D01*
X49663175Y-52344099D01*
X49788359Y-52606920D01*
X49962412Y-52840269D01*
X50178645Y-53035178D01*
X50304255Y-53110000D01*
X50178645Y-53184822D01*
X49962412Y-53379731D01*
X49788359Y-53613080D01*
X49663175Y-53875901D01*
X49618524Y-54023110D01*
X49739845Y-54253000D01*
X50933000Y-54253000D01*
X50933000Y-51967000D01*
X49739845Y-51967000D01*
X49618524Y-52196890D01*
X16685000Y-52196890D01*
X16685000Y-51483110D01*
X49618524Y-51483110D01*
X49739845Y-51713000D01*
X50933000Y-51713000D01*
X50933000Y-50519186D01*
X50703109Y-50398519D01*
X50428748Y-50495843D01*
X50178645Y-50644822D01*
X49962412Y-50839731D01*
X49788359Y-51073080D01*
X49663175Y-51335901D01*
X49618524Y-51483110D01*
X16685000Y-51483110D01*
X16685000Y-45598061D01*
X51165000Y-45598061D01*
X51165000Y-45801939D01*
X51204774Y-46001898D01*
X51282795Y-46190256D01*
X51396063Y-46359774D01*
X51540226Y-46503937D01*
X51709744Y-46617205D01*
X51898102Y-46695226D01*
X52098061Y-46735000D01*
X52301939Y-46735000D01*
X52501898Y-46695226D01*
X52690256Y-46617205D01*
X52859774Y-46503937D01*
X53003937Y-46359774D01*
X53117205Y-46190256D01*
X53195226Y-46001898D01*
X53235000Y-45801939D01*
X53235000Y-45598061D01*
X53195226Y-45398102D01*
X53160510Y-45314291D01*
X54140004Y-44334797D01*
X54140005Y-45496292D01*
X54096067Y-45540230D01*
X53982799Y-45709748D01*
X53904778Y-45898106D01*
X53865004Y-46098065D01*
X53865004Y-46301943D01*
X53904778Y-46501902D01*
X53982799Y-46690260D01*
X54096067Y-46859778D01*
X54240230Y-47003941D01*
X54409748Y-47117209D01*
X54598106Y-47195230D01*
X54798065Y-47235004D01*
X55001943Y-47235004D01*
X55201902Y-47195230D01*
X55265001Y-47169093D01*
X55265001Y-51487679D01*
X55261325Y-51525001D01*
X55265001Y-51562323D01*
X55265001Y-51562333D01*
X55275998Y-51673986D01*
X55319455Y-51817247D01*
X55390027Y-51949277D01*
X55411138Y-51975000D01*
X55485000Y-52065002D01*
X55514004Y-52088805D01*
X56165000Y-52739802D01*
X56165000Y-52801939D01*
X56204774Y-53001898D01*
X56282795Y-53190256D01*
X56396063Y-53359774D01*
X56540226Y-53503937D01*
X56709744Y-53617205D01*
X56898102Y-53695226D01*
X57098061Y-53735000D01*
X57301939Y-53735000D01*
X57501898Y-53695226D01*
X57690256Y-53617205D01*
X57859774Y-53503937D01*
X58003937Y-53359774D01*
X58117205Y-53190256D01*
X58195226Y-53001898D01*
X58235000Y-52801939D01*
X58235000Y-52598061D01*
X58195226Y-52398102D01*
X58117205Y-52209744D01*
X58003937Y-52040226D01*
X57859774Y-51896063D01*
X57690256Y-51782795D01*
X57501898Y-51704774D01*
X57301939Y-51665000D01*
X57239802Y-51665000D01*
X56785001Y-51210200D01*
X56785001Y-42989800D01*
X57624801Y-42150000D01*
X107511928Y-42150000D01*
X107511928Y-43850000D01*
X107524188Y-43974482D01*
X107560498Y-44094180D01*
X107619463Y-44204494D01*
X107698815Y-44301185D01*
X107795506Y-44380537D01*
X107905820Y-44439502D01*
X108025518Y-44475812D01*
X108150000Y-44488072D01*
X109850000Y-44488072D01*
X109974482Y-44475812D01*
X110094180Y-44439502D01*
X110204494Y-44380537D01*
X110301185Y-44301185D01*
X110380537Y-44204494D01*
X110439502Y-44094180D01*
X110475812Y-43974482D01*
X110488072Y-43850000D01*
X110488072Y-42150000D01*
X110475812Y-42025518D01*
X110439502Y-41905820D01*
X110380537Y-41795506D01*
X110301185Y-41698815D01*
X110204494Y-41619463D01*
X110094180Y-41560498D01*
X110013534Y-41536034D01*
X110097588Y-41460269D01*
X110271641Y-41226920D01*
X110396825Y-40964099D01*
X110441476Y-40816890D01*
X110320155Y-40587000D01*
X109127000Y-40587000D01*
X109127000Y-40607000D01*
X108873000Y-40607000D01*
X108873000Y-40587000D01*
X107679845Y-40587000D01*
X107558524Y-40816890D01*
X107603175Y-40964099D01*
X107728359Y-41226920D01*
X107902412Y-41460269D01*
X107986466Y-41536034D01*
X107905820Y-41560498D01*
X107795506Y-41619463D01*
X107698815Y-41698815D01*
X107619463Y-41795506D01*
X107560498Y-41905820D01*
X107524188Y-42025518D01*
X107511928Y-42150000D01*
X57624801Y-42150000D01*
X59671691Y-40103110D01*
X107558524Y-40103110D01*
X107679845Y-40333000D01*
X108873000Y-40333000D01*
X108873000Y-39139186D01*
X109127000Y-39139186D01*
X109127000Y-40333000D01*
X110320155Y-40333000D01*
X110441476Y-40103110D01*
X110396825Y-39955901D01*
X110271641Y-39693080D01*
X110097588Y-39459731D01*
X109881355Y-39264822D01*
X109631252Y-39115843D01*
X109356891Y-39018519D01*
X109127000Y-39139186D01*
X108873000Y-39139186D01*
X108643109Y-39018519D01*
X108368748Y-39115843D01*
X108118645Y-39264822D01*
X107902412Y-39459731D01*
X107728359Y-39693080D01*
X107603175Y-39955901D01*
X107558524Y-40103110D01*
X59671691Y-40103110D01*
X60958593Y-38816209D01*
X61109744Y-38917205D01*
X61298102Y-38995226D01*
X61498061Y-39035000D01*
X61701939Y-39035000D01*
X61901898Y-38995226D01*
X62090256Y-38917205D01*
X62259774Y-38803937D01*
X62403937Y-38659774D01*
X62517205Y-38490256D01*
X62595226Y-38301898D01*
X62635000Y-38101939D01*
X62635000Y-37898061D01*
X62595226Y-37698102D01*
X62517205Y-37509744D01*
X62403937Y-37340226D01*
X62313712Y-37250001D01*
X62403939Y-37159774D01*
X62517207Y-36990256D01*
X62595228Y-36801898D01*
X62635002Y-36601939D01*
X62635002Y-36398061D01*
X62595228Y-36198102D01*
X62517207Y-36009744D01*
X62403939Y-35840226D01*
X62259776Y-35696063D01*
X62090258Y-35582795D01*
X61901900Y-35504774D01*
X61701941Y-35465000D01*
X61498063Y-35465000D01*
X61298104Y-35504774D01*
X61109746Y-35582795D01*
X60950002Y-35689532D01*
X60790256Y-35582794D01*
X60688742Y-35540745D01*
X60753158Y-35527932D01*
X61023411Y-35415990D01*
X61266632Y-35253475D01*
X61473475Y-35046632D01*
X61590000Y-34872240D01*
X61706525Y-35046632D01*
X61913368Y-35253475D01*
X62156589Y-35415990D01*
X62426842Y-35527932D01*
X62713740Y-35585000D01*
X63006260Y-35585000D01*
X63293158Y-35527932D01*
X63563411Y-35415990D01*
X63806632Y-35253475D01*
X63938487Y-35121620D01*
X63960498Y-35194180D01*
X64019463Y-35304494D01*
X64098815Y-35401185D01*
X64195506Y-35480537D01*
X64305820Y-35539502D01*
X64425518Y-35575812D01*
X64550000Y-35588072D01*
X66250000Y-35588072D01*
X66374482Y-35575812D01*
X66494180Y-35539502D01*
X66604494Y-35480537D01*
X66701185Y-35401185D01*
X66780537Y-35304494D01*
X66839502Y-35194180D01*
X66875812Y-35074482D01*
X66888072Y-34950000D01*
X66888072Y-33350000D01*
X70011928Y-33350000D01*
X70011928Y-35050000D01*
X70024188Y-35174482D01*
X70060498Y-35294180D01*
X70119463Y-35404494D01*
X70198815Y-35501185D01*
X70295506Y-35580537D01*
X70405820Y-35639502D01*
X70525518Y-35675812D01*
X70650000Y-35688072D01*
X72350000Y-35688072D01*
X72474482Y-35675812D01*
X72594180Y-35639502D01*
X72704494Y-35580537D01*
X72801185Y-35501185D01*
X72880537Y-35404494D01*
X72939502Y-35294180D01*
X72961513Y-35221620D01*
X73093368Y-35353475D01*
X73336589Y-35515990D01*
X73606842Y-35627932D01*
X73893740Y-35685000D01*
X74186260Y-35685000D01*
X74473158Y-35627932D01*
X74743411Y-35515990D01*
X74986632Y-35353475D01*
X75193475Y-35146632D01*
X75310000Y-34972240D01*
X75426525Y-35146632D01*
X75633368Y-35353475D01*
X75876589Y-35515990D01*
X76146842Y-35627932D01*
X76433740Y-35685000D01*
X76726260Y-35685000D01*
X77013158Y-35627932D01*
X77283411Y-35515990D01*
X77526632Y-35353475D01*
X77733475Y-35146632D01*
X77850000Y-34972240D01*
X77966525Y-35146632D01*
X78173368Y-35353475D01*
X78416589Y-35515990D01*
X78686842Y-35627932D01*
X78973740Y-35685000D01*
X79266260Y-35685000D01*
X79553158Y-35627932D01*
X79823411Y-35515990D01*
X80066632Y-35353475D01*
X80273475Y-35146632D01*
X80395195Y-34964466D01*
X80464822Y-35081355D01*
X80659731Y-35297588D01*
X80893080Y-35471641D01*
X81155901Y-35596825D01*
X81303110Y-35641476D01*
X81533000Y-35520155D01*
X81533000Y-34327000D01*
X81513000Y-34327000D01*
X81513000Y-34073000D01*
X81533000Y-34073000D01*
X81533000Y-32879845D01*
X81787000Y-32879845D01*
X81787000Y-34073000D01*
X81807000Y-34073000D01*
X81807000Y-34327000D01*
X81787000Y-34327000D01*
X81787000Y-35520155D01*
X82016890Y-35641476D01*
X82164099Y-35596825D01*
X82426920Y-35471641D01*
X82660269Y-35297588D01*
X82855178Y-35081355D01*
X82924805Y-34964466D01*
X83046525Y-35146632D01*
X83253368Y-35353475D01*
X83496589Y-35515990D01*
X83766842Y-35627932D01*
X84053740Y-35685000D01*
X84346260Y-35685000D01*
X84633158Y-35627932D01*
X84903411Y-35515990D01*
X85146632Y-35353475D01*
X85353475Y-35146632D01*
X85515990Y-34903411D01*
X85552882Y-34814344D01*
X111115000Y-34814344D01*
X111115000Y-35185656D01*
X111187439Y-35549834D01*
X111329534Y-35892882D01*
X111535825Y-36201618D01*
X111798382Y-36464175D01*
X112107118Y-36670466D01*
X112450166Y-36812561D01*
X112814344Y-36885000D01*
X113185656Y-36885000D01*
X113549834Y-36812561D01*
X113892882Y-36670466D01*
X114201618Y-36464175D01*
X114464175Y-36201618D01*
X114670466Y-35892882D01*
X114812561Y-35549834D01*
X114885000Y-35185656D01*
X114885000Y-34814344D01*
X114812561Y-34450166D01*
X114670466Y-34107118D01*
X114464175Y-33798382D01*
X114201618Y-33535825D01*
X113892882Y-33329534D01*
X113549834Y-33187439D01*
X113185656Y-33115000D01*
X112814344Y-33115000D01*
X112450166Y-33187439D01*
X112107118Y-33329534D01*
X111798382Y-33535825D01*
X111535825Y-33798382D01*
X111329534Y-34107118D01*
X111187439Y-34450166D01*
X111115000Y-34814344D01*
X85552882Y-34814344D01*
X85627932Y-34633158D01*
X85685000Y-34346260D01*
X85685000Y-34053740D01*
X85627932Y-33766842D01*
X85515990Y-33496589D01*
X85353475Y-33253368D01*
X85146632Y-33046525D01*
X84903411Y-32884010D01*
X84633158Y-32772068D01*
X84346260Y-32715000D01*
X84053740Y-32715000D01*
X83766842Y-32772068D01*
X83496589Y-32884010D01*
X83253368Y-33046525D01*
X83046525Y-33253368D01*
X82924805Y-33435534D01*
X82855178Y-33318645D01*
X82660269Y-33102412D01*
X82426920Y-32928359D01*
X82164099Y-32803175D01*
X82016890Y-32758524D01*
X81787000Y-32879845D01*
X81533000Y-32879845D01*
X81303110Y-32758524D01*
X81155901Y-32803175D01*
X80893080Y-32928359D01*
X80659731Y-33102412D01*
X80464822Y-33318645D01*
X80395195Y-33435534D01*
X80273475Y-33253368D01*
X80066632Y-33046525D01*
X79823411Y-32884010D01*
X79553158Y-32772068D01*
X79266260Y-32715000D01*
X78973740Y-32715000D01*
X78686842Y-32772068D01*
X78416589Y-32884010D01*
X78173368Y-33046525D01*
X77966525Y-33253368D01*
X77850000Y-33427760D01*
X77733475Y-33253368D01*
X77526632Y-33046525D01*
X77283411Y-32884010D01*
X77013158Y-32772068D01*
X76726260Y-32715000D01*
X76433740Y-32715000D01*
X76146842Y-32772068D01*
X75876589Y-32884010D01*
X75633368Y-33046525D01*
X75426525Y-33253368D01*
X75310000Y-33427760D01*
X75193475Y-33253368D01*
X74986632Y-33046525D01*
X74743411Y-32884010D01*
X74473158Y-32772068D01*
X74186260Y-32715000D01*
X73893740Y-32715000D01*
X73606842Y-32772068D01*
X73336589Y-32884010D01*
X73093368Y-33046525D01*
X72961513Y-33178380D01*
X72939502Y-33105820D01*
X72880537Y-32995506D01*
X72801185Y-32898815D01*
X72704494Y-32819463D01*
X72594180Y-32760498D01*
X72474482Y-32724188D01*
X72350000Y-32711928D01*
X70650000Y-32711928D01*
X70525518Y-32724188D01*
X70405820Y-32760498D01*
X70295506Y-32819463D01*
X70198815Y-32898815D01*
X70119463Y-32995506D01*
X70060498Y-33105820D01*
X70024188Y-33225518D01*
X70011928Y-33350000D01*
X66888072Y-33350000D01*
X66888072Y-33250000D01*
X66875812Y-33125518D01*
X66839502Y-33005820D01*
X66780537Y-32895506D01*
X66701185Y-32798815D01*
X66604494Y-32719463D01*
X66494180Y-32660498D01*
X66374482Y-32624188D01*
X66250000Y-32611928D01*
X64550000Y-32611928D01*
X64425518Y-32624188D01*
X64305820Y-32660498D01*
X64195506Y-32719463D01*
X64098815Y-32798815D01*
X64019463Y-32895506D01*
X63960498Y-33005820D01*
X63938487Y-33078380D01*
X63806632Y-32946525D01*
X63563411Y-32784010D01*
X63293158Y-32672068D01*
X63006260Y-32615000D01*
X62713740Y-32615000D01*
X62426842Y-32672068D01*
X62156589Y-32784010D01*
X61913368Y-32946525D01*
X61706525Y-33153368D01*
X61590000Y-33327760D01*
X61473475Y-33153368D01*
X61266632Y-32946525D01*
X61023411Y-32784010D01*
X60753158Y-32672068D01*
X60466260Y-32615000D01*
X60173740Y-32615000D01*
X59886842Y-32672068D01*
X59616589Y-32784010D01*
X59373368Y-32946525D01*
X59166525Y-33153368D01*
X59050000Y-33327760D01*
X58933475Y-33153368D01*
X58726632Y-32946525D01*
X58483411Y-32784010D01*
X58213158Y-32672068D01*
X57926260Y-32615000D01*
X57633740Y-32615000D01*
X57346842Y-32672068D01*
X57076589Y-32784010D01*
X56833368Y-32946525D01*
X56626525Y-33153368D01*
X56510000Y-33327760D01*
X56393475Y-33153368D01*
X56186632Y-32946525D01*
X55943411Y-32784010D01*
X55673158Y-32672068D01*
X55386260Y-32615000D01*
X55093740Y-32615000D01*
X54806842Y-32672068D01*
X54536589Y-32784010D01*
X54293368Y-32946525D01*
X54086525Y-33153368D01*
X53964805Y-33335534D01*
X53895178Y-33218645D01*
X53700269Y-33002412D01*
X53466920Y-32828359D01*
X53204099Y-32703175D01*
X53056890Y-32658524D01*
X52827000Y-32779845D01*
X52827000Y-33973000D01*
X52847000Y-33973000D01*
X52847000Y-34227000D01*
X52827000Y-34227000D01*
X52827000Y-35420155D01*
X53056890Y-35541476D01*
X53204099Y-35496825D01*
X53466920Y-35371641D01*
X53700269Y-35197588D01*
X53895178Y-34981355D01*
X53964805Y-34864466D01*
X54086525Y-35046632D01*
X54293368Y-35253475D01*
X54536589Y-35415990D01*
X54806842Y-35527932D01*
X55093740Y-35585000D01*
X55386260Y-35585000D01*
X55673158Y-35527932D01*
X55943411Y-35415990D01*
X56186632Y-35253475D01*
X56393475Y-35046632D01*
X56510000Y-34872240D01*
X56626525Y-35046632D01*
X56833368Y-35253475D01*
X57076589Y-35415990D01*
X57346842Y-35527932D01*
X57633740Y-35585000D01*
X57926260Y-35585000D01*
X58213158Y-35527932D01*
X58483411Y-35415990D01*
X58726632Y-35253475D01*
X58933475Y-35046632D01*
X59050000Y-34872240D01*
X59166525Y-35046632D01*
X59373368Y-35253475D01*
X59616589Y-35415990D01*
X59886842Y-35527932D01*
X59924235Y-35535370D01*
X59809744Y-35582794D01*
X59640226Y-35696062D01*
X59496063Y-35840225D01*
X59382795Y-36009743D01*
X59304774Y-36198101D01*
X59265000Y-36398060D01*
X59265000Y-36475773D01*
X59252050Y-36500001D01*
X59194455Y-36607751D01*
X59150998Y-36751012D01*
X59140001Y-36862665D01*
X59140001Y-36862676D01*
X59136325Y-36899998D01*
X59140001Y-36937320D01*
X59140001Y-37185197D01*
X51575913Y-44749286D01*
X51534389Y-44786887D01*
X51500794Y-44832142D01*
X51465026Y-44875724D01*
X51456248Y-44892147D01*
X51445153Y-44907092D01*
X51421035Y-44958025D01*
X51394454Y-45007754D01*
X51389048Y-45025574D01*
X51381083Y-45042396D01*
X51372944Y-45074827D01*
X51282795Y-45209744D01*
X51204774Y-45398102D01*
X51165000Y-45598061D01*
X16685000Y-45598061D01*
X16685000Y-43150000D01*
X48011928Y-43150000D01*
X48024188Y-43274482D01*
X48060498Y-43394180D01*
X48119463Y-43504494D01*
X48198815Y-43601185D01*
X48295506Y-43680537D01*
X48405820Y-43739502D01*
X48525518Y-43775812D01*
X48650000Y-43788072D01*
X49214250Y-43785000D01*
X49373000Y-43626250D01*
X49373000Y-42427000D01*
X49627000Y-42427000D01*
X49627000Y-43626250D01*
X49785750Y-43785000D01*
X50350000Y-43788072D01*
X50474482Y-43775812D01*
X50594180Y-43739502D01*
X50704494Y-43680537D01*
X50801185Y-43601185D01*
X50880537Y-43504494D01*
X50939502Y-43394180D01*
X50975812Y-43274482D01*
X50988072Y-43150000D01*
X50985000Y-42585750D01*
X50826250Y-42427000D01*
X49627000Y-42427000D01*
X49373000Y-42427000D01*
X48173750Y-42427000D01*
X48015000Y-42585750D01*
X48011928Y-43150000D01*
X16685000Y-43150000D01*
X16685000Y-41450000D01*
X48011928Y-41450000D01*
X48015000Y-42014250D01*
X48173750Y-42173000D01*
X49373000Y-42173000D01*
X49373000Y-42153000D01*
X49627000Y-42153000D01*
X49627000Y-42173000D01*
X50826250Y-42173000D01*
X50985000Y-42014250D01*
X50988072Y-41450000D01*
X50975812Y-41325518D01*
X50939502Y-41205820D01*
X50880537Y-41095506D01*
X50801185Y-40998815D01*
X50704494Y-40919463D01*
X50594180Y-40860498D01*
X50521620Y-40838487D01*
X50653475Y-40706632D01*
X50815990Y-40463411D01*
X50927932Y-40193158D01*
X50985000Y-39906260D01*
X50985000Y-39613740D01*
X50927932Y-39326842D01*
X50815990Y-39056589D01*
X50653475Y-38813368D01*
X50446632Y-38606525D01*
X50203411Y-38444010D01*
X49933158Y-38332068D01*
X49646260Y-38275000D01*
X49353740Y-38275000D01*
X49066842Y-38332068D01*
X48796589Y-38444010D01*
X48553368Y-38606525D01*
X48346525Y-38813368D01*
X48184010Y-39056589D01*
X48072068Y-39326842D01*
X48015000Y-39613740D01*
X48015000Y-39906260D01*
X48072068Y-40193158D01*
X48184010Y-40463411D01*
X48346525Y-40706632D01*
X48478380Y-40838487D01*
X48405820Y-40860498D01*
X48295506Y-40919463D01*
X48198815Y-40998815D01*
X48119463Y-41095506D01*
X48060498Y-41205820D01*
X48024188Y-41325518D01*
X48011928Y-41450000D01*
X16685000Y-41450000D01*
X16685000Y-36350793D01*
X16798382Y-36464175D01*
X17107118Y-36670466D01*
X17450166Y-36812561D01*
X17814344Y-36885000D01*
X18185656Y-36885000D01*
X18549834Y-36812561D01*
X18892882Y-36670466D01*
X19201618Y-36464175D01*
X19464175Y-36201618D01*
X19670466Y-35892882D01*
X19812561Y-35549834D01*
X19885000Y-35185656D01*
X19885000Y-34814344D01*
X19813899Y-34456891D01*
X51258519Y-34456891D01*
X51355843Y-34731252D01*
X51504822Y-34981355D01*
X51699731Y-35197588D01*
X51933080Y-35371641D01*
X52195901Y-35496825D01*
X52343110Y-35541476D01*
X52573000Y-35420155D01*
X52573000Y-34227000D01*
X51379186Y-34227000D01*
X51258519Y-34456891D01*
X19813899Y-34456891D01*
X19812561Y-34450166D01*
X19670466Y-34107118D01*
X19464175Y-33798382D01*
X19408902Y-33743109D01*
X51258519Y-33743109D01*
X51379186Y-33973000D01*
X52573000Y-33973000D01*
X52573000Y-32779845D01*
X52343110Y-32658524D01*
X52195901Y-32703175D01*
X51933080Y-32828359D01*
X51699731Y-33002412D01*
X51504822Y-33218645D01*
X51355843Y-33468748D01*
X51258519Y-33743109D01*
X19408902Y-33743109D01*
X19201618Y-33535825D01*
X18892882Y-33329534D01*
X18549834Y-33187439D01*
X18185656Y-33115000D01*
X17814344Y-33115000D01*
X17450166Y-33187439D01*
X17107118Y-33329534D01*
X16798382Y-33535825D01*
X16685000Y-33649207D01*
X16685000Y-30685000D01*
X115315000Y-30685000D01*
X115315001Y-67315000D01*
G37*
X115315001Y-67315000D02*
X16685000Y-67315000D01*
X16685000Y-64350793D01*
X16798382Y-64464175D01*
X17107118Y-64670466D01*
X17450166Y-64812561D01*
X17814344Y-64885000D01*
X18185656Y-64885000D01*
X18549834Y-64812561D01*
X18892882Y-64670466D01*
X19201618Y-64464175D01*
X19464175Y-64201618D01*
X19670466Y-63892882D01*
X19812561Y-63549834D01*
X19885000Y-63185656D01*
X19885000Y-62814344D01*
X23115000Y-62814344D01*
X23115000Y-63185656D01*
X23187439Y-63549834D01*
X23329534Y-63892882D01*
X23535825Y-64201618D01*
X23798382Y-64464175D01*
X24107118Y-64670466D01*
X24450166Y-64812561D01*
X24814344Y-64885000D01*
X25185656Y-64885000D01*
X25549834Y-64812561D01*
X25892882Y-64670466D01*
X26201618Y-64464175D01*
X26464175Y-64201618D01*
X26670466Y-63892882D01*
X26812561Y-63549834D01*
X26885000Y-63185656D01*
X26885000Y-62814344D01*
X43115000Y-62814344D01*
X43115000Y-63185656D01*
X43187439Y-63549834D01*
X43329534Y-63892882D01*
X43535825Y-64201618D01*
X43798382Y-64464175D01*
X44107118Y-64670466D01*
X44450166Y-64812561D01*
X44814344Y-64885000D01*
X45185656Y-64885000D01*
X45549834Y-64812561D01*
X45892882Y-64670466D01*
X46201618Y-64464175D01*
X46464175Y-64201618D01*
X46670466Y-63892882D01*
X46812561Y-63549834D01*
X46885000Y-63185656D01*
X46885000Y-62814344D01*
X46812561Y-62450166D01*
X46670466Y-62107118D01*
X46501165Y-61853740D01*
X49575000Y-61853740D01*
X49575000Y-62146260D01*
X49632068Y-62433158D01*
X49744010Y-62703411D01*
X49906525Y-62946632D01*
X50113368Y-63153475D01*
X50356589Y-63315990D01*
X50626842Y-63427932D01*
X50913740Y-63485000D01*
X51206260Y-63485000D01*
X51493158Y-63427932D01*
X51763411Y-63315990D01*
X52006632Y-63153475D01*
X52138487Y-63021620D01*
X52160498Y-63094180D01*
X52219463Y-63204494D01*
X52298815Y-63301185D01*
X52395506Y-63380537D01*
X52505820Y-63439502D01*
X52625518Y-63475812D01*
X52750000Y-63488072D01*
X54450000Y-63488072D01*
X54574482Y-63475812D01*
X54694180Y-63439502D01*
X54804494Y-63380537D01*
X54901185Y-63301185D01*
X54980537Y-63204494D01*
X55039502Y-63094180D01*
X55075812Y-62974482D01*
X55088072Y-62850000D01*
X55088072Y-62814344D01*
X111115000Y-62814344D01*
X111115000Y-63185656D01*
X111187439Y-63549834D01*
X111329534Y-63892882D01*
X111535825Y-64201618D01*
X111798382Y-64464175D01*
X112107118Y-64670466D01*
X112450166Y-64812561D01*
X112814344Y-64885000D01*
X113185656Y-64885000D01*
X113549834Y-64812561D01*
X113892882Y-64670466D01*
X114201618Y-64464175D01*
X114464175Y-64201618D01*
X114670466Y-63892882D01*
X114812561Y-63549834D01*
X114885000Y-63185656D01*
X114885000Y-62814344D01*
X114812561Y-62450166D01*
X114670466Y-62107118D01*
X114464175Y-61798382D01*
X114201618Y-61535825D01*
X113892882Y-61329534D01*
X113549834Y-61187439D01*
X113185656Y-61115000D01*
X112814344Y-61115000D01*
X112450166Y-61187439D01*
X112107118Y-61329534D01*
X111798382Y-61535825D01*
X111535825Y-61798382D01*
X111329534Y-62107118D01*
X111187439Y-62450166D01*
X111115000Y-62814344D01*
X55088072Y-62814344D01*
X55088072Y-61150000D01*
X55075812Y-61025518D01*
X55039502Y-60905820D01*
X55016929Y-60863589D01*
X58415000Y-60863589D01*
X58415000Y-61136411D01*
X58468225Y-61403989D01*
X58572629Y-61656043D01*
X58724201Y-61882886D01*
X58917114Y-62075799D01*
X59143957Y-62227371D01*
X59396011Y-62331775D01*
X59663589Y-62385000D01*
X59936411Y-62385000D01*
X60203989Y-62331775D01*
X60456043Y-62227371D01*
X60682886Y-62075799D01*
X60875799Y-61882886D01*
X61027371Y-61656043D01*
X61131775Y-61403989D01*
X61185000Y-61136411D01*
X61185000Y-60863589D01*
X63295000Y-60863589D01*
X63295000Y-61136411D01*
X63348225Y-61403989D01*
X63452629Y-61656043D01*
X63604201Y-61882886D01*
X63797114Y-62075799D01*
X64023957Y-62227371D01*
X64276011Y-62331775D01*
X64543589Y-62385000D01*
X64816411Y-62385000D01*
X65083989Y-62331775D01*
X65336043Y-62227371D01*
X65562886Y-62075799D01*
X65755799Y-61882886D01*
X65907371Y-61656043D01*
X66011775Y-61403989D01*
X66065000Y-61136411D01*
X66065000Y-60863589D01*
X66011775Y-60596011D01*
X65907371Y-60343957D01*
X65755799Y-60117114D01*
X65562886Y-59924201D01*
X65336043Y-59772629D01*
X65083989Y-59668225D01*
X64816411Y-59615000D01*
X64543589Y-59615000D01*
X64276011Y-59668225D01*
X64023957Y-59772629D01*
X63797114Y-59924201D01*
X63604201Y-60117114D01*
X63452629Y-60343957D01*
X63348225Y-60596011D01*
X63295000Y-60863589D01*
X61185000Y-60863589D01*
X61131775Y-60596011D01*
X61027371Y-60343957D01*
X60875799Y-60117114D01*
X60682886Y-59924201D01*
X60456043Y-59772629D01*
X60203989Y-59668225D01*
X59936411Y-59615000D01*
X59663589Y-59615000D01*
X59396011Y-59668225D01*
X59143957Y-59772629D01*
X58917114Y-59924201D01*
X58724201Y-60117114D01*
X58572629Y-60343957D01*
X58468225Y-60596011D01*
X58415000Y-60863589D01*
X55016929Y-60863589D01*
X54980537Y-60795506D01*
X54901185Y-60698815D01*
X54804494Y-60619463D01*
X54694180Y-60560498D01*
X54621620Y-60538487D01*
X54753475Y-60406632D01*
X54915990Y-60163411D01*
X55027932Y-59893158D01*
X55085000Y-59606260D01*
X55085000Y-59313740D01*
X55027932Y-59026842D01*
X54915990Y-58756589D01*
X54753475Y-58513368D01*
X54546632Y-58306525D01*
X54372240Y-58190000D01*
X54546632Y-58073475D01*
X54753475Y-57866632D01*
X54915990Y-57623411D01*
X55027932Y-57353158D01*
X55085000Y-57066260D01*
X55085000Y-56773740D01*
X55027932Y-56486842D01*
X54915990Y-56216589D01*
X54753475Y-55973368D01*
X54546632Y-55766525D01*
X54372240Y-55650000D01*
X54546632Y-55533475D01*
X54753475Y-55326632D01*
X54871496Y-55150000D01*
X107511928Y-55150000D01*
X107511928Y-56850000D01*
X107524188Y-56974482D01*
X107560498Y-57094180D01*
X107619463Y-57204494D01*
X107698815Y-57301185D01*
X107795506Y-57380537D01*
X107905820Y-57439502D01*
X108025518Y-57475812D01*
X108150000Y-57488072D01*
X109850000Y-57488072D01*
X109974482Y-57475812D01*
X110094180Y-57439502D01*
X110204494Y-57380537D01*
X110301185Y-57301185D01*
X110380537Y-57204494D01*
X110439502Y-57094180D01*
X110475812Y-56974482D01*
X110488072Y-56850000D01*
X110488072Y-55150000D01*
X110475812Y-55025518D01*
X110439502Y-54905820D01*
X110380537Y-54795506D01*
X110301185Y-54698815D01*
X110204494Y-54619463D01*
X110094180Y-54560498D01*
X110021620Y-54538487D01*
X110153475Y-54406632D01*
X110315990Y-54163411D01*
X110427932Y-53893158D01*
X110485000Y-53606260D01*
X110485000Y-53313740D01*
X110427932Y-53026842D01*
X110315990Y-52756589D01*
X110153475Y-52513368D01*
X109946632Y-52306525D01*
X109703411Y-52144010D01*
X109433158Y-52032068D01*
X109146260Y-51975000D01*
X108853740Y-51975000D01*
X108566842Y-52032068D01*
X108296589Y-52144010D01*
X108053368Y-52306525D01*
X107846525Y-52513368D01*
X107684010Y-52756589D01*
X107572068Y-53026842D01*
X107515000Y-53313740D01*
X107515000Y-53606260D01*
X107572068Y-53893158D01*
X107684010Y-54163411D01*
X107846525Y-54406632D01*
X107978380Y-54538487D01*
X107905820Y-54560498D01*
X107795506Y-54619463D01*
X107698815Y-54698815D01*
X107619463Y-54795506D01*
X107560498Y-54905820D01*
X107524188Y-55025518D01*
X107511928Y-55150000D01*
X54871496Y-55150000D01*
X54915990Y-55083411D01*
X55027932Y-54813158D01*
X55085000Y-54526260D01*
X55085000Y-54233740D01*
X55027932Y-53946842D01*
X54915990Y-53676589D01*
X54753475Y-53433368D01*
X54546632Y-53226525D01*
X54372240Y-53110000D01*
X54546632Y-52993475D01*
X54753475Y-52786632D01*
X54915990Y-52543411D01*
X55027932Y-52273158D01*
X55085000Y-51986260D01*
X55085000Y-51693740D01*
X55027932Y-51406842D01*
X54915990Y-51136589D01*
X54753475Y-50893368D01*
X54546632Y-50686525D01*
X54303411Y-50524010D01*
X54033158Y-50412068D01*
X53746260Y-50355000D01*
X53453740Y-50355000D01*
X53166842Y-50412068D01*
X52896589Y-50524010D01*
X52653368Y-50686525D01*
X52446525Y-50893368D01*
X52328900Y-51069406D01*
X52157588Y-50839731D01*
X51941355Y-50644822D01*
X51691252Y-50495843D01*
X51416891Y-50398519D01*
X51187000Y-50519186D01*
X51187000Y-51713000D01*
X51207000Y-51713000D01*
X51207000Y-51967000D01*
X51187000Y-51967000D01*
X51187000Y-54253000D01*
X51207000Y-54253000D01*
X51207000Y-54507000D01*
X51187000Y-54507000D01*
X51187000Y-56793000D01*
X51207000Y-56793000D01*
X51207000Y-57047000D01*
X51187000Y-57047000D01*
X51187000Y-59333000D01*
X51207000Y-59333000D01*
X51207000Y-59587000D01*
X51187000Y-59587000D01*
X51187000Y-59607000D01*
X50933000Y-59607000D01*
X50933000Y-59587000D01*
X49739845Y-59587000D01*
X49618524Y-59816890D01*
X49663175Y-59964099D01*
X49788359Y-60226920D01*
X49962412Y-60460269D01*
X50178645Y-60655178D01*
X50295534Y-60724805D01*
X50113368Y-60846525D01*
X49906525Y-61053368D01*
X49744010Y-61296589D01*
X49632068Y-61566842D01*
X49575000Y-61853740D01*
X46501165Y-61853740D01*
X46464175Y-61798382D01*
X46201618Y-61535825D01*
X45892882Y-61329534D01*
X45549834Y-61187439D01*
X45185656Y-61115000D01*
X44814344Y-61115000D01*
X44450166Y-61187439D01*
X44107118Y-61329534D01*
X43798382Y-61535825D01*
X43535825Y-61798382D01*
X43329534Y-62107118D01*
X43187439Y-62450166D01*
X43115000Y-62814344D01*
X26885000Y-62814344D01*
X26812561Y-62450166D01*
X26670466Y-62107118D01*
X26464175Y-61798382D01*
X26201618Y-61535825D01*
X25892882Y-61329534D01*
X25549834Y-61187439D01*
X25185656Y-61115000D01*
X24814344Y-61115000D01*
X24450166Y-61187439D01*
X24107118Y-61329534D01*
X23798382Y-61535825D01*
X23535825Y-61798382D01*
X23329534Y-62107118D01*
X23187439Y-62450166D01*
X23115000Y-62814344D01*
X19885000Y-62814344D01*
X19812561Y-62450166D01*
X19670466Y-62107118D01*
X19464175Y-61798382D01*
X19201618Y-61535825D01*
X18892882Y-61329534D01*
X18549834Y-61187439D01*
X18185656Y-61115000D01*
X17814344Y-61115000D01*
X17450166Y-61187439D01*
X17107118Y-61329534D01*
X16798382Y-61535825D01*
X16685000Y-61649207D01*
X16685000Y-57276890D01*
X49618524Y-57276890D01*
X49663175Y-57424099D01*
X49788359Y-57686920D01*
X49962412Y-57920269D01*
X50178645Y-58115178D01*
X50304255Y-58190000D01*
X50178645Y-58264822D01*
X49962412Y-58459731D01*
X49788359Y-58693080D01*
X49663175Y-58955901D01*
X49618524Y-59103110D01*
X49739845Y-59333000D01*
X50933000Y-59333000D01*
X50933000Y-57047000D01*
X49739845Y-57047000D01*
X49618524Y-57276890D01*
X16685000Y-57276890D01*
X16685000Y-54736890D01*
X49618524Y-54736890D01*
X49663175Y-54884099D01*
X49788359Y-55146920D01*
X49962412Y-55380269D01*
X50178645Y-55575178D01*
X50304255Y-55650000D01*
X50178645Y-55724822D01*
X49962412Y-55919731D01*
X49788359Y-56153080D01*
X49663175Y-56415901D01*
X49618524Y-56563110D01*
X49739845Y-56793000D01*
X50933000Y-56793000D01*
X50933000Y-54507000D01*
X49739845Y-54507000D01*
X49618524Y-54736890D01*
X16685000Y-54736890D01*
X16685000Y-52196890D01*
X49618524Y-52196890D01*
X49663175Y-52344099D01*
X49788359Y-52606920D01*
X49962412Y-52840269D01*
X50178645Y-53035178D01*
X50304255Y-53110000D01*
X50178645Y-53184822D01*
X49962412Y-53379731D01*
X49788359Y-53613080D01*
X49663175Y-53875901D01*
X49618524Y-54023110D01*
X49739845Y-54253000D01*
X50933000Y-54253000D01*
X50933000Y-51967000D01*
X49739845Y-51967000D01*
X49618524Y-52196890D01*
X16685000Y-52196890D01*
X16685000Y-51483110D01*
X49618524Y-51483110D01*
X49739845Y-51713000D01*
X50933000Y-51713000D01*
X50933000Y-50519186D01*
X50703109Y-50398519D01*
X50428748Y-50495843D01*
X50178645Y-50644822D01*
X49962412Y-50839731D01*
X49788359Y-51073080D01*
X49663175Y-51335901D01*
X49618524Y-51483110D01*
X16685000Y-51483110D01*
X16685000Y-45598061D01*
X51165000Y-45598061D01*
X51165000Y-45801939D01*
X51204774Y-46001898D01*
X51282795Y-46190256D01*
X51396063Y-46359774D01*
X51540226Y-46503937D01*
X51709744Y-46617205D01*
X51898102Y-46695226D01*
X52098061Y-46735000D01*
X52301939Y-46735000D01*
X52501898Y-46695226D01*
X52690256Y-46617205D01*
X52859774Y-46503937D01*
X53003937Y-46359774D01*
X53117205Y-46190256D01*
X53195226Y-46001898D01*
X53235000Y-45801939D01*
X53235000Y-45598061D01*
X53195226Y-45398102D01*
X53160510Y-45314291D01*
X54140004Y-44334797D01*
X54140005Y-45496292D01*
X54096067Y-45540230D01*
X53982799Y-45709748D01*
X53904778Y-45898106D01*
X53865004Y-46098065D01*
X53865004Y-46301943D01*
X53904778Y-46501902D01*
X53982799Y-46690260D01*
X54096067Y-46859778D01*
X54240230Y-47003941D01*
X54409748Y-47117209D01*
X54598106Y-47195230D01*
X54798065Y-47235004D01*
X55001943Y-47235004D01*
X55201902Y-47195230D01*
X55265001Y-47169093D01*
X55265001Y-51487679D01*
X55261325Y-51525001D01*
X55265001Y-51562323D01*
X55265001Y-51562333D01*
X55275998Y-51673986D01*
X55319455Y-51817247D01*
X55390027Y-51949277D01*
X55411138Y-51975000D01*
X55485000Y-52065002D01*
X55514004Y-52088805D01*
X56165000Y-52739802D01*
X56165000Y-52801939D01*
X56204774Y-53001898D01*
X56282795Y-53190256D01*
X56396063Y-53359774D01*
X56540226Y-53503937D01*
X56709744Y-53617205D01*
X56898102Y-53695226D01*
X57098061Y-53735000D01*
X57301939Y-53735000D01*
X57501898Y-53695226D01*
X57690256Y-53617205D01*
X57859774Y-53503937D01*
X58003937Y-53359774D01*
X58117205Y-53190256D01*
X58195226Y-53001898D01*
X58235000Y-52801939D01*
X58235000Y-52598061D01*
X58195226Y-52398102D01*
X58117205Y-52209744D01*
X58003937Y-52040226D01*
X57859774Y-51896063D01*
X57690256Y-51782795D01*
X57501898Y-51704774D01*
X57301939Y-51665000D01*
X57239802Y-51665000D01*
X56785001Y-51210200D01*
X56785001Y-42989800D01*
X57624801Y-42150000D01*
X107511928Y-42150000D01*
X107511928Y-43850000D01*
X107524188Y-43974482D01*
X107560498Y-44094180D01*
X107619463Y-44204494D01*
X107698815Y-44301185D01*
X107795506Y-44380537D01*
X107905820Y-44439502D01*
X108025518Y-44475812D01*
X108150000Y-44488072D01*
X109850000Y-44488072D01*
X109974482Y-44475812D01*
X110094180Y-44439502D01*
X110204494Y-44380537D01*
X110301185Y-44301185D01*
X110380537Y-44204494D01*
X110439502Y-44094180D01*
X110475812Y-43974482D01*
X110488072Y-43850000D01*
X110488072Y-42150000D01*
X110475812Y-42025518D01*
X110439502Y-41905820D01*
X110380537Y-41795506D01*
X110301185Y-41698815D01*
X110204494Y-41619463D01*
X110094180Y-41560498D01*
X110013534Y-41536034D01*
X110097588Y-41460269D01*
X110271641Y-41226920D01*
X110396825Y-40964099D01*
X110441476Y-40816890D01*
X110320155Y-40587000D01*
X109127000Y-40587000D01*
X109127000Y-40607000D01*
X108873000Y-40607000D01*
X108873000Y-40587000D01*
X107679845Y-40587000D01*
X107558524Y-40816890D01*
X107603175Y-40964099D01*
X107728359Y-41226920D01*
X107902412Y-41460269D01*
X107986466Y-41536034D01*
X107905820Y-41560498D01*
X107795506Y-41619463D01*
X107698815Y-41698815D01*
X107619463Y-41795506D01*
X107560498Y-41905820D01*
X107524188Y-42025518D01*
X107511928Y-42150000D01*
X57624801Y-42150000D01*
X59671691Y-40103110D01*
X107558524Y-40103110D01*
X107679845Y-40333000D01*
X108873000Y-40333000D01*
X108873000Y-39139186D01*
X109127000Y-39139186D01*
X109127000Y-40333000D01*
X110320155Y-40333000D01*
X110441476Y-40103110D01*
X110396825Y-39955901D01*
X110271641Y-39693080D01*
X110097588Y-39459731D01*
X109881355Y-39264822D01*
X109631252Y-39115843D01*
X109356891Y-39018519D01*
X109127000Y-39139186D01*
X108873000Y-39139186D01*
X108643109Y-39018519D01*
X108368748Y-39115843D01*
X108118645Y-39264822D01*
X107902412Y-39459731D01*
X107728359Y-39693080D01*
X107603175Y-39955901D01*
X107558524Y-40103110D01*
X59671691Y-40103110D01*
X60958593Y-38816209D01*
X61109744Y-38917205D01*
X61298102Y-38995226D01*
X61498061Y-39035000D01*
X61701939Y-39035000D01*
X61901898Y-38995226D01*
X62090256Y-38917205D01*
X62259774Y-38803937D01*
X62403937Y-38659774D01*
X62517205Y-38490256D01*
X62595226Y-38301898D01*
X62635000Y-38101939D01*
X62635000Y-37898061D01*
X62595226Y-37698102D01*
X62517205Y-37509744D01*
X62403937Y-37340226D01*
X62313712Y-37250001D01*
X62403939Y-37159774D01*
X62517207Y-36990256D01*
X62595228Y-36801898D01*
X62635002Y-36601939D01*
X62635002Y-36398061D01*
X62595228Y-36198102D01*
X62517207Y-36009744D01*
X62403939Y-35840226D01*
X62259776Y-35696063D01*
X62090258Y-35582795D01*
X61901900Y-35504774D01*
X61701941Y-35465000D01*
X61498063Y-35465000D01*
X61298104Y-35504774D01*
X61109746Y-35582795D01*
X60950002Y-35689532D01*
X60790256Y-35582794D01*
X60688742Y-35540745D01*
X60753158Y-35527932D01*
X61023411Y-35415990D01*
X61266632Y-35253475D01*
X61473475Y-35046632D01*
X61590000Y-34872240D01*
X61706525Y-35046632D01*
X61913368Y-35253475D01*
X62156589Y-35415990D01*
X62426842Y-35527932D01*
X62713740Y-35585000D01*
X63006260Y-35585000D01*
X63293158Y-35527932D01*
X63563411Y-35415990D01*
X63806632Y-35253475D01*
X63938487Y-35121620D01*
X63960498Y-35194180D01*
X64019463Y-35304494D01*
X64098815Y-35401185D01*
X64195506Y-35480537D01*
X64305820Y-35539502D01*
X64425518Y-35575812D01*
X64550000Y-35588072D01*
X66250000Y-35588072D01*
X66374482Y-35575812D01*
X66494180Y-35539502D01*
X66604494Y-35480537D01*
X66701185Y-35401185D01*
X66780537Y-35304494D01*
X66839502Y-35194180D01*
X66875812Y-35074482D01*
X66888072Y-34950000D01*
X66888072Y-33350000D01*
X70011928Y-33350000D01*
X70011928Y-35050000D01*
X70024188Y-35174482D01*
X70060498Y-35294180D01*
X70119463Y-35404494D01*
X70198815Y-35501185D01*
X70295506Y-35580537D01*
X70405820Y-35639502D01*
X70525518Y-35675812D01*
X70650000Y-35688072D01*
X72350000Y-35688072D01*
X72474482Y-35675812D01*
X72594180Y-35639502D01*
X72704494Y-35580537D01*
X72801185Y-35501185D01*
X72880537Y-35404494D01*
X72939502Y-35294180D01*
X72961513Y-35221620D01*
X73093368Y-35353475D01*
X73336589Y-35515990D01*
X73606842Y-35627932D01*
X73893740Y-35685000D01*
X74186260Y-35685000D01*
X74473158Y-35627932D01*
X74743411Y-35515990D01*
X74986632Y-35353475D01*
X75193475Y-35146632D01*
X75310000Y-34972240D01*
X75426525Y-35146632D01*
X75633368Y-35353475D01*
X75876589Y-35515990D01*
X76146842Y-35627932D01*
X76433740Y-35685000D01*
X76726260Y-35685000D01*
X77013158Y-35627932D01*
X77283411Y-35515990D01*
X77526632Y-35353475D01*
X77733475Y-35146632D01*
X77850000Y-34972240D01*
X77966525Y-35146632D01*
X78173368Y-35353475D01*
X78416589Y-35515990D01*
X78686842Y-35627932D01*
X78973740Y-35685000D01*
X79266260Y-35685000D01*
X79553158Y-35627932D01*
X79823411Y-35515990D01*
X80066632Y-35353475D01*
X80273475Y-35146632D01*
X80395195Y-34964466D01*
X80464822Y-35081355D01*
X80659731Y-35297588D01*
X80893080Y-35471641D01*
X81155901Y-35596825D01*
X81303110Y-35641476D01*
X81533000Y-35520155D01*
X81533000Y-34327000D01*
X81513000Y-34327000D01*
X81513000Y-34073000D01*
X81533000Y-34073000D01*
X81533000Y-32879845D01*
X81787000Y-32879845D01*
X81787000Y-34073000D01*
X81807000Y-34073000D01*
X81807000Y-34327000D01*
X81787000Y-34327000D01*
X81787000Y-35520155D01*
X82016890Y-35641476D01*
X82164099Y-35596825D01*
X82426920Y-35471641D01*
X82660269Y-35297588D01*
X82855178Y-35081355D01*
X82924805Y-34964466D01*
X83046525Y-35146632D01*
X83253368Y-35353475D01*
X83496589Y-35515990D01*
X83766842Y-35627932D01*
X84053740Y-35685000D01*
X84346260Y-35685000D01*
X84633158Y-35627932D01*
X84903411Y-35515990D01*
X85146632Y-35353475D01*
X85353475Y-35146632D01*
X85515990Y-34903411D01*
X85552882Y-34814344D01*
X111115000Y-34814344D01*
X111115000Y-35185656D01*
X111187439Y-35549834D01*
X111329534Y-35892882D01*
X111535825Y-36201618D01*
X111798382Y-36464175D01*
X112107118Y-36670466D01*
X112450166Y-36812561D01*
X112814344Y-36885000D01*
X113185656Y-36885000D01*
X113549834Y-36812561D01*
X113892882Y-36670466D01*
X114201618Y-36464175D01*
X114464175Y-36201618D01*
X114670466Y-35892882D01*
X114812561Y-35549834D01*
X114885000Y-35185656D01*
X114885000Y-34814344D01*
X114812561Y-34450166D01*
X114670466Y-34107118D01*
X114464175Y-33798382D01*
X114201618Y-33535825D01*
X113892882Y-33329534D01*
X113549834Y-33187439D01*
X113185656Y-33115000D01*
X112814344Y-33115000D01*
X112450166Y-33187439D01*
X112107118Y-33329534D01*
X111798382Y-33535825D01*
X111535825Y-33798382D01*
X111329534Y-34107118D01*
X111187439Y-34450166D01*
X111115000Y-34814344D01*
X85552882Y-34814344D01*
X85627932Y-34633158D01*
X85685000Y-34346260D01*
X85685000Y-34053740D01*
X85627932Y-33766842D01*
X85515990Y-33496589D01*
X85353475Y-33253368D01*
X85146632Y-33046525D01*
X84903411Y-32884010D01*
X84633158Y-32772068D01*
X84346260Y-32715000D01*
X84053740Y-32715000D01*
X83766842Y-32772068D01*
X83496589Y-32884010D01*
X83253368Y-33046525D01*
X83046525Y-33253368D01*
X82924805Y-33435534D01*
X82855178Y-33318645D01*
X82660269Y-33102412D01*
X82426920Y-32928359D01*
X82164099Y-32803175D01*
X82016890Y-32758524D01*
X81787000Y-32879845D01*
X81533000Y-32879845D01*
X81303110Y-32758524D01*
X81155901Y-32803175D01*
X80893080Y-32928359D01*
X80659731Y-33102412D01*
X80464822Y-33318645D01*
X80395195Y-33435534D01*
X80273475Y-33253368D01*
X80066632Y-33046525D01*
X79823411Y-32884010D01*
X79553158Y-32772068D01*
X79266260Y-32715000D01*
X78973740Y-32715000D01*
X78686842Y-32772068D01*
X78416589Y-32884010D01*
X78173368Y-33046525D01*
X77966525Y-33253368D01*
X77850000Y-33427760D01*
X77733475Y-33253368D01*
X77526632Y-33046525D01*
X77283411Y-32884010D01*
X77013158Y-32772068D01*
X76726260Y-32715000D01*
X76433740Y-32715000D01*
X76146842Y-32772068D01*
X75876589Y-32884010D01*
X75633368Y-33046525D01*
X75426525Y-33253368D01*
X75310000Y-33427760D01*
X75193475Y-33253368D01*
X74986632Y-33046525D01*
X74743411Y-32884010D01*
X74473158Y-32772068D01*
X74186260Y-32715000D01*
X73893740Y-32715000D01*
X73606842Y-32772068D01*
X73336589Y-32884010D01*
X73093368Y-33046525D01*
X72961513Y-33178380D01*
X72939502Y-33105820D01*
X72880537Y-32995506D01*
X72801185Y-32898815D01*
X72704494Y-32819463D01*
X72594180Y-32760498D01*
X72474482Y-32724188D01*
X72350000Y-32711928D01*
X70650000Y-32711928D01*
X70525518Y-32724188D01*
X70405820Y-32760498D01*
X70295506Y-32819463D01*
X70198815Y-32898815D01*
X70119463Y-32995506D01*
X70060498Y-33105820D01*
X70024188Y-33225518D01*
X70011928Y-33350000D01*
X66888072Y-33350000D01*
X66888072Y-33250000D01*
X66875812Y-33125518D01*
X66839502Y-33005820D01*
X66780537Y-32895506D01*
X66701185Y-32798815D01*
X66604494Y-32719463D01*
X66494180Y-32660498D01*
X66374482Y-32624188D01*
X66250000Y-32611928D01*
X64550000Y-32611928D01*
X64425518Y-32624188D01*
X64305820Y-32660498D01*
X64195506Y-32719463D01*
X64098815Y-32798815D01*
X64019463Y-32895506D01*
X63960498Y-33005820D01*
X63938487Y-33078380D01*
X63806632Y-32946525D01*
X63563411Y-32784010D01*
X63293158Y-32672068D01*
X63006260Y-32615000D01*
X62713740Y-32615000D01*
X62426842Y-32672068D01*
X62156589Y-32784010D01*
X61913368Y-32946525D01*
X61706525Y-33153368D01*
X61590000Y-33327760D01*
X61473475Y-33153368D01*
X61266632Y-32946525D01*
X61023411Y-32784010D01*
X60753158Y-32672068D01*
X60466260Y-32615000D01*
X60173740Y-32615000D01*
X59886842Y-32672068D01*
X59616589Y-32784010D01*
X59373368Y-32946525D01*
X59166525Y-33153368D01*
X59050000Y-33327760D01*
X58933475Y-33153368D01*
X58726632Y-32946525D01*
X58483411Y-32784010D01*
X58213158Y-32672068D01*
X57926260Y-32615000D01*
X57633740Y-32615000D01*
X57346842Y-32672068D01*
X57076589Y-32784010D01*
X56833368Y-32946525D01*
X56626525Y-33153368D01*
X56510000Y-33327760D01*
X56393475Y-33153368D01*
X56186632Y-32946525D01*
X55943411Y-32784010D01*
X55673158Y-32672068D01*
X55386260Y-32615000D01*
X55093740Y-32615000D01*
X54806842Y-32672068D01*
X54536589Y-32784010D01*
X54293368Y-32946525D01*
X54086525Y-33153368D01*
X53964805Y-33335534D01*
X53895178Y-33218645D01*
X53700269Y-33002412D01*
X53466920Y-32828359D01*
X53204099Y-32703175D01*
X53056890Y-32658524D01*
X52827000Y-32779845D01*
X52827000Y-33973000D01*
X52847000Y-33973000D01*
X52847000Y-34227000D01*
X52827000Y-34227000D01*
X52827000Y-35420155D01*
X53056890Y-35541476D01*
X53204099Y-35496825D01*
X53466920Y-35371641D01*
X53700269Y-35197588D01*
X53895178Y-34981355D01*
X53964805Y-34864466D01*
X54086525Y-35046632D01*
X54293368Y-35253475D01*
X54536589Y-35415990D01*
X54806842Y-35527932D01*
X55093740Y-35585000D01*
X55386260Y-35585000D01*
X55673158Y-35527932D01*
X55943411Y-35415990D01*
X56186632Y-35253475D01*
X56393475Y-35046632D01*
X56510000Y-34872240D01*
X56626525Y-35046632D01*
X56833368Y-35253475D01*
X57076589Y-35415990D01*
X57346842Y-35527932D01*
X57633740Y-35585000D01*
X57926260Y-35585000D01*
X58213158Y-35527932D01*
X58483411Y-35415990D01*
X58726632Y-35253475D01*
X58933475Y-35046632D01*
X59050000Y-34872240D01*
X59166525Y-35046632D01*
X59373368Y-35253475D01*
X59616589Y-35415990D01*
X59886842Y-35527932D01*
X59924235Y-35535370D01*
X59809744Y-35582794D01*
X59640226Y-35696062D01*
X59496063Y-35840225D01*
X59382795Y-36009743D01*
X59304774Y-36198101D01*
X59265000Y-36398060D01*
X59265000Y-36475773D01*
X59252050Y-36500001D01*
X59194455Y-36607751D01*
X59150998Y-36751012D01*
X59140001Y-36862665D01*
X59140001Y-36862676D01*
X59136325Y-36899998D01*
X59140001Y-36937320D01*
X59140001Y-37185197D01*
X51575913Y-44749286D01*
X51534389Y-44786887D01*
X51500794Y-44832142D01*
X51465026Y-44875724D01*
X51456248Y-44892147D01*
X51445153Y-44907092D01*
X51421035Y-44958025D01*
X51394454Y-45007754D01*
X51389048Y-45025574D01*
X51381083Y-45042396D01*
X51372944Y-45074827D01*
X51282795Y-45209744D01*
X51204774Y-45398102D01*
X51165000Y-45598061D01*
X16685000Y-45598061D01*
X16685000Y-43150000D01*
X48011928Y-43150000D01*
X48024188Y-43274482D01*
X48060498Y-43394180D01*
X48119463Y-43504494D01*
X48198815Y-43601185D01*
X48295506Y-43680537D01*
X48405820Y-43739502D01*
X48525518Y-43775812D01*
X48650000Y-43788072D01*
X49214250Y-43785000D01*
X49373000Y-43626250D01*
X49373000Y-42427000D01*
X49627000Y-42427000D01*
X49627000Y-43626250D01*
X49785750Y-43785000D01*
X50350000Y-43788072D01*
X50474482Y-43775812D01*
X50594180Y-43739502D01*
X50704494Y-43680537D01*
X50801185Y-43601185D01*
X50880537Y-43504494D01*
X50939502Y-43394180D01*
X50975812Y-43274482D01*
X50988072Y-43150000D01*
X50985000Y-42585750D01*
X50826250Y-42427000D01*
X49627000Y-42427000D01*
X49373000Y-42427000D01*
X48173750Y-42427000D01*
X48015000Y-42585750D01*
X48011928Y-43150000D01*
X16685000Y-43150000D01*
X16685000Y-41450000D01*
X48011928Y-41450000D01*
X48015000Y-42014250D01*
X48173750Y-42173000D01*
X49373000Y-42173000D01*
X49373000Y-42153000D01*
X49627000Y-42153000D01*
X49627000Y-42173000D01*
X50826250Y-42173000D01*
X50985000Y-42014250D01*
X50988072Y-41450000D01*
X50975812Y-41325518D01*
X50939502Y-41205820D01*
X50880537Y-41095506D01*
X50801185Y-40998815D01*
X50704494Y-40919463D01*
X50594180Y-40860498D01*
X50521620Y-40838487D01*
X50653475Y-40706632D01*
X50815990Y-40463411D01*
X50927932Y-40193158D01*
X50985000Y-39906260D01*
X50985000Y-39613740D01*
X50927932Y-39326842D01*
X50815990Y-39056589D01*
X50653475Y-38813368D01*
X50446632Y-38606525D01*
X50203411Y-38444010D01*
X49933158Y-38332068D01*
X49646260Y-38275000D01*
X49353740Y-38275000D01*
X49066842Y-38332068D01*
X48796589Y-38444010D01*
X48553368Y-38606525D01*
X48346525Y-38813368D01*
X48184010Y-39056589D01*
X48072068Y-39326842D01*
X48015000Y-39613740D01*
X48015000Y-39906260D01*
X48072068Y-40193158D01*
X48184010Y-40463411D01*
X48346525Y-40706632D01*
X48478380Y-40838487D01*
X48405820Y-40860498D01*
X48295506Y-40919463D01*
X48198815Y-40998815D01*
X48119463Y-41095506D01*
X48060498Y-41205820D01*
X48024188Y-41325518D01*
X48011928Y-41450000D01*
X16685000Y-41450000D01*
X16685000Y-36350793D01*
X16798382Y-36464175D01*
X17107118Y-36670466D01*
X17450166Y-36812561D01*
X17814344Y-36885000D01*
X18185656Y-36885000D01*
X18549834Y-36812561D01*
X18892882Y-36670466D01*
X19201618Y-36464175D01*
X19464175Y-36201618D01*
X19670466Y-35892882D01*
X19812561Y-35549834D01*
X19885000Y-35185656D01*
X19885000Y-34814344D01*
X19813899Y-34456891D01*
X51258519Y-34456891D01*
X51355843Y-34731252D01*
X51504822Y-34981355D01*
X51699731Y-35197588D01*
X51933080Y-35371641D01*
X52195901Y-35496825D01*
X52343110Y-35541476D01*
X52573000Y-35420155D01*
X52573000Y-34227000D01*
X51379186Y-34227000D01*
X51258519Y-34456891D01*
X19813899Y-34456891D01*
X19812561Y-34450166D01*
X19670466Y-34107118D01*
X19464175Y-33798382D01*
X19408902Y-33743109D01*
X51258519Y-33743109D01*
X51379186Y-33973000D01*
X52573000Y-33973000D01*
X52573000Y-32779845D01*
X52343110Y-32658524D01*
X52195901Y-32703175D01*
X51933080Y-32828359D01*
X51699731Y-33002412D01*
X51504822Y-33218645D01*
X51355843Y-33468748D01*
X51258519Y-33743109D01*
X19408902Y-33743109D01*
X19201618Y-33535825D01*
X18892882Y-33329534D01*
X18549834Y-33187439D01*
X18185656Y-33115000D01*
X17814344Y-33115000D01*
X17450166Y-33187439D01*
X17107118Y-33329534D01*
X16798382Y-33535825D01*
X16685000Y-33649207D01*
X16685000Y-30685000D01*
X115315000Y-30685000D01*
X115315001Y-67315000D01*
M02*
