G04 #@! TF.GenerationSoftware,KiCad,Pcbnew,(5.1.5-0-10_14)*
G04 #@! TF.CreationDate,2020-05-10T22:12:37+02:00*
G04 #@! TF.ProjectId,sensor,73656e73-6f72-42e6-9b69-6361645f7063,rev?*
G04 #@! TF.SameCoordinates,Original*
G04 #@! TF.FileFunction,Legend,Top*
G04 #@! TF.FilePolarity,Positive*
%FSLAX46Y46*%
G04 Gerber Fmt 4.6, Leading zero omitted, Abs format (unit mm)*
G04 Created by KiCad (PCBNEW (5.1.5-0-10_14)) date 2020-05-10 22:12:37*
%MOMM*%
%LPD*%
G04 APERTURE LIST*
%ADD10C,0.120000*%
%ADD11C,0.300000*%
%ADD12C,0.100000*%
%ADD13C,0.150000*%
G04 APERTURE END LIST*
D10*
X89500000Y-37000000D02*
X89500000Y-37500000D01*
X89500000Y-51000000D02*
X89500000Y-37000000D01*
X107000000Y-51000000D02*
X89500000Y-51000000D01*
D11*
X39021428Y-33528571D02*
X40521428Y-33528571D01*
X39021428Y-34171428D02*
X39807142Y-34171428D01*
X39950000Y-34100000D01*
X40021428Y-33957142D01*
X40021428Y-33742857D01*
X39950000Y-33600000D01*
X39878571Y-33528571D01*
X40021428Y-34671428D02*
X40021428Y-35242857D01*
X40521428Y-34885714D02*
X39235714Y-34885714D01*
X39092857Y-34957142D01*
X39021428Y-35100000D01*
X39021428Y-35242857D01*
X40021428Y-35528571D02*
X40021428Y-36100000D01*
X40521428Y-35742857D02*
X39235714Y-35742857D01*
X39092857Y-35814285D01*
X39021428Y-35957142D01*
X39021428Y-36100000D01*
X40021428Y-36600000D02*
X38521428Y-36600000D01*
X39950000Y-36600000D02*
X40021428Y-36742857D01*
X40021428Y-37028571D01*
X39950000Y-37171428D01*
X39878571Y-37242857D01*
X39735714Y-37314285D01*
X39307142Y-37314285D01*
X39164285Y-37242857D01*
X39092857Y-37171428D01*
X39021428Y-37028571D01*
X39021428Y-36742857D01*
X39092857Y-36600000D01*
X39092857Y-37885714D02*
X39021428Y-38028571D01*
X39021428Y-38314285D01*
X39092857Y-38457142D01*
X39235714Y-38528571D01*
X39307142Y-38528571D01*
X39450000Y-38457142D01*
X39521428Y-38314285D01*
X39521428Y-38100000D01*
X39592857Y-37957142D01*
X39735714Y-37885714D01*
X39807142Y-37885714D01*
X39950000Y-37957142D01*
X40021428Y-38100000D01*
X40021428Y-38314285D01*
X39950000Y-38457142D01*
X39164285Y-39171428D02*
X39092857Y-39242857D01*
X39021428Y-39171428D01*
X39092857Y-39100000D01*
X39164285Y-39171428D01*
X39021428Y-39171428D01*
X39950000Y-39171428D02*
X39878571Y-39242857D01*
X39807142Y-39171428D01*
X39878571Y-39100000D01*
X39950000Y-39171428D01*
X39807142Y-39171428D01*
X40592857Y-40957142D02*
X38664285Y-39671428D01*
X40592857Y-42528571D02*
X38664285Y-41242857D01*
X40021428Y-43671428D02*
X38807142Y-43671428D01*
X38664285Y-43600000D01*
X38592857Y-43528571D01*
X38521428Y-43385714D01*
X38521428Y-43171428D01*
X38592857Y-43028571D01*
X39092857Y-43671428D02*
X39021428Y-43528571D01*
X39021428Y-43242857D01*
X39092857Y-43100000D01*
X39164285Y-43028571D01*
X39307142Y-42957142D01*
X39735714Y-42957142D01*
X39878571Y-43028571D01*
X39950000Y-43100000D01*
X40021428Y-43242857D01*
X40021428Y-43528571D01*
X39950000Y-43671428D01*
X39021428Y-44385714D02*
X40021428Y-44385714D01*
X40521428Y-44385714D02*
X40450000Y-44314285D01*
X40378571Y-44385714D01*
X40450000Y-44457142D01*
X40521428Y-44385714D01*
X40378571Y-44385714D01*
X40021428Y-44885714D02*
X40021428Y-45457142D01*
X40521428Y-45099999D02*
X39235714Y-45099999D01*
X39092857Y-45171428D01*
X39021428Y-45314285D01*
X39021428Y-45457142D01*
X39021428Y-45957142D02*
X40521428Y-45957142D01*
X39021428Y-46599999D02*
X39807142Y-46599999D01*
X39950000Y-46528571D01*
X40021428Y-46385714D01*
X40021428Y-46171428D01*
X39950000Y-46028571D01*
X39878571Y-45957142D01*
X40021428Y-47957142D02*
X39021428Y-47957142D01*
X40021428Y-47314285D02*
X39235714Y-47314285D01*
X39092857Y-47385714D01*
X39021428Y-47528571D01*
X39021428Y-47742857D01*
X39092857Y-47885714D01*
X39164285Y-47957142D01*
X39021428Y-48671428D02*
X40521428Y-48671428D01*
X39950000Y-48671428D02*
X40021428Y-48814285D01*
X40021428Y-49099999D01*
X39950000Y-49242857D01*
X39878571Y-49314285D01*
X39735714Y-49385714D01*
X39307142Y-49385714D01*
X39164285Y-49314285D01*
X39092857Y-49242857D01*
X39021428Y-49099999D01*
X39021428Y-48814285D01*
X39092857Y-48671428D01*
X39164285Y-50028571D02*
X39092857Y-50099999D01*
X39021428Y-50028571D01*
X39092857Y-49957142D01*
X39164285Y-50028571D01*
X39021428Y-50028571D01*
X39092857Y-51385714D02*
X39021428Y-51242857D01*
X39021428Y-50957142D01*
X39092857Y-50814285D01*
X39164285Y-50742857D01*
X39307142Y-50671428D01*
X39735714Y-50671428D01*
X39878571Y-50742857D01*
X39950000Y-50814285D01*
X40021428Y-50957142D01*
X40021428Y-51242857D01*
X39950000Y-51385714D01*
X39021428Y-52242857D02*
X39092857Y-52099999D01*
X39164285Y-52028571D01*
X39307142Y-51957142D01*
X39735714Y-51957142D01*
X39878571Y-52028571D01*
X39950000Y-52099999D01*
X40021428Y-52242857D01*
X40021428Y-52457142D01*
X39950000Y-52599999D01*
X39878571Y-52671428D01*
X39735714Y-52742857D01*
X39307142Y-52742857D01*
X39164285Y-52671428D01*
X39092857Y-52599999D01*
X39021428Y-52457142D01*
X39021428Y-52242857D01*
X39021428Y-53385714D02*
X40021428Y-53385714D01*
X39878571Y-53385714D02*
X39950000Y-53457142D01*
X40021428Y-53599999D01*
X40021428Y-53814285D01*
X39950000Y-53957142D01*
X39807142Y-54028571D01*
X39021428Y-54028571D01*
X39807142Y-54028571D02*
X39950000Y-54099999D01*
X40021428Y-54242857D01*
X40021428Y-54457142D01*
X39950000Y-54599999D01*
X39807142Y-54671428D01*
X39021428Y-54671428D01*
X40592857Y-56457142D02*
X38664285Y-55171428D01*
X39021428Y-57171428D02*
X39092857Y-57028571D01*
X39164285Y-56957142D01*
X39307142Y-56885714D01*
X39735714Y-56885714D01*
X39878571Y-56957142D01*
X39950000Y-57028571D01*
X40021428Y-57171428D01*
X40021428Y-57385714D01*
X39950000Y-57528571D01*
X39878571Y-57599999D01*
X39735714Y-57671428D01*
X39307142Y-57671428D01*
X39164285Y-57599999D01*
X39092857Y-57528571D01*
X39021428Y-57385714D01*
X39021428Y-57171428D01*
X39021428Y-58528571D02*
X39092857Y-58385714D01*
X39235714Y-58314285D01*
X40521428Y-58314285D01*
X39021428Y-59314285D02*
X39092857Y-59171428D01*
X39235714Y-59100000D01*
X40521428Y-59100000D01*
X39021428Y-59885714D02*
X40021428Y-59885714D01*
X40521428Y-59885714D02*
X40450000Y-59814285D01*
X40378571Y-59885714D01*
X40450000Y-59957142D01*
X40521428Y-59885714D01*
X40378571Y-59885714D01*
X39021428Y-60600000D02*
X40021428Y-60600000D01*
X40521428Y-60600000D02*
X40450000Y-60528571D01*
X40378571Y-60600000D01*
X40450000Y-60671428D01*
X40521428Y-60600000D01*
X40378571Y-60600000D01*
X39021428Y-61314285D02*
X40021428Y-61314285D01*
X40521428Y-61314285D02*
X40450000Y-61242857D01*
X40378571Y-61314285D01*
X40450000Y-61385714D01*
X40521428Y-61314285D01*
X40378571Y-61314285D01*
X40021428Y-61885714D02*
X39021428Y-62242857D01*
X40021428Y-62599999D01*
X39092857Y-63742857D02*
X39021428Y-63599999D01*
X39021428Y-63314285D01*
X39092857Y-63171428D01*
X39235714Y-63099999D01*
X39807142Y-63099999D01*
X39950000Y-63171428D01*
X40021428Y-63314285D01*
X40021428Y-63599999D01*
X39950000Y-63742857D01*
X39807142Y-63814285D01*
X39664285Y-63814285D01*
X39521428Y-63099999D01*
X39021428Y-64457142D02*
X40021428Y-64457142D01*
X39735714Y-64457142D02*
X39878571Y-64528571D01*
X39950000Y-64599999D01*
X40021428Y-64742857D01*
X40021428Y-64885714D01*
D12*
X49138095Y-61947619D02*
X49138095Y-61566666D01*
X48757142Y-61528571D01*
X48795238Y-61566666D01*
X48833333Y-61642857D01*
X48833333Y-61833333D01*
X48795238Y-61909523D01*
X48757142Y-61947619D01*
X48680952Y-61985714D01*
X48490476Y-61985714D01*
X48414285Y-61947619D01*
X48376190Y-61909523D01*
X48338095Y-61833333D01*
X48338095Y-61642857D01*
X48376190Y-61566666D01*
X48414285Y-61528571D01*
X49138095Y-62214285D02*
X48338095Y-62480952D01*
X49138095Y-62747619D01*
X49100000Y-58890476D02*
X49138095Y-58814285D01*
X49138095Y-58700000D01*
X49100000Y-58585714D01*
X49023809Y-58509523D01*
X48947619Y-58471428D01*
X48795238Y-58433333D01*
X48680952Y-58433333D01*
X48528571Y-58471428D01*
X48452380Y-58509523D01*
X48376190Y-58585714D01*
X48338095Y-58700000D01*
X48338095Y-58776190D01*
X48376190Y-58890476D01*
X48414285Y-58928571D01*
X48680952Y-58928571D01*
X48680952Y-58776190D01*
X48338095Y-59271428D02*
X49138095Y-59271428D01*
X48338095Y-59728571D01*
X49138095Y-59728571D01*
X48338095Y-60109523D02*
X49138095Y-60109523D01*
X49138095Y-60300000D01*
X49100000Y-60414285D01*
X49023809Y-60490476D01*
X48947619Y-60528571D01*
X48795238Y-60566666D01*
X48680952Y-60566666D01*
X48528571Y-60528571D01*
X48452380Y-60490476D01*
X48376190Y-60414285D01*
X48338095Y-60300000D01*
X48338095Y-60109523D01*
X46738095Y-38952380D02*
X47538095Y-38952380D01*
X46966666Y-39219047D01*
X47538095Y-39485714D01*
X46738095Y-39485714D01*
X46776190Y-40171428D02*
X46738095Y-40095238D01*
X46738095Y-39942857D01*
X46776190Y-39866666D01*
X46852380Y-39828571D01*
X47157142Y-39828571D01*
X47233333Y-39866666D01*
X47271428Y-39942857D01*
X47271428Y-40095238D01*
X47233333Y-40171428D01*
X47157142Y-40209523D01*
X47080952Y-40209523D01*
X47004761Y-39828571D01*
X46738095Y-40895238D02*
X47157142Y-40895238D01*
X47233333Y-40857142D01*
X47271428Y-40780952D01*
X47271428Y-40628571D01*
X47233333Y-40552380D01*
X46776190Y-40895238D02*
X46738095Y-40819047D01*
X46738095Y-40628571D01*
X46776190Y-40552380D01*
X46852380Y-40514285D01*
X46928571Y-40514285D01*
X47004761Y-40552380D01*
X47042857Y-40628571D01*
X47042857Y-40819047D01*
X47080952Y-40895238D01*
X46776190Y-41238095D02*
X46738095Y-41314285D01*
X46738095Y-41466666D01*
X46776190Y-41542857D01*
X46852380Y-41580952D01*
X46890476Y-41580952D01*
X46966666Y-41542857D01*
X47004761Y-41466666D01*
X47004761Y-41352380D01*
X47042857Y-41276190D01*
X47119047Y-41238095D01*
X47157142Y-41238095D01*
X47233333Y-41276190D01*
X47271428Y-41352380D01*
X47271428Y-41466666D01*
X47233333Y-41542857D01*
X47271428Y-42266666D02*
X46738095Y-42266666D01*
X47271428Y-41923809D02*
X46852380Y-41923809D01*
X46776190Y-41961904D01*
X46738095Y-42038095D01*
X46738095Y-42152380D01*
X46776190Y-42228571D01*
X46814285Y-42266666D01*
X46738095Y-42647619D02*
X47271428Y-42647619D01*
X47119047Y-42647619D02*
X47195238Y-42685714D01*
X47233333Y-42723809D01*
X47271428Y-42800000D01*
X47271428Y-42876190D01*
X46776190Y-43447619D02*
X46738095Y-43371428D01*
X46738095Y-43219047D01*
X46776190Y-43142857D01*
X46852380Y-43104761D01*
X47157142Y-43104761D01*
X47233333Y-43142857D01*
X47271428Y-43219047D01*
X47271428Y-43371428D01*
X47233333Y-43447619D01*
X47157142Y-43485714D01*
X47080952Y-43485714D01*
X47004761Y-43104761D01*
X78328571Y-31733333D02*
X78709523Y-31733333D01*
X78252380Y-31961904D02*
X78519047Y-31161904D01*
X78785714Y-31961904D01*
X79395238Y-31428571D02*
X79395238Y-31961904D01*
X79204761Y-31123809D02*
X79014285Y-31695238D01*
X79509523Y-31695238D01*
X76028571Y-31733333D02*
X76409523Y-31733333D01*
X75952380Y-31961904D02*
X76219047Y-31161904D01*
X76485714Y-31961904D01*
X76676190Y-31161904D02*
X77171428Y-31161904D01*
X76904761Y-31466666D01*
X77019047Y-31466666D01*
X77095238Y-31504761D01*
X77133333Y-31542857D01*
X77171428Y-31619047D01*
X77171428Y-31809523D01*
X77133333Y-31885714D01*
X77095238Y-31923809D01*
X77019047Y-31961904D01*
X76790476Y-31961904D01*
X76714285Y-31923809D01*
X76676190Y-31885714D01*
X73528571Y-31733333D02*
X73909523Y-31733333D01*
X73452380Y-31961904D02*
X73719047Y-31161904D01*
X73985714Y-31961904D01*
X74214285Y-31238095D02*
X74252380Y-31200000D01*
X74328571Y-31161904D01*
X74519047Y-31161904D01*
X74595238Y-31200000D01*
X74633333Y-31238095D01*
X74671428Y-31314285D01*
X74671428Y-31390476D01*
X74633333Y-31504761D01*
X74176190Y-31961904D01*
X74671428Y-31961904D01*
X70928571Y-31833333D02*
X71309523Y-31833333D01*
X70852380Y-32061904D02*
X71119047Y-31261904D01*
X71385714Y-32061904D01*
X72071428Y-32061904D02*
X71614285Y-32061904D01*
X71842857Y-32061904D02*
X71842857Y-31261904D01*
X71766666Y-31376190D01*
X71690476Y-31452380D01*
X71614285Y-31490476D01*
X80990476Y-31300000D02*
X80914285Y-31261904D01*
X80800000Y-31261904D01*
X80685714Y-31300000D01*
X80609523Y-31376190D01*
X80571428Y-31452380D01*
X80533333Y-31604761D01*
X80533333Y-31719047D01*
X80571428Y-31871428D01*
X80609523Y-31947619D01*
X80685714Y-32023809D01*
X80800000Y-32061904D01*
X80876190Y-32061904D01*
X80990476Y-32023809D01*
X81028571Y-31985714D01*
X81028571Y-31719047D01*
X80876190Y-31719047D01*
X81371428Y-32061904D02*
X81371428Y-31261904D01*
X81828571Y-32061904D01*
X81828571Y-31261904D01*
X82209523Y-32061904D02*
X82209523Y-31261904D01*
X82400000Y-31261904D01*
X82514285Y-31300000D01*
X82590476Y-31376190D01*
X82628571Y-31452380D01*
X82666666Y-31604761D01*
X82666666Y-31719047D01*
X82628571Y-31871428D01*
X82590476Y-31947619D01*
X82514285Y-32023809D01*
X82400000Y-32061904D01*
X82209523Y-32061904D01*
X84147619Y-31261904D02*
X83766666Y-31261904D01*
X83728571Y-31642857D01*
X83766666Y-31604761D01*
X83842857Y-31566666D01*
X84033333Y-31566666D01*
X84109523Y-31604761D01*
X84147619Y-31642857D01*
X84185714Y-31719047D01*
X84185714Y-31909523D01*
X84147619Y-31985714D01*
X84109523Y-32023809D01*
X84033333Y-32061904D01*
X83842857Y-32061904D01*
X83766666Y-32023809D01*
X83728571Y-31985714D01*
X84414285Y-31261904D02*
X84680952Y-32061904D01*
X84947619Y-31261904D01*
X57647619Y-31161904D02*
X57266666Y-31161904D01*
X57228571Y-31542857D01*
X57266666Y-31504761D01*
X57342857Y-31466666D01*
X57533333Y-31466666D01*
X57609523Y-31504761D01*
X57647619Y-31542857D01*
X57685714Y-31619047D01*
X57685714Y-31809523D01*
X57647619Y-31885714D01*
X57609523Y-31923809D01*
X57533333Y-31961904D01*
X57342857Y-31961904D01*
X57266666Y-31923809D01*
X57228571Y-31885714D01*
X57914285Y-31161904D02*
X58180952Y-31961904D01*
X58447619Y-31161904D01*
X51890476Y-31200000D02*
X51814285Y-31161904D01*
X51700000Y-31161904D01*
X51585714Y-31200000D01*
X51509523Y-31276190D01*
X51471428Y-31352380D01*
X51433333Y-31504761D01*
X51433333Y-31619047D01*
X51471428Y-31771428D01*
X51509523Y-31847619D01*
X51585714Y-31923809D01*
X51700000Y-31961904D01*
X51776190Y-31961904D01*
X51890476Y-31923809D01*
X51928571Y-31885714D01*
X51928571Y-31619047D01*
X51776190Y-31619047D01*
X52271428Y-31961904D02*
X52271428Y-31161904D01*
X52728571Y-31961904D01*
X52728571Y-31161904D01*
X53109523Y-31961904D02*
X53109523Y-31161904D01*
X53300000Y-31161904D01*
X53414285Y-31200000D01*
X53490476Y-31276190D01*
X53528571Y-31352380D01*
X53566666Y-31504761D01*
X53566666Y-31619047D01*
X53528571Y-31771428D01*
X53490476Y-31847619D01*
X53414285Y-31923809D01*
X53300000Y-31961904D01*
X53109523Y-31961904D01*
D10*
X105500000Y-50000000D02*
X105500000Y-45250000D01*
X95000000Y-50000000D02*
X105500000Y-50000000D01*
X95000000Y-45250000D02*
X95000000Y-50000000D01*
X105500000Y-45250000D02*
X95000000Y-45250000D01*
D13*
X111909523Y-56552380D02*
X111433333Y-56552380D01*
X111433333Y-55552380D01*
X111414285Y-53852380D02*
X111414285Y-52852380D01*
X111414285Y-53328571D02*
X111985714Y-53328571D01*
X111985714Y-53852380D02*
X111985714Y-52852380D01*
X111419047Y-40271428D02*
X112180952Y-40271428D01*
X111419047Y-43071428D02*
X112180952Y-43071428D01*
X111800000Y-43452380D02*
X111800000Y-42690476D01*
D10*
X87910000Y-41736252D02*
X87910000Y-41213748D01*
X86490000Y-41736252D02*
X86490000Y-41213748D01*
X54710000Y-40161252D02*
X54710000Y-39638748D01*
X53290000Y-40161252D02*
X53290000Y-39638748D01*
X50830000Y-43630000D02*
X49500000Y-43630000D01*
X50830000Y-42300000D02*
X50830000Y-43630000D01*
X50830000Y-41030000D02*
X48170000Y-41030000D01*
X48170000Y-41030000D02*
X48170000Y-38430000D01*
X50830000Y-41030000D02*
X50830000Y-38430000D01*
X50830000Y-38430000D02*
X48170000Y-38430000D01*
X65440000Y-63525000D02*
G75*
G03X65440000Y-58475000I0J2525000D01*
G01*
X59040000Y-63525000D02*
G75*
G02X59040000Y-58475000I0J2525000D01*
G01*
X59040000Y-63525000D02*
X65440000Y-63525000D01*
X59040000Y-58475000D02*
X65440000Y-58475000D01*
D13*
X73125000Y-45900000D02*
X71850000Y-45900000D01*
X87475000Y-45325000D02*
X86800000Y-45325000D01*
X87475000Y-59675000D02*
X86800000Y-59675000D01*
X73125000Y-59675000D02*
X73800000Y-59675000D01*
X73125000Y-45325000D02*
X73800000Y-45325000D01*
X73125000Y-59675000D02*
X73125000Y-59000000D01*
X87475000Y-59675000D02*
X87475000Y-59000000D01*
X87475000Y-45325000D02*
X87475000Y-46000000D01*
X73125000Y-45325000D02*
X73125000Y-45900000D01*
D10*
X95800000Y-57440000D02*
X92350000Y-57440000D01*
X95800000Y-57440000D02*
X97750000Y-57440000D01*
X95800000Y-62560000D02*
X93850000Y-62560000D01*
X95800000Y-62560000D02*
X97750000Y-62560000D01*
D13*
X95575000Y-39900000D02*
X94650000Y-39900000D01*
X95575000Y-43025000D02*
X98825000Y-43025000D01*
X95575000Y-39775000D02*
X98825000Y-39775000D01*
X95575000Y-43025000D02*
X95575000Y-42810000D01*
X98825000Y-43025000D02*
X98825000Y-42810000D01*
X98825000Y-39775000D02*
X98825000Y-39990000D01*
X95575000Y-39775000D02*
X95575000Y-39900000D01*
D10*
X104710000Y-54661252D02*
X104710000Y-54138748D01*
X103290000Y-54661252D02*
X103290000Y-54138748D01*
X63563748Y-48310000D02*
X64086252Y-48310000D01*
X63563748Y-46890000D02*
X64086252Y-46890000D01*
X62763748Y-51710000D02*
X63286252Y-51710000D01*
X62763748Y-50290000D02*
X63286252Y-50290000D01*
X102763748Y-48510000D02*
X103286252Y-48510000D01*
X102763748Y-47090000D02*
X103286252Y-47090000D01*
X96938748Y-48510000D02*
X97461252Y-48510000D01*
X96938748Y-47090000D02*
X97461252Y-47090000D01*
X52890000Y-47713748D02*
X52890000Y-48236252D01*
X54310000Y-47713748D02*
X54310000Y-48236252D01*
X102763748Y-43110000D02*
X103286252Y-43110000D01*
X102763748Y-41690000D02*
X103286252Y-41690000D01*
X69290000Y-42138748D02*
X69290000Y-42661252D01*
X70710000Y-42138748D02*
X70710000Y-42661252D01*
X110330000Y-44330000D02*
X109000000Y-44330000D01*
X110330000Y-43000000D02*
X110330000Y-44330000D01*
X110330000Y-41730000D02*
X107670000Y-41730000D01*
X107670000Y-41730000D02*
X107670000Y-39130000D01*
X110330000Y-41730000D02*
X110330000Y-39130000D01*
X110330000Y-39130000D02*
X107670000Y-39130000D01*
X110330000Y-57330000D02*
X109000000Y-57330000D01*
X110330000Y-56000000D02*
X110330000Y-57330000D01*
X110330000Y-54730000D02*
X107670000Y-54730000D01*
X107670000Y-54730000D02*
X107670000Y-52130000D01*
X110330000Y-54730000D02*
X110330000Y-52130000D01*
X110330000Y-52130000D02*
X107670000Y-52130000D01*
X70170000Y-35530000D02*
X70170000Y-34200000D01*
X71500000Y-35530000D02*
X70170000Y-35530000D01*
X72770000Y-35530000D02*
X72770000Y-32870000D01*
X72770000Y-32870000D02*
X85530000Y-32870000D01*
X72770000Y-35530000D02*
X85530000Y-35530000D01*
X85530000Y-35530000D02*
X85530000Y-32870000D01*
X54930000Y-63330000D02*
X53600000Y-63330000D01*
X54930000Y-62000000D02*
X54930000Y-63330000D01*
X52330000Y-63330000D02*
X49730000Y-63330000D01*
X52330000Y-60730000D02*
X52330000Y-63330000D01*
X54930000Y-60730000D02*
X52330000Y-60730000D01*
X49730000Y-63330000D02*
X49730000Y-50510000D01*
X54930000Y-60730000D02*
X54930000Y-50510000D01*
X54930000Y-50510000D02*
X49730000Y-50510000D01*
X66730000Y-32770000D02*
X66730000Y-34100000D01*
X65400000Y-32770000D02*
X66730000Y-32770000D01*
X64130000Y-32770000D02*
X64130000Y-35430000D01*
X64130000Y-35430000D02*
X51370000Y-35430000D01*
X64130000Y-32770000D02*
X51370000Y-32770000D01*
X51370000Y-32770000D02*
X51370000Y-35430000D01*
X57340000Y-48560000D02*
X60200000Y-48560000D01*
X57340000Y-46640000D02*
X57340000Y-48560000D01*
X60200000Y-46640000D02*
X57340000Y-46640000D01*
X97063748Y-54210000D02*
X97586252Y-54210000D01*
X97063748Y-52790000D02*
X97586252Y-52790000D01*
X102738748Y-64710000D02*
X103261252Y-64710000D01*
X102738748Y-63290000D02*
X103261252Y-63290000D01*
X74486252Y-40790000D02*
X73963748Y-40790000D01*
X74486252Y-42210000D02*
X73963748Y-42210000D01*
X77538748Y-64210000D02*
X78061252Y-64210000D01*
X77538748Y-62790000D02*
X78061252Y-62790000D01*
X73286252Y-37690000D02*
X72763748Y-37690000D01*
X73286252Y-39110000D02*
X72763748Y-39110000D01*
X89890000Y-41213748D02*
X89890000Y-41736252D01*
X91310000Y-41213748D02*
X91310000Y-41736252D01*
X91890000Y-44538748D02*
X91890000Y-45061252D01*
X93310000Y-44538748D02*
X93310000Y-45061252D01*
X63913748Y-38410000D02*
X64436252Y-38410000D01*
X63913748Y-36990000D02*
X64436252Y-36990000D01*
X103690000Y-37763748D02*
X103690000Y-38286252D01*
X105110000Y-37763748D02*
X105110000Y-38286252D01*
X65710000Y-56261252D02*
X65710000Y-55738748D01*
X64290000Y-56261252D02*
X64290000Y-55738748D01*
X61710000Y-56461252D02*
X61710000Y-55938748D01*
X60290000Y-56461252D02*
X60290000Y-55938748D01*
D13*
X89257142Y-42242857D02*
X89304761Y-42290476D01*
X89352380Y-42433333D01*
X89352380Y-42528571D01*
X89304761Y-42671428D01*
X89209523Y-42766666D01*
X89114285Y-42814285D01*
X88923809Y-42861904D01*
X88780952Y-42861904D01*
X88590476Y-42814285D01*
X88495238Y-42766666D01*
X88400000Y-42671428D01*
X88352380Y-42528571D01*
X88352380Y-42433333D01*
X88400000Y-42290476D01*
X88447619Y-42242857D01*
X89352380Y-41290476D02*
X89352380Y-41861904D01*
X89352380Y-41576190D02*
X88352380Y-41576190D01*
X88495238Y-41671428D01*
X88590476Y-41766666D01*
X88638095Y-41861904D01*
X88447619Y-40909523D02*
X88400000Y-40861904D01*
X88352380Y-40766666D01*
X88352380Y-40528571D01*
X88400000Y-40433333D01*
X88447619Y-40385714D01*
X88542857Y-40338095D01*
X88638095Y-40338095D01*
X88780952Y-40385714D01*
X89352380Y-40957142D01*
X89352380Y-40338095D01*
X52802380Y-40066666D02*
X52326190Y-40400000D01*
X52802380Y-40638095D02*
X51802380Y-40638095D01*
X51802380Y-40257142D01*
X51850000Y-40161904D01*
X51897619Y-40114285D01*
X51992857Y-40066666D01*
X52135714Y-40066666D01*
X52230952Y-40114285D01*
X52278571Y-40161904D01*
X52326190Y-40257142D01*
X52326190Y-40638095D01*
X51802380Y-39733333D02*
X51802380Y-39066666D01*
X52802380Y-39495238D01*
X49166666Y-44082380D02*
X49166666Y-44796666D01*
X49119047Y-44939523D01*
X49023809Y-45034761D01*
X48880952Y-45082380D01*
X48785714Y-45082380D01*
X50071428Y-44082380D02*
X49880952Y-44082380D01*
X49785714Y-44130000D01*
X49738095Y-44177619D01*
X49642857Y-44320476D01*
X49595238Y-44510952D01*
X49595238Y-44891904D01*
X49642857Y-44987142D01*
X49690476Y-45034761D01*
X49785714Y-45082380D01*
X49976190Y-45082380D01*
X50071428Y-45034761D01*
X50119047Y-44987142D01*
X50166666Y-44891904D01*
X50166666Y-44653809D01*
X50119047Y-44558571D01*
X50071428Y-44510952D01*
X49976190Y-44463333D01*
X49785714Y-44463333D01*
X49690476Y-44510952D01*
X49642857Y-44558571D01*
X49595238Y-44653809D01*
X62123809Y-64576190D02*
X62123809Y-65052380D01*
X61790476Y-64052380D02*
X62123809Y-64576190D01*
X62457142Y-64052380D01*
X63314285Y-65052380D02*
X62742857Y-65052380D01*
X63028571Y-65052380D02*
X63028571Y-64052380D01*
X62933333Y-64195238D01*
X62838095Y-64290476D01*
X62742857Y-64338095D01*
X79538095Y-42502380D02*
X79538095Y-43311904D01*
X79585714Y-43407142D01*
X79633333Y-43454761D01*
X79728571Y-43502380D01*
X79919047Y-43502380D01*
X80014285Y-43454761D01*
X80061904Y-43407142D01*
X80109523Y-43311904D01*
X80109523Y-42502380D01*
X80538095Y-42597619D02*
X80585714Y-42550000D01*
X80680952Y-42502380D01*
X80919047Y-42502380D01*
X81014285Y-42550000D01*
X81061904Y-42597619D01*
X81109523Y-42692857D01*
X81109523Y-42788095D01*
X81061904Y-42930952D01*
X80490476Y-43502380D01*
X81109523Y-43502380D01*
X95038095Y-56052380D02*
X95038095Y-56861904D01*
X95085714Y-56957142D01*
X95133333Y-57004761D01*
X95228571Y-57052380D01*
X95419047Y-57052380D01*
X95514285Y-57004761D01*
X95561904Y-56957142D01*
X95609523Y-56861904D01*
X95609523Y-56052380D01*
X95990476Y-56052380D02*
X96609523Y-56052380D01*
X96276190Y-56433333D01*
X96419047Y-56433333D01*
X96514285Y-56480952D01*
X96561904Y-56528571D01*
X96609523Y-56623809D01*
X96609523Y-56861904D01*
X96561904Y-56957142D01*
X96514285Y-57004761D01*
X96419047Y-57052380D01*
X96133333Y-57052380D01*
X96038095Y-57004761D01*
X95990476Y-56957142D01*
X96438095Y-38302380D02*
X96438095Y-39111904D01*
X96485714Y-39207142D01*
X96533333Y-39254761D01*
X96628571Y-39302380D01*
X96819047Y-39302380D01*
X96914285Y-39254761D01*
X96961904Y-39207142D01*
X97009523Y-39111904D01*
X97009523Y-38302380D01*
X98009523Y-39302380D02*
X97438095Y-39302380D01*
X97723809Y-39302380D02*
X97723809Y-38302380D01*
X97628571Y-38445238D01*
X97533333Y-38540476D01*
X97438095Y-38588095D01*
X101802380Y-56685714D02*
X101802380Y-56114285D01*
X102802380Y-56400000D02*
X101802380Y-56400000D01*
X102278571Y-55780952D02*
X102278571Y-55447619D01*
X102802380Y-55304761D02*
X102802380Y-55780952D01*
X101802380Y-55780952D01*
X101802380Y-55304761D01*
X102802380Y-54304761D02*
X102326190Y-54638095D01*
X102802380Y-54876190D02*
X101802380Y-54876190D01*
X101802380Y-54495238D01*
X101850000Y-54400000D01*
X101897619Y-54352380D01*
X101992857Y-54304761D01*
X102135714Y-54304761D01*
X102230952Y-54352380D01*
X102278571Y-54400000D01*
X102326190Y-54495238D01*
X102326190Y-54876190D01*
X102802380Y-53876190D02*
X101802380Y-53876190D01*
X102516666Y-53542857D01*
X101802380Y-53209523D01*
X102802380Y-53209523D01*
X102802380Y-52209523D02*
X102802380Y-52780952D01*
X102802380Y-52495238D02*
X101802380Y-52495238D01*
X101945238Y-52590476D01*
X102040476Y-52685714D01*
X102088095Y-52780952D01*
X63658333Y-46402380D02*
X63325000Y-45926190D01*
X63086904Y-46402380D02*
X63086904Y-45402380D01*
X63467857Y-45402380D01*
X63563095Y-45450000D01*
X63610714Y-45497619D01*
X63658333Y-45592857D01*
X63658333Y-45735714D01*
X63610714Y-45830952D01*
X63563095Y-45878571D01*
X63467857Y-45926190D01*
X63086904Y-45926190D01*
X64515476Y-45402380D02*
X64325000Y-45402380D01*
X64229761Y-45450000D01*
X64182142Y-45497619D01*
X64086904Y-45640476D01*
X64039285Y-45830952D01*
X64039285Y-46211904D01*
X64086904Y-46307142D01*
X64134523Y-46354761D01*
X64229761Y-46402380D01*
X64420238Y-46402380D01*
X64515476Y-46354761D01*
X64563095Y-46307142D01*
X64610714Y-46211904D01*
X64610714Y-45973809D01*
X64563095Y-45878571D01*
X64515476Y-45830952D01*
X64420238Y-45783333D01*
X64229761Y-45783333D01*
X64134523Y-45830952D01*
X64086904Y-45878571D01*
X64039285Y-45973809D01*
X62858333Y-49802380D02*
X62525000Y-49326190D01*
X62286904Y-49802380D02*
X62286904Y-48802380D01*
X62667857Y-48802380D01*
X62763095Y-48850000D01*
X62810714Y-48897619D01*
X62858333Y-48992857D01*
X62858333Y-49135714D01*
X62810714Y-49230952D01*
X62763095Y-49278571D01*
X62667857Y-49326190D01*
X62286904Y-49326190D01*
X63763095Y-48802380D02*
X63286904Y-48802380D01*
X63239285Y-49278571D01*
X63286904Y-49230952D01*
X63382142Y-49183333D01*
X63620238Y-49183333D01*
X63715476Y-49230952D01*
X63763095Y-49278571D01*
X63810714Y-49373809D01*
X63810714Y-49611904D01*
X63763095Y-49707142D01*
X63715476Y-49754761D01*
X63620238Y-49802380D01*
X63382142Y-49802380D01*
X63286904Y-49754761D01*
X63239285Y-49707142D01*
X102858333Y-46602380D02*
X102525000Y-46126190D01*
X102286904Y-46602380D02*
X102286904Y-45602380D01*
X102667857Y-45602380D01*
X102763095Y-45650000D01*
X102810714Y-45697619D01*
X102858333Y-45792857D01*
X102858333Y-45935714D01*
X102810714Y-46030952D01*
X102763095Y-46078571D01*
X102667857Y-46126190D01*
X102286904Y-46126190D01*
X103715476Y-45935714D02*
X103715476Y-46602380D01*
X103477380Y-45554761D02*
X103239285Y-46269047D01*
X103858333Y-46269047D01*
X97033333Y-46602380D02*
X96700000Y-46126190D01*
X96461904Y-46602380D02*
X96461904Y-45602380D01*
X96842857Y-45602380D01*
X96938095Y-45650000D01*
X96985714Y-45697619D01*
X97033333Y-45792857D01*
X97033333Y-45935714D01*
X96985714Y-46030952D01*
X96938095Y-46078571D01*
X96842857Y-46126190D01*
X96461904Y-46126190D01*
X97366666Y-45602380D02*
X97985714Y-45602380D01*
X97652380Y-45983333D01*
X97795238Y-45983333D01*
X97890476Y-46030952D01*
X97938095Y-46078571D01*
X97985714Y-46173809D01*
X97985714Y-46411904D01*
X97938095Y-46507142D01*
X97890476Y-46554761D01*
X97795238Y-46602380D01*
X97509523Y-46602380D01*
X97414285Y-46554761D01*
X97366666Y-46507142D01*
X55702380Y-48141666D02*
X55226190Y-48475000D01*
X55702380Y-48713095D02*
X54702380Y-48713095D01*
X54702380Y-48332142D01*
X54750000Y-48236904D01*
X54797619Y-48189285D01*
X54892857Y-48141666D01*
X55035714Y-48141666D01*
X55130952Y-48189285D01*
X55178571Y-48236904D01*
X55226190Y-48332142D01*
X55226190Y-48713095D01*
X54797619Y-47760714D02*
X54750000Y-47713095D01*
X54702380Y-47617857D01*
X54702380Y-47379761D01*
X54750000Y-47284523D01*
X54797619Y-47236904D01*
X54892857Y-47189285D01*
X54988095Y-47189285D01*
X55130952Y-47236904D01*
X55702380Y-47808333D01*
X55702380Y-47189285D01*
X102858333Y-41202380D02*
X102525000Y-40726190D01*
X102286904Y-41202380D02*
X102286904Y-40202380D01*
X102667857Y-40202380D01*
X102763095Y-40250000D01*
X102810714Y-40297619D01*
X102858333Y-40392857D01*
X102858333Y-40535714D01*
X102810714Y-40630952D01*
X102763095Y-40678571D01*
X102667857Y-40726190D01*
X102286904Y-40726190D01*
X103810714Y-41202380D02*
X103239285Y-41202380D01*
X103525000Y-41202380D02*
X103525000Y-40202380D01*
X103429761Y-40345238D01*
X103334523Y-40440476D01*
X103239285Y-40488095D01*
X72102380Y-42566666D02*
X72102380Y-43042857D01*
X71102380Y-43042857D01*
X72102380Y-41709523D02*
X72102380Y-42280952D01*
X72102380Y-41995238D02*
X71102380Y-41995238D01*
X71245238Y-42090476D01*
X71340476Y-42185714D01*
X71388095Y-42280952D01*
X108666666Y-44782380D02*
X108666666Y-45496666D01*
X108619047Y-45639523D01*
X108523809Y-45734761D01*
X108380952Y-45782380D01*
X108285714Y-45782380D01*
X109619047Y-44782380D02*
X109142857Y-44782380D01*
X109095238Y-45258571D01*
X109142857Y-45210952D01*
X109238095Y-45163333D01*
X109476190Y-45163333D01*
X109571428Y-45210952D01*
X109619047Y-45258571D01*
X109666666Y-45353809D01*
X109666666Y-45591904D01*
X109619047Y-45687142D01*
X109571428Y-45734761D01*
X109476190Y-45782380D01*
X109238095Y-45782380D01*
X109142857Y-45734761D01*
X109095238Y-45687142D01*
X107666666Y-38582380D02*
X107666666Y-37582380D01*
X108047619Y-37582380D01*
X108142857Y-37630000D01*
X108190476Y-37677619D01*
X108238095Y-37772857D01*
X108238095Y-37915714D01*
X108190476Y-38010952D01*
X108142857Y-38058571D01*
X108047619Y-38106190D01*
X107666666Y-38106190D01*
X108571428Y-37582380D02*
X108809523Y-38582380D01*
X109000000Y-37868095D01*
X109190476Y-38582380D01*
X109428571Y-37582380D01*
X110380952Y-38582380D02*
X110047619Y-38106190D01*
X109809523Y-38582380D02*
X109809523Y-37582380D01*
X110190476Y-37582380D01*
X110285714Y-37630000D01*
X110333333Y-37677619D01*
X110380952Y-37772857D01*
X110380952Y-37915714D01*
X110333333Y-38010952D01*
X110285714Y-38058571D01*
X110190476Y-38106190D01*
X109809523Y-38106190D01*
X108357142Y-51357142D02*
X108309523Y-51404761D01*
X108166666Y-51452380D01*
X108071428Y-51452380D01*
X107928571Y-51404761D01*
X107833333Y-51309523D01*
X107785714Y-51214285D01*
X107738095Y-51023809D01*
X107738095Y-50880952D01*
X107785714Y-50690476D01*
X107833333Y-50595238D01*
X107928571Y-50500000D01*
X108071428Y-50452380D01*
X108166666Y-50452380D01*
X108309523Y-50500000D01*
X108357142Y-50547619D01*
X108738095Y-51166666D02*
X109214285Y-51166666D01*
X108642857Y-51452380D02*
X108976190Y-50452380D01*
X109309523Y-51452380D01*
X109642857Y-51452380D02*
X109642857Y-50452380D01*
X110214285Y-51452380D01*
X110214285Y-50452380D01*
X81190476Y-36966666D02*
X81666666Y-36966666D01*
X81095238Y-37252380D02*
X81428571Y-36252380D01*
X81761904Y-37252380D01*
X82095238Y-36585714D02*
X82095238Y-37252380D01*
X82095238Y-36680952D02*
X82142857Y-36633333D01*
X82238095Y-36585714D01*
X82380952Y-36585714D01*
X82476190Y-36633333D01*
X82523809Y-36728571D01*
X82523809Y-37252380D01*
X83428571Y-37252380D02*
X83428571Y-36728571D01*
X83380952Y-36633333D01*
X83285714Y-36585714D01*
X83095238Y-36585714D01*
X83000000Y-36633333D01*
X83428571Y-37204761D02*
X83333333Y-37252380D01*
X83095238Y-37252380D01*
X83000000Y-37204761D01*
X82952380Y-37109523D01*
X82952380Y-37014285D01*
X83000000Y-36919047D01*
X83095238Y-36871428D01*
X83333333Y-36871428D01*
X83428571Y-36823809D01*
X84047619Y-37252380D02*
X83952380Y-37204761D01*
X83904761Y-37109523D01*
X83904761Y-36252380D01*
X84571428Y-37252380D02*
X84476190Y-37204761D01*
X84428571Y-37157142D01*
X84380952Y-37061904D01*
X84380952Y-36776190D01*
X84428571Y-36680952D01*
X84476190Y-36633333D01*
X84571428Y-36585714D01*
X84714285Y-36585714D01*
X84809523Y-36633333D01*
X84857142Y-36680952D01*
X84904761Y-36776190D01*
X84904761Y-37061904D01*
X84857142Y-37157142D01*
X84809523Y-37204761D01*
X84714285Y-37252380D01*
X84571428Y-37252380D01*
X85761904Y-36585714D02*
X85761904Y-37395238D01*
X85714285Y-37490476D01*
X85666666Y-37538095D01*
X85571428Y-37585714D01*
X85428571Y-37585714D01*
X85333333Y-37538095D01*
X85761904Y-37204761D02*
X85666666Y-37252380D01*
X85476190Y-37252380D01*
X85380952Y-37204761D01*
X85333333Y-37157142D01*
X85285714Y-37061904D01*
X85285714Y-36776190D01*
X85333333Y-36680952D01*
X85380952Y-36633333D01*
X85476190Y-36585714D01*
X85666666Y-36585714D01*
X85761904Y-36633333D01*
X49623809Y-49452380D02*
X49623809Y-48452380D01*
X50052380Y-49404761D02*
X50195238Y-49452380D01*
X50433333Y-49452380D01*
X50528571Y-49404761D01*
X50576190Y-49357142D01*
X50623809Y-49261904D01*
X50623809Y-49166666D01*
X50576190Y-49071428D01*
X50528571Y-49023809D01*
X50433333Y-48976190D01*
X50242857Y-48928571D01*
X50147619Y-48880952D01*
X50100000Y-48833333D01*
X50052380Y-48738095D01*
X50052380Y-48642857D01*
X50100000Y-48547619D01*
X50147619Y-48500000D01*
X50242857Y-48452380D01*
X50480952Y-48452380D01*
X50623809Y-48500000D01*
X51052380Y-49452380D02*
X51052380Y-48452380D01*
X51433333Y-48452380D01*
X51528571Y-48500000D01*
X51576190Y-48547619D01*
X51623809Y-48642857D01*
X51623809Y-48785714D01*
X51576190Y-48880952D01*
X51528571Y-48928571D01*
X51433333Y-48976190D01*
X51052380Y-48976190D01*
X51023809Y-37204761D02*
X51166666Y-37252380D01*
X51404761Y-37252380D01*
X51500000Y-37204761D01*
X51547619Y-37157142D01*
X51595238Y-37061904D01*
X51595238Y-36966666D01*
X51547619Y-36871428D01*
X51500000Y-36823809D01*
X51404761Y-36776190D01*
X51214285Y-36728571D01*
X51119047Y-36680952D01*
X51071428Y-36633333D01*
X51023809Y-36538095D01*
X51023809Y-36442857D01*
X51071428Y-36347619D01*
X51119047Y-36300000D01*
X51214285Y-36252380D01*
X51452380Y-36252380D01*
X51595238Y-36300000D01*
X52404761Y-37204761D02*
X52309523Y-37252380D01*
X52119047Y-37252380D01*
X52023809Y-37204761D01*
X51976190Y-37109523D01*
X51976190Y-36728571D01*
X52023809Y-36633333D01*
X52119047Y-36585714D01*
X52309523Y-36585714D01*
X52404761Y-36633333D01*
X52452380Y-36728571D01*
X52452380Y-36823809D01*
X51976190Y-36919047D01*
X52880952Y-37252380D02*
X52880952Y-36585714D01*
X52880952Y-36776190D02*
X52928571Y-36680952D01*
X52976190Y-36633333D01*
X53071428Y-36585714D01*
X53166666Y-36585714D01*
X53500000Y-37252380D02*
X53500000Y-36585714D01*
X53500000Y-36252380D02*
X53452380Y-36300000D01*
X53500000Y-36347619D01*
X53547619Y-36300000D01*
X53500000Y-36252380D01*
X53500000Y-36347619D01*
X54404761Y-37252380D02*
X54404761Y-36728571D01*
X54357142Y-36633333D01*
X54261904Y-36585714D01*
X54071428Y-36585714D01*
X53976190Y-36633333D01*
X54404761Y-37204761D02*
X54309523Y-37252380D01*
X54071428Y-37252380D01*
X53976190Y-37204761D01*
X53928571Y-37109523D01*
X53928571Y-37014285D01*
X53976190Y-36919047D01*
X54071428Y-36871428D01*
X54309523Y-36871428D01*
X54404761Y-36823809D01*
X55023809Y-37252380D02*
X54928571Y-37204761D01*
X54880952Y-37109523D01*
X54880952Y-36252380D01*
X58461904Y-46402380D02*
X58461904Y-45402380D01*
X58700000Y-45402380D01*
X58842857Y-45450000D01*
X58938095Y-45545238D01*
X58985714Y-45640476D01*
X59033333Y-45830952D01*
X59033333Y-45973809D01*
X58985714Y-46164285D01*
X58938095Y-46259523D01*
X58842857Y-46354761D01*
X58700000Y-46402380D01*
X58461904Y-46402380D01*
X59985714Y-46402380D02*
X59414285Y-46402380D01*
X59700000Y-46402380D02*
X59700000Y-45402380D01*
X59604761Y-45545238D01*
X59509523Y-45640476D01*
X59414285Y-45688095D01*
X96682142Y-52207142D02*
X96634523Y-52254761D01*
X96491666Y-52302380D01*
X96396428Y-52302380D01*
X96253571Y-52254761D01*
X96158333Y-52159523D01*
X96110714Y-52064285D01*
X96063095Y-51873809D01*
X96063095Y-51730952D01*
X96110714Y-51540476D01*
X96158333Y-51445238D01*
X96253571Y-51350000D01*
X96396428Y-51302380D01*
X96491666Y-51302380D01*
X96634523Y-51350000D01*
X96682142Y-51397619D01*
X97634523Y-52302380D02*
X97063095Y-52302380D01*
X97348809Y-52302380D02*
X97348809Y-51302380D01*
X97253571Y-51445238D01*
X97158333Y-51540476D01*
X97063095Y-51588095D01*
X98586904Y-52302380D02*
X98015476Y-52302380D01*
X98301190Y-52302380D02*
X98301190Y-51302380D01*
X98205952Y-51445238D01*
X98110714Y-51540476D01*
X98015476Y-51588095D01*
X102357142Y-62707142D02*
X102309523Y-62754761D01*
X102166666Y-62802380D01*
X102071428Y-62802380D01*
X101928571Y-62754761D01*
X101833333Y-62659523D01*
X101785714Y-62564285D01*
X101738095Y-62373809D01*
X101738095Y-62230952D01*
X101785714Y-62040476D01*
X101833333Y-61945238D01*
X101928571Y-61850000D01*
X102071428Y-61802380D01*
X102166666Y-61802380D01*
X102309523Y-61850000D01*
X102357142Y-61897619D01*
X103309523Y-62802380D02*
X102738095Y-62802380D01*
X103023809Y-62802380D02*
X103023809Y-61802380D01*
X102928571Y-61945238D01*
X102833333Y-62040476D01*
X102738095Y-62088095D01*
X103928571Y-61802380D02*
X104023809Y-61802380D01*
X104119047Y-61850000D01*
X104166666Y-61897619D01*
X104214285Y-61992857D01*
X104261904Y-62183333D01*
X104261904Y-62421428D01*
X104214285Y-62611904D01*
X104166666Y-62707142D01*
X104119047Y-62754761D01*
X104023809Y-62802380D01*
X103928571Y-62802380D01*
X103833333Y-62754761D01*
X103785714Y-62707142D01*
X103738095Y-62611904D01*
X103690476Y-62421428D01*
X103690476Y-62183333D01*
X103738095Y-61992857D01*
X103785714Y-61897619D01*
X103833333Y-61850000D01*
X103928571Y-61802380D01*
X74058333Y-43507142D02*
X74010714Y-43554761D01*
X73867857Y-43602380D01*
X73772619Y-43602380D01*
X73629761Y-43554761D01*
X73534523Y-43459523D01*
X73486904Y-43364285D01*
X73439285Y-43173809D01*
X73439285Y-43030952D01*
X73486904Y-42840476D01*
X73534523Y-42745238D01*
X73629761Y-42650000D01*
X73772619Y-42602380D01*
X73867857Y-42602380D01*
X74010714Y-42650000D01*
X74058333Y-42697619D01*
X74534523Y-43602380D02*
X74725000Y-43602380D01*
X74820238Y-43554761D01*
X74867857Y-43507142D01*
X74963095Y-43364285D01*
X75010714Y-43173809D01*
X75010714Y-42792857D01*
X74963095Y-42697619D01*
X74915476Y-42650000D01*
X74820238Y-42602380D01*
X74629761Y-42602380D01*
X74534523Y-42650000D01*
X74486904Y-42697619D01*
X74439285Y-42792857D01*
X74439285Y-43030952D01*
X74486904Y-43126190D01*
X74534523Y-43173809D01*
X74629761Y-43221428D01*
X74820238Y-43221428D01*
X74915476Y-43173809D01*
X74963095Y-43126190D01*
X75010714Y-43030952D01*
X77633333Y-62207142D02*
X77585714Y-62254761D01*
X77442857Y-62302380D01*
X77347619Y-62302380D01*
X77204761Y-62254761D01*
X77109523Y-62159523D01*
X77061904Y-62064285D01*
X77014285Y-61873809D01*
X77014285Y-61730952D01*
X77061904Y-61540476D01*
X77109523Y-61445238D01*
X77204761Y-61350000D01*
X77347619Y-61302380D01*
X77442857Y-61302380D01*
X77585714Y-61350000D01*
X77633333Y-61397619D01*
X78204761Y-61730952D02*
X78109523Y-61683333D01*
X78061904Y-61635714D01*
X78014285Y-61540476D01*
X78014285Y-61492857D01*
X78061904Y-61397619D01*
X78109523Y-61350000D01*
X78204761Y-61302380D01*
X78395238Y-61302380D01*
X78490476Y-61350000D01*
X78538095Y-61397619D01*
X78585714Y-61492857D01*
X78585714Y-61540476D01*
X78538095Y-61635714D01*
X78490476Y-61683333D01*
X78395238Y-61730952D01*
X78204761Y-61730952D01*
X78109523Y-61778571D01*
X78061904Y-61826190D01*
X78014285Y-61921428D01*
X78014285Y-62111904D01*
X78061904Y-62207142D01*
X78109523Y-62254761D01*
X78204761Y-62302380D01*
X78395238Y-62302380D01*
X78490476Y-62254761D01*
X78538095Y-62207142D01*
X78585714Y-62111904D01*
X78585714Y-61921428D01*
X78538095Y-61826190D01*
X78490476Y-61778571D01*
X78395238Y-61730952D01*
X72858333Y-40407142D02*
X72810714Y-40454761D01*
X72667857Y-40502380D01*
X72572619Y-40502380D01*
X72429761Y-40454761D01*
X72334523Y-40359523D01*
X72286904Y-40264285D01*
X72239285Y-40073809D01*
X72239285Y-39930952D01*
X72286904Y-39740476D01*
X72334523Y-39645238D01*
X72429761Y-39550000D01*
X72572619Y-39502380D01*
X72667857Y-39502380D01*
X72810714Y-39550000D01*
X72858333Y-39597619D01*
X73191666Y-39502380D02*
X73858333Y-39502380D01*
X73429761Y-40502380D01*
X92607142Y-41641666D02*
X92654761Y-41689285D01*
X92702380Y-41832142D01*
X92702380Y-41927380D01*
X92654761Y-42070238D01*
X92559523Y-42165476D01*
X92464285Y-42213095D01*
X92273809Y-42260714D01*
X92130952Y-42260714D01*
X91940476Y-42213095D01*
X91845238Y-42165476D01*
X91750000Y-42070238D01*
X91702380Y-41927380D01*
X91702380Y-41832142D01*
X91750000Y-41689285D01*
X91797619Y-41641666D01*
X91702380Y-40784523D02*
X91702380Y-40975000D01*
X91750000Y-41070238D01*
X91797619Y-41117857D01*
X91940476Y-41213095D01*
X92130952Y-41260714D01*
X92511904Y-41260714D01*
X92607142Y-41213095D01*
X92654761Y-41165476D01*
X92702380Y-41070238D01*
X92702380Y-40879761D01*
X92654761Y-40784523D01*
X92607142Y-40736904D01*
X92511904Y-40689285D01*
X92273809Y-40689285D01*
X92178571Y-40736904D01*
X92130952Y-40784523D01*
X92083333Y-40879761D01*
X92083333Y-41070238D01*
X92130952Y-41165476D01*
X92178571Y-41213095D01*
X92273809Y-41260714D01*
X94607142Y-44966666D02*
X94654761Y-45014285D01*
X94702380Y-45157142D01*
X94702380Y-45252380D01*
X94654761Y-45395238D01*
X94559523Y-45490476D01*
X94464285Y-45538095D01*
X94273809Y-45585714D01*
X94130952Y-45585714D01*
X93940476Y-45538095D01*
X93845238Y-45490476D01*
X93750000Y-45395238D01*
X93702380Y-45252380D01*
X93702380Y-45157142D01*
X93750000Y-45014285D01*
X93797619Y-44966666D01*
X93702380Y-44061904D02*
X93702380Y-44538095D01*
X94178571Y-44585714D01*
X94130952Y-44538095D01*
X94083333Y-44442857D01*
X94083333Y-44204761D01*
X94130952Y-44109523D01*
X94178571Y-44061904D01*
X94273809Y-44014285D01*
X94511904Y-44014285D01*
X94607142Y-44061904D01*
X94654761Y-44109523D01*
X94702380Y-44204761D01*
X94702380Y-44442857D01*
X94654761Y-44538095D01*
X94607142Y-44585714D01*
X64008333Y-36407142D02*
X63960714Y-36454761D01*
X63817857Y-36502380D01*
X63722619Y-36502380D01*
X63579761Y-36454761D01*
X63484523Y-36359523D01*
X63436904Y-36264285D01*
X63389285Y-36073809D01*
X63389285Y-35930952D01*
X63436904Y-35740476D01*
X63484523Y-35645238D01*
X63579761Y-35550000D01*
X63722619Y-35502380D01*
X63817857Y-35502380D01*
X63960714Y-35550000D01*
X64008333Y-35597619D01*
X64865476Y-35835714D02*
X64865476Y-36502380D01*
X64627380Y-35454761D02*
X64389285Y-36169047D01*
X65008333Y-36169047D01*
X106407142Y-38191666D02*
X106454761Y-38239285D01*
X106502380Y-38382142D01*
X106502380Y-38477380D01*
X106454761Y-38620238D01*
X106359523Y-38715476D01*
X106264285Y-38763095D01*
X106073809Y-38810714D01*
X105930952Y-38810714D01*
X105740476Y-38763095D01*
X105645238Y-38715476D01*
X105550000Y-38620238D01*
X105502380Y-38477380D01*
X105502380Y-38382142D01*
X105550000Y-38239285D01*
X105597619Y-38191666D01*
X105502380Y-37858333D02*
X105502380Y-37239285D01*
X105883333Y-37572619D01*
X105883333Y-37429761D01*
X105930952Y-37334523D01*
X105978571Y-37286904D01*
X106073809Y-37239285D01*
X106311904Y-37239285D01*
X106407142Y-37286904D01*
X106454761Y-37334523D01*
X106502380Y-37429761D01*
X106502380Y-37715476D01*
X106454761Y-37810714D01*
X106407142Y-37858333D01*
X63707142Y-56166666D02*
X63754761Y-56214285D01*
X63802380Y-56357142D01*
X63802380Y-56452380D01*
X63754761Y-56595238D01*
X63659523Y-56690476D01*
X63564285Y-56738095D01*
X63373809Y-56785714D01*
X63230952Y-56785714D01*
X63040476Y-56738095D01*
X62945238Y-56690476D01*
X62850000Y-56595238D01*
X62802380Y-56452380D01*
X62802380Y-56357142D01*
X62850000Y-56214285D01*
X62897619Y-56166666D01*
X62897619Y-55785714D02*
X62850000Y-55738095D01*
X62802380Y-55642857D01*
X62802380Y-55404761D01*
X62850000Y-55309523D01*
X62897619Y-55261904D01*
X62992857Y-55214285D01*
X63088095Y-55214285D01*
X63230952Y-55261904D01*
X63802380Y-55833333D01*
X63802380Y-55214285D01*
X59707142Y-56366666D02*
X59754761Y-56414285D01*
X59802380Y-56557142D01*
X59802380Y-56652380D01*
X59754761Y-56795238D01*
X59659523Y-56890476D01*
X59564285Y-56938095D01*
X59373809Y-56985714D01*
X59230952Y-56985714D01*
X59040476Y-56938095D01*
X58945238Y-56890476D01*
X58850000Y-56795238D01*
X58802380Y-56652380D01*
X58802380Y-56557142D01*
X58850000Y-56414285D01*
X58897619Y-56366666D01*
X59802380Y-55414285D02*
X59802380Y-55985714D01*
X59802380Y-55700000D02*
X58802380Y-55700000D01*
X58945238Y-55795238D01*
X59040476Y-55890476D01*
X59088095Y-55985714D01*
M02*
