G04 #@! TF.GenerationSoftware,KiCad,Pcbnew,(5.1.5-0-10_14)*
G04 #@! TF.CreationDate,2020-05-10T22:12:37+02:00*
G04 #@! TF.ProjectId,sensor,73656e73-6f72-42e6-9b69-6361645f7063,rev?*
G04 #@! TF.SameCoordinates,Original*
G04 #@! TF.FileFunction,Soldermask,Top*
G04 #@! TF.FilePolarity,Negative*
%FSLAX46Y46*%
G04 Gerber Fmt 4.6, Leading zero omitted, Abs format (unit mm)*
G04 Created by KiCad (PCBNEW (5.1.5-0-10_14)) date 2020-05-10 22:12:37*
%MOMM*%
%LPD*%
G04 APERTURE LIST*
%ADD10C,0.100000*%
G04 APERTURE END LIST*
D10*
G36*
X104488674Y-63253465D02*
G01*
X104526367Y-63264899D01*
X104561103Y-63283466D01*
X104591548Y-63308452D01*
X104616534Y-63338897D01*
X104635101Y-63373633D01*
X104646535Y-63411326D01*
X104651000Y-63456661D01*
X104651000Y-64543339D01*
X104646535Y-64588674D01*
X104635101Y-64626367D01*
X104616534Y-64661103D01*
X104591548Y-64691548D01*
X104561103Y-64716534D01*
X104526367Y-64735101D01*
X104488674Y-64746535D01*
X104443339Y-64751000D01*
X103606661Y-64751000D01*
X103561326Y-64746535D01*
X103523633Y-64735101D01*
X103488897Y-64716534D01*
X103458452Y-64691548D01*
X103433466Y-64661103D01*
X103414899Y-64626367D01*
X103403465Y-64588674D01*
X103399000Y-64543339D01*
X103399000Y-63456661D01*
X103403465Y-63411326D01*
X103414899Y-63373633D01*
X103433466Y-63338897D01*
X103458452Y-63308452D01*
X103488897Y-63283466D01*
X103523633Y-63264899D01*
X103561326Y-63253465D01*
X103606661Y-63249000D01*
X104443339Y-63249000D01*
X104488674Y-63253465D01*
G37*
G36*
X102438674Y-63253465D02*
G01*
X102476367Y-63264899D01*
X102511103Y-63283466D01*
X102541548Y-63308452D01*
X102566534Y-63338897D01*
X102585101Y-63373633D01*
X102596535Y-63411326D01*
X102601000Y-63456661D01*
X102601000Y-64543339D01*
X102596535Y-64588674D01*
X102585101Y-64626367D01*
X102566534Y-64661103D01*
X102541548Y-64691548D01*
X102511103Y-64716534D01*
X102476367Y-64735101D01*
X102438674Y-64746535D01*
X102393339Y-64751000D01*
X101556661Y-64751000D01*
X101511326Y-64746535D01*
X101473633Y-64735101D01*
X101438897Y-64716534D01*
X101408452Y-64691548D01*
X101383466Y-64661103D01*
X101364899Y-64626367D01*
X101353465Y-64588674D01*
X101349000Y-64543339D01*
X101349000Y-63456661D01*
X101353465Y-63411326D01*
X101364899Y-63373633D01*
X101383466Y-63338897D01*
X101408452Y-63308452D01*
X101438897Y-63283466D01*
X101473633Y-63264899D01*
X101511326Y-63253465D01*
X101556661Y-63249000D01*
X102393339Y-63249000D01*
X102438674Y-63253465D01*
G37*
G36*
X113379487Y-61748996D02*
G01*
X113616253Y-61847068D01*
X113616255Y-61847069D01*
X113829339Y-61989447D01*
X114010553Y-62170661D01*
X114072126Y-62262811D01*
X114152932Y-62383747D01*
X114251004Y-62620513D01*
X114301000Y-62871861D01*
X114301000Y-63128139D01*
X114251004Y-63379487D01*
X114152932Y-63616253D01*
X114152931Y-63616255D01*
X114010553Y-63829339D01*
X113829339Y-64010553D01*
X113616255Y-64152931D01*
X113616254Y-64152932D01*
X113616253Y-64152932D01*
X113379487Y-64251004D01*
X113128139Y-64301000D01*
X112871861Y-64301000D01*
X112620513Y-64251004D01*
X112383747Y-64152932D01*
X112383746Y-64152932D01*
X112383745Y-64152931D01*
X112170661Y-64010553D01*
X111989447Y-63829339D01*
X111847069Y-63616255D01*
X111847068Y-63616253D01*
X111748996Y-63379487D01*
X111699000Y-63128139D01*
X111699000Y-62871861D01*
X111748996Y-62620513D01*
X111847068Y-62383747D01*
X111927875Y-62262811D01*
X111989447Y-62170661D01*
X112170661Y-61989447D01*
X112383745Y-61847069D01*
X112383747Y-61847068D01*
X112620513Y-61748996D01*
X112871861Y-61699000D01*
X113128139Y-61699000D01*
X113379487Y-61748996D01*
G37*
G36*
X45379487Y-61748996D02*
G01*
X45616253Y-61847068D01*
X45616255Y-61847069D01*
X45829339Y-61989447D01*
X46010553Y-62170661D01*
X46072126Y-62262811D01*
X46152932Y-62383747D01*
X46251004Y-62620513D01*
X46301000Y-62871861D01*
X46301000Y-63128139D01*
X46251004Y-63379487D01*
X46152932Y-63616253D01*
X46152931Y-63616255D01*
X46010553Y-63829339D01*
X45829339Y-64010553D01*
X45616255Y-64152931D01*
X45616254Y-64152932D01*
X45616253Y-64152932D01*
X45379487Y-64251004D01*
X45128139Y-64301000D01*
X44871861Y-64301000D01*
X44620513Y-64251004D01*
X44383747Y-64152932D01*
X44383746Y-64152932D01*
X44383745Y-64152931D01*
X44170661Y-64010553D01*
X43989447Y-63829339D01*
X43847069Y-63616255D01*
X43847068Y-63616253D01*
X43748996Y-63379487D01*
X43699000Y-63128139D01*
X43699000Y-62871861D01*
X43748996Y-62620513D01*
X43847068Y-62383747D01*
X43927875Y-62262811D01*
X43989447Y-62170661D01*
X44170661Y-61989447D01*
X44383745Y-61847069D01*
X44383747Y-61847068D01*
X44620513Y-61748996D01*
X44871861Y-61699000D01*
X45128139Y-61699000D01*
X45379487Y-61748996D01*
G37*
G36*
X25379487Y-61748996D02*
G01*
X25616253Y-61847068D01*
X25616255Y-61847069D01*
X25829339Y-61989447D01*
X26010553Y-62170661D01*
X26072126Y-62262811D01*
X26152932Y-62383747D01*
X26251004Y-62620513D01*
X26301000Y-62871861D01*
X26301000Y-63128139D01*
X26251004Y-63379487D01*
X26152932Y-63616253D01*
X26152931Y-63616255D01*
X26010553Y-63829339D01*
X25829339Y-64010553D01*
X25616255Y-64152931D01*
X25616254Y-64152932D01*
X25616253Y-64152932D01*
X25379487Y-64251004D01*
X25128139Y-64301000D01*
X24871861Y-64301000D01*
X24620513Y-64251004D01*
X24383747Y-64152932D01*
X24383746Y-64152932D01*
X24383745Y-64152931D01*
X24170661Y-64010553D01*
X23989447Y-63829339D01*
X23847069Y-63616255D01*
X23847068Y-63616253D01*
X23748996Y-63379487D01*
X23699000Y-63128139D01*
X23699000Y-62871861D01*
X23748996Y-62620513D01*
X23847068Y-62383747D01*
X23927875Y-62262811D01*
X23989447Y-62170661D01*
X24170661Y-61989447D01*
X24383745Y-61847069D01*
X24383747Y-61847068D01*
X24620513Y-61748996D01*
X24871861Y-61699000D01*
X25128139Y-61699000D01*
X25379487Y-61748996D01*
G37*
G36*
X18379487Y-61748996D02*
G01*
X18616253Y-61847068D01*
X18616255Y-61847069D01*
X18829339Y-61989447D01*
X19010553Y-62170661D01*
X19072126Y-62262811D01*
X19152932Y-62383747D01*
X19251004Y-62620513D01*
X19301000Y-62871861D01*
X19301000Y-63128139D01*
X19251004Y-63379487D01*
X19152932Y-63616253D01*
X19152931Y-63616255D01*
X19010553Y-63829339D01*
X18829339Y-64010553D01*
X18616255Y-64152931D01*
X18616254Y-64152932D01*
X18616253Y-64152932D01*
X18379487Y-64251004D01*
X18128139Y-64301000D01*
X17871861Y-64301000D01*
X17620513Y-64251004D01*
X17383747Y-64152932D01*
X17383746Y-64152932D01*
X17383745Y-64152931D01*
X17170661Y-64010553D01*
X16989447Y-63829339D01*
X16847069Y-63616255D01*
X16847068Y-63616253D01*
X16748996Y-63379487D01*
X16699000Y-63128139D01*
X16699000Y-62871861D01*
X16748996Y-62620513D01*
X16847068Y-62383747D01*
X16927875Y-62262811D01*
X16989447Y-62170661D01*
X17170661Y-61989447D01*
X17383745Y-61847069D01*
X17383747Y-61847068D01*
X17620513Y-61748996D01*
X17871861Y-61699000D01*
X18128139Y-61699000D01*
X18379487Y-61748996D01*
G37*
G36*
X79288674Y-62753465D02*
G01*
X79326367Y-62764899D01*
X79361103Y-62783466D01*
X79391548Y-62808452D01*
X79416534Y-62838897D01*
X79435101Y-62873633D01*
X79446535Y-62911326D01*
X79451000Y-62956661D01*
X79451000Y-64043339D01*
X79446535Y-64088674D01*
X79435101Y-64126367D01*
X79416534Y-64161103D01*
X79391548Y-64191548D01*
X79361103Y-64216534D01*
X79326367Y-64235101D01*
X79288674Y-64246535D01*
X79243339Y-64251000D01*
X78406661Y-64251000D01*
X78361326Y-64246535D01*
X78323633Y-64235101D01*
X78288897Y-64216534D01*
X78258452Y-64191548D01*
X78233466Y-64161103D01*
X78214899Y-64126367D01*
X78203465Y-64088674D01*
X78199000Y-64043339D01*
X78199000Y-62956661D01*
X78203465Y-62911326D01*
X78214899Y-62873633D01*
X78233466Y-62838897D01*
X78258452Y-62808452D01*
X78288897Y-62783466D01*
X78323633Y-62764899D01*
X78361326Y-62753465D01*
X78406661Y-62749000D01*
X79243339Y-62749000D01*
X79288674Y-62753465D01*
G37*
G36*
X77238674Y-62753465D02*
G01*
X77276367Y-62764899D01*
X77311103Y-62783466D01*
X77341548Y-62808452D01*
X77366534Y-62838897D01*
X77385101Y-62873633D01*
X77396535Y-62911326D01*
X77401000Y-62956661D01*
X77401000Y-64043339D01*
X77396535Y-64088674D01*
X77385101Y-64126367D01*
X77366534Y-64161103D01*
X77341548Y-64191548D01*
X77311103Y-64216534D01*
X77276367Y-64235101D01*
X77238674Y-64246535D01*
X77193339Y-64251000D01*
X76356661Y-64251000D01*
X76311326Y-64246535D01*
X76273633Y-64235101D01*
X76238897Y-64216534D01*
X76208452Y-64191548D01*
X76183466Y-64161103D01*
X76164899Y-64126367D01*
X76153465Y-64088674D01*
X76149000Y-64043339D01*
X76149000Y-62956661D01*
X76153465Y-62911326D01*
X76164899Y-62873633D01*
X76183466Y-62838897D01*
X76208452Y-62808452D01*
X76238897Y-62783466D01*
X76273633Y-62764899D01*
X76311326Y-62753465D01*
X76356661Y-62749000D01*
X77193339Y-62749000D01*
X77238674Y-62753465D01*
G37*
G36*
X54501000Y-62901000D02*
G01*
X52699000Y-62901000D01*
X52699000Y-61099000D01*
X54501000Y-61099000D01*
X54501000Y-62901000D01*
G37*
G36*
X51173512Y-61103927D02*
G01*
X51322812Y-61133624D01*
X51486784Y-61201544D01*
X51634354Y-61300147D01*
X51759853Y-61425646D01*
X51858456Y-61573216D01*
X51926376Y-61737188D01*
X51961000Y-61911259D01*
X51961000Y-62088741D01*
X51926376Y-62262812D01*
X51858456Y-62426784D01*
X51759853Y-62574354D01*
X51634354Y-62699853D01*
X51486784Y-62798456D01*
X51322812Y-62866376D01*
X51173512Y-62896073D01*
X51148742Y-62901000D01*
X50971258Y-62901000D01*
X50946488Y-62896073D01*
X50797188Y-62866376D01*
X50633216Y-62798456D01*
X50485646Y-62699853D01*
X50360147Y-62574354D01*
X50261544Y-62426784D01*
X50193624Y-62262812D01*
X50159000Y-62088741D01*
X50159000Y-61911259D01*
X50193624Y-61737188D01*
X50261544Y-61573216D01*
X50360147Y-61425646D01*
X50485646Y-61300147D01*
X50633216Y-61201544D01*
X50797188Y-61133624D01*
X50946488Y-61103927D01*
X50971258Y-61099000D01*
X51148742Y-61099000D01*
X51173512Y-61103927D01*
G37*
G36*
X99209928Y-61556764D02*
G01*
X99231009Y-61563160D01*
X99250445Y-61573548D01*
X99267476Y-61587524D01*
X99281452Y-61604555D01*
X99291840Y-61623991D01*
X99298236Y-61645072D01*
X99301000Y-61673140D01*
X99301000Y-62136860D01*
X99298236Y-62164928D01*
X99291840Y-62186009D01*
X99281452Y-62205445D01*
X99267476Y-62222476D01*
X99250445Y-62236452D01*
X99231009Y-62246840D01*
X99209928Y-62253236D01*
X99181860Y-62256000D01*
X97368140Y-62256000D01*
X97340072Y-62253236D01*
X97318991Y-62246840D01*
X97299555Y-62236452D01*
X97282524Y-62222476D01*
X97268548Y-62205445D01*
X97258160Y-62186009D01*
X97251764Y-62164928D01*
X97249000Y-62136860D01*
X97249000Y-61673140D01*
X97251764Y-61645072D01*
X97258160Y-61623991D01*
X97268548Y-61604555D01*
X97282524Y-61587524D01*
X97299555Y-61573548D01*
X97318991Y-61563160D01*
X97340072Y-61556764D01*
X97368140Y-61554000D01*
X99181860Y-61554000D01*
X99209928Y-61556764D01*
G37*
G36*
X94259928Y-61556764D02*
G01*
X94281009Y-61563160D01*
X94300445Y-61573548D01*
X94317476Y-61587524D01*
X94331452Y-61604555D01*
X94341840Y-61623991D01*
X94348236Y-61645072D01*
X94351000Y-61673140D01*
X94351000Y-62136860D01*
X94348236Y-62164928D01*
X94341840Y-62186009D01*
X94331452Y-62205445D01*
X94317476Y-62222476D01*
X94300445Y-62236452D01*
X94281009Y-62246840D01*
X94259928Y-62253236D01*
X94231860Y-62256000D01*
X92418140Y-62256000D01*
X92390072Y-62253236D01*
X92368991Y-62246840D01*
X92349555Y-62236452D01*
X92332524Y-62222476D01*
X92318548Y-62205445D01*
X92308160Y-62186009D01*
X92301764Y-62164928D01*
X92299000Y-62136860D01*
X92299000Y-61673140D01*
X92301764Y-61645072D01*
X92308160Y-61623991D01*
X92318548Y-61604555D01*
X92332524Y-61587524D01*
X92349555Y-61573548D01*
X92368991Y-61563160D01*
X92390072Y-61556764D01*
X92418140Y-61554000D01*
X94231860Y-61554000D01*
X94259928Y-61556764D01*
G37*
G36*
X64913642Y-60229781D02*
G01*
X65052678Y-60287372D01*
X65059416Y-60290163D01*
X65190608Y-60377822D01*
X65302178Y-60489392D01*
X65389837Y-60620584D01*
X65389838Y-60620586D01*
X65450219Y-60766358D01*
X65481000Y-60921107D01*
X65481000Y-61078893D01*
X65450219Y-61233642D01*
X65422671Y-61300148D01*
X65389837Y-61379416D01*
X65302178Y-61510608D01*
X65190608Y-61622178D01*
X65059416Y-61709837D01*
X65059415Y-61709838D01*
X65059414Y-61709838D01*
X64913642Y-61770219D01*
X64758893Y-61801000D01*
X64601107Y-61801000D01*
X64446358Y-61770219D01*
X64300586Y-61709838D01*
X64300585Y-61709838D01*
X64300584Y-61709837D01*
X64169392Y-61622178D01*
X64057822Y-61510608D01*
X63970163Y-61379416D01*
X63937329Y-61300148D01*
X63909781Y-61233642D01*
X63879000Y-61078893D01*
X63879000Y-60921107D01*
X63909781Y-60766358D01*
X63970162Y-60620586D01*
X63970163Y-60620584D01*
X64057822Y-60489392D01*
X64169392Y-60377822D01*
X64300584Y-60290163D01*
X64307322Y-60287372D01*
X64446358Y-60229781D01*
X64601107Y-60199000D01*
X64758893Y-60199000D01*
X64913642Y-60229781D01*
G37*
G36*
X60033642Y-60229781D02*
G01*
X60172678Y-60287372D01*
X60179416Y-60290163D01*
X60310608Y-60377822D01*
X60422178Y-60489392D01*
X60509837Y-60620584D01*
X60509838Y-60620586D01*
X60570219Y-60766358D01*
X60601000Y-60921107D01*
X60601000Y-61078893D01*
X60570219Y-61233642D01*
X60542671Y-61300148D01*
X60509837Y-61379416D01*
X60422178Y-61510608D01*
X60310608Y-61622178D01*
X60179416Y-61709837D01*
X60179415Y-61709838D01*
X60179414Y-61709838D01*
X60033642Y-61770219D01*
X59878893Y-61801000D01*
X59721107Y-61801000D01*
X59566358Y-61770219D01*
X59420586Y-61709838D01*
X59420585Y-61709838D01*
X59420584Y-61709837D01*
X59289392Y-61622178D01*
X59177822Y-61510608D01*
X59090163Y-61379416D01*
X59057329Y-61300148D01*
X59029781Y-61233642D01*
X58999000Y-61078893D01*
X58999000Y-60921107D01*
X59029781Y-60766358D01*
X59090162Y-60620586D01*
X59090163Y-60620584D01*
X59177822Y-60489392D01*
X59289392Y-60377822D01*
X59420584Y-60290163D01*
X59427322Y-60287372D01*
X59566358Y-60229781D01*
X59721107Y-60199000D01*
X59878893Y-60199000D01*
X60033642Y-60229781D01*
G37*
G36*
X86626000Y-61001000D02*
G01*
X73974000Y-61001000D01*
X73974000Y-59399000D01*
X86626000Y-59399000D01*
X86626000Y-61001000D01*
G37*
G36*
X99209928Y-60286764D02*
G01*
X99231009Y-60293160D01*
X99250445Y-60303548D01*
X99267476Y-60317524D01*
X99281452Y-60334555D01*
X99291840Y-60353991D01*
X99298236Y-60375072D01*
X99301000Y-60403140D01*
X99301000Y-60866860D01*
X99298236Y-60894928D01*
X99291840Y-60916009D01*
X99281452Y-60935445D01*
X99267476Y-60952476D01*
X99250445Y-60966452D01*
X99231009Y-60976840D01*
X99209928Y-60983236D01*
X99181860Y-60986000D01*
X97368140Y-60986000D01*
X97340072Y-60983236D01*
X97318991Y-60976840D01*
X97299555Y-60966452D01*
X97282524Y-60952476D01*
X97268548Y-60935445D01*
X97258160Y-60916009D01*
X97251764Y-60894928D01*
X97249000Y-60866860D01*
X97249000Y-60403140D01*
X97251764Y-60375072D01*
X97258160Y-60353991D01*
X97268548Y-60334555D01*
X97282524Y-60317524D01*
X97299555Y-60303548D01*
X97318991Y-60293160D01*
X97340072Y-60286764D01*
X97368140Y-60284000D01*
X99181860Y-60284000D01*
X99209928Y-60286764D01*
G37*
G36*
X94259928Y-60286764D02*
G01*
X94281009Y-60293160D01*
X94300445Y-60303548D01*
X94317476Y-60317524D01*
X94331452Y-60334555D01*
X94341840Y-60353991D01*
X94348236Y-60375072D01*
X94351000Y-60403140D01*
X94351000Y-60866860D01*
X94348236Y-60894928D01*
X94341840Y-60916009D01*
X94331452Y-60935445D01*
X94317476Y-60952476D01*
X94300445Y-60966452D01*
X94281009Y-60976840D01*
X94259928Y-60983236D01*
X94231860Y-60986000D01*
X92418140Y-60986000D01*
X92390072Y-60983236D01*
X92368991Y-60976840D01*
X92349555Y-60966452D01*
X92332524Y-60952476D01*
X92318548Y-60935445D01*
X92308160Y-60916009D01*
X92301764Y-60894928D01*
X92299000Y-60866860D01*
X92299000Y-60403140D01*
X92301764Y-60375072D01*
X92308160Y-60353991D01*
X92318548Y-60334555D01*
X92332524Y-60317524D01*
X92349555Y-60303548D01*
X92368991Y-60293160D01*
X92390072Y-60286764D01*
X92418140Y-60284000D01*
X94231860Y-60284000D01*
X94259928Y-60286764D01*
G37*
G36*
X53713512Y-58563927D02*
G01*
X53862812Y-58593624D01*
X54026784Y-58661544D01*
X54174354Y-58760147D01*
X54299853Y-58885646D01*
X54398456Y-59033216D01*
X54466376Y-59197188D01*
X54501000Y-59371259D01*
X54501000Y-59548741D01*
X54466376Y-59722812D01*
X54398456Y-59886784D01*
X54299853Y-60034354D01*
X54174354Y-60159853D01*
X54026784Y-60258456D01*
X53862812Y-60326376D01*
X53713512Y-60356073D01*
X53688742Y-60361000D01*
X53511258Y-60361000D01*
X53486488Y-60356073D01*
X53337188Y-60326376D01*
X53173216Y-60258456D01*
X53025646Y-60159853D01*
X52900147Y-60034354D01*
X52801544Y-59886784D01*
X52733624Y-59722812D01*
X52699000Y-59548741D01*
X52699000Y-59371259D01*
X52733624Y-59197188D01*
X52801544Y-59033216D01*
X52900147Y-58885646D01*
X53025646Y-58760147D01*
X53173216Y-58661544D01*
X53337188Y-58593624D01*
X53486488Y-58563927D01*
X53511258Y-58559000D01*
X53688742Y-58559000D01*
X53713512Y-58563927D01*
G37*
G36*
X51173512Y-58563927D02*
G01*
X51322812Y-58593624D01*
X51486784Y-58661544D01*
X51634354Y-58760147D01*
X51759853Y-58885646D01*
X51858456Y-59033216D01*
X51926376Y-59197188D01*
X51961000Y-59371259D01*
X51961000Y-59548741D01*
X51926376Y-59722812D01*
X51858456Y-59886784D01*
X51759853Y-60034354D01*
X51634354Y-60159853D01*
X51486784Y-60258456D01*
X51322812Y-60326376D01*
X51173512Y-60356073D01*
X51148742Y-60361000D01*
X50971258Y-60361000D01*
X50946488Y-60356073D01*
X50797188Y-60326376D01*
X50633216Y-60258456D01*
X50485646Y-60159853D01*
X50360147Y-60034354D01*
X50261544Y-59886784D01*
X50193624Y-59722812D01*
X50159000Y-59548741D01*
X50159000Y-59371259D01*
X50193624Y-59197188D01*
X50261544Y-59033216D01*
X50360147Y-58885646D01*
X50485646Y-58760147D01*
X50633216Y-58661544D01*
X50797188Y-58593624D01*
X50946488Y-58563927D01*
X50971258Y-58559000D01*
X51148742Y-58559000D01*
X51173512Y-58563927D01*
G37*
G36*
X94259928Y-59016764D02*
G01*
X94281009Y-59023160D01*
X94300445Y-59033548D01*
X94317476Y-59047524D01*
X94331452Y-59064555D01*
X94341840Y-59083991D01*
X94348236Y-59105072D01*
X94351000Y-59133140D01*
X94351000Y-59596860D01*
X94348236Y-59624928D01*
X94341840Y-59646009D01*
X94331452Y-59665445D01*
X94317476Y-59682476D01*
X94300445Y-59696452D01*
X94281009Y-59706840D01*
X94259928Y-59713236D01*
X94231860Y-59716000D01*
X92418140Y-59716000D01*
X92390072Y-59713236D01*
X92368991Y-59706840D01*
X92349555Y-59696452D01*
X92332524Y-59682476D01*
X92318548Y-59665445D01*
X92308160Y-59646009D01*
X92301764Y-59624928D01*
X92299000Y-59596860D01*
X92299000Y-59133140D01*
X92301764Y-59105072D01*
X92308160Y-59083991D01*
X92318548Y-59064555D01*
X92332524Y-59047524D01*
X92349555Y-59033548D01*
X92368991Y-59023160D01*
X92390072Y-59016764D01*
X92418140Y-59014000D01*
X94231860Y-59014000D01*
X94259928Y-59016764D01*
G37*
G36*
X99209928Y-59016764D02*
G01*
X99231009Y-59023160D01*
X99250445Y-59033548D01*
X99267476Y-59047524D01*
X99281452Y-59064555D01*
X99291840Y-59083991D01*
X99298236Y-59105072D01*
X99301000Y-59133140D01*
X99301000Y-59596860D01*
X99298236Y-59624928D01*
X99291840Y-59646009D01*
X99281452Y-59665445D01*
X99267476Y-59682476D01*
X99250445Y-59696452D01*
X99231009Y-59706840D01*
X99209928Y-59713236D01*
X99181860Y-59716000D01*
X97368140Y-59716000D01*
X97340072Y-59713236D01*
X97318991Y-59706840D01*
X97299555Y-59696452D01*
X97282524Y-59682476D01*
X97268548Y-59665445D01*
X97258160Y-59646009D01*
X97251764Y-59624928D01*
X97249000Y-59596860D01*
X97249000Y-59133140D01*
X97251764Y-59105072D01*
X97258160Y-59083991D01*
X97268548Y-59064555D01*
X97282524Y-59047524D01*
X97299555Y-59033548D01*
X97318991Y-59023160D01*
X97340072Y-59016764D01*
X97368140Y-59014000D01*
X99181860Y-59014000D01*
X99209928Y-59016764D01*
G37*
G36*
X73401000Y-58826000D02*
G01*
X71799000Y-58826000D01*
X71799000Y-46174000D01*
X73401000Y-46174000D01*
X73401000Y-58826000D01*
G37*
G36*
X88801000Y-58826000D02*
G01*
X87199000Y-58826000D01*
X87199000Y-46174000D01*
X88801000Y-46174000D01*
X88801000Y-58826000D01*
G37*
G36*
X99209928Y-57746764D02*
G01*
X99231009Y-57753160D01*
X99250445Y-57763548D01*
X99267476Y-57777524D01*
X99281452Y-57794555D01*
X99291840Y-57813991D01*
X99298236Y-57835072D01*
X99301000Y-57863140D01*
X99301000Y-58326860D01*
X99298236Y-58354928D01*
X99291840Y-58376009D01*
X99281452Y-58395445D01*
X99267476Y-58412476D01*
X99250445Y-58426452D01*
X99231009Y-58436840D01*
X99209928Y-58443236D01*
X99181860Y-58446000D01*
X97368140Y-58446000D01*
X97340072Y-58443236D01*
X97318991Y-58436840D01*
X97299555Y-58426452D01*
X97282524Y-58412476D01*
X97268548Y-58395445D01*
X97258160Y-58376009D01*
X97251764Y-58354928D01*
X97249000Y-58326860D01*
X97249000Y-57863140D01*
X97251764Y-57835072D01*
X97258160Y-57813991D01*
X97268548Y-57794555D01*
X97282524Y-57777524D01*
X97299555Y-57763548D01*
X97318991Y-57753160D01*
X97340072Y-57746764D01*
X97368140Y-57744000D01*
X99181860Y-57744000D01*
X99209928Y-57746764D01*
G37*
G36*
X94259928Y-57746764D02*
G01*
X94281009Y-57753160D01*
X94300445Y-57763548D01*
X94317476Y-57777524D01*
X94331452Y-57794555D01*
X94341840Y-57813991D01*
X94348236Y-57835072D01*
X94351000Y-57863140D01*
X94351000Y-58326860D01*
X94348236Y-58354928D01*
X94341840Y-58376009D01*
X94331452Y-58395445D01*
X94317476Y-58412476D01*
X94300445Y-58426452D01*
X94281009Y-58436840D01*
X94259928Y-58443236D01*
X94231860Y-58446000D01*
X92418140Y-58446000D01*
X92390072Y-58443236D01*
X92368991Y-58436840D01*
X92349555Y-58426452D01*
X92332524Y-58412476D01*
X92318548Y-58395445D01*
X92308160Y-58376009D01*
X92301764Y-58354928D01*
X92299000Y-58326860D01*
X92299000Y-57863140D01*
X92301764Y-57835072D01*
X92308160Y-57813991D01*
X92318548Y-57794555D01*
X92332524Y-57777524D01*
X92349555Y-57763548D01*
X92368991Y-57753160D01*
X92390072Y-57746764D01*
X92418140Y-57744000D01*
X94231860Y-57744000D01*
X94259928Y-57746764D01*
G37*
G36*
X61588674Y-56603465D02*
G01*
X61626367Y-56614899D01*
X61661103Y-56633466D01*
X61691548Y-56658452D01*
X61716534Y-56688897D01*
X61735101Y-56723633D01*
X61746535Y-56761326D01*
X61751000Y-56806661D01*
X61751000Y-57643339D01*
X61746535Y-57688674D01*
X61735101Y-57726367D01*
X61716534Y-57761103D01*
X61691548Y-57791548D01*
X61661103Y-57816534D01*
X61626367Y-57835101D01*
X61588674Y-57846535D01*
X61543339Y-57851000D01*
X60456661Y-57851000D01*
X60411326Y-57846535D01*
X60373633Y-57835101D01*
X60338897Y-57816534D01*
X60308452Y-57791548D01*
X60283466Y-57761103D01*
X60264899Y-57726367D01*
X60253465Y-57688674D01*
X60249000Y-57643339D01*
X60249000Y-56806661D01*
X60253465Y-56761326D01*
X60264899Y-56723633D01*
X60283466Y-56688897D01*
X60308452Y-56658452D01*
X60338897Y-56633466D01*
X60373633Y-56614899D01*
X60411326Y-56603465D01*
X60456661Y-56599000D01*
X61543339Y-56599000D01*
X61588674Y-56603465D01*
G37*
G36*
X53713512Y-56023927D02*
G01*
X53862812Y-56053624D01*
X54026784Y-56121544D01*
X54174354Y-56220147D01*
X54299853Y-56345646D01*
X54398456Y-56493216D01*
X54466376Y-56657188D01*
X54501000Y-56831259D01*
X54501000Y-57008741D01*
X54466376Y-57182812D01*
X54398456Y-57346784D01*
X54299853Y-57494354D01*
X54174354Y-57619853D01*
X54026784Y-57718456D01*
X53862812Y-57786376D01*
X53713512Y-57816073D01*
X53688742Y-57821000D01*
X53511258Y-57821000D01*
X53486488Y-57816073D01*
X53337188Y-57786376D01*
X53173216Y-57718456D01*
X53025646Y-57619853D01*
X52900147Y-57494354D01*
X52801544Y-57346784D01*
X52733624Y-57182812D01*
X52699000Y-57008741D01*
X52699000Y-56831259D01*
X52733624Y-56657188D01*
X52801544Y-56493216D01*
X52900147Y-56345646D01*
X53025646Y-56220147D01*
X53173216Y-56121544D01*
X53337188Y-56053624D01*
X53486488Y-56023927D01*
X53511258Y-56019000D01*
X53688742Y-56019000D01*
X53713512Y-56023927D01*
G37*
G36*
X51173512Y-56023927D02*
G01*
X51322812Y-56053624D01*
X51486784Y-56121544D01*
X51634354Y-56220147D01*
X51759853Y-56345646D01*
X51858456Y-56493216D01*
X51926376Y-56657188D01*
X51961000Y-56831259D01*
X51961000Y-57008741D01*
X51926376Y-57182812D01*
X51858456Y-57346784D01*
X51759853Y-57494354D01*
X51634354Y-57619853D01*
X51486784Y-57718456D01*
X51322812Y-57786376D01*
X51173512Y-57816073D01*
X51148742Y-57821000D01*
X50971258Y-57821000D01*
X50946488Y-57816073D01*
X50797188Y-57786376D01*
X50633216Y-57718456D01*
X50485646Y-57619853D01*
X50360147Y-57494354D01*
X50261544Y-57346784D01*
X50193624Y-57182812D01*
X50159000Y-57008741D01*
X50159000Y-56831259D01*
X50193624Y-56657188D01*
X50261544Y-56493216D01*
X50360147Y-56345646D01*
X50485646Y-56220147D01*
X50633216Y-56121544D01*
X50797188Y-56053624D01*
X50946488Y-56023927D01*
X50971258Y-56019000D01*
X51148742Y-56019000D01*
X51173512Y-56023927D01*
G37*
G36*
X65588674Y-56403465D02*
G01*
X65626367Y-56414899D01*
X65661103Y-56433466D01*
X65691548Y-56458452D01*
X65716534Y-56488897D01*
X65735101Y-56523633D01*
X65746535Y-56561326D01*
X65751000Y-56606661D01*
X65751000Y-57443339D01*
X65746535Y-57488674D01*
X65735101Y-57526367D01*
X65716534Y-57561103D01*
X65691548Y-57591548D01*
X65661103Y-57616534D01*
X65626367Y-57635101D01*
X65588674Y-57646535D01*
X65543339Y-57651000D01*
X64456661Y-57651000D01*
X64411326Y-57646535D01*
X64373633Y-57635101D01*
X64338897Y-57616534D01*
X64308452Y-57591548D01*
X64283466Y-57561103D01*
X64264899Y-57526367D01*
X64253465Y-57488674D01*
X64249000Y-57443339D01*
X64249000Y-56606661D01*
X64253465Y-56561326D01*
X64264899Y-56523633D01*
X64283466Y-56488897D01*
X64308452Y-56458452D01*
X64338897Y-56433466D01*
X64373633Y-56414899D01*
X64411326Y-56403465D01*
X64456661Y-56399000D01*
X65543339Y-56399000D01*
X65588674Y-56403465D01*
G37*
G36*
X109901000Y-56901000D02*
G01*
X108099000Y-56901000D01*
X108099000Y-55099000D01*
X109901000Y-55099000D01*
X109901000Y-56901000D01*
G37*
G36*
X104588674Y-54803465D02*
G01*
X104626367Y-54814899D01*
X104661103Y-54833466D01*
X104691548Y-54858452D01*
X104716534Y-54888897D01*
X104735101Y-54923633D01*
X104746535Y-54961326D01*
X104751000Y-55006661D01*
X104751000Y-55843339D01*
X104746535Y-55888674D01*
X104735101Y-55926367D01*
X104716534Y-55961103D01*
X104691548Y-55991548D01*
X104661103Y-56016534D01*
X104626367Y-56035101D01*
X104588674Y-56046535D01*
X104543339Y-56051000D01*
X103456661Y-56051000D01*
X103411326Y-56046535D01*
X103373633Y-56035101D01*
X103338897Y-56016534D01*
X103308452Y-55991548D01*
X103283466Y-55961103D01*
X103264899Y-55926367D01*
X103253465Y-55888674D01*
X103249000Y-55843339D01*
X103249000Y-55006661D01*
X103253465Y-54961326D01*
X103264899Y-54923633D01*
X103283466Y-54888897D01*
X103308452Y-54858452D01*
X103338897Y-54833466D01*
X103373633Y-54814899D01*
X103411326Y-54803465D01*
X103456661Y-54799000D01*
X104543339Y-54799000D01*
X104588674Y-54803465D01*
G37*
G36*
X61588674Y-54553465D02*
G01*
X61626367Y-54564899D01*
X61661103Y-54583466D01*
X61691548Y-54608452D01*
X61716534Y-54638897D01*
X61735101Y-54673633D01*
X61746535Y-54711326D01*
X61751000Y-54756661D01*
X61751000Y-55593339D01*
X61746535Y-55638674D01*
X61735101Y-55676367D01*
X61716534Y-55711103D01*
X61691548Y-55741548D01*
X61661103Y-55766534D01*
X61626367Y-55785101D01*
X61588674Y-55796535D01*
X61543339Y-55801000D01*
X60456661Y-55801000D01*
X60411326Y-55796535D01*
X60373633Y-55785101D01*
X60338897Y-55766534D01*
X60308452Y-55741548D01*
X60283466Y-55711103D01*
X60264899Y-55676367D01*
X60253465Y-55638674D01*
X60249000Y-55593339D01*
X60249000Y-54756661D01*
X60253465Y-54711326D01*
X60264899Y-54673633D01*
X60283466Y-54638897D01*
X60308452Y-54608452D01*
X60338897Y-54583466D01*
X60373633Y-54564899D01*
X60411326Y-54553465D01*
X60456661Y-54549000D01*
X61543339Y-54549000D01*
X61588674Y-54553465D01*
G37*
G36*
X65588674Y-54353465D02*
G01*
X65626367Y-54364899D01*
X65661103Y-54383466D01*
X65691548Y-54408452D01*
X65716534Y-54438897D01*
X65735101Y-54473633D01*
X65746535Y-54511326D01*
X65751000Y-54556661D01*
X65751000Y-55393339D01*
X65746535Y-55438674D01*
X65735101Y-55476367D01*
X65716534Y-55511103D01*
X65691548Y-55541548D01*
X65661103Y-55566534D01*
X65626367Y-55585101D01*
X65588674Y-55596535D01*
X65543339Y-55601000D01*
X64456661Y-55601000D01*
X64411326Y-55596535D01*
X64373633Y-55585101D01*
X64338897Y-55566534D01*
X64308452Y-55541548D01*
X64283466Y-55511103D01*
X64264899Y-55476367D01*
X64253465Y-55438674D01*
X64249000Y-55393339D01*
X64249000Y-54556661D01*
X64253465Y-54511326D01*
X64264899Y-54473633D01*
X64283466Y-54438897D01*
X64308452Y-54408452D01*
X64338897Y-54383466D01*
X64373633Y-54364899D01*
X64411326Y-54353465D01*
X64456661Y-54349000D01*
X65543339Y-54349000D01*
X65588674Y-54353465D01*
G37*
G36*
X51173512Y-53483927D02*
G01*
X51322812Y-53513624D01*
X51486784Y-53581544D01*
X51634354Y-53680147D01*
X51759853Y-53805646D01*
X51858456Y-53953216D01*
X51926376Y-54117188D01*
X51961000Y-54291259D01*
X51961000Y-54468741D01*
X51926376Y-54642812D01*
X51858456Y-54806784D01*
X51759853Y-54954354D01*
X51634354Y-55079853D01*
X51486784Y-55178456D01*
X51322812Y-55246376D01*
X51173512Y-55276073D01*
X51148742Y-55281000D01*
X50971258Y-55281000D01*
X50946488Y-55276073D01*
X50797188Y-55246376D01*
X50633216Y-55178456D01*
X50485646Y-55079853D01*
X50360147Y-54954354D01*
X50261544Y-54806784D01*
X50193624Y-54642812D01*
X50159000Y-54468741D01*
X50159000Y-54291259D01*
X50193624Y-54117188D01*
X50261544Y-53953216D01*
X50360147Y-53805646D01*
X50485646Y-53680147D01*
X50633216Y-53581544D01*
X50797188Y-53513624D01*
X50946488Y-53483927D01*
X50971258Y-53479000D01*
X51148742Y-53479000D01*
X51173512Y-53483927D01*
G37*
G36*
X53713512Y-53483927D02*
G01*
X53862812Y-53513624D01*
X54026784Y-53581544D01*
X54174354Y-53680147D01*
X54299853Y-53805646D01*
X54398456Y-53953216D01*
X54466376Y-54117188D01*
X54501000Y-54291259D01*
X54501000Y-54468741D01*
X54466376Y-54642812D01*
X54398456Y-54806784D01*
X54299853Y-54954354D01*
X54174354Y-55079853D01*
X54026784Y-55178456D01*
X53862812Y-55246376D01*
X53713512Y-55276073D01*
X53688742Y-55281000D01*
X53511258Y-55281000D01*
X53486488Y-55276073D01*
X53337188Y-55246376D01*
X53173216Y-55178456D01*
X53025646Y-55079853D01*
X52900147Y-54954354D01*
X52801544Y-54806784D01*
X52733624Y-54642812D01*
X52699000Y-54468741D01*
X52699000Y-54291259D01*
X52733624Y-54117188D01*
X52801544Y-53953216D01*
X52900147Y-53805646D01*
X53025646Y-53680147D01*
X53173216Y-53581544D01*
X53337188Y-53513624D01*
X53486488Y-53483927D01*
X53511258Y-53479000D01*
X53688742Y-53479000D01*
X53713512Y-53483927D01*
G37*
G36*
X109113512Y-52563927D02*
G01*
X109262812Y-52593624D01*
X109426784Y-52661544D01*
X109574354Y-52760147D01*
X109699853Y-52885646D01*
X109798456Y-53033216D01*
X109866376Y-53197188D01*
X109901000Y-53371259D01*
X109901000Y-53548741D01*
X109866376Y-53722812D01*
X109798456Y-53886784D01*
X109699853Y-54034354D01*
X109574354Y-54159853D01*
X109426784Y-54258456D01*
X109262812Y-54326376D01*
X109122777Y-54354230D01*
X109088742Y-54361000D01*
X108911258Y-54361000D01*
X108877223Y-54354230D01*
X108737188Y-54326376D01*
X108573216Y-54258456D01*
X108425646Y-54159853D01*
X108300147Y-54034354D01*
X108201544Y-53886784D01*
X108133624Y-53722812D01*
X108099000Y-53548741D01*
X108099000Y-53371259D01*
X108133624Y-53197188D01*
X108201544Y-53033216D01*
X108300147Y-52885646D01*
X108425646Y-52760147D01*
X108573216Y-52661544D01*
X108737188Y-52593624D01*
X108886488Y-52563927D01*
X108911258Y-52559000D01*
X109088742Y-52559000D01*
X109113512Y-52563927D01*
G37*
G36*
X98813674Y-52753465D02*
G01*
X98851367Y-52764899D01*
X98886103Y-52783466D01*
X98916548Y-52808452D01*
X98941534Y-52838897D01*
X98960101Y-52873633D01*
X98971535Y-52911326D01*
X98976000Y-52956661D01*
X98976000Y-54043339D01*
X98971535Y-54088674D01*
X98960101Y-54126367D01*
X98941534Y-54161103D01*
X98916548Y-54191548D01*
X98886103Y-54216534D01*
X98851367Y-54235101D01*
X98813674Y-54246535D01*
X98768339Y-54251000D01*
X97931661Y-54251000D01*
X97886326Y-54246535D01*
X97848633Y-54235101D01*
X97813897Y-54216534D01*
X97783452Y-54191548D01*
X97758466Y-54161103D01*
X97739899Y-54126367D01*
X97728465Y-54088674D01*
X97724000Y-54043339D01*
X97724000Y-52956661D01*
X97728465Y-52911326D01*
X97739899Y-52873633D01*
X97758466Y-52838897D01*
X97783452Y-52808452D01*
X97813897Y-52783466D01*
X97848633Y-52764899D01*
X97886326Y-52753465D01*
X97931661Y-52749000D01*
X98768339Y-52749000D01*
X98813674Y-52753465D01*
G37*
G36*
X96763674Y-52753465D02*
G01*
X96801367Y-52764899D01*
X96836103Y-52783466D01*
X96866548Y-52808452D01*
X96891534Y-52838897D01*
X96910101Y-52873633D01*
X96921535Y-52911326D01*
X96926000Y-52956661D01*
X96926000Y-54043339D01*
X96921535Y-54088674D01*
X96910101Y-54126367D01*
X96891534Y-54161103D01*
X96866548Y-54191548D01*
X96836103Y-54216534D01*
X96801367Y-54235101D01*
X96763674Y-54246535D01*
X96718339Y-54251000D01*
X95881661Y-54251000D01*
X95836326Y-54246535D01*
X95798633Y-54235101D01*
X95763897Y-54216534D01*
X95733452Y-54191548D01*
X95708466Y-54161103D01*
X95689899Y-54126367D01*
X95678465Y-54088674D01*
X95674000Y-54043339D01*
X95674000Y-52956661D01*
X95678465Y-52911326D01*
X95689899Y-52873633D01*
X95708466Y-52838897D01*
X95733452Y-52808452D01*
X95763897Y-52783466D01*
X95798633Y-52764899D01*
X95836326Y-52753465D01*
X95881661Y-52749000D01*
X96718339Y-52749000D01*
X96763674Y-52753465D01*
G37*
G36*
X104588674Y-52753465D02*
G01*
X104626367Y-52764899D01*
X104661103Y-52783466D01*
X104691548Y-52808452D01*
X104716534Y-52838897D01*
X104735101Y-52873633D01*
X104746535Y-52911326D01*
X104751000Y-52956661D01*
X104751000Y-53793339D01*
X104746535Y-53838674D01*
X104735101Y-53876367D01*
X104716534Y-53911103D01*
X104691548Y-53941548D01*
X104661103Y-53966534D01*
X104626367Y-53985101D01*
X104588674Y-53996535D01*
X104543339Y-54001000D01*
X103456661Y-54001000D01*
X103411326Y-53996535D01*
X103373633Y-53985101D01*
X103338897Y-53966534D01*
X103308452Y-53941548D01*
X103283466Y-53911103D01*
X103264899Y-53876367D01*
X103253465Y-53838674D01*
X103249000Y-53793339D01*
X103249000Y-52956661D01*
X103253465Y-52911326D01*
X103264899Y-52873633D01*
X103283466Y-52838897D01*
X103308452Y-52808452D01*
X103338897Y-52783466D01*
X103373633Y-52764899D01*
X103411326Y-52753465D01*
X103456661Y-52749000D01*
X104543339Y-52749000D01*
X104588674Y-52753465D01*
G37*
G36*
X51173512Y-50943927D02*
G01*
X51322812Y-50973624D01*
X51486784Y-51041544D01*
X51634354Y-51140147D01*
X51759853Y-51265646D01*
X51858456Y-51413216D01*
X51926376Y-51577188D01*
X51943067Y-51661103D01*
X51960949Y-51751000D01*
X51961000Y-51751259D01*
X51961000Y-51928741D01*
X51926376Y-52102812D01*
X51858456Y-52266784D01*
X51759853Y-52414354D01*
X51634354Y-52539853D01*
X51486784Y-52638456D01*
X51322812Y-52706376D01*
X51173512Y-52736073D01*
X51148742Y-52741000D01*
X50971258Y-52741000D01*
X50946488Y-52736073D01*
X50797188Y-52706376D01*
X50633216Y-52638456D01*
X50485646Y-52539853D01*
X50360147Y-52414354D01*
X50261544Y-52266784D01*
X50193624Y-52102812D01*
X50159000Y-51928741D01*
X50159000Y-51751259D01*
X50159052Y-51751000D01*
X50176933Y-51661103D01*
X50193624Y-51577188D01*
X50261544Y-51413216D01*
X50360147Y-51265646D01*
X50485646Y-51140147D01*
X50633216Y-51041544D01*
X50797188Y-50973624D01*
X50946488Y-50943927D01*
X50971258Y-50939000D01*
X51148742Y-50939000D01*
X51173512Y-50943927D01*
G37*
G36*
X53713512Y-50943927D02*
G01*
X53862812Y-50973624D01*
X54026784Y-51041544D01*
X54174354Y-51140147D01*
X54299853Y-51265646D01*
X54398456Y-51413216D01*
X54466376Y-51577188D01*
X54483067Y-51661103D01*
X54500949Y-51751000D01*
X54501000Y-51751259D01*
X54501000Y-51928741D01*
X54466376Y-52102812D01*
X54398456Y-52266784D01*
X54299853Y-52414354D01*
X54174354Y-52539853D01*
X54026784Y-52638456D01*
X53862812Y-52706376D01*
X53713512Y-52736073D01*
X53688742Y-52741000D01*
X53511258Y-52741000D01*
X53486488Y-52736073D01*
X53337188Y-52706376D01*
X53173216Y-52638456D01*
X53025646Y-52539853D01*
X52900147Y-52414354D01*
X52801544Y-52266784D01*
X52733624Y-52102812D01*
X52699000Y-51928741D01*
X52699000Y-51751259D01*
X52699052Y-51751000D01*
X52716933Y-51661103D01*
X52733624Y-51577188D01*
X52801544Y-51413216D01*
X52900147Y-51265646D01*
X53025646Y-51140147D01*
X53173216Y-51041544D01*
X53337188Y-50973624D01*
X53486488Y-50943927D01*
X53511258Y-50939000D01*
X53688742Y-50939000D01*
X53713512Y-50943927D01*
G37*
G36*
X62463674Y-50253465D02*
G01*
X62501367Y-50264899D01*
X62536103Y-50283466D01*
X62566548Y-50308452D01*
X62591534Y-50338897D01*
X62610101Y-50373633D01*
X62621535Y-50411326D01*
X62626000Y-50456661D01*
X62626000Y-51543339D01*
X62621535Y-51588674D01*
X62610101Y-51626367D01*
X62591534Y-51661103D01*
X62566548Y-51691548D01*
X62536103Y-51716534D01*
X62501367Y-51735101D01*
X62463674Y-51746535D01*
X62418339Y-51751000D01*
X61581661Y-51751000D01*
X61536326Y-51746535D01*
X61498633Y-51735101D01*
X61463897Y-51716534D01*
X61433452Y-51691548D01*
X61408466Y-51661103D01*
X61389899Y-51626367D01*
X61378465Y-51588674D01*
X61374000Y-51543339D01*
X61374000Y-50456661D01*
X61378465Y-50411326D01*
X61389899Y-50373633D01*
X61408466Y-50338897D01*
X61433452Y-50308452D01*
X61463897Y-50283466D01*
X61498633Y-50264899D01*
X61536326Y-50253465D01*
X61581661Y-50249000D01*
X62418339Y-50249000D01*
X62463674Y-50253465D01*
G37*
G36*
X64513674Y-50253465D02*
G01*
X64551367Y-50264899D01*
X64586103Y-50283466D01*
X64616548Y-50308452D01*
X64641534Y-50338897D01*
X64660101Y-50373633D01*
X64671535Y-50411326D01*
X64676000Y-50456661D01*
X64676000Y-51543339D01*
X64671535Y-51588674D01*
X64660101Y-51626367D01*
X64641534Y-51661103D01*
X64616548Y-51691548D01*
X64586103Y-51716534D01*
X64551367Y-51735101D01*
X64513674Y-51746535D01*
X64468339Y-51751000D01*
X63631661Y-51751000D01*
X63586326Y-51746535D01*
X63548633Y-51735101D01*
X63513897Y-51716534D01*
X63483452Y-51691548D01*
X63458466Y-51661103D01*
X63439899Y-51626367D01*
X63428465Y-51588674D01*
X63424000Y-51543339D01*
X63424000Y-50456661D01*
X63428465Y-50411326D01*
X63439899Y-50373633D01*
X63458466Y-50338897D01*
X63483452Y-50308452D01*
X63513897Y-50283466D01*
X63548633Y-50264899D01*
X63586326Y-50253465D01*
X63631661Y-50249000D01*
X64468339Y-50249000D01*
X64513674Y-50253465D01*
G37*
G36*
X54188674Y-48378465D02*
G01*
X54226367Y-48389899D01*
X54261103Y-48408466D01*
X54291548Y-48433452D01*
X54316534Y-48463897D01*
X54335101Y-48498633D01*
X54346535Y-48536326D01*
X54351000Y-48581661D01*
X54351000Y-49418339D01*
X54346535Y-49463674D01*
X54335101Y-49501367D01*
X54316534Y-49536103D01*
X54291548Y-49566548D01*
X54261103Y-49591534D01*
X54226367Y-49610101D01*
X54188674Y-49621535D01*
X54143339Y-49626000D01*
X53056661Y-49626000D01*
X53011326Y-49621535D01*
X52973633Y-49610101D01*
X52938897Y-49591534D01*
X52908452Y-49566548D01*
X52883466Y-49536103D01*
X52864899Y-49501367D01*
X52853465Y-49463674D01*
X52849000Y-49418339D01*
X52849000Y-48581661D01*
X52853465Y-48536326D01*
X52864899Y-48498633D01*
X52883466Y-48463897D01*
X52908452Y-48433452D01*
X52938897Y-48408466D01*
X52973633Y-48389899D01*
X53011326Y-48378465D01*
X53056661Y-48374000D01*
X54143339Y-48374000D01*
X54188674Y-48378465D01*
G37*
G36*
X102463674Y-47053465D02*
G01*
X102501367Y-47064899D01*
X102536103Y-47083466D01*
X102566548Y-47108452D01*
X102591534Y-47138897D01*
X102610101Y-47173633D01*
X102621535Y-47211326D01*
X102626000Y-47256661D01*
X102626000Y-48343339D01*
X102621535Y-48388674D01*
X102610101Y-48426367D01*
X102591534Y-48461103D01*
X102566548Y-48491548D01*
X102536103Y-48516534D01*
X102501367Y-48535101D01*
X102463674Y-48546535D01*
X102418339Y-48551000D01*
X101581661Y-48551000D01*
X101536326Y-48546535D01*
X101498633Y-48535101D01*
X101463897Y-48516534D01*
X101433452Y-48491548D01*
X101408466Y-48461103D01*
X101389899Y-48426367D01*
X101378465Y-48388674D01*
X101374000Y-48343339D01*
X101374000Y-47256661D01*
X101378465Y-47211326D01*
X101389899Y-47173633D01*
X101408466Y-47138897D01*
X101433452Y-47108452D01*
X101463897Y-47083466D01*
X101498633Y-47064899D01*
X101536326Y-47053465D01*
X101581661Y-47049000D01*
X102418339Y-47049000D01*
X102463674Y-47053465D01*
G37*
G36*
X98688674Y-47053465D02*
G01*
X98726367Y-47064899D01*
X98761103Y-47083466D01*
X98791548Y-47108452D01*
X98816534Y-47138897D01*
X98835101Y-47173633D01*
X98846535Y-47211326D01*
X98851000Y-47256661D01*
X98851000Y-48343339D01*
X98846535Y-48388674D01*
X98835101Y-48426367D01*
X98816534Y-48461103D01*
X98791548Y-48491548D01*
X98761103Y-48516534D01*
X98726367Y-48535101D01*
X98688674Y-48546535D01*
X98643339Y-48551000D01*
X97806661Y-48551000D01*
X97761326Y-48546535D01*
X97723633Y-48535101D01*
X97688897Y-48516534D01*
X97658452Y-48491548D01*
X97633466Y-48461103D01*
X97614899Y-48426367D01*
X97603465Y-48388674D01*
X97599000Y-48343339D01*
X97599000Y-47256661D01*
X97603465Y-47211326D01*
X97614899Y-47173633D01*
X97633466Y-47138897D01*
X97658452Y-47108452D01*
X97688897Y-47083466D01*
X97723633Y-47064899D01*
X97761326Y-47053465D01*
X97806661Y-47049000D01*
X98643339Y-47049000D01*
X98688674Y-47053465D01*
G37*
G36*
X96638674Y-47053465D02*
G01*
X96676367Y-47064899D01*
X96711103Y-47083466D01*
X96741548Y-47108452D01*
X96766534Y-47138897D01*
X96785101Y-47173633D01*
X96796535Y-47211326D01*
X96801000Y-47256661D01*
X96801000Y-48343339D01*
X96796535Y-48388674D01*
X96785101Y-48426367D01*
X96766534Y-48461103D01*
X96741548Y-48491548D01*
X96711103Y-48516534D01*
X96676367Y-48535101D01*
X96638674Y-48546535D01*
X96593339Y-48551000D01*
X95756661Y-48551000D01*
X95711326Y-48546535D01*
X95673633Y-48535101D01*
X95638897Y-48516534D01*
X95608452Y-48491548D01*
X95583466Y-48461103D01*
X95564899Y-48426367D01*
X95553465Y-48388674D01*
X95549000Y-48343339D01*
X95549000Y-47256661D01*
X95553465Y-47211326D01*
X95564899Y-47173633D01*
X95583466Y-47138897D01*
X95608452Y-47108452D01*
X95638897Y-47083466D01*
X95673633Y-47064899D01*
X95711326Y-47053465D01*
X95756661Y-47049000D01*
X96593339Y-47049000D01*
X96638674Y-47053465D01*
G37*
G36*
X104513674Y-47053465D02*
G01*
X104551367Y-47064899D01*
X104586103Y-47083466D01*
X104616548Y-47108452D01*
X104641534Y-47138897D01*
X104660101Y-47173633D01*
X104671535Y-47211326D01*
X104676000Y-47256661D01*
X104676000Y-48343339D01*
X104671535Y-48388674D01*
X104660101Y-48426367D01*
X104641534Y-48461103D01*
X104616548Y-48491548D01*
X104586103Y-48516534D01*
X104551367Y-48535101D01*
X104513674Y-48546535D01*
X104468339Y-48551000D01*
X103631661Y-48551000D01*
X103586326Y-48546535D01*
X103548633Y-48535101D01*
X103513897Y-48516534D01*
X103483452Y-48491548D01*
X103458466Y-48461103D01*
X103439899Y-48426367D01*
X103428465Y-48388674D01*
X103424000Y-48343339D01*
X103424000Y-47256661D01*
X103428465Y-47211326D01*
X103439899Y-47173633D01*
X103458466Y-47138897D01*
X103483452Y-47108452D01*
X103513897Y-47083466D01*
X103548633Y-47064899D01*
X103586326Y-47053465D01*
X103631661Y-47049000D01*
X104468339Y-47049000D01*
X104513674Y-47053465D01*
G37*
G36*
X65313674Y-46853465D02*
G01*
X65351367Y-46864899D01*
X65386103Y-46883466D01*
X65416548Y-46908452D01*
X65441534Y-46938897D01*
X65460101Y-46973633D01*
X65471535Y-47011326D01*
X65476000Y-47056661D01*
X65476000Y-48143339D01*
X65471535Y-48188674D01*
X65460101Y-48226367D01*
X65441534Y-48261103D01*
X65416548Y-48291548D01*
X65386103Y-48316534D01*
X65351367Y-48335101D01*
X65313674Y-48346535D01*
X65268339Y-48351000D01*
X64431661Y-48351000D01*
X64386326Y-48346535D01*
X64348633Y-48335101D01*
X64313897Y-48316534D01*
X64283452Y-48291548D01*
X64258466Y-48261103D01*
X64239899Y-48226367D01*
X64228465Y-48188674D01*
X64224000Y-48143339D01*
X64224000Y-47056661D01*
X64228465Y-47011326D01*
X64239899Y-46973633D01*
X64258466Y-46938897D01*
X64283452Y-46908452D01*
X64313897Y-46883466D01*
X64348633Y-46864899D01*
X64386326Y-46853465D01*
X64431661Y-46849000D01*
X65268339Y-46849000D01*
X65313674Y-46853465D01*
G37*
G36*
X60688674Y-46853465D02*
G01*
X60726367Y-46864899D01*
X60761103Y-46883466D01*
X60791548Y-46908452D01*
X60816534Y-46938897D01*
X60835101Y-46973633D01*
X60846535Y-47011326D01*
X60851000Y-47056661D01*
X60851000Y-48143339D01*
X60846535Y-48188674D01*
X60835101Y-48226367D01*
X60816534Y-48261103D01*
X60791548Y-48291548D01*
X60761103Y-48316534D01*
X60726367Y-48335101D01*
X60688674Y-48346535D01*
X60643339Y-48351000D01*
X59806661Y-48351000D01*
X59761326Y-48346535D01*
X59723633Y-48335101D01*
X59688897Y-48316534D01*
X59658452Y-48291548D01*
X59633466Y-48261103D01*
X59614899Y-48226367D01*
X59603465Y-48188674D01*
X59599000Y-48143339D01*
X59599000Y-47056661D01*
X59603465Y-47011326D01*
X59614899Y-46973633D01*
X59633466Y-46938897D01*
X59658452Y-46908452D01*
X59688897Y-46883466D01*
X59723633Y-46864899D01*
X59761326Y-46853465D01*
X59806661Y-46849000D01*
X60643339Y-46849000D01*
X60688674Y-46853465D01*
G37*
G36*
X58638674Y-46853465D02*
G01*
X58676367Y-46864899D01*
X58711103Y-46883466D01*
X58741548Y-46908452D01*
X58766534Y-46938897D01*
X58785101Y-46973633D01*
X58796535Y-47011326D01*
X58801000Y-47056661D01*
X58801000Y-48143339D01*
X58796535Y-48188674D01*
X58785101Y-48226367D01*
X58766534Y-48261103D01*
X58741548Y-48291548D01*
X58711103Y-48316534D01*
X58676367Y-48335101D01*
X58638674Y-48346535D01*
X58593339Y-48351000D01*
X57756661Y-48351000D01*
X57711326Y-48346535D01*
X57673633Y-48335101D01*
X57638897Y-48316534D01*
X57608452Y-48291548D01*
X57583466Y-48261103D01*
X57564899Y-48226367D01*
X57553465Y-48188674D01*
X57549000Y-48143339D01*
X57549000Y-47056661D01*
X57553465Y-47011326D01*
X57564899Y-46973633D01*
X57583466Y-46938897D01*
X57608452Y-46908452D01*
X57638897Y-46883466D01*
X57673633Y-46864899D01*
X57711326Y-46853465D01*
X57756661Y-46849000D01*
X58593339Y-46849000D01*
X58638674Y-46853465D01*
G37*
G36*
X63263674Y-46853465D02*
G01*
X63301367Y-46864899D01*
X63336103Y-46883466D01*
X63366548Y-46908452D01*
X63391534Y-46938897D01*
X63410101Y-46973633D01*
X63421535Y-47011326D01*
X63426000Y-47056661D01*
X63426000Y-48143339D01*
X63421535Y-48188674D01*
X63410101Y-48226367D01*
X63391534Y-48261103D01*
X63366548Y-48291548D01*
X63336103Y-48316534D01*
X63301367Y-48335101D01*
X63263674Y-48346535D01*
X63218339Y-48351000D01*
X62381661Y-48351000D01*
X62336326Y-48346535D01*
X62298633Y-48335101D01*
X62263897Y-48316534D01*
X62233452Y-48291548D01*
X62208466Y-48261103D01*
X62189899Y-48226367D01*
X62178465Y-48188674D01*
X62174000Y-48143339D01*
X62174000Y-47056661D01*
X62178465Y-47011326D01*
X62189899Y-46973633D01*
X62208466Y-46938897D01*
X62233452Y-46908452D01*
X62263897Y-46883466D01*
X62298633Y-46864899D01*
X62336326Y-46853465D01*
X62381661Y-46849000D01*
X63218339Y-46849000D01*
X63263674Y-46853465D01*
G37*
G36*
X54188674Y-46328465D02*
G01*
X54226367Y-46339899D01*
X54261103Y-46358466D01*
X54291548Y-46383452D01*
X54316534Y-46413897D01*
X54335101Y-46448633D01*
X54346535Y-46486326D01*
X54351000Y-46531661D01*
X54351000Y-47368339D01*
X54346535Y-47413674D01*
X54335101Y-47451367D01*
X54316534Y-47486103D01*
X54291548Y-47516548D01*
X54261103Y-47541534D01*
X54226367Y-47560101D01*
X54188674Y-47571535D01*
X54143339Y-47576000D01*
X53056661Y-47576000D01*
X53011326Y-47571535D01*
X52973633Y-47560101D01*
X52938897Y-47541534D01*
X52908452Y-47516548D01*
X52883466Y-47486103D01*
X52864899Y-47451367D01*
X52853465Y-47413674D01*
X52849000Y-47368339D01*
X52849000Y-46531661D01*
X52853465Y-46486326D01*
X52864899Y-46448633D01*
X52883466Y-46413897D01*
X52908452Y-46383452D01*
X52938897Y-46358466D01*
X52973633Y-46339899D01*
X53011326Y-46328465D01*
X53056661Y-46324000D01*
X54143339Y-46324000D01*
X54188674Y-46328465D01*
G37*
G36*
X93188674Y-45203465D02*
G01*
X93226367Y-45214899D01*
X93261103Y-45233466D01*
X93291548Y-45258452D01*
X93316534Y-45288897D01*
X93335101Y-45323633D01*
X93346535Y-45361326D01*
X93351000Y-45406661D01*
X93351000Y-46243339D01*
X93346535Y-46288674D01*
X93335101Y-46326367D01*
X93316534Y-46361103D01*
X93291548Y-46391548D01*
X93261103Y-46416534D01*
X93226367Y-46435101D01*
X93188674Y-46446535D01*
X93143339Y-46451000D01*
X92056661Y-46451000D01*
X92011326Y-46446535D01*
X91973633Y-46435101D01*
X91938897Y-46416534D01*
X91908452Y-46391548D01*
X91883466Y-46361103D01*
X91864899Y-46326367D01*
X91853465Y-46288674D01*
X91849000Y-46243339D01*
X91849000Y-45406661D01*
X91853465Y-45361326D01*
X91864899Y-45323633D01*
X91883466Y-45288897D01*
X91908452Y-45258452D01*
X91938897Y-45233466D01*
X91973633Y-45214899D01*
X92011326Y-45203465D01*
X92056661Y-45199000D01*
X93143339Y-45199000D01*
X93188674Y-45203465D01*
G37*
G36*
X86626000Y-45601000D02*
G01*
X73974000Y-45601000D01*
X73974000Y-43999000D01*
X86626000Y-43999000D01*
X86626000Y-45601000D01*
G37*
G36*
X93188674Y-43153465D02*
G01*
X93226367Y-43164899D01*
X93261103Y-43183466D01*
X93291548Y-43208452D01*
X93316534Y-43238897D01*
X93335101Y-43273633D01*
X93346535Y-43311326D01*
X93351000Y-43356661D01*
X93351000Y-44193339D01*
X93346535Y-44238674D01*
X93335101Y-44276367D01*
X93316534Y-44311103D01*
X93291548Y-44341548D01*
X93261103Y-44366534D01*
X93226367Y-44385101D01*
X93188674Y-44396535D01*
X93143339Y-44401000D01*
X92056661Y-44401000D01*
X92011326Y-44396535D01*
X91973633Y-44385101D01*
X91938897Y-44366534D01*
X91908452Y-44341548D01*
X91883466Y-44311103D01*
X91864899Y-44276367D01*
X91853465Y-44238674D01*
X91849000Y-44193339D01*
X91849000Y-43356661D01*
X91853465Y-43311326D01*
X91864899Y-43273633D01*
X91883466Y-43238897D01*
X91908452Y-43208452D01*
X91938897Y-43183466D01*
X91973633Y-43164899D01*
X92011326Y-43153465D01*
X92056661Y-43149000D01*
X93143339Y-43149000D01*
X93188674Y-43153465D01*
G37*
G36*
X70588674Y-42803465D02*
G01*
X70626367Y-42814899D01*
X70661103Y-42833466D01*
X70691548Y-42858452D01*
X70716534Y-42888897D01*
X70735101Y-42923633D01*
X70746535Y-42961326D01*
X70751000Y-43006661D01*
X70751000Y-43843339D01*
X70746535Y-43888674D01*
X70735101Y-43926367D01*
X70716534Y-43961103D01*
X70691548Y-43991548D01*
X70661103Y-44016534D01*
X70626367Y-44035101D01*
X70588674Y-44046535D01*
X70543339Y-44051000D01*
X69456661Y-44051000D01*
X69411326Y-44046535D01*
X69373633Y-44035101D01*
X69338897Y-44016534D01*
X69308452Y-43991548D01*
X69283466Y-43961103D01*
X69264899Y-43926367D01*
X69253465Y-43888674D01*
X69249000Y-43843339D01*
X69249000Y-43006661D01*
X69253465Y-42961326D01*
X69264899Y-42923633D01*
X69283466Y-42888897D01*
X69308452Y-42858452D01*
X69338897Y-42833466D01*
X69373633Y-42814899D01*
X69411326Y-42803465D01*
X69456661Y-42799000D01*
X70543339Y-42799000D01*
X70588674Y-42803465D01*
G37*
G36*
X109901000Y-43901000D02*
G01*
X108099000Y-43901000D01*
X108099000Y-42099000D01*
X109901000Y-42099000D01*
X109901000Y-43901000D01*
G37*
G36*
X50401000Y-43201000D02*
G01*
X48599000Y-43201000D01*
X48599000Y-41399000D01*
X50401000Y-41399000D01*
X50401000Y-43201000D01*
G37*
G36*
X102463674Y-41653465D02*
G01*
X102501367Y-41664899D01*
X102536103Y-41683466D01*
X102566548Y-41708452D01*
X102591534Y-41738897D01*
X102610101Y-41773633D01*
X102621535Y-41811326D01*
X102626000Y-41856661D01*
X102626000Y-42943339D01*
X102621535Y-42988674D01*
X102610101Y-43026367D01*
X102591534Y-43061103D01*
X102566548Y-43091548D01*
X102536103Y-43116534D01*
X102501367Y-43135101D01*
X102463674Y-43146535D01*
X102418339Y-43151000D01*
X101581661Y-43151000D01*
X101536326Y-43146535D01*
X101498633Y-43135101D01*
X101463897Y-43116534D01*
X101433452Y-43091548D01*
X101408466Y-43061103D01*
X101389899Y-43026367D01*
X101378465Y-42988674D01*
X101374000Y-42943339D01*
X101374000Y-41856661D01*
X101378465Y-41811326D01*
X101389899Y-41773633D01*
X101408466Y-41738897D01*
X101433452Y-41708452D01*
X101463897Y-41683466D01*
X101498633Y-41664899D01*
X101536326Y-41653465D01*
X101581661Y-41649000D01*
X102418339Y-41649000D01*
X102463674Y-41653465D01*
G37*
G36*
X104513674Y-41653465D02*
G01*
X104551367Y-41664899D01*
X104586103Y-41683466D01*
X104616548Y-41708452D01*
X104641534Y-41738897D01*
X104660101Y-41773633D01*
X104671535Y-41811326D01*
X104676000Y-41856661D01*
X104676000Y-42943339D01*
X104671535Y-42988674D01*
X104660101Y-43026367D01*
X104641534Y-43061103D01*
X104616548Y-43091548D01*
X104586103Y-43116534D01*
X104551367Y-43135101D01*
X104513674Y-43146535D01*
X104468339Y-43151000D01*
X103631661Y-43151000D01*
X103586326Y-43146535D01*
X103548633Y-43135101D01*
X103513897Y-43116534D01*
X103483452Y-43091548D01*
X103458466Y-43061103D01*
X103439899Y-43026367D01*
X103428465Y-42988674D01*
X103424000Y-42943339D01*
X103424000Y-41856661D01*
X103428465Y-41811326D01*
X103439899Y-41773633D01*
X103458466Y-41738897D01*
X103483452Y-41708452D01*
X103513897Y-41683466D01*
X103548633Y-41664899D01*
X103586326Y-41653465D01*
X103631661Y-41649000D01*
X104468339Y-41649000D01*
X104513674Y-41653465D01*
G37*
G36*
X87788674Y-41878465D02*
G01*
X87826367Y-41889899D01*
X87861103Y-41908466D01*
X87891548Y-41933452D01*
X87916534Y-41963897D01*
X87935101Y-41998633D01*
X87946535Y-42036326D01*
X87951000Y-42081661D01*
X87951000Y-42918339D01*
X87946535Y-42963674D01*
X87935101Y-43001367D01*
X87916534Y-43036103D01*
X87891548Y-43066548D01*
X87861103Y-43091534D01*
X87826367Y-43110101D01*
X87788674Y-43121535D01*
X87743339Y-43126000D01*
X86656661Y-43126000D01*
X86611326Y-43121535D01*
X86573633Y-43110101D01*
X86538897Y-43091534D01*
X86508452Y-43066548D01*
X86483466Y-43036103D01*
X86464899Y-43001367D01*
X86453465Y-42963674D01*
X86449000Y-42918339D01*
X86449000Y-42081661D01*
X86453465Y-42036326D01*
X86464899Y-41998633D01*
X86483466Y-41963897D01*
X86508452Y-41933452D01*
X86538897Y-41908466D01*
X86573633Y-41889899D01*
X86611326Y-41878465D01*
X86656661Y-41874000D01*
X87743339Y-41874000D01*
X87788674Y-41878465D01*
G37*
G36*
X91188674Y-41878465D02*
G01*
X91226367Y-41889899D01*
X91261103Y-41908466D01*
X91291548Y-41933452D01*
X91316534Y-41963897D01*
X91335101Y-41998633D01*
X91346535Y-42036326D01*
X91351000Y-42081661D01*
X91351000Y-42918339D01*
X91346535Y-42963674D01*
X91335101Y-43001367D01*
X91316534Y-43036103D01*
X91291548Y-43066548D01*
X91261103Y-43091534D01*
X91226367Y-43110101D01*
X91188674Y-43121535D01*
X91143339Y-43126000D01*
X90056661Y-43126000D01*
X90011326Y-43121535D01*
X89973633Y-43110101D01*
X89938897Y-43091534D01*
X89908452Y-43066548D01*
X89883466Y-43036103D01*
X89864899Y-43001367D01*
X89853465Y-42963674D01*
X89849000Y-42918339D01*
X89849000Y-42081661D01*
X89853465Y-42036326D01*
X89864899Y-41998633D01*
X89883466Y-41963897D01*
X89908452Y-41933452D01*
X89938897Y-41908466D01*
X89973633Y-41889899D01*
X90011326Y-41878465D01*
X90056661Y-41874000D01*
X91143339Y-41874000D01*
X91188674Y-41878465D01*
G37*
G36*
X95591000Y-42636000D02*
G01*
X94599000Y-42636000D01*
X94599000Y-40164000D01*
X95591000Y-40164000D01*
X95591000Y-42636000D01*
G37*
G36*
X99801000Y-42636000D02*
G01*
X98809000Y-42636000D01*
X98809000Y-40164000D01*
X99801000Y-40164000D01*
X99801000Y-42636000D01*
G37*
G36*
X98091000Y-42391000D02*
G01*
X96309000Y-42391000D01*
X96309000Y-40409000D01*
X98091000Y-40409000D01*
X98091000Y-42391000D01*
G37*
G36*
X75713674Y-40753465D02*
G01*
X75751367Y-40764899D01*
X75786103Y-40783466D01*
X75816548Y-40808452D01*
X75841534Y-40838897D01*
X75860101Y-40873633D01*
X75871535Y-40911326D01*
X75876000Y-40956661D01*
X75876000Y-42043339D01*
X75871535Y-42088674D01*
X75860101Y-42126367D01*
X75841534Y-42161103D01*
X75816548Y-42191548D01*
X75786103Y-42216534D01*
X75751367Y-42235101D01*
X75713674Y-42246535D01*
X75668339Y-42251000D01*
X74831661Y-42251000D01*
X74786326Y-42246535D01*
X74748633Y-42235101D01*
X74713897Y-42216534D01*
X74683452Y-42191548D01*
X74658466Y-42161103D01*
X74639899Y-42126367D01*
X74628465Y-42088674D01*
X74624000Y-42043339D01*
X74624000Y-40956661D01*
X74628465Y-40911326D01*
X74639899Y-40873633D01*
X74658466Y-40838897D01*
X74683452Y-40808452D01*
X74713897Y-40783466D01*
X74748633Y-40764899D01*
X74786326Y-40753465D01*
X74831661Y-40749000D01*
X75668339Y-40749000D01*
X75713674Y-40753465D01*
G37*
G36*
X73663674Y-40753465D02*
G01*
X73701367Y-40764899D01*
X73736103Y-40783466D01*
X73766548Y-40808452D01*
X73791534Y-40838897D01*
X73810101Y-40873633D01*
X73821535Y-40911326D01*
X73826000Y-40956661D01*
X73826000Y-42043339D01*
X73821535Y-42088674D01*
X73810101Y-42126367D01*
X73791534Y-42161103D01*
X73766548Y-42191548D01*
X73736103Y-42216534D01*
X73701367Y-42235101D01*
X73663674Y-42246535D01*
X73618339Y-42251000D01*
X72781661Y-42251000D01*
X72736326Y-42246535D01*
X72698633Y-42235101D01*
X72663897Y-42216534D01*
X72633452Y-42191548D01*
X72608466Y-42161103D01*
X72589899Y-42126367D01*
X72578465Y-42088674D01*
X72574000Y-42043339D01*
X72574000Y-40956661D01*
X72578465Y-40911326D01*
X72589899Y-40873633D01*
X72608466Y-40838897D01*
X72633452Y-40808452D01*
X72663897Y-40783466D01*
X72698633Y-40764899D01*
X72736326Y-40753465D01*
X72781661Y-40749000D01*
X73618339Y-40749000D01*
X73663674Y-40753465D01*
G37*
G36*
X70588674Y-40753465D02*
G01*
X70626367Y-40764899D01*
X70661103Y-40783466D01*
X70691548Y-40808452D01*
X70716534Y-40838897D01*
X70735101Y-40873633D01*
X70746535Y-40911326D01*
X70751000Y-40956661D01*
X70751000Y-41793339D01*
X70746535Y-41838674D01*
X70735101Y-41876367D01*
X70716534Y-41911103D01*
X70691548Y-41941548D01*
X70661103Y-41966534D01*
X70626367Y-41985101D01*
X70588674Y-41996535D01*
X70543339Y-42001000D01*
X69456661Y-42001000D01*
X69411326Y-41996535D01*
X69373633Y-41985101D01*
X69338897Y-41966534D01*
X69308452Y-41941548D01*
X69283466Y-41911103D01*
X69264899Y-41876367D01*
X69253465Y-41838674D01*
X69249000Y-41793339D01*
X69249000Y-40956661D01*
X69253465Y-40911326D01*
X69264899Y-40873633D01*
X69283466Y-40838897D01*
X69308452Y-40808452D01*
X69338897Y-40783466D01*
X69373633Y-40764899D01*
X69411326Y-40753465D01*
X69456661Y-40749000D01*
X70543339Y-40749000D01*
X70588674Y-40753465D01*
G37*
G36*
X54588674Y-40303465D02*
G01*
X54626367Y-40314899D01*
X54661103Y-40333466D01*
X54691548Y-40358452D01*
X54716534Y-40388897D01*
X54735101Y-40423633D01*
X54746535Y-40461326D01*
X54751000Y-40506661D01*
X54751000Y-41343339D01*
X54746535Y-41388674D01*
X54735101Y-41426367D01*
X54716534Y-41461103D01*
X54691548Y-41491548D01*
X54661103Y-41516534D01*
X54626367Y-41535101D01*
X54588674Y-41546535D01*
X54543339Y-41551000D01*
X53456661Y-41551000D01*
X53411326Y-41546535D01*
X53373633Y-41535101D01*
X53338897Y-41516534D01*
X53308452Y-41491548D01*
X53283466Y-41461103D01*
X53264899Y-41426367D01*
X53253465Y-41388674D01*
X53249000Y-41343339D01*
X53249000Y-40506661D01*
X53253465Y-40461326D01*
X53264899Y-40423633D01*
X53283466Y-40388897D01*
X53308452Y-40358452D01*
X53338897Y-40333466D01*
X53373633Y-40314899D01*
X53411326Y-40303465D01*
X53456661Y-40299000D01*
X54543339Y-40299000D01*
X54588674Y-40303465D01*
G37*
G36*
X109113512Y-39563927D02*
G01*
X109262812Y-39593624D01*
X109426784Y-39661544D01*
X109574354Y-39760147D01*
X109699853Y-39885646D01*
X109798456Y-40033216D01*
X109866376Y-40197188D01*
X109901000Y-40371259D01*
X109901000Y-40548741D01*
X109866376Y-40722812D01*
X109798456Y-40886784D01*
X109699853Y-41034354D01*
X109574354Y-41159853D01*
X109426784Y-41258456D01*
X109262812Y-41326376D01*
X109113512Y-41356073D01*
X109088742Y-41361000D01*
X108911258Y-41361000D01*
X108886488Y-41356073D01*
X108737188Y-41326376D01*
X108573216Y-41258456D01*
X108425646Y-41159853D01*
X108300147Y-41034354D01*
X108201544Y-40886784D01*
X108133624Y-40722812D01*
X108099000Y-40548741D01*
X108099000Y-40371259D01*
X108133624Y-40197188D01*
X108201544Y-40033216D01*
X108300147Y-39885646D01*
X108425646Y-39760147D01*
X108573216Y-39661544D01*
X108737188Y-39593624D01*
X108886488Y-39563927D01*
X108911258Y-39559000D01*
X109088742Y-39559000D01*
X109113512Y-39563927D01*
G37*
G36*
X91188674Y-39828465D02*
G01*
X91226367Y-39839899D01*
X91261103Y-39858466D01*
X91291548Y-39883452D01*
X91316534Y-39913897D01*
X91335101Y-39948633D01*
X91346535Y-39986326D01*
X91351000Y-40031661D01*
X91351000Y-40868339D01*
X91346535Y-40913674D01*
X91335101Y-40951367D01*
X91316534Y-40986103D01*
X91291548Y-41016548D01*
X91261103Y-41041534D01*
X91226367Y-41060101D01*
X91188674Y-41071535D01*
X91143339Y-41076000D01*
X90056661Y-41076000D01*
X90011326Y-41071535D01*
X89973633Y-41060101D01*
X89938897Y-41041534D01*
X89908452Y-41016548D01*
X89883466Y-40986103D01*
X89864899Y-40951367D01*
X89853465Y-40913674D01*
X89849000Y-40868339D01*
X89849000Y-40031661D01*
X89853465Y-39986326D01*
X89864899Y-39948633D01*
X89883466Y-39913897D01*
X89908452Y-39883452D01*
X89938897Y-39858466D01*
X89973633Y-39839899D01*
X90011326Y-39828465D01*
X90056661Y-39824000D01*
X91143339Y-39824000D01*
X91188674Y-39828465D01*
G37*
G36*
X87788674Y-39828465D02*
G01*
X87826367Y-39839899D01*
X87861103Y-39858466D01*
X87891548Y-39883452D01*
X87916534Y-39913897D01*
X87935101Y-39948633D01*
X87946535Y-39986326D01*
X87951000Y-40031661D01*
X87951000Y-40868339D01*
X87946535Y-40913674D01*
X87935101Y-40951367D01*
X87916534Y-40986103D01*
X87891548Y-41016548D01*
X87861103Y-41041534D01*
X87826367Y-41060101D01*
X87788674Y-41071535D01*
X87743339Y-41076000D01*
X86656661Y-41076000D01*
X86611326Y-41071535D01*
X86573633Y-41060101D01*
X86538897Y-41041534D01*
X86508452Y-41016548D01*
X86483466Y-40986103D01*
X86464899Y-40951367D01*
X86453465Y-40913674D01*
X86449000Y-40868339D01*
X86449000Y-40031661D01*
X86453465Y-39986326D01*
X86464899Y-39948633D01*
X86483466Y-39913897D01*
X86508452Y-39883452D01*
X86538897Y-39858466D01*
X86573633Y-39839899D01*
X86611326Y-39828465D01*
X86656661Y-39824000D01*
X87743339Y-39824000D01*
X87788674Y-39828465D01*
G37*
G36*
X49613512Y-38863927D02*
G01*
X49762812Y-38893624D01*
X49926784Y-38961544D01*
X50074354Y-39060147D01*
X50199853Y-39185646D01*
X50298456Y-39333216D01*
X50366376Y-39497188D01*
X50392819Y-39630131D01*
X50401000Y-39671258D01*
X50401000Y-39848742D01*
X50396073Y-39873512D01*
X50366376Y-40022812D01*
X50298456Y-40186784D01*
X50199853Y-40334354D01*
X50074354Y-40459853D01*
X49926784Y-40558456D01*
X49762812Y-40626376D01*
X49613512Y-40656073D01*
X49588742Y-40661000D01*
X49411258Y-40661000D01*
X49386488Y-40656073D01*
X49237188Y-40626376D01*
X49073216Y-40558456D01*
X48925646Y-40459853D01*
X48800147Y-40334354D01*
X48701544Y-40186784D01*
X48633624Y-40022812D01*
X48603927Y-39873512D01*
X48599000Y-39848742D01*
X48599000Y-39671258D01*
X48607181Y-39630131D01*
X48633624Y-39497188D01*
X48701544Y-39333216D01*
X48800147Y-39185646D01*
X48925646Y-39060147D01*
X49073216Y-38961544D01*
X49237188Y-38893624D01*
X49386488Y-38863927D01*
X49411258Y-38859000D01*
X49588742Y-38859000D01*
X49613512Y-38863927D01*
G37*
G36*
X104988674Y-38428465D02*
G01*
X105026367Y-38439899D01*
X105061103Y-38458466D01*
X105091548Y-38483452D01*
X105116534Y-38513897D01*
X105135101Y-38548633D01*
X105146535Y-38586326D01*
X105151000Y-38631661D01*
X105151000Y-39468339D01*
X105146535Y-39513674D01*
X105135101Y-39551367D01*
X105116534Y-39586103D01*
X105091548Y-39616548D01*
X105061103Y-39641534D01*
X105026367Y-39660101D01*
X104988674Y-39671535D01*
X104943339Y-39676000D01*
X103856661Y-39676000D01*
X103811326Y-39671535D01*
X103773633Y-39660101D01*
X103738897Y-39641534D01*
X103708452Y-39616548D01*
X103683466Y-39586103D01*
X103664899Y-39551367D01*
X103653465Y-39513674D01*
X103649000Y-39468339D01*
X103649000Y-38631661D01*
X103653465Y-38586326D01*
X103664899Y-38548633D01*
X103683466Y-38513897D01*
X103708452Y-38483452D01*
X103738897Y-38458466D01*
X103773633Y-38439899D01*
X103811326Y-38428465D01*
X103856661Y-38424000D01*
X104943339Y-38424000D01*
X104988674Y-38428465D01*
G37*
G36*
X54588674Y-38253465D02*
G01*
X54626367Y-38264899D01*
X54661103Y-38283466D01*
X54691548Y-38308452D01*
X54716534Y-38338897D01*
X54735101Y-38373633D01*
X54746535Y-38411326D01*
X54751000Y-38456661D01*
X54751000Y-39293339D01*
X54746535Y-39338674D01*
X54735101Y-39376367D01*
X54716534Y-39411103D01*
X54691548Y-39441548D01*
X54661103Y-39466534D01*
X54626367Y-39485101D01*
X54588674Y-39496535D01*
X54543339Y-39501000D01*
X53456661Y-39501000D01*
X53411326Y-39496535D01*
X53373633Y-39485101D01*
X53338897Y-39466534D01*
X53308452Y-39441548D01*
X53283466Y-39411103D01*
X53264899Y-39376367D01*
X53253465Y-39338674D01*
X53249000Y-39293339D01*
X53249000Y-38456661D01*
X53253465Y-38411326D01*
X53264899Y-38373633D01*
X53283466Y-38338897D01*
X53308452Y-38308452D01*
X53338897Y-38283466D01*
X53373633Y-38264899D01*
X53411326Y-38253465D01*
X53456661Y-38249000D01*
X54543339Y-38249000D01*
X54588674Y-38253465D01*
G37*
G36*
X74513674Y-37653465D02*
G01*
X74551367Y-37664899D01*
X74586103Y-37683466D01*
X74616548Y-37708452D01*
X74641534Y-37738897D01*
X74660101Y-37773633D01*
X74671535Y-37811326D01*
X74676000Y-37856661D01*
X74676000Y-38943339D01*
X74671535Y-38988674D01*
X74660101Y-39026367D01*
X74641534Y-39061103D01*
X74616548Y-39091548D01*
X74586103Y-39116534D01*
X74551367Y-39135101D01*
X74513674Y-39146535D01*
X74468339Y-39151000D01*
X73631661Y-39151000D01*
X73586326Y-39146535D01*
X73548633Y-39135101D01*
X73513897Y-39116534D01*
X73483452Y-39091548D01*
X73458466Y-39061103D01*
X73439899Y-39026367D01*
X73428465Y-38988674D01*
X73424000Y-38943339D01*
X73424000Y-37856661D01*
X73428465Y-37811326D01*
X73439899Y-37773633D01*
X73458466Y-37738897D01*
X73483452Y-37708452D01*
X73513897Y-37683466D01*
X73548633Y-37664899D01*
X73586326Y-37653465D01*
X73631661Y-37649000D01*
X74468339Y-37649000D01*
X74513674Y-37653465D01*
G37*
G36*
X72463674Y-37653465D02*
G01*
X72501367Y-37664899D01*
X72536103Y-37683466D01*
X72566548Y-37708452D01*
X72591534Y-37738897D01*
X72610101Y-37773633D01*
X72621535Y-37811326D01*
X72626000Y-37856661D01*
X72626000Y-38943339D01*
X72621535Y-38988674D01*
X72610101Y-39026367D01*
X72591534Y-39061103D01*
X72566548Y-39091548D01*
X72536103Y-39116534D01*
X72501367Y-39135101D01*
X72463674Y-39146535D01*
X72418339Y-39151000D01*
X71581661Y-39151000D01*
X71536326Y-39146535D01*
X71498633Y-39135101D01*
X71463897Y-39116534D01*
X71433452Y-39091548D01*
X71408466Y-39061103D01*
X71389899Y-39026367D01*
X71378465Y-38988674D01*
X71374000Y-38943339D01*
X71374000Y-37856661D01*
X71378465Y-37811326D01*
X71389899Y-37773633D01*
X71408466Y-37738897D01*
X71433452Y-37708452D01*
X71463897Y-37683466D01*
X71498633Y-37664899D01*
X71536326Y-37653465D01*
X71581661Y-37649000D01*
X72418339Y-37649000D01*
X72463674Y-37653465D01*
G37*
G36*
X63613674Y-36953465D02*
G01*
X63651367Y-36964899D01*
X63686103Y-36983466D01*
X63716548Y-37008452D01*
X63741534Y-37038897D01*
X63760101Y-37073633D01*
X63771535Y-37111326D01*
X63776000Y-37156661D01*
X63776000Y-38243339D01*
X63771535Y-38288674D01*
X63760101Y-38326367D01*
X63741534Y-38361103D01*
X63716548Y-38391548D01*
X63686103Y-38416534D01*
X63651367Y-38435101D01*
X63613674Y-38446535D01*
X63568339Y-38451000D01*
X62731661Y-38451000D01*
X62686326Y-38446535D01*
X62648633Y-38435101D01*
X62613897Y-38416534D01*
X62583452Y-38391548D01*
X62558466Y-38361103D01*
X62539899Y-38326367D01*
X62528465Y-38288674D01*
X62524000Y-38243339D01*
X62524000Y-37156661D01*
X62528465Y-37111326D01*
X62539899Y-37073633D01*
X62558466Y-37038897D01*
X62583452Y-37008452D01*
X62613897Y-36983466D01*
X62648633Y-36964899D01*
X62686326Y-36953465D01*
X62731661Y-36949000D01*
X63568339Y-36949000D01*
X63613674Y-36953465D01*
G37*
G36*
X65663674Y-36953465D02*
G01*
X65701367Y-36964899D01*
X65736103Y-36983466D01*
X65766548Y-37008452D01*
X65791534Y-37038897D01*
X65810101Y-37073633D01*
X65821535Y-37111326D01*
X65826000Y-37156661D01*
X65826000Y-38243339D01*
X65821535Y-38288674D01*
X65810101Y-38326367D01*
X65791534Y-38361103D01*
X65766548Y-38391548D01*
X65736103Y-38416534D01*
X65701367Y-38435101D01*
X65663674Y-38446535D01*
X65618339Y-38451000D01*
X64781661Y-38451000D01*
X64736326Y-38446535D01*
X64698633Y-38435101D01*
X64663897Y-38416534D01*
X64633452Y-38391548D01*
X64608466Y-38361103D01*
X64589899Y-38326367D01*
X64578465Y-38288674D01*
X64574000Y-38243339D01*
X64574000Y-37156661D01*
X64578465Y-37111326D01*
X64589899Y-37073633D01*
X64608466Y-37038897D01*
X64633452Y-37008452D01*
X64663897Y-36983466D01*
X64698633Y-36964899D01*
X64736326Y-36953465D01*
X64781661Y-36949000D01*
X65618339Y-36949000D01*
X65663674Y-36953465D01*
G37*
G36*
X104988674Y-36378465D02*
G01*
X105026367Y-36389899D01*
X105061103Y-36408466D01*
X105091548Y-36433452D01*
X105116534Y-36463897D01*
X105135101Y-36498633D01*
X105146535Y-36536326D01*
X105151000Y-36581661D01*
X105151000Y-37418339D01*
X105146535Y-37463674D01*
X105135101Y-37501367D01*
X105116534Y-37536103D01*
X105091548Y-37566548D01*
X105061103Y-37591534D01*
X105026367Y-37610101D01*
X104988674Y-37621535D01*
X104943339Y-37626000D01*
X103856661Y-37626000D01*
X103811326Y-37621535D01*
X103773633Y-37610101D01*
X103738897Y-37591534D01*
X103708452Y-37566548D01*
X103683466Y-37536103D01*
X103664899Y-37501367D01*
X103653465Y-37463674D01*
X103649000Y-37418339D01*
X103649000Y-36581661D01*
X103653465Y-36536326D01*
X103664899Y-36498633D01*
X103683466Y-36463897D01*
X103708452Y-36433452D01*
X103738897Y-36408466D01*
X103773633Y-36389899D01*
X103811326Y-36378465D01*
X103856661Y-36374000D01*
X104943339Y-36374000D01*
X104988674Y-36378465D01*
G37*
G36*
X18379487Y-33748996D02*
G01*
X18592403Y-33837189D01*
X18616255Y-33847069D01*
X18751128Y-33937188D01*
X18829339Y-33989447D01*
X19010553Y-34170661D01*
X19152932Y-34383747D01*
X19251004Y-34620513D01*
X19301000Y-34871861D01*
X19301000Y-35128139D01*
X19251004Y-35379487D01*
X19152932Y-35616253D01*
X19152931Y-35616255D01*
X19010553Y-35829339D01*
X18829339Y-36010553D01*
X18616255Y-36152931D01*
X18616254Y-36152932D01*
X18616253Y-36152932D01*
X18379487Y-36251004D01*
X18128139Y-36301000D01*
X17871861Y-36301000D01*
X17620513Y-36251004D01*
X17383747Y-36152932D01*
X17383746Y-36152932D01*
X17383745Y-36152931D01*
X17170661Y-36010553D01*
X16989447Y-35829339D01*
X16847069Y-35616255D01*
X16847068Y-35616253D01*
X16748996Y-35379487D01*
X16699000Y-35128139D01*
X16699000Y-34871861D01*
X16748996Y-34620513D01*
X16847068Y-34383747D01*
X16989447Y-34170661D01*
X17170661Y-33989447D01*
X17248872Y-33937188D01*
X17383745Y-33847069D01*
X17407597Y-33837189D01*
X17620513Y-33748996D01*
X17871861Y-33699000D01*
X18128139Y-33699000D01*
X18379487Y-33748996D01*
G37*
G36*
X113379487Y-33748996D02*
G01*
X113592403Y-33837189D01*
X113616255Y-33847069D01*
X113751128Y-33937188D01*
X113829339Y-33989447D01*
X114010553Y-34170661D01*
X114152932Y-34383747D01*
X114251004Y-34620513D01*
X114301000Y-34871861D01*
X114301000Y-35128139D01*
X114251004Y-35379487D01*
X114152932Y-35616253D01*
X114152931Y-35616255D01*
X114010553Y-35829339D01*
X113829339Y-36010553D01*
X113616255Y-36152931D01*
X113616254Y-36152932D01*
X113616253Y-36152932D01*
X113379487Y-36251004D01*
X113128139Y-36301000D01*
X112871861Y-36301000D01*
X112620513Y-36251004D01*
X112383747Y-36152932D01*
X112383746Y-36152932D01*
X112383745Y-36152931D01*
X112170661Y-36010553D01*
X111989447Y-35829339D01*
X111847069Y-35616255D01*
X111847068Y-35616253D01*
X111748996Y-35379487D01*
X111699000Y-35128139D01*
X111699000Y-34871861D01*
X111748996Y-34620513D01*
X111847068Y-34383747D01*
X111989447Y-34170661D01*
X112170661Y-33989447D01*
X112248872Y-33937188D01*
X112383745Y-33847069D01*
X112407597Y-33837189D01*
X112620513Y-33748996D01*
X112871861Y-33699000D01*
X113128139Y-33699000D01*
X113379487Y-33748996D01*
G37*
G36*
X81761531Y-33301544D02*
G01*
X81922812Y-33333624D01*
X82086784Y-33401544D01*
X82234354Y-33500147D01*
X82359853Y-33625646D01*
X82458456Y-33773216D01*
X82526376Y-33937188D01*
X82561000Y-34111259D01*
X82561000Y-34288741D01*
X82526376Y-34462812D01*
X82458456Y-34626784D01*
X82359853Y-34774354D01*
X82234354Y-34899853D01*
X82086784Y-34998456D01*
X81922812Y-35066376D01*
X81773512Y-35096073D01*
X81748742Y-35101000D01*
X81571258Y-35101000D01*
X81546488Y-35096073D01*
X81397188Y-35066376D01*
X81233216Y-34998456D01*
X81085646Y-34899853D01*
X80960147Y-34774354D01*
X80861544Y-34626784D01*
X80793624Y-34462812D01*
X80759000Y-34288741D01*
X80759000Y-34111259D01*
X80793624Y-33937188D01*
X80861544Y-33773216D01*
X80960147Y-33625646D01*
X81085646Y-33500147D01*
X81233216Y-33401544D01*
X81397188Y-33333624D01*
X81558469Y-33301544D01*
X81571258Y-33299000D01*
X81748742Y-33299000D01*
X81761531Y-33301544D01*
G37*
G36*
X79221531Y-33301544D02*
G01*
X79382812Y-33333624D01*
X79546784Y-33401544D01*
X79694354Y-33500147D01*
X79819853Y-33625646D01*
X79918456Y-33773216D01*
X79986376Y-33937188D01*
X80021000Y-34111259D01*
X80021000Y-34288741D01*
X79986376Y-34462812D01*
X79918456Y-34626784D01*
X79819853Y-34774354D01*
X79694354Y-34899853D01*
X79546784Y-34998456D01*
X79382812Y-35066376D01*
X79233512Y-35096073D01*
X79208742Y-35101000D01*
X79031258Y-35101000D01*
X79006488Y-35096073D01*
X78857188Y-35066376D01*
X78693216Y-34998456D01*
X78545646Y-34899853D01*
X78420147Y-34774354D01*
X78321544Y-34626784D01*
X78253624Y-34462812D01*
X78219000Y-34288741D01*
X78219000Y-34111259D01*
X78253624Y-33937188D01*
X78321544Y-33773216D01*
X78420147Y-33625646D01*
X78545646Y-33500147D01*
X78693216Y-33401544D01*
X78857188Y-33333624D01*
X79018469Y-33301544D01*
X79031258Y-33299000D01*
X79208742Y-33299000D01*
X79221531Y-33301544D01*
G37*
G36*
X76681531Y-33301544D02*
G01*
X76842812Y-33333624D01*
X77006784Y-33401544D01*
X77154354Y-33500147D01*
X77279853Y-33625646D01*
X77378456Y-33773216D01*
X77446376Y-33937188D01*
X77481000Y-34111259D01*
X77481000Y-34288741D01*
X77446376Y-34462812D01*
X77378456Y-34626784D01*
X77279853Y-34774354D01*
X77154354Y-34899853D01*
X77006784Y-34998456D01*
X76842812Y-35066376D01*
X76693512Y-35096073D01*
X76668742Y-35101000D01*
X76491258Y-35101000D01*
X76466488Y-35096073D01*
X76317188Y-35066376D01*
X76153216Y-34998456D01*
X76005646Y-34899853D01*
X75880147Y-34774354D01*
X75781544Y-34626784D01*
X75713624Y-34462812D01*
X75679000Y-34288741D01*
X75679000Y-34111259D01*
X75713624Y-33937188D01*
X75781544Y-33773216D01*
X75880147Y-33625646D01*
X76005646Y-33500147D01*
X76153216Y-33401544D01*
X76317188Y-33333624D01*
X76478469Y-33301544D01*
X76491258Y-33299000D01*
X76668742Y-33299000D01*
X76681531Y-33301544D01*
G37*
G36*
X74141531Y-33301544D02*
G01*
X74302812Y-33333624D01*
X74466784Y-33401544D01*
X74614354Y-33500147D01*
X74739853Y-33625646D01*
X74838456Y-33773216D01*
X74906376Y-33937188D01*
X74941000Y-34111259D01*
X74941000Y-34288741D01*
X74906376Y-34462812D01*
X74838456Y-34626784D01*
X74739853Y-34774354D01*
X74614354Y-34899853D01*
X74466784Y-34998456D01*
X74302812Y-35066376D01*
X74153512Y-35096073D01*
X74128742Y-35101000D01*
X73951258Y-35101000D01*
X73926488Y-35096073D01*
X73777188Y-35066376D01*
X73613216Y-34998456D01*
X73465646Y-34899853D01*
X73340147Y-34774354D01*
X73241544Y-34626784D01*
X73173624Y-34462812D01*
X73139000Y-34288741D01*
X73139000Y-34111259D01*
X73173624Y-33937188D01*
X73241544Y-33773216D01*
X73340147Y-33625646D01*
X73465646Y-33500147D01*
X73613216Y-33401544D01*
X73777188Y-33333624D01*
X73938469Y-33301544D01*
X73951258Y-33299000D01*
X74128742Y-33299000D01*
X74141531Y-33301544D01*
G37*
G36*
X72401000Y-35101000D02*
G01*
X70599000Y-35101000D01*
X70599000Y-33299000D01*
X72401000Y-33299000D01*
X72401000Y-35101000D01*
G37*
G36*
X84301531Y-33301544D02*
G01*
X84462812Y-33333624D01*
X84626784Y-33401544D01*
X84774354Y-33500147D01*
X84899853Y-33625646D01*
X84998456Y-33773216D01*
X85066376Y-33937188D01*
X85101000Y-34111259D01*
X85101000Y-34288741D01*
X85066376Y-34462812D01*
X84998456Y-34626784D01*
X84899853Y-34774354D01*
X84774354Y-34899853D01*
X84626784Y-34998456D01*
X84462812Y-35066376D01*
X84313512Y-35096073D01*
X84288742Y-35101000D01*
X84111258Y-35101000D01*
X84086488Y-35096073D01*
X83937188Y-35066376D01*
X83773216Y-34998456D01*
X83625646Y-34899853D01*
X83500147Y-34774354D01*
X83401544Y-34626784D01*
X83333624Y-34462812D01*
X83299000Y-34288741D01*
X83299000Y-34111259D01*
X83333624Y-33937188D01*
X83401544Y-33773216D01*
X83500147Y-33625646D01*
X83625646Y-33500147D01*
X83773216Y-33401544D01*
X83937188Y-33333624D01*
X84098469Y-33301544D01*
X84111258Y-33299000D01*
X84288742Y-33299000D01*
X84301531Y-33301544D01*
G37*
G36*
X52813512Y-33203927D02*
G01*
X52962812Y-33233624D01*
X53126784Y-33301544D01*
X53274354Y-33400147D01*
X53399853Y-33525646D01*
X53498456Y-33673216D01*
X53566376Y-33837188D01*
X53601000Y-34011259D01*
X53601000Y-34188741D01*
X53566376Y-34362812D01*
X53498456Y-34526784D01*
X53399853Y-34674354D01*
X53274354Y-34799853D01*
X53126784Y-34898456D01*
X52962812Y-34966376D01*
X52813512Y-34996073D01*
X52788742Y-35001000D01*
X52611258Y-35001000D01*
X52586488Y-34996073D01*
X52437188Y-34966376D01*
X52273216Y-34898456D01*
X52125646Y-34799853D01*
X52000147Y-34674354D01*
X51901544Y-34526784D01*
X51833624Y-34362812D01*
X51799000Y-34188741D01*
X51799000Y-34011259D01*
X51833624Y-33837188D01*
X51901544Y-33673216D01*
X52000147Y-33525646D01*
X52125646Y-33400147D01*
X52273216Y-33301544D01*
X52437188Y-33233624D01*
X52586488Y-33203927D01*
X52611258Y-33199000D01*
X52788742Y-33199000D01*
X52813512Y-33203927D01*
G37*
G36*
X66301000Y-35001000D02*
G01*
X64499000Y-35001000D01*
X64499000Y-33199000D01*
X66301000Y-33199000D01*
X66301000Y-35001000D01*
G37*
G36*
X62973512Y-33203927D02*
G01*
X63122812Y-33233624D01*
X63286784Y-33301544D01*
X63434354Y-33400147D01*
X63559853Y-33525646D01*
X63658456Y-33673216D01*
X63726376Y-33837188D01*
X63761000Y-34011259D01*
X63761000Y-34188741D01*
X63726376Y-34362812D01*
X63658456Y-34526784D01*
X63559853Y-34674354D01*
X63434354Y-34799853D01*
X63286784Y-34898456D01*
X63122812Y-34966376D01*
X62973512Y-34996073D01*
X62948742Y-35001000D01*
X62771258Y-35001000D01*
X62746488Y-34996073D01*
X62597188Y-34966376D01*
X62433216Y-34898456D01*
X62285646Y-34799853D01*
X62160147Y-34674354D01*
X62061544Y-34526784D01*
X61993624Y-34362812D01*
X61959000Y-34188741D01*
X61959000Y-34011259D01*
X61993624Y-33837188D01*
X62061544Y-33673216D01*
X62160147Y-33525646D01*
X62285646Y-33400147D01*
X62433216Y-33301544D01*
X62597188Y-33233624D01*
X62746488Y-33203927D01*
X62771258Y-33199000D01*
X62948742Y-33199000D01*
X62973512Y-33203927D01*
G37*
G36*
X60433512Y-33203927D02*
G01*
X60582812Y-33233624D01*
X60746784Y-33301544D01*
X60894354Y-33400147D01*
X61019853Y-33525646D01*
X61118456Y-33673216D01*
X61186376Y-33837188D01*
X61221000Y-34011259D01*
X61221000Y-34188741D01*
X61186376Y-34362812D01*
X61118456Y-34526784D01*
X61019853Y-34674354D01*
X60894354Y-34799853D01*
X60746784Y-34898456D01*
X60582812Y-34966376D01*
X60433512Y-34996073D01*
X60408742Y-35001000D01*
X60231258Y-35001000D01*
X60206488Y-34996073D01*
X60057188Y-34966376D01*
X59893216Y-34898456D01*
X59745646Y-34799853D01*
X59620147Y-34674354D01*
X59521544Y-34526784D01*
X59453624Y-34362812D01*
X59419000Y-34188741D01*
X59419000Y-34011259D01*
X59453624Y-33837188D01*
X59521544Y-33673216D01*
X59620147Y-33525646D01*
X59745646Y-33400147D01*
X59893216Y-33301544D01*
X60057188Y-33233624D01*
X60206488Y-33203927D01*
X60231258Y-33199000D01*
X60408742Y-33199000D01*
X60433512Y-33203927D01*
G37*
G36*
X57893512Y-33203927D02*
G01*
X58042812Y-33233624D01*
X58206784Y-33301544D01*
X58354354Y-33400147D01*
X58479853Y-33525646D01*
X58578456Y-33673216D01*
X58646376Y-33837188D01*
X58681000Y-34011259D01*
X58681000Y-34188741D01*
X58646376Y-34362812D01*
X58578456Y-34526784D01*
X58479853Y-34674354D01*
X58354354Y-34799853D01*
X58206784Y-34898456D01*
X58042812Y-34966376D01*
X57893512Y-34996073D01*
X57868742Y-35001000D01*
X57691258Y-35001000D01*
X57666488Y-34996073D01*
X57517188Y-34966376D01*
X57353216Y-34898456D01*
X57205646Y-34799853D01*
X57080147Y-34674354D01*
X56981544Y-34526784D01*
X56913624Y-34362812D01*
X56879000Y-34188741D01*
X56879000Y-34011259D01*
X56913624Y-33837188D01*
X56981544Y-33673216D01*
X57080147Y-33525646D01*
X57205646Y-33400147D01*
X57353216Y-33301544D01*
X57517188Y-33233624D01*
X57666488Y-33203927D01*
X57691258Y-33199000D01*
X57868742Y-33199000D01*
X57893512Y-33203927D01*
G37*
G36*
X55353512Y-33203927D02*
G01*
X55502812Y-33233624D01*
X55666784Y-33301544D01*
X55814354Y-33400147D01*
X55939853Y-33525646D01*
X56038456Y-33673216D01*
X56106376Y-33837188D01*
X56141000Y-34011259D01*
X56141000Y-34188741D01*
X56106376Y-34362812D01*
X56038456Y-34526784D01*
X55939853Y-34674354D01*
X55814354Y-34799853D01*
X55666784Y-34898456D01*
X55502812Y-34966376D01*
X55353512Y-34996073D01*
X55328742Y-35001000D01*
X55151258Y-35001000D01*
X55126488Y-34996073D01*
X54977188Y-34966376D01*
X54813216Y-34898456D01*
X54665646Y-34799853D01*
X54540147Y-34674354D01*
X54441544Y-34526784D01*
X54373624Y-34362812D01*
X54339000Y-34188741D01*
X54339000Y-34011259D01*
X54373624Y-33837188D01*
X54441544Y-33673216D01*
X54540147Y-33525646D01*
X54665646Y-33400147D01*
X54813216Y-33301544D01*
X54977188Y-33233624D01*
X55126488Y-33203927D01*
X55151258Y-33199000D01*
X55328742Y-33199000D01*
X55353512Y-33203927D01*
G37*
M02*
