G04 #@! TF.GenerationSoftware,KiCad,Pcbnew,(5.1.5-0-10_14)*
G04 #@! TF.CreationDate,2020-05-10T22:12:37+02:00*
G04 #@! TF.ProjectId,sensor,73656e73-6f72-42e6-9b69-6361645f7063,rev?*
G04 #@! TF.SameCoordinates,Original*
G04 #@! TF.FileFunction,Paste,Top*
G04 #@! TF.FilePolarity,Positive*
%FSLAX46Y46*%
G04 Gerber Fmt 4.6, Leading zero omitted, Abs format (unit mm)*
G04 Created by KiCad (PCBNEW (5.1.5-0-10_14)) date 2020-05-10 22:12:37*
%MOMM*%
%LPD*%
G04 APERTURE LIST*
%ADD10C,0.100000*%
%ADD11R,0.550000X1.500000*%
%ADD12R,1.500000X0.550000*%
%ADD13R,0.660000X0.760000*%
%ADD14R,0.890000X0.420000*%
G04 APERTURE END LIST*
D10*
G36*
X87674505Y-39876204D02*
G01*
X87698773Y-39879804D01*
X87722572Y-39885765D01*
X87745671Y-39894030D01*
X87767850Y-39904520D01*
X87788893Y-39917132D01*
X87808599Y-39931747D01*
X87826777Y-39948223D01*
X87843253Y-39966401D01*
X87857868Y-39986107D01*
X87870480Y-40007150D01*
X87880970Y-40029329D01*
X87889235Y-40052428D01*
X87895196Y-40076227D01*
X87898796Y-40100495D01*
X87900000Y-40124999D01*
X87900000Y-40775001D01*
X87898796Y-40799505D01*
X87895196Y-40823773D01*
X87889235Y-40847572D01*
X87880970Y-40870671D01*
X87870480Y-40892850D01*
X87857868Y-40913893D01*
X87843253Y-40933599D01*
X87826777Y-40951777D01*
X87808599Y-40968253D01*
X87788893Y-40982868D01*
X87767850Y-40995480D01*
X87745671Y-41005970D01*
X87722572Y-41014235D01*
X87698773Y-41020196D01*
X87674505Y-41023796D01*
X87650001Y-41025000D01*
X86749999Y-41025000D01*
X86725495Y-41023796D01*
X86701227Y-41020196D01*
X86677428Y-41014235D01*
X86654329Y-41005970D01*
X86632150Y-40995480D01*
X86611107Y-40982868D01*
X86591401Y-40968253D01*
X86573223Y-40951777D01*
X86556747Y-40933599D01*
X86542132Y-40913893D01*
X86529520Y-40892850D01*
X86519030Y-40870671D01*
X86510765Y-40847572D01*
X86504804Y-40823773D01*
X86501204Y-40799505D01*
X86500000Y-40775001D01*
X86500000Y-40124999D01*
X86501204Y-40100495D01*
X86504804Y-40076227D01*
X86510765Y-40052428D01*
X86519030Y-40029329D01*
X86529520Y-40007150D01*
X86542132Y-39986107D01*
X86556747Y-39966401D01*
X86573223Y-39948223D01*
X86591401Y-39931747D01*
X86611107Y-39917132D01*
X86632150Y-39904520D01*
X86654329Y-39894030D01*
X86677428Y-39885765D01*
X86701227Y-39879804D01*
X86725495Y-39876204D01*
X86749999Y-39875000D01*
X87650001Y-39875000D01*
X87674505Y-39876204D01*
G37*
G36*
X87674505Y-41926204D02*
G01*
X87698773Y-41929804D01*
X87722572Y-41935765D01*
X87745671Y-41944030D01*
X87767850Y-41954520D01*
X87788893Y-41967132D01*
X87808599Y-41981747D01*
X87826777Y-41998223D01*
X87843253Y-42016401D01*
X87857868Y-42036107D01*
X87870480Y-42057150D01*
X87880970Y-42079329D01*
X87889235Y-42102428D01*
X87895196Y-42126227D01*
X87898796Y-42150495D01*
X87900000Y-42174999D01*
X87900000Y-42825001D01*
X87898796Y-42849505D01*
X87895196Y-42873773D01*
X87889235Y-42897572D01*
X87880970Y-42920671D01*
X87870480Y-42942850D01*
X87857868Y-42963893D01*
X87843253Y-42983599D01*
X87826777Y-43001777D01*
X87808599Y-43018253D01*
X87788893Y-43032868D01*
X87767850Y-43045480D01*
X87745671Y-43055970D01*
X87722572Y-43064235D01*
X87698773Y-43070196D01*
X87674505Y-43073796D01*
X87650001Y-43075000D01*
X86749999Y-43075000D01*
X86725495Y-43073796D01*
X86701227Y-43070196D01*
X86677428Y-43064235D01*
X86654329Y-43055970D01*
X86632150Y-43045480D01*
X86611107Y-43032868D01*
X86591401Y-43018253D01*
X86573223Y-43001777D01*
X86556747Y-42983599D01*
X86542132Y-42963893D01*
X86529520Y-42942850D01*
X86519030Y-42920671D01*
X86510765Y-42897572D01*
X86504804Y-42873773D01*
X86501204Y-42849505D01*
X86500000Y-42825001D01*
X86500000Y-42174999D01*
X86501204Y-42150495D01*
X86504804Y-42126227D01*
X86510765Y-42102428D01*
X86519030Y-42079329D01*
X86529520Y-42057150D01*
X86542132Y-42036107D01*
X86556747Y-42016401D01*
X86573223Y-41998223D01*
X86591401Y-41981747D01*
X86611107Y-41967132D01*
X86632150Y-41954520D01*
X86654329Y-41944030D01*
X86677428Y-41935765D01*
X86701227Y-41929804D01*
X86725495Y-41926204D01*
X86749999Y-41925000D01*
X87650001Y-41925000D01*
X87674505Y-41926204D01*
G37*
G36*
X54474505Y-38301204D02*
G01*
X54498773Y-38304804D01*
X54522572Y-38310765D01*
X54545671Y-38319030D01*
X54567850Y-38329520D01*
X54588893Y-38342132D01*
X54608599Y-38356747D01*
X54626777Y-38373223D01*
X54643253Y-38391401D01*
X54657868Y-38411107D01*
X54670480Y-38432150D01*
X54680970Y-38454329D01*
X54689235Y-38477428D01*
X54695196Y-38501227D01*
X54698796Y-38525495D01*
X54700000Y-38549999D01*
X54700000Y-39200001D01*
X54698796Y-39224505D01*
X54695196Y-39248773D01*
X54689235Y-39272572D01*
X54680970Y-39295671D01*
X54670480Y-39317850D01*
X54657868Y-39338893D01*
X54643253Y-39358599D01*
X54626777Y-39376777D01*
X54608599Y-39393253D01*
X54588893Y-39407868D01*
X54567850Y-39420480D01*
X54545671Y-39430970D01*
X54522572Y-39439235D01*
X54498773Y-39445196D01*
X54474505Y-39448796D01*
X54450001Y-39450000D01*
X53549999Y-39450000D01*
X53525495Y-39448796D01*
X53501227Y-39445196D01*
X53477428Y-39439235D01*
X53454329Y-39430970D01*
X53432150Y-39420480D01*
X53411107Y-39407868D01*
X53391401Y-39393253D01*
X53373223Y-39376777D01*
X53356747Y-39358599D01*
X53342132Y-39338893D01*
X53329520Y-39317850D01*
X53319030Y-39295671D01*
X53310765Y-39272572D01*
X53304804Y-39248773D01*
X53301204Y-39224505D01*
X53300000Y-39200001D01*
X53300000Y-38549999D01*
X53301204Y-38525495D01*
X53304804Y-38501227D01*
X53310765Y-38477428D01*
X53319030Y-38454329D01*
X53329520Y-38432150D01*
X53342132Y-38411107D01*
X53356747Y-38391401D01*
X53373223Y-38373223D01*
X53391401Y-38356747D01*
X53411107Y-38342132D01*
X53432150Y-38329520D01*
X53454329Y-38319030D01*
X53477428Y-38310765D01*
X53501227Y-38304804D01*
X53525495Y-38301204D01*
X53549999Y-38300000D01*
X54450001Y-38300000D01*
X54474505Y-38301204D01*
G37*
G36*
X54474505Y-40351204D02*
G01*
X54498773Y-40354804D01*
X54522572Y-40360765D01*
X54545671Y-40369030D01*
X54567850Y-40379520D01*
X54588893Y-40392132D01*
X54608599Y-40406747D01*
X54626777Y-40423223D01*
X54643253Y-40441401D01*
X54657868Y-40461107D01*
X54670480Y-40482150D01*
X54680970Y-40504329D01*
X54689235Y-40527428D01*
X54695196Y-40551227D01*
X54698796Y-40575495D01*
X54700000Y-40599999D01*
X54700000Y-41250001D01*
X54698796Y-41274505D01*
X54695196Y-41298773D01*
X54689235Y-41322572D01*
X54680970Y-41345671D01*
X54670480Y-41367850D01*
X54657868Y-41388893D01*
X54643253Y-41408599D01*
X54626777Y-41426777D01*
X54608599Y-41443253D01*
X54588893Y-41457868D01*
X54567850Y-41470480D01*
X54545671Y-41480970D01*
X54522572Y-41489235D01*
X54498773Y-41495196D01*
X54474505Y-41498796D01*
X54450001Y-41500000D01*
X53549999Y-41500000D01*
X53525495Y-41498796D01*
X53501227Y-41495196D01*
X53477428Y-41489235D01*
X53454329Y-41480970D01*
X53432150Y-41470480D01*
X53411107Y-41457868D01*
X53391401Y-41443253D01*
X53373223Y-41426777D01*
X53356747Y-41408599D01*
X53342132Y-41388893D01*
X53329520Y-41367850D01*
X53319030Y-41345671D01*
X53310765Y-41322572D01*
X53304804Y-41298773D01*
X53301204Y-41274505D01*
X53300000Y-41250001D01*
X53300000Y-40599999D01*
X53301204Y-40575495D01*
X53304804Y-40551227D01*
X53310765Y-40527428D01*
X53319030Y-40504329D01*
X53329520Y-40482150D01*
X53342132Y-40461107D01*
X53356747Y-40441401D01*
X53373223Y-40423223D01*
X53391401Y-40406747D01*
X53411107Y-40392132D01*
X53432150Y-40379520D01*
X53454329Y-40369030D01*
X53477428Y-40360765D01*
X53501227Y-40354804D01*
X53525495Y-40351204D01*
X53549999Y-40350000D01*
X54450001Y-40350000D01*
X54474505Y-40351204D01*
G37*
D11*
X74300000Y-44800000D03*
X75100000Y-44800000D03*
X75900000Y-44800000D03*
X76700000Y-44800000D03*
X77500000Y-44800000D03*
X78300000Y-44800000D03*
X79100000Y-44800000D03*
X79900000Y-44800000D03*
X80700000Y-44800000D03*
X81500000Y-44800000D03*
X82300000Y-44800000D03*
X83100000Y-44800000D03*
X83900000Y-44800000D03*
X84700000Y-44800000D03*
X85500000Y-44800000D03*
X86300000Y-44800000D03*
D12*
X88000000Y-46500000D03*
X88000000Y-47300000D03*
X88000000Y-48100000D03*
X88000000Y-48900000D03*
X88000000Y-49700000D03*
X88000000Y-50500000D03*
X88000000Y-51300000D03*
X88000000Y-52100000D03*
X88000000Y-52900000D03*
X88000000Y-53700000D03*
X88000000Y-54500000D03*
X88000000Y-55300000D03*
X88000000Y-56100000D03*
X88000000Y-56900000D03*
X88000000Y-57700000D03*
X88000000Y-58500000D03*
D11*
X86300000Y-60200000D03*
X85500000Y-60200000D03*
X84700000Y-60200000D03*
X83900000Y-60200000D03*
X83100000Y-60200000D03*
X82300000Y-60200000D03*
X81500000Y-60200000D03*
X80700000Y-60200000D03*
X79900000Y-60200000D03*
X79100000Y-60200000D03*
X78300000Y-60200000D03*
X77500000Y-60200000D03*
X76700000Y-60200000D03*
X75900000Y-60200000D03*
X75100000Y-60200000D03*
X74300000Y-60200000D03*
D12*
X72600000Y-58500000D03*
X72600000Y-57700000D03*
X72600000Y-56900000D03*
X72600000Y-56100000D03*
X72600000Y-55300000D03*
X72600000Y-54500000D03*
X72600000Y-53700000D03*
X72600000Y-52900000D03*
X72600000Y-52100000D03*
X72600000Y-51300000D03*
X72600000Y-50500000D03*
X72600000Y-49700000D03*
X72600000Y-48900000D03*
X72600000Y-48100000D03*
X72600000Y-47300000D03*
X72600000Y-46500000D03*
D10*
G36*
X99114703Y-57795722D02*
G01*
X99129264Y-57797882D01*
X99143543Y-57801459D01*
X99157403Y-57806418D01*
X99170710Y-57812712D01*
X99183336Y-57820280D01*
X99195159Y-57829048D01*
X99206066Y-57838934D01*
X99215952Y-57849841D01*
X99224720Y-57861664D01*
X99232288Y-57874290D01*
X99238582Y-57887597D01*
X99243541Y-57901457D01*
X99247118Y-57915736D01*
X99249278Y-57930297D01*
X99250000Y-57945000D01*
X99250000Y-58245000D01*
X99249278Y-58259703D01*
X99247118Y-58274264D01*
X99243541Y-58288543D01*
X99238582Y-58302403D01*
X99232288Y-58315710D01*
X99224720Y-58328336D01*
X99215952Y-58340159D01*
X99206066Y-58351066D01*
X99195159Y-58360952D01*
X99183336Y-58369720D01*
X99170710Y-58377288D01*
X99157403Y-58383582D01*
X99143543Y-58388541D01*
X99129264Y-58392118D01*
X99114703Y-58394278D01*
X99100000Y-58395000D01*
X97450000Y-58395000D01*
X97435297Y-58394278D01*
X97420736Y-58392118D01*
X97406457Y-58388541D01*
X97392597Y-58383582D01*
X97379290Y-58377288D01*
X97366664Y-58369720D01*
X97354841Y-58360952D01*
X97343934Y-58351066D01*
X97334048Y-58340159D01*
X97325280Y-58328336D01*
X97317712Y-58315710D01*
X97311418Y-58302403D01*
X97306459Y-58288543D01*
X97302882Y-58274264D01*
X97300722Y-58259703D01*
X97300000Y-58245000D01*
X97300000Y-57945000D01*
X97300722Y-57930297D01*
X97302882Y-57915736D01*
X97306459Y-57901457D01*
X97311418Y-57887597D01*
X97317712Y-57874290D01*
X97325280Y-57861664D01*
X97334048Y-57849841D01*
X97343934Y-57838934D01*
X97354841Y-57829048D01*
X97366664Y-57820280D01*
X97379290Y-57812712D01*
X97392597Y-57806418D01*
X97406457Y-57801459D01*
X97420736Y-57797882D01*
X97435297Y-57795722D01*
X97450000Y-57795000D01*
X99100000Y-57795000D01*
X99114703Y-57795722D01*
G37*
G36*
X99114703Y-59065722D02*
G01*
X99129264Y-59067882D01*
X99143543Y-59071459D01*
X99157403Y-59076418D01*
X99170710Y-59082712D01*
X99183336Y-59090280D01*
X99195159Y-59099048D01*
X99206066Y-59108934D01*
X99215952Y-59119841D01*
X99224720Y-59131664D01*
X99232288Y-59144290D01*
X99238582Y-59157597D01*
X99243541Y-59171457D01*
X99247118Y-59185736D01*
X99249278Y-59200297D01*
X99250000Y-59215000D01*
X99250000Y-59515000D01*
X99249278Y-59529703D01*
X99247118Y-59544264D01*
X99243541Y-59558543D01*
X99238582Y-59572403D01*
X99232288Y-59585710D01*
X99224720Y-59598336D01*
X99215952Y-59610159D01*
X99206066Y-59621066D01*
X99195159Y-59630952D01*
X99183336Y-59639720D01*
X99170710Y-59647288D01*
X99157403Y-59653582D01*
X99143543Y-59658541D01*
X99129264Y-59662118D01*
X99114703Y-59664278D01*
X99100000Y-59665000D01*
X97450000Y-59665000D01*
X97435297Y-59664278D01*
X97420736Y-59662118D01*
X97406457Y-59658541D01*
X97392597Y-59653582D01*
X97379290Y-59647288D01*
X97366664Y-59639720D01*
X97354841Y-59630952D01*
X97343934Y-59621066D01*
X97334048Y-59610159D01*
X97325280Y-59598336D01*
X97317712Y-59585710D01*
X97311418Y-59572403D01*
X97306459Y-59558543D01*
X97302882Y-59544264D01*
X97300722Y-59529703D01*
X97300000Y-59515000D01*
X97300000Y-59215000D01*
X97300722Y-59200297D01*
X97302882Y-59185736D01*
X97306459Y-59171457D01*
X97311418Y-59157597D01*
X97317712Y-59144290D01*
X97325280Y-59131664D01*
X97334048Y-59119841D01*
X97343934Y-59108934D01*
X97354841Y-59099048D01*
X97366664Y-59090280D01*
X97379290Y-59082712D01*
X97392597Y-59076418D01*
X97406457Y-59071459D01*
X97420736Y-59067882D01*
X97435297Y-59065722D01*
X97450000Y-59065000D01*
X99100000Y-59065000D01*
X99114703Y-59065722D01*
G37*
G36*
X99114703Y-60335722D02*
G01*
X99129264Y-60337882D01*
X99143543Y-60341459D01*
X99157403Y-60346418D01*
X99170710Y-60352712D01*
X99183336Y-60360280D01*
X99195159Y-60369048D01*
X99206066Y-60378934D01*
X99215952Y-60389841D01*
X99224720Y-60401664D01*
X99232288Y-60414290D01*
X99238582Y-60427597D01*
X99243541Y-60441457D01*
X99247118Y-60455736D01*
X99249278Y-60470297D01*
X99250000Y-60485000D01*
X99250000Y-60785000D01*
X99249278Y-60799703D01*
X99247118Y-60814264D01*
X99243541Y-60828543D01*
X99238582Y-60842403D01*
X99232288Y-60855710D01*
X99224720Y-60868336D01*
X99215952Y-60880159D01*
X99206066Y-60891066D01*
X99195159Y-60900952D01*
X99183336Y-60909720D01*
X99170710Y-60917288D01*
X99157403Y-60923582D01*
X99143543Y-60928541D01*
X99129264Y-60932118D01*
X99114703Y-60934278D01*
X99100000Y-60935000D01*
X97450000Y-60935000D01*
X97435297Y-60934278D01*
X97420736Y-60932118D01*
X97406457Y-60928541D01*
X97392597Y-60923582D01*
X97379290Y-60917288D01*
X97366664Y-60909720D01*
X97354841Y-60900952D01*
X97343934Y-60891066D01*
X97334048Y-60880159D01*
X97325280Y-60868336D01*
X97317712Y-60855710D01*
X97311418Y-60842403D01*
X97306459Y-60828543D01*
X97302882Y-60814264D01*
X97300722Y-60799703D01*
X97300000Y-60785000D01*
X97300000Y-60485000D01*
X97300722Y-60470297D01*
X97302882Y-60455736D01*
X97306459Y-60441457D01*
X97311418Y-60427597D01*
X97317712Y-60414290D01*
X97325280Y-60401664D01*
X97334048Y-60389841D01*
X97343934Y-60378934D01*
X97354841Y-60369048D01*
X97366664Y-60360280D01*
X97379290Y-60352712D01*
X97392597Y-60346418D01*
X97406457Y-60341459D01*
X97420736Y-60337882D01*
X97435297Y-60335722D01*
X97450000Y-60335000D01*
X99100000Y-60335000D01*
X99114703Y-60335722D01*
G37*
G36*
X99114703Y-61605722D02*
G01*
X99129264Y-61607882D01*
X99143543Y-61611459D01*
X99157403Y-61616418D01*
X99170710Y-61622712D01*
X99183336Y-61630280D01*
X99195159Y-61639048D01*
X99206066Y-61648934D01*
X99215952Y-61659841D01*
X99224720Y-61671664D01*
X99232288Y-61684290D01*
X99238582Y-61697597D01*
X99243541Y-61711457D01*
X99247118Y-61725736D01*
X99249278Y-61740297D01*
X99250000Y-61755000D01*
X99250000Y-62055000D01*
X99249278Y-62069703D01*
X99247118Y-62084264D01*
X99243541Y-62098543D01*
X99238582Y-62112403D01*
X99232288Y-62125710D01*
X99224720Y-62138336D01*
X99215952Y-62150159D01*
X99206066Y-62161066D01*
X99195159Y-62170952D01*
X99183336Y-62179720D01*
X99170710Y-62187288D01*
X99157403Y-62193582D01*
X99143543Y-62198541D01*
X99129264Y-62202118D01*
X99114703Y-62204278D01*
X99100000Y-62205000D01*
X97450000Y-62205000D01*
X97435297Y-62204278D01*
X97420736Y-62202118D01*
X97406457Y-62198541D01*
X97392597Y-62193582D01*
X97379290Y-62187288D01*
X97366664Y-62179720D01*
X97354841Y-62170952D01*
X97343934Y-62161066D01*
X97334048Y-62150159D01*
X97325280Y-62138336D01*
X97317712Y-62125710D01*
X97311418Y-62112403D01*
X97306459Y-62098543D01*
X97302882Y-62084264D01*
X97300722Y-62069703D01*
X97300000Y-62055000D01*
X97300000Y-61755000D01*
X97300722Y-61740297D01*
X97302882Y-61725736D01*
X97306459Y-61711457D01*
X97311418Y-61697597D01*
X97317712Y-61684290D01*
X97325280Y-61671664D01*
X97334048Y-61659841D01*
X97343934Y-61648934D01*
X97354841Y-61639048D01*
X97366664Y-61630280D01*
X97379290Y-61622712D01*
X97392597Y-61616418D01*
X97406457Y-61611459D01*
X97420736Y-61607882D01*
X97435297Y-61605722D01*
X97450000Y-61605000D01*
X99100000Y-61605000D01*
X99114703Y-61605722D01*
G37*
G36*
X94164703Y-61605722D02*
G01*
X94179264Y-61607882D01*
X94193543Y-61611459D01*
X94207403Y-61616418D01*
X94220710Y-61622712D01*
X94233336Y-61630280D01*
X94245159Y-61639048D01*
X94256066Y-61648934D01*
X94265952Y-61659841D01*
X94274720Y-61671664D01*
X94282288Y-61684290D01*
X94288582Y-61697597D01*
X94293541Y-61711457D01*
X94297118Y-61725736D01*
X94299278Y-61740297D01*
X94300000Y-61755000D01*
X94300000Y-62055000D01*
X94299278Y-62069703D01*
X94297118Y-62084264D01*
X94293541Y-62098543D01*
X94288582Y-62112403D01*
X94282288Y-62125710D01*
X94274720Y-62138336D01*
X94265952Y-62150159D01*
X94256066Y-62161066D01*
X94245159Y-62170952D01*
X94233336Y-62179720D01*
X94220710Y-62187288D01*
X94207403Y-62193582D01*
X94193543Y-62198541D01*
X94179264Y-62202118D01*
X94164703Y-62204278D01*
X94150000Y-62205000D01*
X92500000Y-62205000D01*
X92485297Y-62204278D01*
X92470736Y-62202118D01*
X92456457Y-62198541D01*
X92442597Y-62193582D01*
X92429290Y-62187288D01*
X92416664Y-62179720D01*
X92404841Y-62170952D01*
X92393934Y-62161066D01*
X92384048Y-62150159D01*
X92375280Y-62138336D01*
X92367712Y-62125710D01*
X92361418Y-62112403D01*
X92356459Y-62098543D01*
X92352882Y-62084264D01*
X92350722Y-62069703D01*
X92350000Y-62055000D01*
X92350000Y-61755000D01*
X92350722Y-61740297D01*
X92352882Y-61725736D01*
X92356459Y-61711457D01*
X92361418Y-61697597D01*
X92367712Y-61684290D01*
X92375280Y-61671664D01*
X92384048Y-61659841D01*
X92393934Y-61648934D01*
X92404841Y-61639048D01*
X92416664Y-61630280D01*
X92429290Y-61622712D01*
X92442597Y-61616418D01*
X92456457Y-61611459D01*
X92470736Y-61607882D01*
X92485297Y-61605722D01*
X92500000Y-61605000D01*
X94150000Y-61605000D01*
X94164703Y-61605722D01*
G37*
G36*
X94164703Y-60335722D02*
G01*
X94179264Y-60337882D01*
X94193543Y-60341459D01*
X94207403Y-60346418D01*
X94220710Y-60352712D01*
X94233336Y-60360280D01*
X94245159Y-60369048D01*
X94256066Y-60378934D01*
X94265952Y-60389841D01*
X94274720Y-60401664D01*
X94282288Y-60414290D01*
X94288582Y-60427597D01*
X94293541Y-60441457D01*
X94297118Y-60455736D01*
X94299278Y-60470297D01*
X94300000Y-60485000D01*
X94300000Y-60785000D01*
X94299278Y-60799703D01*
X94297118Y-60814264D01*
X94293541Y-60828543D01*
X94288582Y-60842403D01*
X94282288Y-60855710D01*
X94274720Y-60868336D01*
X94265952Y-60880159D01*
X94256066Y-60891066D01*
X94245159Y-60900952D01*
X94233336Y-60909720D01*
X94220710Y-60917288D01*
X94207403Y-60923582D01*
X94193543Y-60928541D01*
X94179264Y-60932118D01*
X94164703Y-60934278D01*
X94150000Y-60935000D01*
X92500000Y-60935000D01*
X92485297Y-60934278D01*
X92470736Y-60932118D01*
X92456457Y-60928541D01*
X92442597Y-60923582D01*
X92429290Y-60917288D01*
X92416664Y-60909720D01*
X92404841Y-60900952D01*
X92393934Y-60891066D01*
X92384048Y-60880159D01*
X92375280Y-60868336D01*
X92367712Y-60855710D01*
X92361418Y-60842403D01*
X92356459Y-60828543D01*
X92352882Y-60814264D01*
X92350722Y-60799703D01*
X92350000Y-60785000D01*
X92350000Y-60485000D01*
X92350722Y-60470297D01*
X92352882Y-60455736D01*
X92356459Y-60441457D01*
X92361418Y-60427597D01*
X92367712Y-60414290D01*
X92375280Y-60401664D01*
X92384048Y-60389841D01*
X92393934Y-60378934D01*
X92404841Y-60369048D01*
X92416664Y-60360280D01*
X92429290Y-60352712D01*
X92442597Y-60346418D01*
X92456457Y-60341459D01*
X92470736Y-60337882D01*
X92485297Y-60335722D01*
X92500000Y-60335000D01*
X94150000Y-60335000D01*
X94164703Y-60335722D01*
G37*
G36*
X94164703Y-59065722D02*
G01*
X94179264Y-59067882D01*
X94193543Y-59071459D01*
X94207403Y-59076418D01*
X94220710Y-59082712D01*
X94233336Y-59090280D01*
X94245159Y-59099048D01*
X94256066Y-59108934D01*
X94265952Y-59119841D01*
X94274720Y-59131664D01*
X94282288Y-59144290D01*
X94288582Y-59157597D01*
X94293541Y-59171457D01*
X94297118Y-59185736D01*
X94299278Y-59200297D01*
X94300000Y-59215000D01*
X94300000Y-59515000D01*
X94299278Y-59529703D01*
X94297118Y-59544264D01*
X94293541Y-59558543D01*
X94288582Y-59572403D01*
X94282288Y-59585710D01*
X94274720Y-59598336D01*
X94265952Y-59610159D01*
X94256066Y-59621066D01*
X94245159Y-59630952D01*
X94233336Y-59639720D01*
X94220710Y-59647288D01*
X94207403Y-59653582D01*
X94193543Y-59658541D01*
X94179264Y-59662118D01*
X94164703Y-59664278D01*
X94150000Y-59665000D01*
X92500000Y-59665000D01*
X92485297Y-59664278D01*
X92470736Y-59662118D01*
X92456457Y-59658541D01*
X92442597Y-59653582D01*
X92429290Y-59647288D01*
X92416664Y-59639720D01*
X92404841Y-59630952D01*
X92393934Y-59621066D01*
X92384048Y-59610159D01*
X92375280Y-59598336D01*
X92367712Y-59585710D01*
X92361418Y-59572403D01*
X92356459Y-59558543D01*
X92352882Y-59544264D01*
X92350722Y-59529703D01*
X92350000Y-59515000D01*
X92350000Y-59215000D01*
X92350722Y-59200297D01*
X92352882Y-59185736D01*
X92356459Y-59171457D01*
X92361418Y-59157597D01*
X92367712Y-59144290D01*
X92375280Y-59131664D01*
X92384048Y-59119841D01*
X92393934Y-59108934D01*
X92404841Y-59099048D01*
X92416664Y-59090280D01*
X92429290Y-59082712D01*
X92442597Y-59076418D01*
X92456457Y-59071459D01*
X92470736Y-59067882D01*
X92485297Y-59065722D01*
X92500000Y-59065000D01*
X94150000Y-59065000D01*
X94164703Y-59065722D01*
G37*
G36*
X94164703Y-57795722D02*
G01*
X94179264Y-57797882D01*
X94193543Y-57801459D01*
X94207403Y-57806418D01*
X94220710Y-57812712D01*
X94233336Y-57820280D01*
X94245159Y-57829048D01*
X94256066Y-57838934D01*
X94265952Y-57849841D01*
X94274720Y-57861664D01*
X94282288Y-57874290D01*
X94288582Y-57887597D01*
X94293541Y-57901457D01*
X94297118Y-57915736D01*
X94299278Y-57930297D01*
X94300000Y-57945000D01*
X94300000Y-58245000D01*
X94299278Y-58259703D01*
X94297118Y-58274264D01*
X94293541Y-58288543D01*
X94288582Y-58302403D01*
X94282288Y-58315710D01*
X94274720Y-58328336D01*
X94265952Y-58340159D01*
X94256066Y-58351066D01*
X94245159Y-58360952D01*
X94233336Y-58369720D01*
X94220710Y-58377288D01*
X94207403Y-58383582D01*
X94193543Y-58388541D01*
X94179264Y-58392118D01*
X94164703Y-58394278D01*
X94150000Y-58395000D01*
X92500000Y-58395000D01*
X92485297Y-58394278D01*
X92470736Y-58392118D01*
X92456457Y-58388541D01*
X92442597Y-58383582D01*
X92429290Y-58377288D01*
X92416664Y-58369720D01*
X92404841Y-58360952D01*
X92393934Y-58351066D01*
X92384048Y-58340159D01*
X92375280Y-58328336D01*
X92367712Y-58315710D01*
X92361418Y-58302403D01*
X92356459Y-58288543D01*
X92352882Y-58274264D01*
X92350722Y-58259703D01*
X92350000Y-58245000D01*
X92350000Y-57945000D01*
X92350722Y-57930297D01*
X92352882Y-57915736D01*
X92356459Y-57901457D01*
X92361418Y-57887597D01*
X92367712Y-57874290D01*
X92375280Y-57861664D01*
X92384048Y-57849841D01*
X92393934Y-57838934D01*
X92404841Y-57829048D01*
X92416664Y-57820280D01*
X92429290Y-57812712D01*
X92442597Y-57806418D01*
X92456457Y-57801459D01*
X92470736Y-57797882D01*
X92485297Y-57795722D01*
X92500000Y-57795000D01*
X94150000Y-57795000D01*
X94164703Y-57795722D01*
G37*
D13*
X97620000Y-40930000D03*
X96780000Y-40930000D03*
X96780000Y-41870000D03*
X97620000Y-41870000D03*
D14*
X99305000Y-40425000D03*
X99305000Y-41075000D03*
X99305000Y-41725000D03*
X99305000Y-42375000D03*
X95095000Y-42375000D03*
X95095000Y-41725000D03*
X95095000Y-41075000D03*
X95095000Y-40425000D03*
D10*
G36*
X104474505Y-52801204D02*
G01*
X104498773Y-52804804D01*
X104522572Y-52810765D01*
X104545671Y-52819030D01*
X104567850Y-52829520D01*
X104588893Y-52842132D01*
X104608599Y-52856747D01*
X104626777Y-52873223D01*
X104643253Y-52891401D01*
X104657868Y-52911107D01*
X104670480Y-52932150D01*
X104680970Y-52954329D01*
X104689235Y-52977428D01*
X104695196Y-53001227D01*
X104698796Y-53025495D01*
X104700000Y-53049999D01*
X104700000Y-53700001D01*
X104698796Y-53724505D01*
X104695196Y-53748773D01*
X104689235Y-53772572D01*
X104680970Y-53795671D01*
X104670480Y-53817850D01*
X104657868Y-53838893D01*
X104643253Y-53858599D01*
X104626777Y-53876777D01*
X104608599Y-53893253D01*
X104588893Y-53907868D01*
X104567850Y-53920480D01*
X104545671Y-53930970D01*
X104522572Y-53939235D01*
X104498773Y-53945196D01*
X104474505Y-53948796D01*
X104450001Y-53950000D01*
X103549999Y-53950000D01*
X103525495Y-53948796D01*
X103501227Y-53945196D01*
X103477428Y-53939235D01*
X103454329Y-53930970D01*
X103432150Y-53920480D01*
X103411107Y-53907868D01*
X103391401Y-53893253D01*
X103373223Y-53876777D01*
X103356747Y-53858599D01*
X103342132Y-53838893D01*
X103329520Y-53817850D01*
X103319030Y-53795671D01*
X103310765Y-53772572D01*
X103304804Y-53748773D01*
X103301204Y-53724505D01*
X103300000Y-53700001D01*
X103300000Y-53049999D01*
X103301204Y-53025495D01*
X103304804Y-53001227D01*
X103310765Y-52977428D01*
X103319030Y-52954329D01*
X103329520Y-52932150D01*
X103342132Y-52911107D01*
X103356747Y-52891401D01*
X103373223Y-52873223D01*
X103391401Y-52856747D01*
X103411107Y-52842132D01*
X103432150Y-52829520D01*
X103454329Y-52819030D01*
X103477428Y-52810765D01*
X103501227Y-52804804D01*
X103525495Y-52801204D01*
X103549999Y-52800000D01*
X104450001Y-52800000D01*
X104474505Y-52801204D01*
G37*
G36*
X104474505Y-54851204D02*
G01*
X104498773Y-54854804D01*
X104522572Y-54860765D01*
X104545671Y-54869030D01*
X104567850Y-54879520D01*
X104588893Y-54892132D01*
X104608599Y-54906747D01*
X104626777Y-54923223D01*
X104643253Y-54941401D01*
X104657868Y-54961107D01*
X104670480Y-54982150D01*
X104680970Y-55004329D01*
X104689235Y-55027428D01*
X104695196Y-55051227D01*
X104698796Y-55075495D01*
X104700000Y-55099999D01*
X104700000Y-55750001D01*
X104698796Y-55774505D01*
X104695196Y-55798773D01*
X104689235Y-55822572D01*
X104680970Y-55845671D01*
X104670480Y-55867850D01*
X104657868Y-55888893D01*
X104643253Y-55908599D01*
X104626777Y-55926777D01*
X104608599Y-55943253D01*
X104588893Y-55957868D01*
X104567850Y-55970480D01*
X104545671Y-55980970D01*
X104522572Y-55989235D01*
X104498773Y-55995196D01*
X104474505Y-55998796D01*
X104450001Y-56000000D01*
X103549999Y-56000000D01*
X103525495Y-55998796D01*
X103501227Y-55995196D01*
X103477428Y-55989235D01*
X103454329Y-55980970D01*
X103432150Y-55970480D01*
X103411107Y-55957868D01*
X103391401Y-55943253D01*
X103373223Y-55926777D01*
X103356747Y-55908599D01*
X103342132Y-55888893D01*
X103329520Y-55867850D01*
X103319030Y-55845671D01*
X103310765Y-55822572D01*
X103304804Y-55798773D01*
X103301204Y-55774505D01*
X103300000Y-55750001D01*
X103300000Y-55099999D01*
X103301204Y-55075495D01*
X103304804Y-55051227D01*
X103310765Y-55027428D01*
X103319030Y-55004329D01*
X103329520Y-54982150D01*
X103342132Y-54961107D01*
X103356747Y-54941401D01*
X103373223Y-54923223D01*
X103391401Y-54906747D01*
X103411107Y-54892132D01*
X103432150Y-54879520D01*
X103454329Y-54869030D01*
X103477428Y-54860765D01*
X103501227Y-54854804D01*
X103525495Y-54851204D01*
X103549999Y-54850000D01*
X104450001Y-54850000D01*
X104474505Y-54851204D01*
G37*
G36*
X65199505Y-46901204D02*
G01*
X65223773Y-46904804D01*
X65247572Y-46910765D01*
X65270671Y-46919030D01*
X65292850Y-46929520D01*
X65313893Y-46942132D01*
X65333599Y-46956747D01*
X65351777Y-46973223D01*
X65368253Y-46991401D01*
X65382868Y-47011107D01*
X65395480Y-47032150D01*
X65405970Y-47054329D01*
X65414235Y-47077428D01*
X65420196Y-47101227D01*
X65423796Y-47125495D01*
X65425000Y-47149999D01*
X65425000Y-48050001D01*
X65423796Y-48074505D01*
X65420196Y-48098773D01*
X65414235Y-48122572D01*
X65405970Y-48145671D01*
X65395480Y-48167850D01*
X65382868Y-48188893D01*
X65368253Y-48208599D01*
X65351777Y-48226777D01*
X65333599Y-48243253D01*
X65313893Y-48257868D01*
X65292850Y-48270480D01*
X65270671Y-48280970D01*
X65247572Y-48289235D01*
X65223773Y-48295196D01*
X65199505Y-48298796D01*
X65175001Y-48300000D01*
X64524999Y-48300000D01*
X64500495Y-48298796D01*
X64476227Y-48295196D01*
X64452428Y-48289235D01*
X64429329Y-48280970D01*
X64407150Y-48270480D01*
X64386107Y-48257868D01*
X64366401Y-48243253D01*
X64348223Y-48226777D01*
X64331747Y-48208599D01*
X64317132Y-48188893D01*
X64304520Y-48167850D01*
X64294030Y-48145671D01*
X64285765Y-48122572D01*
X64279804Y-48098773D01*
X64276204Y-48074505D01*
X64275000Y-48050001D01*
X64275000Y-47149999D01*
X64276204Y-47125495D01*
X64279804Y-47101227D01*
X64285765Y-47077428D01*
X64294030Y-47054329D01*
X64304520Y-47032150D01*
X64317132Y-47011107D01*
X64331747Y-46991401D01*
X64348223Y-46973223D01*
X64366401Y-46956747D01*
X64386107Y-46942132D01*
X64407150Y-46929520D01*
X64429329Y-46919030D01*
X64452428Y-46910765D01*
X64476227Y-46904804D01*
X64500495Y-46901204D01*
X64524999Y-46900000D01*
X65175001Y-46900000D01*
X65199505Y-46901204D01*
G37*
G36*
X63149505Y-46901204D02*
G01*
X63173773Y-46904804D01*
X63197572Y-46910765D01*
X63220671Y-46919030D01*
X63242850Y-46929520D01*
X63263893Y-46942132D01*
X63283599Y-46956747D01*
X63301777Y-46973223D01*
X63318253Y-46991401D01*
X63332868Y-47011107D01*
X63345480Y-47032150D01*
X63355970Y-47054329D01*
X63364235Y-47077428D01*
X63370196Y-47101227D01*
X63373796Y-47125495D01*
X63375000Y-47149999D01*
X63375000Y-48050001D01*
X63373796Y-48074505D01*
X63370196Y-48098773D01*
X63364235Y-48122572D01*
X63355970Y-48145671D01*
X63345480Y-48167850D01*
X63332868Y-48188893D01*
X63318253Y-48208599D01*
X63301777Y-48226777D01*
X63283599Y-48243253D01*
X63263893Y-48257868D01*
X63242850Y-48270480D01*
X63220671Y-48280970D01*
X63197572Y-48289235D01*
X63173773Y-48295196D01*
X63149505Y-48298796D01*
X63125001Y-48300000D01*
X62474999Y-48300000D01*
X62450495Y-48298796D01*
X62426227Y-48295196D01*
X62402428Y-48289235D01*
X62379329Y-48280970D01*
X62357150Y-48270480D01*
X62336107Y-48257868D01*
X62316401Y-48243253D01*
X62298223Y-48226777D01*
X62281747Y-48208599D01*
X62267132Y-48188893D01*
X62254520Y-48167850D01*
X62244030Y-48145671D01*
X62235765Y-48122572D01*
X62229804Y-48098773D01*
X62226204Y-48074505D01*
X62225000Y-48050001D01*
X62225000Y-47149999D01*
X62226204Y-47125495D01*
X62229804Y-47101227D01*
X62235765Y-47077428D01*
X62244030Y-47054329D01*
X62254520Y-47032150D01*
X62267132Y-47011107D01*
X62281747Y-46991401D01*
X62298223Y-46973223D01*
X62316401Y-46956747D01*
X62336107Y-46942132D01*
X62357150Y-46929520D01*
X62379329Y-46919030D01*
X62402428Y-46910765D01*
X62426227Y-46904804D01*
X62450495Y-46901204D01*
X62474999Y-46900000D01*
X63125001Y-46900000D01*
X63149505Y-46901204D01*
G37*
G36*
X64399505Y-50301204D02*
G01*
X64423773Y-50304804D01*
X64447572Y-50310765D01*
X64470671Y-50319030D01*
X64492850Y-50329520D01*
X64513893Y-50342132D01*
X64533599Y-50356747D01*
X64551777Y-50373223D01*
X64568253Y-50391401D01*
X64582868Y-50411107D01*
X64595480Y-50432150D01*
X64605970Y-50454329D01*
X64614235Y-50477428D01*
X64620196Y-50501227D01*
X64623796Y-50525495D01*
X64625000Y-50549999D01*
X64625000Y-51450001D01*
X64623796Y-51474505D01*
X64620196Y-51498773D01*
X64614235Y-51522572D01*
X64605970Y-51545671D01*
X64595480Y-51567850D01*
X64582868Y-51588893D01*
X64568253Y-51608599D01*
X64551777Y-51626777D01*
X64533599Y-51643253D01*
X64513893Y-51657868D01*
X64492850Y-51670480D01*
X64470671Y-51680970D01*
X64447572Y-51689235D01*
X64423773Y-51695196D01*
X64399505Y-51698796D01*
X64375001Y-51700000D01*
X63724999Y-51700000D01*
X63700495Y-51698796D01*
X63676227Y-51695196D01*
X63652428Y-51689235D01*
X63629329Y-51680970D01*
X63607150Y-51670480D01*
X63586107Y-51657868D01*
X63566401Y-51643253D01*
X63548223Y-51626777D01*
X63531747Y-51608599D01*
X63517132Y-51588893D01*
X63504520Y-51567850D01*
X63494030Y-51545671D01*
X63485765Y-51522572D01*
X63479804Y-51498773D01*
X63476204Y-51474505D01*
X63475000Y-51450001D01*
X63475000Y-50549999D01*
X63476204Y-50525495D01*
X63479804Y-50501227D01*
X63485765Y-50477428D01*
X63494030Y-50454329D01*
X63504520Y-50432150D01*
X63517132Y-50411107D01*
X63531747Y-50391401D01*
X63548223Y-50373223D01*
X63566401Y-50356747D01*
X63586107Y-50342132D01*
X63607150Y-50329520D01*
X63629329Y-50319030D01*
X63652428Y-50310765D01*
X63676227Y-50304804D01*
X63700495Y-50301204D01*
X63724999Y-50300000D01*
X64375001Y-50300000D01*
X64399505Y-50301204D01*
G37*
G36*
X62349505Y-50301204D02*
G01*
X62373773Y-50304804D01*
X62397572Y-50310765D01*
X62420671Y-50319030D01*
X62442850Y-50329520D01*
X62463893Y-50342132D01*
X62483599Y-50356747D01*
X62501777Y-50373223D01*
X62518253Y-50391401D01*
X62532868Y-50411107D01*
X62545480Y-50432150D01*
X62555970Y-50454329D01*
X62564235Y-50477428D01*
X62570196Y-50501227D01*
X62573796Y-50525495D01*
X62575000Y-50549999D01*
X62575000Y-51450001D01*
X62573796Y-51474505D01*
X62570196Y-51498773D01*
X62564235Y-51522572D01*
X62555970Y-51545671D01*
X62545480Y-51567850D01*
X62532868Y-51588893D01*
X62518253Y-51608599D01*
X62501777Y-51626777D01*
X62483599Y-51643253D01*
X62463893Y-51657868D01*
X62442850Y-51670480D01*
X62420671Y-51680970D01*
X62397572Y-51689235D01*
X62373773Y-51695196D01*
X62349505Y-51698796D01*
X62325001Y-51700000D01*
X61674999Y-51700000D01*
X61650495Y-51698796D01*
X61626227Y-51695196D01*
X61602428Y-51689235D01*
X61579329Y-51680970D01*
X61557150Y-51670480D01*
X61536107Y-51657868D01*
X61516401Y-51643253D01*
X61498223Y-51626777D01*
X61481747Y-51608599D01*
X61467132Y-51588893D01*
X61454520Y-51567850D01*
X61444030Y-51545671D01*
X61435765Y-51522572D01*
X61429804Y-51498773D01*
X61426204Y-51474505D01*
X61425000Y-51450001D01*
X61425000Y-50549999D01*
X61426204Y-50525495D01*
X61429804Y-50501227D01*
X61435765Y-50477428D01*
X61444030Y-50454329D01*
X61454520Y-50432150D01*
X61467132Y-50411107D01*
X61481747Y-50391401D01*
X61498223Y-50373223D01*
X61516401Y-50356747D01*
X61536107Y-50342132D01*
X61557150Y-50329520D01*
X61579329Y-50319030D01*
X61602428Y-50310765D01*
X61626227Y-50304804D01*
X61650495Y-50301204D01*
X61674999Y-50300000D01*
X62325001Y-50300000D01*
X62349505Y-50301204D01*
G37*
G36*
X104399505Y-47101204D02*
G01*
X104423773Y-47104804D01*
X104447572Y-47110765D01*
X104470671Y-47119030D01*
X104492850Y-47129520D01*
X104513893Y-47142132D01*
X104533599Y-47156747D01*
X104551777Y-47173223D01*
X104568253Y-47191401D01*
X104582868Y-47211107D01*
X104595480Y-47232150D01*
X104605970Y-47254329D01*
X104614235Y-47277428D01*
X104620196Y-47301227D01*
X104623796Y-47325495D01*
X104625000Y-47349999D01*
X104625000Y-48250001D01*
X104623796Y-48274505D01*
X104620196Y-48298773D01*
X104614235Y-48322572D01*
X104605970Y-48345671D01*
X104595480Y-48367850D01*
X104582868Y-48388893D01*
X104568253Y-48408599D01*
X104551777Y-48426777D01*
X104533599Y-48443253D01*
X104513893Y-48457868D01*
X104492850Y-48470480D01*
X104470671Y-48480970D01*
X104447572Y-48489235D01*
X104423773Y-48495196D01*
X104399505Y-48498796D01*
X104375001Y-48500000D01*
X103724999Y-48500000D01*
X103700495Y-48498796D01*
X103676227Y-48495196D01*
X103652428Y-48489235D01*
X103629329Y-48480970D01*
X103607150Y-48470480D01*
X103586107Y-48457868D01*
X103566401Y-48443253D01*
X103548223Y-48426777D01*
X103531747Y-48408599D01*
X103517132Y-48388893D01*
X103504520Y-48367850D01*
X103494030Y-48345671D01*
X103485765Y-48322572D01*
X103479804Y-48298773D01*
X103476204Y-48274505D01*
X103475000Y-48250001D01*
X103475000Y-47349999D01*
X103476204Y-47325495D01*
X103479804Y-47301227D01*
X103485765Y-47277428D01*
X103494030Y-47254329D01*
X103504520Y-47232150D01*
X103517132Y-47211107D01*
X103531747Y-47191401D01*
X103548223Y-47173223D01*
X103566401Y-47156747D01*
X103586107Y-47142132D01*
X103607150Y-47129520D01*
X103629329Y-47119030D01*
X103652428Y-47110765D01*
X103676227Y-47104804D01*
X103700495Y-47101204D01*
X103724999Y-47100000D01*
X104375001Y-47100000D01*
X104399505Y-47101204D01*
G37*
G36*
X102349505Y-47101204D02*
G01*
X102373773Y-47104804D01*
X102397572Y-47110765D01*
X102420671Y-47119030D01*
X102442850Y-47129520D01*
X102463893Y-47142132D01*
X102483599Y-47156747D01*
X102501777Y-47173223D01*
X102518253Y-47191401D01*
X102532868Y-47211107D01*
X102545480Y-47232150D01*
X102555970Y-47254329D01*
X102564235Y-47277428D01*
X102570196Y-47301227D01*
X102573796Y-47325495D01*
X102575000Y-47349999D01*
X102575000Y-48250001D01*
X102573796Y-48274505D01*
X102570196Y-48298773D01*
X102564235Y-48322572D01*
X102555970Y-48345671D01*
X102545480Y-48367850D01*
X102532868Y-48388893D01*
X102518253Y-48408599D01*
X102501777Y-48426777D01*
X102483599Y-48443253D01*
X102463893Y-48457868D01*
X102442850Y-48470480D01*
X102420671Y-48480970D01*
X102397572Y-48489235D01*
X102373773Y-48495196D01*
X102349505Y-48498796D01*
X102325001Y-48500000D01*
X101674999Y-48500000D01*
X101650495Y-48498796D01*
X101626227Y-48495196D01*
X101602428Y-48489235D01*
X101579329Y-48480970D01*
X101557150Y-48470480D01*
X101536107Y-48457868D01*
X101516401Y-48443253D01*
X101498223Y-48426777D01*
X101481747Y-48408599D01*
X101467132Y-48388893D01*
X101454520Y-48367850D01*
X101444030Y-48345671D01*
X101435765Y-48322572D01*
X101429804Y-48298773D01*
X101426204Y-48274505D01*
X101425000Y-48250001D01*
X101425000Y-47349999D01*
X101426204Y-47325495D01*
X101429804Y-47301227D01*
X101435765Y-47277428D01*
X101444030Y-47254329D01*
X101454520Y-47232150D01*
X101467132Y-47211107D01*
X101481747Y-47191401D01*
X101498223Y-47173223D01*
X101516401Y-47156747D01*
X101536107Y-47142132D01*
X101557150Y-47129520D01*
X101579329Y-47119030D01*
X101602428Y-47110765D01*
X101626227Y-47104804D01*
X101650495Y-47101204D01*
X101674999Y-47100000D01*
X102325001Y-47100000D01*
X102349505Y-47101204D01*
G37*
G36*
X98574505Y-47101204D02*
G01*
X98598773Y-47104804D01*
X98622572Y-47110765D01*
X98645671Y-47119030D01*
X98667850Y-47129520D01*
X98688893Y-47142132D01*
X98708599Y-47156747D01*
X98726777Y-47173223D01*
X98743253Y-47191401D01*
X98757868Y-47211107D01*
X98770480Y-47232150D01*
X98780970Y-47254329D01*
X98789235Y-47277428D01*
X98795196Y-47301227D01*
X98798796Y-47325495D01*
X98800000Y-47349999D01*
X98800000Y-48250001D01*
X98798796Y-48274505D01*
X98795196Y-48298773D01*
X98789235Y-48322572D01*
X98780970Y-48345671D01*
X98770480Y-48367850D01*
X98757868Y-48388893D01*
X98743253Y-48408599D01*
X98726777Y-48426777D01*
X98708599Y-48443253D01*
X98688893Y-48457868D01*
X98667850Y-48470480D01*
X98645671Y-48480970D01*
X98622572Y-48489235D01*
X98598773Y-48495196D01*
X98574505Y-48498796D01*
X98550001Y-48500000D01*
X97899999Y-48500000D01*
X97875495Y-48498796D01*
X97851227Y-48495196D01*
X97827428Y-48489235D01*
X97804329Y-48480970D01*
X97782150Y-48470480D01*
X97761107Y-48457868D01*
X97741401Y-48443253D01*
X97723223Y-48426777D01*
X97706747Y-48408599D01*
X97692132Y-48388893D01*
X97679520Y-48367850D01*
X97669030Y-48345671D01*
X97660765Y-48322572D01*
X97654804Y-48298773D01*
X97651204Y-48274505D01*
X97650000Y-48250001D01*
X97650000Y-47349999D01*
X97651204Y-47325495D01*
X97654804Y-47301227D01*
X97660765Y-47277428D01*
X97669030Y-47254329D01*
X97679520Y-47232150D01*
X97692132Y-47211107D01*
X97706747Y-47191401D01*
X97723223Y-47173223D01*
X97741401Y-47156747D01*
X97761107Y-47142132D01*
X97782150Y-47129520D01*
X97804329Y-47119030D01*
X97827428Y-47110765D01*
X97851227Y-47104804D01*
X97875495Y-47101204D01*
X97899999Y-47100000D01*
X98550001Y-47100000D01*
X98574505Y-47101204D01*
G37*
G36*
X96524505Y-47101204D02*
G01*
X96548773Y-47104804D01*
X96572572Y-47110765D01*
X96595671Y-47119030D01*
X96617850Y-47129520D01*
X96638893Y-47142132D01*
X96658599Y-47156747D01*
X96676777Y-47173223D01*
X96693253Y-47191401D01*
X96707868Y-47211107D01*
X96720480Y-47232150D01*
X96730970Y-47254329D01*
X96739235Y-47277428D01*
X96745196Y-47301227D01*
X96748796Y-47325495D01*
X96750000Y-47349999D01*
X96750000Y-48250001D01*
X96748796Y-48274505D01*
X96745196Y-48298773D01*
X96739235Y-48322572D01*
X96730970Y-48345671D01*
X96720480Y-48367850D01*
X96707868Y-48388893D01*
X96693253Y-48408599D01*
X96676777Y-48426777D01*
X96658599Y-48443253D01*
X96638893Y-48457868D01*
X96617850Y-48470480D01*
X96595671Y-48480970D01*
X96572572Y-48489235D01*
X96548773Y-48495196D01*
X96524505Y-48498796D01*
X96500001Y-48500000D01*
X95849999Y-48500000D01*
X95825495Y-48498796D01*
X95801227Y-48495196D01*
X95777428Y-48489235D01*
X95754329Y-48480970D01*
X95732150Y-48470480D01*
X95711107Y-48457868D01*
X95691401Y-48443253D01*
X95673223Y-48426777D01*
X95656747Y-48408599D01*
X95642132Y-48388893D01*
X95629520Y-48367850D01*
X95619030Y-48345671D01*
X95610765Y-48322572D01*
X95604804Y-48298773D01*
X95601204Y-48274505D01*
X95600000Y-48250001D01*
X95600000Y-47349999D01*
X95601204Y-47325495D01*
X95604804Y-47301227D01*
X95610765Y-47277428D01*
X95619030Y-47254329D01*
X95629520Y-47232150D01*
X95642132Y-47211107D01*
X95656747Y-47191401D01*
X95673223Y-47173223D01*
X95691401Y-47156747D01*
X95711107Y-47142132D01*
X95732150Y-47129520D01*
X95754329Y-47119030D01*
X95777428Y-47110765D01*
X95801227Y-47104804D01*
X95825495Y-47101204D01*
X95849999Y-47100000D01*
X96500001Y-47100000D01*
X96524505Y-47101204D01*
G37*
G36*
X54074505Y-48426204D02*
G01*
X54098773Y-48429804D01*
X54122572Y-48435765D01*
X54145671Y-48444030D01*
X54167850Y-48454520D01*
X54188893Y-48467132D01*
X54208599Y-48481747D01*
X54226777Y-48498223D01*
X54243253Y-48516401D01*
X54257868Y-48536107D01*
X54270480Y-48557150D01*
X54280970Y-48579329D01*
X54289235Y-48602428D01*
X54295196Y-48626227D01*
X54298796Y-48650495D01*
X54300000Y-48674999D01*
X54300000Y-49325001D01*
X54298796Y-49349505D01*
X54295196Y-49373773D01*
X54289235Y-49397572D01*
X54280970Y-49420671D01*
X54270480Y-49442850D01*
X54257868Y-49463893D01*
X54243253Y-49483599D01*
X54226777Y-49501777D01*
X54208599Y-49518253D01*
X54188893Y-49532868D01*
X54167850Y-49545480D01*
X54145671Y-49555970D01*
X54122572Y-49564235D01*
X54098773Y-49570196D01*
X54074505Y-49573796D01*
X54050001Y-49575000D01*
X53149999Y-49575000D01*
X53125495Y-49573796D01*
X53101227Y-49570196D01*
X53077428Y-49564235D01*
X53054329Y-49555970D01*
X53032150Y-49545480D01*
X53011107Y-49532868D01*
X52991401Y-49518253D01*
X52973223Y-49501777D01*
X52956747Y-49483599D01*
X52942132Y-49463893D01*
X52929520Y-49442850D01*
X52919030Y-49420671D01*
X52910765Y-49397572D01*
X52904804Y-49373773D01*
X52901204Y-49349505D01*
X52900000Y-49325001D01*
X52900000Y-48674999D01*
X52901204Y-48650495D01*
X52904804Y-48626227D01*
X52910765Y-48602428D01*
X52919030Y-48579329D01*
X52929520Y-48557150D01*
X52942132Y-48536107D01*
X52956747Y-48516401D01*
X52973223Y-48498223D01*
X52991401Y-48481747D01*
X53011107Y-48467132D01*
X53032150Y-48454520D01*
X53054329Y-48444030D01*
X53077428Y-48435765D01*
X53101227Y-48429804D01*
X53125495Y-48426204D01*
X53149999Y-48425000D01*
X54050001Y-48425000D01*
X54074505Y-48426204D01*
G37*
G36*
X54074505Y-46376204D02*
G01*
X54098773Y-46379804D01*
X54122572Y-46385765D01*
X54145671Y-46394030D01*
X54167850Y-46404520D01*
X54188893Y-46417132D01*
X54208599Y-46431747D01*
X54226777Y-46448223D01*
X54243253Y-46466401D01*
X54257868Y-46486107D01*
X54270480Y-46507150D01*
X54280970Y-46529329D01*
X54289235Y-46552428D01*
X54295196Y-46576227D01*
X54298796Y-46600495D01*
X54300000Y-46624999D01*
X54300000Y-47275001D01*
X54298796Y-47299505D01*
X54295196Y-47323773D01*
X54289235Y-47347572D01*
X54280970Y-47370671D01*
X54270480Y-47392850D01*
X54257868Y-47413893D01*
X54243253Y-47433599D01*
X54226777Y-47451777D01*
X54208599Y-47468253D01*
X54188893Y-47482868D01*
X54167850Y-47495480D01*
X54145671Y-47505970D01*
X54122572Y-47514235D01*
X54098773Y-47520196D01*
X54074505Y-47523796D01*
X54050001Y-47525000D01*
X53149999Y-47525000D01*
X53125495Y-47523796D01*
X53101227Y-47520196D01*
X53077428Y-47514235D01*
X53054329Y-47505970D01*
X53032150Y-47495480D01*
X53011107Y-47482868D01*
X52991401Y-47468253D01*
X52973223Y-47451777D01*
X52956747Y-47433599D01*
X52942132Y-47413893D01*
X52929520Y-47392850D01*
X52919030Y-47370671D01*
X52910765Y-47347572D01*
X52904804Y-47323773D01*
X52901204Y-47299505D01*
X52900000Y-47275001D01*
X52900000Y-46624999D01*
X52901204Y-46600495D01*
X52904804Y-46576227D01*
X52910765Y-46552428D01*
X52919030Y-46529329D01*
X52929520Y-46507150D01*
X52942132Y-46486107D01*
X52956747Y-46466401D01*
X52973223Y-46448223D01*
X52991401Y-46431747D01*
X53011107Y-46417132D01*
X53032150Y-46404520D01*
X53054329Y-46394030D01*
X53077428Y-46385765D01*
X53101227Y-46379804D01*
X53125495Y-46376204D01*
X53149999Y-46375000D01*
X54050001Y-46375000D01*
X54074505Y-46376204D01*
G37*
G36*
X104399505Y-41701204D02*
G01*
X104423773Y-41704804D01*
X104447572Y-41710765D01*
X104470671Y-41719030D01*
X104492850Y-41729520D01*
X104513893Y-41742132D01*
X104533599Y-41756747D01*
X104551777Y-41773223D01*
X104568253Y-41791401D01*
X104582868Y-41811107D01*
X104595480Y-41832150D01*
X104605970Y-41854329D01*
X104614235Y-41877428D01*
X104620196Y-41901227D01*
X104623796Y-41925495D01*
X104625000Y-41949999D01*
X104625000Y-42850001D01*
X104623796Y-42874505D01*
X104620196Y-42898773D01*
X104614235Y-42922572D01*
X104605970Y-42945671D01*
X104595480Y-42967850D01*
X104582868Y-42988893D01*
X104568253Y-43008599D01*
X104551777Y-43026777D01*
X104533599Y-43043253D01*
X104513893Y-43057868D01*
X104492850Y-43070480D01*
X104470671Y-43080970D01*
X104447572Y-43089235D01*
X104423773Y-43095196D01*
X104399505Y-43098796D01*
X104375001Y-43100000D01*
X103724999Y-43100000D01*
X103700495Y-43098796D01*
X103676227Y-43095196D01*
X103652428Y-43089235D01*
X103629329Y-43080970D01*
X103607150Y-43070480D01*
X103586107Y-43057868D01*
X103566401Y-43043253D01*
X103548223Y-43026777D01*
X103531747Y-43008599D01*
X103517132Y-42988893D01*
X103504520Y-42967850D01*
X103494030Y-42945671D01*
X103485765Y-42922572D01*
X103479804Y-42898773D01*
X103476204Y-42874505D01*
X103475000Y-42850001D01*
X103475000Y-41949999D01*
X103476204Y-41925495D01*
X103479804Y-41901227D01*
X103485765Y-41877428D01*
X103494030Y-41854329D01*
X103504520Y-41832150D01*
X103517132Y-41811107D01*
X103531747Y-41791401D01*
X103548223Y-41773223D01*
X103566401Y-41756747D01*
X103586107Y-41742132D01*
X103607150Y-41729520D01*
X103629329Y-41719030D01*
X103652428Y-41710765D01*
X103676227Y-41704804D01*
X103700495Y-41701204D01*
X103724999Y-41700000D01*
X104375001Y-41700000D01*
X104399505Y-41701204D01*
G37*
G36*
X102349505Y-41701204D02*
G01*
X102373773Y-41704804D01*
X102397572Y-41710765D01*
X102420671Y-41719030D01*
X102442850Y-41729520D01*
X102463893Y-41742132D01*
X102483599Y-41756747D01*
X102501777Y-41773223D01*
X102518253Y-41791401D01*
X102532868Y-41811107D01*
X102545480Y-41832150D01*
X102555970Y-41854329D01*
X102564235Y-41877428D01*
X102570196Y-41901227D01*
X102573796Y-41925495D01*
X102575000Y-41949999D01*
X102575000Y-42850001D01*
X102573796Y-42874505D01*
X102570196Y-42898773D01*
X102564235Y-42922572D01*
X102555970Y-42945671D01*
X102545480Y-42967850D01*
X102532868Y-42988893D01*
X102518253Y-43008599D01*
X102501777Y-43026777D01*
X102483599Y-43043253D01*
X102463893Y-43057868D01*
X102442850Y-43070480D01*
X102420671Y-43080970D01*
X102397572Y-43089235D01*
X102373773Y-43095196D01*
X102349505Y-43098796D01*
X102325001Y-43100000D01*
X101674999Y-43100000D01*
X101650495Y-43098796D01*
X101626227Y-43095196D01*
X101602428Y-43089235D01*
X101579329Y-43080970D01*
X101557150Y-43070480D01*
X101536107Y-43057868D01*
X101516401Y-43043253D01*
X101498223Y-43026777D01*
X101481747Y-43008599D01*
X101467132Y-42988893D01*
X101454520Y-42967850D01*
X101444030Y-42945671D01*
X101435765Y-42922572D01*
X101429804Y-42898773D01*
X101426204Y-42874505D01*
X101425000Y-42850001D01*
X101425000Y-41949999D01*
X101426204Y-41925495D01*
X101429804Y-41901227D01*
X101435765Y-41877428D01*
X101444030Y-41854329D01*
X101454520Y-41832150D01*
X101467132Y-41811107D01*
X101481747Y-41791401D01*
X101498223Y-41773223D01*
X101516401Y-41756747D01*
X101536107Y-41742132D01*
X101557150Y-41729520D01*
X101579329Y-41719030D01*
X101602428Y-41710765D01*
X101626227Y-41704804D01*
X101650495Y-41701204D01*
X101674999Y-41700000D01*
X102325001Y-41700000D01*
X102349505Y-41701204D01*
G37*
G36*
X70474505Y-42851204D02*
G01*
X70498773Y-42854804D01*
X70522572Y-42860765D01*
X70545671Y-42869030D01*
X70567850Y-42879520D01*
X70588893Y-42892132D01*
X70608599Y-42906747D01*
X70626777Y-42923223D01*
X70643253Y-42941401D01*
X70657868Y-42961107D01*
X70670480Y-42982150D01*
X70680970Y-43004329D01*
X70689235Y-43027428D01*
X70695196Y-43051227D01*
X70698796Y-43075495D01*
X70700000Y-43099999D01*
X70700000Y-43750001D01*
X70698796Y-43774505D01*
X70695196Y-43798773D01*
X70689235Y-43822572D01*
X70680970Y-43845671D01*
X70670480Y-43867850D01*
X70657868Y-43888893D01*
X70643253Y-43908599D01*
X70626777Y-43926777D01*
X70608599Y-43943253D01*
X70588893Y-43957868D01*
X70567850Y-43970480D01*
X70545671Y-43980970D01*
X70522572Y-43989235D01*
X70498773Y-43995196D01*
X70474505Y-43998796D01*
X70450001Y-44000000D01*
X69549999Y-44000000D01*
X69525495Y-43998796D01*
X69501227Y-43995196D01*
X69477428Y-43989235D01*
X69454329Y-43980970D01*
X69432150Y-43970480D01*
X69411107Y-43957868D01*
X69391401Y-43943253D01*
X69373223Y-43926777D01*
X69356747Y-43908599D01*
X69342132Y-43888893D01*
X69329520Y-43867850D01*
X69319030Y-43845671D01*
X69310765Y-43822572D01*
X69304804Y-43798773D01*
X69301204Y-43774505D01*
X69300000Y-43750001D01*
X69300000Y-43099999D01*
X69301204Y-43075495D01*
X69304804Y-43051227D01*
X69310765Y-43027428D01*
X69319030Y-43004329D01*
X69329520Y-42982150D01*
X69342132Y-42961107D01*
X69356747Y-42941401D01*
X69373223Y-42923223D01*
X69391401Y-42906747D01*
X69411107Y-42892132D01*
X69432150Y-42879520D01*
X69454329Y-42869030D01*
X69477428Y-42860765D01*
X69501227Y-42854804D01*
X69525495Y-42851204D01*
X69549999Y-42850000D01*
X70450001Y-42850000D01*
X70474505Y-42851204D01*
G37*
G36*
X70474505Y-40801204D02*
G01*
X70498773Y-40804804D01*
X70522572Y-40810765D01*
X70545671Y-40819030D01*
X70567850Y-40829520D01*
X70588893Y-40842132D01*
X70608599Y-40856747D01*
X70626777Y-40873223D01*
X70643253Y-40891401D01*
X70657868Y-40911107D01*
X70670480Y-40932150D01*
X70680970Y-40954329D01*
X70689235Y-40977428D01*
X70695196Y-41001227D01*
X70698796Y-41025495D01*
X70700000Y-41049999D01*
X70700000Y-41700001D01*
X70698796Y-41724505D01*
X70695196Y-41748773D01*
X70689235Y-41772572D01*
X70680970Y-41795671D01*
X70670480Y-41817850D01*
X70657868Y-41838893D01*
X70643253Y-41858599D01*
X70626777Y-41876777D01*
X70608599Y-41893253D01*
X70588893Y-41907868D01*
X70567850Y-41920480D01*
X70545671Y-41930970D01*
X70522572Y-41939235D01*
X70498773Y-41945196D01*
X70474505Y-41948796D01*
X70450001Y-41950000D01*
X69549999Y-41950000D01*
X69525495Y-41948796D01*
X69501227Y-41945196D01*
X69477428Y-41939235D01*
X69454329Y-41930970D01*
X69432150Y-41920480D01*
X69411107Y-41907868D01*
X69391401Y-41893253D01*
X69373223Y-41876777D01*
X69356747Y-41858599D01*
X69342132Y-41838893D01*
X69329520Y-41817850D01*
X69319030Y-41795671D01*
X69310765Y-41772572D01*
X69304804Y-41748773D01*
X69301204Y-41724505D01*
X69300000Y-41700001D01*
X69300000Y-41049999D01*
X69301204Y-41025495D01*
X69304804Y-41001227D01*
X69310765Y-40977428D01*
X69319030Y-40954329D01*
X69329520Y-40932150D01*
X69342132Y-40911107D01*
X69356747Y-40891401D01*
X69373223Y-40873223D01*
X69391401Y-40856747D01*
X69411107Y-40842132D01*
X69432150Y-40829520D01*
X69454329Y-40819030D01*
X69477428Y-40810765D01*
X69501227Y-40804804D01*
X69525495Y-40801204D01*
X69549999Y-40800000D01*
X70450001Y-40800000D01*
X70474505Y-40801204D01*
G37*
G36*
X60574505Y-46901204D02*
G01*
X60598773Y-46904804D01*
X60622572Y-46910765D01*
X60645671Y-46919030D01*
X60667850Y-46929520D01*
X60688893Y-46942132D01*
X60708599Y-46956747D01*
X60726777Y-46973223D01*
X60743253Y-46991401D01*
X60757868Y-47011107D01*
X60770480Y-47032150D01*
X60780970Y-47054329D01*
X60789235Y-47077428D01*
X60795196Y-47101227D01*
X60798796Y-47125495D01*
X60800000Y-47149999D01*
X60800000Y-48050001D01*
X60798796Y-48074505D01*
X60795196Y-48098773D01*
X60789235Y-48122572D01*
X60780970Y-48145671D01*
X60770480Y-48167850D01*
X60757868Y-48188893D01*
X60743253Y-48208599D01*
X60726777Y-48226777D01*
X60708599Y-48243253D01*
X60688893Y-48257868D01*
X60667850Y-48270480D01*
X60645671Y-48280970D01*
X60622572Y-48289235D01*
X60598773Y-48295196D01*
X60574505Y-48298796D01*
X60550001Y-48300000D01*
X59899999Y-48300000D01*
X59875495Y-48298796D01*
X59851227Y-48295196D01*
X59827428Y-48289235D01*
X59804329Y-48280970D01*
X59782150Y-48270480D01*
X59761107Y-48257868D01*
X59741401Y-48243253D01*
X59723223Y-48226777D01*
X59706747Y-48208599D01*
X59692132Y-48188893D01*
X59679520Y-48167850D01*
X59669030Y-48145671D01*
X59660765Y-48122572D01*
X59654804Y-48098773D01*
X59651204Y-48074505D01*
X59650000Y-48050001D01*
X59650000Y-47149999D01*
X59651204Y-47125495D01*
X59654804Y-47101227D01*
X59660765Y-47077428D01*
X59669030Y-47054329D01*
X59679520Y-47032150D01*
X59692132Y-47011107D01*
X59706747Y-46991401D01*
X59723223Y-46973223D01*
X59741401Y-46956747D01*
X59761107Y-46942132D01*
X59782150Y-46929520D01*
X59804329Y-46919030D01*
X59827428Y-46910765D01*
X59851227Y-46904804D01*
X59875495Y-46901204D01*
X59899999Y-46900000D01*
X60550001Y-46900000D01*
X60574505Y-46901204D01*
G37*
G36*
X58524505Y-46901204D02*
G01*
X58548773Y-46904804D01*
X58572572Y-46910765D01*
X58595671Y-46919030D01*
X58617850Y-46929520D01*
X58638893Y-46942132D01*
X58658599Y-46956747D01*
X58676777Y-46973223D01*
X58693253Y-46991401D01*
X58707868Y-47011107D01*
X58720480Y-47032150D01*
X58730970Y-47054329D01*
X58739235Y-47077428D01*
X58745196Y-47101227D01*
X58748796Y-47125495D01*
X58750000Y-47149999D01*
X58750000Y-48050001D01*
X58748796Y-48074505D01*
X58745196Y-48098773D01*
X58739235Y-48122572D01*
X58730970Y-48145671D01*
X58720480Y-48167850D01*
X58707868Y-48188893D01*
X58693253Y-48208599D01*
X58676777Y-48226777D01*
X58658599Y-48243253D01*
X58638893Y-48257868D01*
X58617850Y-48270480D01*
X58595671Y-48280970D01*
X58572572Y-48289235D01*
X58548773Y-48295196D01*
X58524505Y-48298796D01*
X58500001Y-48300000D01*
X57849999Y-48300000D01*
X57825495Y-48298796D01*
X57801227Y-48295196D01*
X57777428Y-48289235D01*
X57754329Y-48280970D01*
X57732150Y-48270480D01*
X57711107Y-48257868D01*
X57691401Y-48243253D01*
X57673223Y-48226777D01*
X57656747Y-48208599D01*
X57642132Y-48188893D01*
X57629520Y-48167850D01*
X57619030Y-48145671D01*
X57610765Y-48122572D01*
X57604804Y-48098773D01*
X57601204Y-48074505D01*
X57600000Y-48050001D01*
X57600000Y-47149999D01*
X57601204Y-47125495D01*
X57604804Y-47101227D01*
X57610765Y-47077428D01*
X57619030Y-47054329D01*
X57629520Y-47032150D01*
X57642132Y-47011107D01*
X57656747Y-46991401D01*
X57673223Y-46973223D01*
X57691401Y-46956747D01*
X57711107Y-46942132D01*
X57732150Y-46929520D01*
X57754329Y-46919030D01*
X57777428Y-46910765D01*
X57801227Y-46904804D01*
X57825495Y-46901204D01*
X57849999Y-46900000D01*
X58500001Y-46900000D01*
X58524505Y-46901204D01*
G37*
G36*
X98699505Y-52801204D02*
G01*
X98723773Y-52804804D01*
X98747572Y-52810765D01*
X98770671Y-52819030D01*
X98792850Y-52829520D01*
X98813893Y-52842132D01*
X98833599Y-52856747D01*
X98851777Y-52873223D01*
X98868253Y-52891401D01*
X98882868Y-52911107D01*
X98895480Y-52932150D01*
X98905970Y-52954329D01*
X98914235Y-52977428D01*
X98920196Y-53001227D01*
X98923796Y-53025495D01*
X98925000Y-53049999D01*
X98925000Y-53950001D01*
X98923796Y-53974505D01*
X98920196Y-53998773D01*
X98914235Y-54022572D01*
X98905970Y-54045671D01*
X98895480Y-54067850D01*
X98882868Y-54088893D01*
X98868253Y-54108599D01*
X98851777Y-54126777D01*
X98833599Y-54143253D01*
X98813893Y-54157868D01*
X98792850Y-54170480D01*
X98770671Y-54180970D01*
X98747572Y-54189235D01*
X98723773Y-54195196D01*
X98699505Y-54198796D01*
X98675001Y-54200000D01*
X98024999Y-54200000D01*
X98000495Y-54198796D01*
X97976227Y-54195196D01*
X97952428Y-54189235D01*
X97929329Y-54180970D01*
X97907150Y-54170480D01*
X97886107Y-54157868D01*
X97866401Y-54143253D01*
X97848223Y-54126777D01*
X97831747Y-54108599D01*
X97817132Y-54088893D01*
X97804520Y-54067850D01*
X97794030Y-54045671D01*
X97785765Y-54022572D01*
X97779804Y-53998773D01*
X97776204Y-53974505D01*
X97775000Y-53950001D01*
X97775000Y-53049999D01*
X97776204Y-53025495D01*
X97779804Y-53001227D01*
X97785765Y-52977428D01*
X97794030Y-52954329D01*
X97804520Y-52932150D01*
X97817132Y-52911107D01*
X97831747Y-52891401D01*
X97848223Y-52873223D01*
X97866401Y-52856747D01*
X97886107Y-52842132D01*
X97907150Y-52829520D01*
X97929329Y-52819030D01*
X97952428Y-52810765D01*
X97976227Y-52804804D01*
X98000495Y-52801204D01*
X98024999Y-52800000D01*
X98675001Y-52800000D01*
X98699505Y-52801204D01*
G37*
G36*
X96649505Y-52801204D02*
G01*
X96673773Y-52804804D01*
X96697572Y-52810765D01*
X96720671Y-52819030D01*
X96742850Y-52829520D01*
X96763893Y-52842132D01*
X96783599Y-52856747D01*
X96801777Y-52873223D01*
X96818253Y-52891401D01*
X96832868Y-52911107D01*
X96845480Y-52932150D01*
X96855970Y-52954329D01*
X96864235Y-52977428D01*
X96870196Y-53001227D01*
X96873796Y-53025495D01*
X96875000Y-53049999D01*
X96875000Y-53950001D01*
X96873796Y-53974505D01*
X96870196Y-53998773D01*
X96864235Y-54022572D01*
X96855970Y-54045671D01*
X96845480Y-54067850D01*
X96832868Y-54088893D01*
X96818253Y-54108599D01*
X96801777Y-54126777D01*
X96783599Y-54143253D01*
X96763893Y-54157868D01*
X96742850Y-54170480D01*
X96720671Y-54180970D01*
X96697572Y-54189235D01*
X96673773Y-54195196D01*
X96649505Y-54198796D01*
X96625001Y-54200000D01*
X95974999Y-54200000D01*
X95950495Y-54198796D01*
X95926227Y-54195196D01*
X95902428Y-54189235D01*
X95879329Y-54180970D01*
X95857150Y-54170480D01*
X95836107Y-54157868D01*
X95816401Y-54143253D01*
X95798223Y-54126777D01*
X95781747Y-54108599D01*
X95767132Y-54088893D01*
X95754520Y-54067850D01*
X95744030Y-54045671D01*
X95735765Y-54022572D01*
X95729804Y-53998773D01*
X95726204Y-53974505D01*
X95725000Y-53950001D01*
X95725000Y-53049999D01*
X95726204Y-53025495D01*
X95729804Y-53001227D01*
X95735765Y-52977428D01*
X95744030Y-52954329D01*
X95754520Y-52932150D01*
X95767132Y-52911107D01*
X95781747Y-52891401D01*
X95798223Y-52873223D01*
X95816401Y-52856747D01*
X95836107Y-52842132D01*
X95857150Y-52829520D01*
X95879329Y-52819030D01*
X95902428Y-52810765D01*
X95926227Y-52804804D01*
X95950495Y-52801204D01*
X95974999Y-52800000D01*
X96625001Y-52800000D01*
X96649505Y-52801204D01*
G37*
G36*
X104374505Y-63301204D02*
G01*
X104398773Y-63304804D01*
X104422572Y-63310765D01*
X104445671Y-63319030D01*
X104467850Y-63329520D01*
X104488893Y-63342132D01*
X104508599Y-63356747D01*
X104526777Y-63373223D01*
X104543253Y-63391401D01*
X104557868Y-63411107D01*
X104570480Y-63432150D01*
X104580970Y-63454329D01*
X104589235Y-63477428D01*
X104595196Y-63501227D01*
X104598796Y-63525495D01*
X104600000Y-63549999D01*
X104600000Y-64450001D01*
X104598796Y-64474505D01*
X104595196Y-64498773D01*
X104589235Y-64522572D01*
X104580970Y-64545671D01*
X104570480Y-64567850D01*
X104557868Y-64588893D01*
X104543253Y-64608599D01*
X104526777Y-64626777D01*
X104508599Y-64643253D01*
X104488893Y-64657868D01*
X104467850Y-64670480D01*
X104445671Y-64680970D01*
X104422572Y-64689235D01*
X104398773Y-64695196D01*
X104374505Y-64698796D01*
X104350001Y-64700000D01*
X103699999Y-64700000D01*
X103675495Y-64698796D01*
X103651227Y-64695196D01*
X103627428Y-64689235D01*
X103604329Y-64680970D01*
X103582150Y-64670480D01*
X103561107Y-64657868D01*
X103541401Y-64643253D01*
X103523223Y-64626777D01*
X103506747Y-64608599D01*
X103492132Y-64588893D01*
X103479520Y-64567850D01*
X103469030Y-64545671D01*
X103460765Y-64522572D01*
X103454804Y-64498773D01*
X103451204Y-64474505D01*
X103450000Y-64450001D01*
X103450000Y-63549999D01*
X103451204Y-63525495D01*
X103454804Y-63501227D01*
X103460765Y-63477428D01*
X103469030Y-63454329D01*
X103479520Y-63432150D01*
X103492132Y-63411107D01*
X103506747Y-63391401D01*
X103523223Y-63373223D01*
X103541401Y-63356747D01*
X103561107Y-63342132D01*
X103582150Y-63329520D01*
X103604329Y-63319030D01*
X103627428Y-63310765D01*
X103651227Y-63304804D01*
X103675495Y-63301204D01*
X103699999Y-63300000D01*
X104350001Y-63300000D01*
X104374505Y-63301204D01*
G37*
G36*
X102324505Y-63301204D02*
G01*
X102348773Y-63304804D01*
X102372572Y-63310765D01*
X102395671Y-63319030D01*
X102417850Y-63329520D01*
X102438893Y-63342132D01*
X102458599Y-63356747D01*
X102476777Y-63373223D01*
X102493253Y-63391401D01*
X102507868Y-63411107D01*
X102520480Y-63432150D01*
X102530970Y-63454329D01*
X102539235Y-63477428D01*
X102545196Y-63501227D01*
X102548796Y-63525495D01*
X102550000Y-63549999D01*
X102550000Y-64450001D01*
X102548796Y-64474505D01*
X102545196Y-64498773D01*
X102539235Y-64522572D01*
X102530970Y-64545671D01*
X102520480Y-64567850D01*
X102507868Y-64588893D01*
X102493253Y-64608599D01*
X102476777Y-64626777D01*
X102458599Y-64643253D01*
X102438893Y-64657868D01*
X102417850Y-64670480D01*
X102395671Y-64680970D01*
X102372572Y-64689235D01*
X102348773Y-64695196D01*
X102324505Y-64698796D01*
X102300001Y-64700000D01*
X101649999Y-64700000D01*
X101625495Y-64698796D01*
X101601227Y-64695196D01*
X101577428Y-64689235D01*
X101554329Y-64680970D01*
X101532150Y-64670480D01*
X101511107Y-64657868D01*
X101491401Y-64643253D01*
X101473223Y-64626777D01*
X101456747Y-64608599D01*
X101442132Y-64588893D01*
X101429520Y-64567850D01*
X101419030Y-64545671D01*
X101410765Y-64522572D01*
X101404804Y-64498773D01*
X101401204Y-64474505D01*
X101400000Y-64450001D01*
X101400000Y-63549999D01*
X101401204Y-63525495D01*
X101404804Y-63501227D01*
X101410765Y-63477428D01*
X101419030Y-63454329D01*
X101429520Y-63432150D01*
X101442132Y-63411107D01*
X101456747Y-63391401D01*
X101473223Y-63373223D01*
X101491401Y-63356747D01*
X101511107Y-63342132D01*
X101532150Y-63329520D01*
X101554329Y-63319030D01*
X101577428Y-63310765D01*
X101601227Y-63304804D01*
X101625495Y-63301204D01*
X101649999Y-63300000D01*
X102300001Y-63300000D01*
X102324505Y-63301204D01*
G37*
G36*
X73549505Y-40801204D02*
G01*
X73573773Y-40804804D01*
X73597572Y-40810765D01*
X73620671Y-40819030D01*
X73642850Y-40829520D01*
X73663893Y-40842132D01*
X73683599Y-40856747D01*
X73701777Y-40873223D01*
X73718253Y-40891401D01*
X73732868Y-40911107D01*
X73745480Y-40932150D01*
X73755970Y-40954329D01*
X73764235Y-40977428D01*
X73770196Y-41001227D01*
X73773796Y-41025495D01*
X73775000Y-41049999D01*
X73775000Y-41950001D01*
X73773796Y-41974505D01*
X73770196Y-41998773D01*
X73764235Y-42022572D01*
X73755970Y-42045671D01*
X73745480Y-42067850D01*
X73732868Y-42088893D01*
X73718253Y-42108599D01*
X73701777Y-42126777D01*
X73683599Y-42143253D01*
X73663893Y-42157868D01*
X73642850Y-42170480D01*
X73620671Y-42180970D01*
X73597572Y-42189235D01*
X73573773Y-42195196D01*
X73549505Y-42198796D01*
X73525001Y-42200000D01*
X72874999Y-42200000D01*
X72850495Y-42198796D01*
X72826227Y-42195196D01*
X72802428Y-42189235D01*
X72779329Y-42180970D01*
X72757150Y-42170480D01*
X72736107Y-42157868D01*
X72716401Y-42143253D01*
X72698223Y-42126777D01*
X72681747Y-42108599D01*
X72667132Y-42088893D01*
X72654520Y-42067850D01*
X72644030Y-42045671D01*
X72635765Y-42022572D01*
X72629804Y-41998773D01*
X72626204Y-41974505D01*
X72625000Y-41950001D01*
X72625000Y-41049999D01*
X72626204Y-41025495D01*
X72629804Y-41001227D01*
X72635765Y-40977428D01*
X72644030Y-40954329D01*
X72654520Y-40932150D01*
X72667132Y-40911107D01*
X72681747Y-40891401D01*
X72698223Y-40873223D01*
X72716401Y-40856747D01*
X72736107Y-40842132D01*
X72757150Y-40829520D01*
X72779329Y-40819030D01*
X72802428Y-40810765D01*
X72826227Y-40804804D01*
X72850495Y-40801204D01*
X72874999Y-40800000D01*
X73525001Y-40800000D01*
X73549505Y-40801204D01*
G37*
G36*
X75599505Y-40801204D02*
G01*
X75623773Y-40804804D01*
X75647572Y-40810765D01*
X75670671Y-40819030D01*
X75692850Y-40829520D01*
X75713893Y-40842132D01*
X75733599Y-40856747D01*
X75751777Y-40873223D01*
X75768253Y-40891401D01*
X75782868Y-40911107D01*
X75795480Y-40932150D01*
X75805970Y-40954329D01*
X75814235Y-40977428D01*
X75820196Y-41001227D01*
X75823796Y-41025495D01*
X75825000Y-41049999D01*
X75825000Y-41950001D01*
X75823796Y-41974505D01*
X75820196Y-41998773D01*
X75814235Y-42022572D01*
X75805970Y-42045671D01*
X75795480Y-42067850D01*
X75782868Y-42088893D01*
X75768253Y-42108599D01*
X75751777Y-42126777D01*
X75733599Y-42143253D01*
X75713893Y-42157868D01*
X75692850Y-42170480D01*
X75670671Y-42180970D01*
X75647572Y-42189235D01*
X75623773Y-42195196D01*
X75599505Y-42198796D01*
X75575001Y-42200000D01*
X74924999Y-42200000D01*
X74900495Y-42198796D01*
X74876227Y-42195196D01*
X74852428Y-42189235D01*
X74829329Y-42180970D01*
X74807150Y-42170480D01*
X74786107Y-42157868D01*
X74766401Y-42143253D01*
X74748223Y-42126777D01*
X74731747Y-42108599D01*
X74717132Y-42088893D01*
X74704520Y-42067850D01*
X74694030Y-42045671D01*
X74685765Y-42022572D01*
X74679804Y-41998773D01*
X74676204Y-41974505D01*
X74675000Y-41950001D01*
X74675000Y-41049999D01*
X74676204Y-41025495D01*
X74679804Y-41001227D01*
X74685765Y-40977428D01*
X74694030Y-40954329D01*
X74704520Y-40932150D01*
X74717132Y-40911107D01*
X74731747Y-40891401D01*
X74748223Y-40873223D01*
X74766401Y-40856747D01*
X74786107Y-40842132D01*
X74807150Y-40829520D01*
X74829329Y-40819030D01*
X74852428Y-40810765D01*
X74876227Y-40804804D01*
X74900495Y-40801204D01*
X74924999Y-40800000D01*
X75575001Y-40800000D01*
X75599505Y-40801204D01*
G37*
G36*
X79174505Y-62801204D02*
G01*
X79198773Y-62804804D01*
X79222572Y-62810765D01*
X79245671Y-62819030D01*
X79267850Y-62829520D01*
X79288893Y-62842132D01*
X79308599Y-62856747D01*
X79326777Y-62873223D01*
X79343253Y-62891401D01*
X79357868Y-62911107D01*
X79370480Y-62932150D01*
X79380970Y-62954329D01*
X79389235Y-62977428D01*
X79395196Y-63001227D01*
X79398796Y-63025495D01*
X79400000Y-63049999D01*
X79400000Y-63950001D01*
X79398796Y-63974505D01*
X79395196Y-63998773D01*
X79389235Y-64022572D01*
X79380970Y-64045671D01*
X79370480Y-64067850D01*
X79357868Y-64088893D01*
X79343253Y-64108599D01*
X79326777Y-64126777D01*
X79308599Y-64143253D01*
X79288893Y-64157868D01*
X79267850Y-64170480D01*
X79245671Y-64180970D01*
X79222572Y-64189235D01*
X79198773Y-64195196D01*
X79174505Y-64198796D01*
X79150001Y-64200000D01*
X78499999Y-64200000D01*
X78475495Y-64198796D01*
X78451227Y-64195196D01*
X78427428Y-64189235D01*
X78404329Y-64180970D01*
X78382150Y-64170480D01*
X78361107Y-64157868D01*
X78341401Y-64143253D01*
X78323223Y-64126777D01*
X78306747Y-64108599D01*
X78292132Y-64088893D01*
X78279520Y-64067850D01*
X78269030Y-64045671D01*
X78260765Y-64022572D01*
X78254804Y-63998773D01*
X78251204Y-63974505D01*
X78250000Y-63950001D01*
X78250000Y-63049999D01*
X78251204Y-63025495D01*
X78254804Y-63001227D01*
X78260765Y-62977428D01*
X78269030Y-62954329D01*
X78279520Y-62932150D01*
X78292132Y-62911107D01*
X78306747Y-62891401D01*
X78323223Y-62873223D01*
X78341401Y-62856747D01*
X78361107Y-62842132D01*
X78382150Y-62829520D01*
X78404329Y-62819030D01*
X78427428Y-62810765D01*
X78451227Y-62804804D01*
X78475495Y-62801204D01*
X78499999Y-62800000D01*
X79150001Y-62800000D01*
X79174505Y-62801204D01*
G37*
G36*
X77124505Y-62801204D02*
G01*
X77148773Y-62804804D01*
X77172572Y-62810765D01*
X77195671Y-62819030D01*
X77217850Y-62829520D01*
X77238893Y-62842132D01*
X77258599Y-62856747D01*
X77276777Y-62873223D01*
X77293253Y-62891401D01*
X77307868Y-62911107D01*
X77320480Y-62932150D01*
X77330970Y-62954329D01*
X77339235Y-62977428D01*
X77345196Y-63001227D01*
X77348796Y-63025495D01*
X77350000Y-63049999D01*
X77350000Y-63950001D01*
X77348796Y-63974505D01*
X77345196Y-63998773D01*
X77339235Y-64022572D01*
X77330970Y-64045671D01*
X77320480Y-64067850D01*
X77307868Y-64088893D01*
X77293253Y-64108599D01*
X77276777Y-64126777D01*
X77258599Y-64143253D01*
X77238893Y-64157868D01*
X77217850Y-64170480D01*
X77195671Y-64180970D01*
X77172572Y-64189235D01*
X77148773Y-64195196D01*
X77124505Y-64198796D01*
X77100001Y-64200000D01*
X76449999Y-64200000D01*
X76425495Y-64198796D01*
X76401227Y-64195196D01*
X76377428Y-64189235D01*
X76354329Y-64180970D01*
X76332150Y-64170480D01*
X76311107Y-64157868D01*
X76291401Y-64143253D01*
X76273223Y-64126777D01*
X76256747Y-64108599D01*
X76242132Y-64088893D01*
X76229520Y-64067850D01*
X76219030Y-64045671D01*
X76210765Y-64022572D01*
X76204804Y-63998773D01*
X76201204Y-63974505D01*
X76200000Y-63950001D01*
X76200000Y-63049999D01*
X76201204Y-63025495D01*
X76204804Y-63001227D01*
X76210765Y-62977428D01*
X76219030Y-62954329D01*
X76229520Y-62932150D01*
X76242132Y-62911107D01*
X76256747Y-62891401D01*
X76273223Y-62873223D01*
X76291401Y-62856747D01*
X76311107Y-62842132D01*
X76332150Y-62829520D01*
X76354329Y-62819030D01*
X76377428Y-62810765D01*
X76401227Y-62804804D01*
X76425495Y-62801204D01*
X76449999Y-62800000D01*
X77100001Y-62800000D01*
X77124505Y-62801204D01*
G37*
G36*
X72349505Y-37701204D02*
G01*
X72373773Y-37704804D01*
X72397572Y-37710765D01*
X72420671Y-37719030D01*
X72442850Y-37729520D01*
X72463893Y-37742132D01*
X72483599Y-37756747D01*
X72501777Y-37773223D01*
X72518253Y-37791401D01*
X72532868Y-37811107D01*
X72545480Y-37832150D01*
X72555970Y-37854329D01*
X72564235Y-37877428D01*
X72570196Y-37901227D01*
X72573796Y-37925495D01*
X72575000Y-37949999D01*
X72575000Y-38850001D01*
X72573796Y-38874505D01*
X72570196Y-38898773D01*
X72564235Y-38922572D01*
X72555970Y-38945671D01*
X72545480Y-38967850D01*
X72532868Y-38988893D01*
X72518253Y-39008599D01*
X72501777Y-39026777D01*
X72483599Y-39043253D01*
X72463893Y-39057868D01*
X72442850Y-39070480D01*
X72420671Y-39080970D01*
X72397572Y-39089235D01*
X72373773Y-39095196D01*
X72349505Y-39098796D01*
X72325001Y-39100000D01*
X71674999Y-39100000D01*
X71650495Y-39098796D01*
X71626227Y-39095196D01*
X71602428Y-39089235D01*
X71579329Y-39080970D01*
X71557150Y-39070480D01*
X71536107Y-39057868D01*
X71516401Y-39043253D01*
X71498223Y-39026777D01*
X71481747Y-39008599D01*
X71467132Y-38988893D01*
X71454520Y-38967850D01*
X71444030Y-38945671D01*
X71435765Y-38922572D01*
X71429804Y-38898773D01*
X71426204Y-38874505D01*
X71425000Y-38850001D01*
X71425000Y-37949999D01*
X71426204Y-37925495D01*
X71429804Y-37901227D01*
X71435765Y-37877428D01*
X71444030Y-37854329D01*
X71454520Y-37832150D01*
X71467132Y-37811107D01*
X71481747Y-37791401D01*
X71498223Y-37773223D01*
X71516401Y-37756747D01*
X71536107Y-37742132D01*
X71557150Y-37729520D01*
X71579329Y-37719030D01*
X71602428Y-37710765D01*
X71626227Y-37704804D01*
X71650495Y-37701204D01*
X71674999Y-37700000D01*
X72325001Y-37700000D01*
X72349505Y-37701204D01*
G37*
G36*
X74399505Y-37701204D02*
G01*
X74423773Y-37704804D01*
X74447572Y-37710765D01*
X74470671Y-37719030D01*
X74492850Y-37729520D01*
X74513893Y-37742132D01*
X74533599Y-37756747D01*
X74551777Y-37773223D01*
X74568253Y-37791401D01*
X74582868Y-37811107D01*
X74595480Y-37832150D01*
X74605970Y-37854329D01*
X74614235Y-37877428D01*
X74620196Y-37901227D01*
X74623796Y-37925495D01*
X74625000Y-37949999D01*
X74625000Y-38850001D01*
X74623796Y-38874505D01*
X74620196Y-38898773D01*
X74614235Y-38922572D01*
X74605970Y-38945671D01*
X74595480Y-38967850D01*
X74582868Y-38988893D01*
X74568253Y-39008599D01*
X74551777Y-39026777D01*
X74533599Y-39043253D01*
X74513893Y-39057868D01*
X74492850Y-39070480D01*
X74470671Y-39080970D01*
X74447572Y-39089235D01*
X74423773Y-39095196D01*
X74399505Y-39098796D01*
X74375001Y-39100000D01*
X73724999Y-39100000D01*
X73700495Y-39098796D01*
X73676227Y-39095196D01*
X73652428Y-39089235D01*
X73629329Y-39080970D01*
X73607150Y-39070480D01*
X73586107Y-39057868D01*
X73566401Y-39043253D01*
X73548223Y-39026777D01*
X73531747Y-39008599D01*
X73517132Y-38988893D01*
X73504520Y-38967850D01*
X73494030Y-38945671D01*
X73485765Y-38922572D01*
X73479804Y-38898773D01*
X73476204Y-38874505D01*
X73475000Y-38850001D01*
X73475000Y-37949999D01*
X73476204Y-37925495D01*
X73479804Y-37901227D01*
X73485765Y-37877428D01*
X73494030Y-37854329D01*
X73504520Y-37832150D01*
X73517132Y-37811107D01*
X73531747Y-37791401D01*
X73548223Y-37773223D01*
X73566401Y-37756747D01*
X73586107Y-37742132D01*
X73607150Y-37729520D01*
X73629329Y-37719030D01*
X73652428Y-37710765D01*
X73676227Y-37704804D01*
X73700495Y-37701204D01*
X73724999Y-37700000D01*
X74375001Y-37700000D01*
X74399505Y-37701204D01*
G37*
G36*
X91074505Y-41926204D02*
G01*
X91098773Y-41929804D01*
X91122572Y-41935765D01*
X91145671Y-41944030D01*
X91167850Y-41954520D01*
X91188893Y-41967132D01*
X91208599Y-41981747D01*
X91226777Y-41998223D01*
X91243253Y-42016401D01*
X91257868Y-42036107D01*
X91270480Y-42057150D01*
X91280970Y-42079329D01*
X91289235Y-42102428D01*
X91295196Y-42126227D01*
X91298796Y-42150495D01*
X91300000Y-42174999D01*
X91300000Y-42825001D01*
X91298796Y-42849505D01*
X91295196Y-42873773D01*
X91289235Y-42897572D01*
X91280970Y-42920671D01*
X91270480Y-42942850D01*
X91257868Y-42963893D01*
X91243253Y-42983599D01*
X91226777Y-43001777D01*
X91208599Y-43018253D01*
X91188893Y-43032868D01*
X91167850Y-43045480D01*
X91145671Y-43055970D01*
X91122572Y-43064235D01*
X91098773Y-43070196D01*
X91074505Y-43073796D01*
X91050001Y-43075000D01*
X90149999Y-43075000D01*
X90125495Y-43073796D01*
X90101227Y-43070196D01*
X90077428Y-43064235D01*
X90054329Y-43055970D01*
X90032150Y-43045480D01*
X90011107Y-43032868D01*
X89991401Y-43018253D01*
X89973223Y-43001777D01*
X89956747Y-42983599D01*
X89942132Y-42963893D01*
X89929520Y-42942850D01*
X89919030Y-42920671D01*
X89910765Y-42897572D01*
X89904804Y-42873773D01*
X89901204Y-42849505D01*
X89900000Y-42825001D01*
X89900000Y-42174999D01*
X89901204Y-42150495D01*
X89904804Y-42126227D01*
X89910765Y-42102428D01*
X89919030Y-42079329D01*
X89929520Y-42057150D01*
X89942132Y-42036107D01*
X89956747Y-42016401D01*
X89973223Y-41998223D01*
X89991401Y-41981747D01*
X90011107Y-41967132D01*
X90032150Y-41954520D01*
X90054329Y-41944030D01*
X90077428Y-41935765D01*
X90101227Y-41929804D01*
X90125495Y-41926204D01*
X90149999Y-41925000D01*
X91050001Y-41925000D01*
X91074505Y-41926204D01*
G37*
G36*
X91074505Y-39876204D02*
G01*
X91098773Y-39879804D01*
X91122572Y-39885765D01*
X91145671Y-39894030D01*
X91167850Y-39904520D01*
X91188893Y-39917132D01*
X91208599Y-39931747D01*
X91226777Y-39948223D01*
X91243253Y-39966401D01*
X91257868Y-39986107D01*
X91270480Y-40007150D01*
X91280970Y-40029329D01*
X91289235Y-40052428D01*
X91295196Y-40076227D01*
X91298796Y-40100495D01*
X91300000Y-40124999D01*
X91300000Y-40775001D01*
X91298796Y-40799505D01*
X91295196Y-40823773D01*
X91289235Y-40847572D01*
X91280970Y-40870671D01*
X91270480Y-40892850D01*
X91257868Y-40913893D01*
X91243253Y-40933599D01*
X91226777Y-40951777D01*
X91208599Y-40968253D01*
X91188893Y-40982868D01*
X91167850Y-40995480D01*
X91145671Y-41005970D01*
X91122572Y-41014235D01*
X91098773Y-41020196D01*
X91074505Y-41023796D01*
X91050001Y-41025000D01*
X90149999Y-41025000D01*
X90125495Y-41023796D01*
X90101227Y-41020196D01*
X90077428Y-41014235D01*
X90054329Y-41005970D01*
X90032150Y-40995480D01*
X90011107Y-40982868D01*
X89991401Y-40968253D01*
X89973223Y-40951777D01*
X89956747Y-40933599D01*
X89942132Y-40913893D01*
X89929520Y-40892850D01*
X89919030Y-40870671D01*
X89910765Y-40847572D01*
X89904804Y-40823773D01*
X89901204Y-40799505D01*
X89900000Y-40775001D01*
X89900000Y-40124999D01*
X89901204Y-40100495D01*
X89904804Y-40076227D01*
X89910765Y-40052428D01*
X89919030Y-40029329D01*
X89929520Y-40007150D01*
X89942132Y-39986107D01*
X89956747Y-39966401D01*
X89973223Y-39948223D01*
X89991401Y-39931747D01*
X90011107Y-39917132D01*
X90032150Y-39904520D01*
X90054329Y-39894030D01*
X90077428Y-39885765D01*
X90101227Y-39879804D01*
X90125495Y-39876204D01*
X90149999Y-39875000D01*
X91050001Y-39875000D01*
X91074505Y-39876204D01*
G37*
G36*
X93074505Y-45251204D02*
G01*
X93098773Y-45254804D01*
X93122572Y-45260765D01*
X93145671Y-45269030D01*
X93167850Y-45279520D01*
X93188893Y-45292132D01*
X93208599Y-45306747D01*
X93226777Y-45323223D01*
X93243253Y-45341401D01*
X93257868Y-45361107D01*
X93270480Y-45382150D01*
X93280970Y-45404329D01*
X93289235Y-45427428D01*
X93295196Y-45451227D01*
X93298796Y-45475495D01*
X93300000Y-45499999D01*
X93300000Y-46150001D01*
X93298796Y-46174505D01*
X93295196Y-46198773D01*
X93289235Y-46222572D01*
X93280970Y-46245671D01*
X93270480Y-46267850D01*
X93257868Y-46288893D01*
X93243253Y-46308599D01*
X93226777Y-46326777D01*
X93208599Y-46343253D01*
X93188893Y-46357868D01*
X93167850Y-46370480D01*
X93145671Y-46380970D01*
X93122572Y-46389235D01*
X93098773Y-46395196D01*
X93074505Y-46398796D01*
X93050001Y-46400000D01*
X92149999Y-46400000D01*
X92125495Y-46398796D01*
X92101227Y-46395196D01*
X92077428Y-46389235D01*
X92054329Y-46380970D01*
X92032150Y-46370480D01*
X92011107Y-46357868D01*
X91991401Y-46343253D01*
X91973223Y-46326777D01*
X91956747Y-46308599D01*
X91942132Y-46288893D01*
X91929520Y-46267850D01*
X91919030Y-46245671D01*
X91910765Y-46222572D01*
X91904804Y-46198773D01*
X91901204Y-46174505D01*
X91900000Y-46150001D01*
X91900000Y-45499999D01*
X91901204Y-45475495D01*
X91904804Y-45451227D01*
X91910765Y-45427428D01*
X91919030Y-45404329D01*
X91929520Y-45382150D01*
X91942132Y-45361107D01*
X91956747Y-45341401D01*
X91973223Y-45323223D01*
X91991401Y-45306747D01*
X92011107Y-45292132D01*
X92032150Y-45279520D01*
X92054329Y-45269030D01*
X92077428Y-45260765D01*
X92101227Y-45254804D01*
X92125495Y-45251204D01*
X92149999Y-45250000D01*
X93050001Y-45250000D01*
X93074505Y-45251204D01*
G37*
G36*
X93074505Y-43201204D02*
G01*
X93098773Y-43204804D01*
X93122572Y-43210765D01*
X93145671Y-43219030D01*
X93167850Y-43229520D01*
X93188893Y-43242132D01*
X93208599Y-43256747D01*
X93226777Y-43273223D01*
X93243253Y-43291401D01*
X93257868Y-43311107D01*
X93270480Y-43332150D01*
X93280970Y-43354329D01*
X93289235Y-43377428D01*
X93295196Y-43401227D01*
X93298796Y-43425495D01*
X93300000Y-43449999D01*
X93300000Y-44100001D01*
X93298796Y-44124505D01*
X93295196Y-44148773D01*
X93289235Y-44172572D01*
X93280970Y-44195671D01*
X93270480Y-44217850D01*
X93257868Y-44238893D01*
X93243253Y-44258599D01*
X93226777Y-44276777D01*
X93208599Y-44293253D01*
X93188893Y-44307868D01*
X93167850Y-44320480D01*
X93145671Y-44330970D01*
X93122572Y-44339235D01*
X93098773Y-44345196D01*
X93074505Y-44348796D01*
X93050001Y-44350000D01*
X92149999Y-44350000D01*
X92125495Y-44348796D01*
X92101227Y-44345196D01*
X92077428Y-44339235D01*
X92054329Y-44330970D01*
X92032150Y-44320480D01*
X92011107Y-44307868D01*
X91991401Y-44293253D01*
X91973223Y-44276777D01*
X91956747Y-44258599D01*
X91942132Y-44238893D01*
X91929520Y-44217850D01*
X91919030Y-44195671D01*
X91910765Y-44172572D01*
X91904804Y-44148773D01*
X91901204Y-44124505D01*
X91900000Y-44100001D01*
X91900000Y-43449999D01*
X91901204Y-43425495D01*
X91904804Y-43401227D01*
X91910765Y-43377428D01*
X91919030Y-43354329D01*
X91929520Y-43332150D01*
X91942132Y-43311107D01*
X91956747Y-43291401D01*
X91973223Y-43273223D01*
X91991401Y-43256747D01*
X92011107Y-43242132D01*
X92032150Y-43229520D01*
X92054329Y-43219030D01*
X92077428Y-43210765D01*
X92101227Y-43204804D01*
X92125495Y-43201204D01*
X92149999Y-43200000D01*
X93050001Y-43200000D01*
X93074505Y-43201204D01*
G37*
G36*
X65549505Y-37001204D02*
G01*
X65573773Y-37004804D01*
X65597572Y-37010765D01*
X65620671Y-37019030D01*
X65642850Y-37029520D01*
X65663893Y-37042132D01*
X65683599Y-37056747D01*
X65701777Y-37073223D01*
X65718253Y-37091401D01*
X65732868Y-37111107D01*
X65745480Y-37132150D01*
X65755970Y-37154329D01*
X65764235Y-37177428D01*
X65770196Y-37201227D01*
X65773796Y-37225495D01*
X65775000Y-37249999D01*
X65775000Y-38150001D01*
X65773796Y-38174505D01*
X65770196Y-38198773D01*
X65764235Y-38222572D01*
X65755970Y-38245671D01*
X65745480Y-38267850D01*
X65732868Y-38288893D01*
X65718253Y-38308599D01*
X65701777Y-38326777D01*
X65683599Y-38343253D01*
X65663893Y-38357868D01*
X65642850Y-38370480D01*
X65620671Y-38380970D01*
X65597572Y-38389235D01*
X65573773Y-38395196D01*
X65549505Y-38398796D01*
X65525001Y-38400000D01*
X64874999Y-38400000D01*
X64850495Y-38398796D01*
X64826227Y-38395196D01*
X64802428Y-38389235D01*
X64779329Y-38380970D01*
X64757150Y-38370480D01*
X64736107Y-38357868D01*
X64716401Y-38343253D01*
X64698223Y-38326777D01*
X64681747Y-38308599D01*
X64667132Y-38288893D01*
X64654520Y-38267850D01*
X64644030Y-38245671D01*
X64635765Y-38222572D01*
X64629804Y-38198773D01*
X64626204Y-38174505D01*
X64625000Y-38150001D01*
X64625000Y-37249999D01*
X64626204Y-37225495D01*
X64629804Y-37201227D01*
X64635765Y-37177428D01*
X64644030Y-37154329D01*
X64654520Y-37132150D01*
X64667132Y-37111107D01*
X64681747Y-37091401D01*
X64698223Y-37073223D01*
X64716401Y-37056747D01*
X64736107Y-37042132D01*
X64757150Y-37029520D01*
X64779329Y-37019030D01*
X64802428Y-37010765D01*
X64826227Y-37004804D01*
X64850495Y-37001204D01*
X64874999Y-37000000D01*
X65525001Y-37000000D01*
X65549505Y-37001204D01*
G37*
G36*
X63499505Y-37001204D02*
G01*
X63523773Y-37004804D01*
X63547572Y-37010765D01*
X63570671Y-37019030D01*
X63592850Y-37029520D01*
X63613893Y-37042132D01*
X63633599Y-37056747D01*
X63651777Y-37073223D01*
X63668253Y-37091401D01*
X63682868Y-37111107D01*
X63695480Y-37132150D01*
X63705970Y-37154329D01*
X63714235Y-37177428D01*
X63720196Y-37201227D01*
X63723796Y-37225495D01*
X63725000Y-37249999D01*
X63725000Y-38150001D01*
X63723796Y-38174505D01*
X63720196Y-38198773D01*
X63714235Y-38222572D01*
X63705970Y-38245671D01*
X63695480Y-38267850D01*
X63682868Y-38288893D01*
X63668253Y-38308599D01*
X63651777Y-38326777D01*
X63633599Y-38343253D01*
X63613893Y-38357868D01*
X63592850Y-38370480D01*
X63570671Y-38380970D01*
X63547572Y-38389235D01*
X63523773Y-38395196D01*
X63499505Y-38398796D01*
X63475001Y-38400000D01*
X62824999Y-38400000D01*
X62800495Y-38398796D01*
X62776227Y-38395196D01*
X62752428Y-38389235D01*
X62729329Y-38380970D01*
X62707150Y-38370480D01*
X62686107Y-38357868D01*
X62666401Y-38343253D01*
X62648223Y-38326777D01*
X62631747Y-38308599D01*
X62617132Y-38288893D01*
X62604520Y-38267850D01*
X62594030Y-38245671D01*
X62585765Y-38222572D01*
X62579804Y-38198773D01*
X62576204Y-38174505D01*
X62575000Y-38150001D01*
X62575000Y-37249999D01*
X62576204Y-37225495D01*
X62579804Y-37201227D01*
X62585765Y-37177428D01*
X62594030Y-37154329D01*
X62604520Y-37132150D01*
X62617132Y-37111107D01*
X62631747Y-37091401D01*
X62648223Y-37073223D01*
X62666401Y-37056747D01*
X62686107Y-37042132D01*
X62707150Y-37029520D01*
X62729329Y-37019030D01*
X62752428Y-37010765D01*
X62776227Y-37004804D01*
X62800495Y-37001204D01*
X62824999Y-37000000D01*
X63475001Y-37000000D01*
X63499505Y-37001204D01*
G37*
G36*
X104874505Y-38476204D02*
G01*
X104898773Y-38479804D01*
X104922572Y-38485765D01*
X104945671Y-38494030D01*
X104967850Y-38504520D01*
X104988893Y-38517132D01*
X105008599Y-38531747D01*
X105026777Y-38548223D01*
X105043253Y-38566401D01*
X105057868Y-38586107D01*
X105070480Y-38607150D01*
X105080970Y-38629329D01*
X105089235Y-38652428D01*
X105095196Y-38676227D01*
X105098796Y-38700495D01*
X105100000Y-38724999D01*
X105100000Y-39375001D01*
X105098796Y-39399505D01*
X105095196Y-39423773D01*
X105089235Y-39447572D01*
X105080970Y-39470671D01*
X105070480Y-39492850D01*
X105057868Y-39513893D01*
X105043253Y-39533599D01*
X105026777Y-39551777D01*
X105008599Y-39568253D01*
X104988893Y-39582868D01*
X104967850Y-39595480D01*
X104945671Y-39605970D01*
X104922572Y-39614235D01*
X104898773Y-39620196D01*
X104874505Y-39623796D01*
X104850001Y-39625000D01*
X103949999Y-39625000D01*
X103925495Y-39623796D01*
X103901227Y-39620196D01*
X103877428Y-39614235D01*
X103854329Y-39605970D01*
X103832150Y-39595480D01*
X103811107Y-39582868D01*
X103791401Y-39568253D01*
X103773223Y-39551777D01*
X103756747Y-39533599D01*
X103742132Y-39513893D01*
X103729520Y-39492850D01*
X103719030Y-39470671D01*
X103710765Y-39447572D01*
X103704804Y-39423773D01*
X103701204Y-39399505D01*
X103700000Y-39375001D01*
X103700000Y-38724999D01*
X103701204Y-38700495D01*
X103704804Y-38676227D01*
X103710765Y-38652428D01*
X103719030Y-38629329D01*
X103729520Y-38607150D01*
X103742132Y-38586107D01*
X103756747Y-38566401D01*
X103773223Y-38548223D01*
X103791401Y-38531747D01*
X103811107Y-38517132D01*
X103832150Y-38504520D01*
X103854329Y-38494030D01*
X103877428Y-38485765D01*
X103901227Y-38479804D01*
X103925495Y-38476204D01*
X103949999Y-38475000D01*
X104850001Y-38475000D01*
X104874505Y-38476204D01*
G37*
G36*
X104874505Y-36426204D02*
G01*
X104898773Y-36429804D01*
X104922572Y-36435765D01*
X104945671Y-36444030D01*
X104967850Y-36454520D01*
X104988893Y-36467132D01*
X105008599Y-36481747D01*
X105026777Y-36498223D01*
X105043253Y-36516401D01*
X105057868Y-36536107D01*
X105070480Y-36557150D01*
X105080970Y-36579329D01*
X105089235Y-36602428D01*
X105095196Y-36626227D01*
X105098796Y-36650495D01*
X105100000Y-36674999D01*
X105100000Y-37325001D01*
X105098796Y-37349505D01*
X105095196Y-37373773D01*
X105089235Y-37397572D01*
X105080970Y-37420671D01*
X105070480Y-37442850D01*
X105057868Y-37463893D01*
X105043253Y-37483599D01*
X105026777Y-37501777D01*
X105008599Y-37518253D01*
X104988893Y-37532868D01*
X104967850Y-37545480D01*
X104945671Y-37555970D01*
X104922572Y-37564235D01*
X104898773Y-37570196D01*
X104874505Y-37573796D01*
X104850001Y-37575000D01*
X103949999Y-37575000D01*
X103925495Y-37573796D01*
X103901227Y-37570196D01*
X103877428Y-37564235D01*
X103854329Y-37555970D01*
X103832150Y-37545480D01*
X103811107Y-37532868D01*
X103791401Y-37518253D01*
X103773223Y-37501777D01*
X103756747Y-37483599D01*
X103742132Y-37463893D01*
X103729520Y-37442850D01*
X103719030Y-37420671D01*
X103710765Y-37397572D01*
X103704804Y-37373773D01*
X103701204Y-37349505D01*
X103700000Y-37325001D01*
X103700000Y-36674999D01*
X103701204Y-36650495D01*
X103704804Y-36626227D01*
X103710765Y-36602428D01*
X103719030Y-36579329D01*
X103729520Y-36557150D01*
X103742132Y-36536107D01*
X103756747Y-36516401D01*
X103773223Y-36498223D01*
X103791401Y-36481747D01*
X103811107Y-36467132D01*
X103832150Y-36454520D01*
X103854329Y-36444030D01*
X103877428Y-36435765D01*
X103901227Y-36429804D01*
X103925495Y-36426204D01*
X103949999Y-36425000D01*
X104850001Y-36425000D01*
X104874505Y-36426204D01*
G37*
G36*
X65474505Y-54401204D02*
G01*
X65498773Y-54404804D01*
X65522572Y-54410765D01*
X65545671Y-54419030D01*
X65567850Y-54429520D01*
X65588893Y-54442132D01*
X65608599Y-54456747D01*
X65626777Y-54473223D01*
X65643253Y-54491401D01*
X65657868Y-54511107D01*
X65670480Y-54532150D01*
X65680970Y-54554329D01*
X65689235Y-54577428D01*
X65695196Y-54601227D01*
X65698796Y-54625495D01*
X65700000Y-54649999D01*
X65700000Y-55300001D01*
X65698796Y-55324505D01*
X65695196Y-55348773D01*
X65689235Y-55372572D01*
X65680970Y-55395671D01*
X65670480Y-55417850D01*
X65657868Y-55438893D01*
X65643253Y-55458599D01*
X65626777Y-55476777D01*
X65608599Y-55493253D01*
X65588893Y-55507868D01*
X65567850Y-55520480D01*
X65545671Y-55530970D01*
X65522572Y-55539235D01*
X65498773Y-55545196D01*
X65474505Y-55548796D01*
X65450001Y-55550000D01*
X64549999Y-55550000D01*
X64525495Y-55548796D01*
X64501227Y-55545196D01*
X64477428Y-55539235D01*
X64454329Y-55530970D01*
X64432150Y-55520480D01*
X64411107Y-55507868D01*
X64391401Y-55493253D01*
X64373223Y-55476777D01*
X64356747Y-55458599D01*
X64342132Y-55438893D01*
X64329520Y-55417850D01*
X64319030Y-55395671D01*
X64310765Y-55372572D01*
X64304804Y-55348773D01*
X64301204Y-55324505D01*
X64300000Y-55300001D01*
X64300000Y-54649999D01*
X64301204Y-54625495D01*
X64304804Y-54601227D01*
X64310765Y-54577428D01*
X64319030Y-54554329D01*
X64329520Y-54532150D01*
X64342132Y-54511107D01*
X64356747Y-54491401D01*
X64373223Y-54473223D01*
X64391401Y-54456747D01*
X64411107Y-54442132D01*
X64432150Y-54429520D01*
X64454329Y-54419030D01*
X64477428Y-54410765D01*
X64501227Y-54404804D01*
X64525495Y-54401204D01*
X64549999Y-54400000D01*
X65450001Y-54400000D01*
X65474505Y-54401204D01*
G37*
G36*
X65474505Y-56451204D02*
G01*
X65498773Y-56454804D01*
X65522572Y-56460765D01*
X65545671Y-56469030D01*
X65567850Y-56479520D01*
X65588893Y-56492132D01*
X65608599Y-56506747D01*
X65626777Y-56523223D01*
X65643253Y-56541401D01*
X65657868Y-56561107D01*
X65670480Y-56582150D01*
X65680970Y-56604329D01*
X65689235Y-56627428D01*
X65695196Y-56651227D01*
X65698796Y-56675495D01*
X65700000Y-56699999D01*
X65700000Y-57350001D01*
X65698796Y-57374505D01*
X65695196Y-57398773D01*
X65689235Y-57422572D01*
X65680970Y-57445671D01*
X65670480Y-57467850D01*
X65657868Y-57488893D01*
X65643253Y-57508599D01*
X65626777Y-57526777D01*
X65608599Y-57543253D01*
X65588893Y-57557868D01*
X65567850Y-57570480D01*
X65545671Y-57580970D01*
X65522572Y-57589235D01*
X65498773Y-57595196D01*
X65474505Y-57598796D01*
X65450001Y-57600000D01*
X64549999Y-57600000D01*
X64525495Y-57598796D01*
X64501227Y-57595196D01*
X64477428Y-57589235D01*
X64454329Y-57580970D01*
X64432150Y-57570480D01*
X64411107Y-57557868D01*
X64391401Y-57543253D01*
X64373223Y-57526777D01*
X64356747Y-57508599D01*
X64342132Y-57488893D01*
X64329520Y-57467850D01*
X64319030Y-57445671D01*
X64310765Y-57422572D01*
X64304804Y-57398773D01*
X64301204Y-57374505D01*
X64300000Y-57350001D01*
X64300000Y-56699999D01*
X64301204Y-56675495D01*
X64304804Y-56651227D01*
X64310765Y-56627428D01*
X64319030Y-56604329D01*
X64329520Y-56582150D01*
X64342132Y-56561107D01*
X64356747Y-56541401D01*
X64373223Y-56523223D01*
X64391401Y-56506747D01*
X64411107Y-56492132D01*
X64432150Y-56479520D01*
X64454329Y-56469030D01*
X64477428Y-56460765D01*
X64501227Y-56454804D01*
X64525495Y-56451204D01*
X64549999Y-56450000D01*
X65450001Y-56450000D01*
X65474505Y-56451204D01*
G37*
G36*
X61474505Y-54601204D02*
G01*
X61498773Y-54604804D01*
X61522572Y-54610765D01*
X61545671Y-54619030D01*
X61567850Y-54629520D01*
X61588893Y-54642132D01*
X61608599Y-54656747D01*
X61626777Y-54673223D01*
X61643253Y-54691401D01*
X61657868Y-54711107D01*
X61670480Y-54732150D01*
X61680970Y-54754329D01*
X61689235Y-54777428D01*
X61695196Y-54801227D01*
X61698796Y-54825495D01*
X61700000Y-54849999D01*
X61700000Y-55500001D01*
X61698796Y-55524505D01*
X61695196Y-55548773D01*
X61689235Y-55572572D01*
X61680970Y-55595671D01*
X61670480Y-55617850D01*
X61657868Y-55638893D01*
X61643253Y-55658599D01*
X61626777Y-55676777D01*
X61608599Y-55693253D01*
X61588893Y-55707868D01*
X61567850Y-55720480D01*
X61545671Y-55730970D01*
X61522572Y-55739235D01*
X61498773Y-55745196D01*
X61474505Y-55748796D01*
X61450001Y-55750000D01*
X60549999Y-55750000D01*
X60525495Y-55748796D01*
X60501227Y-55745196D01*
X60477428Y-55739235D01*
X60454329Y-55730970D01*
X60432150Y-55720480D01*
X60411107Y-55707868D01*
X60391401Y-55693253D01*
X60373223Y-55676777D01*
X60356747Y-55658599D01*
X60342132Y-55638893D01*
X60329520Y-55617850D01*
X60319030Y-55595671D01*
X60310765Y-55572572D01*
X60304804Y-55548773D01*
X60301204Y-55524505D01*
X60300000Y-55500001D01*
X60300000Y-54849999D01*
X60301204Y-54825495D01*
X60304804Y-54801227D01*
X60310765Y-54777428D01*
X60319030Y-54754329D01*
X60329520Y-54732150D01*
X60342132Y-54711107D01*
X60356747Y-54691401D01*
X60373223Y-54673223D01*
X60391401Y-54656747D01*
X60411107Y-54642132D01*
X60432150Y-54629520D01*
X60454329Y-54619030D01*
X60477428Y-54610765D01*
X60501227Y-54604804D01*
X60525495Y-54601204D01*
X60549999Y-54600000D01*
X61450001Y-54600000D01*
X61474505Y-54601204D01*
G37*
G36*
X61474505Y-56651204D02*
G01*
X61498773Y-56654804D01*
X61522572Y-56660765D01*
X61545671Y-56669030D01*
X61567850Y-56679520D01*
X61588893Y-56692132D01*
X61608599Y-56706747D01*
X61626777Y-56723223D01*
X61643253Y-56741401D01*
X61657868Y-56761107D01*
X61670480Y-56782150D01*
X61680970Y-56804329D01*
X61689235Y-56827428D01*
X61695196Y-56851227D01*
X61698796Y-56875495D01*
X61700000Y-56899999D01*
X61700000Y-57550001D01*
X61698796Y-57574505D01*
X61695196Y-57598773D01*
X61689235Y-57622572D01*
X61680970Y-57645671D01*
X61670480Y-57667850D01*
X61657868Y-57688893D01*
X61643253Y-57708599D01*
X61626777Y-57726777D01*
X61608599Y-57743253D01*
X61588893Y-57757868D01*
X61567850Y-57770480D01*
X61545671Y-57780970D01*
X61522572Y-57789235D01*
X61498773Y-57795196D01*
X61474505Y-57798796D01*
X61450001Y-57800000D01*
X60549999Y-57800000D01*
X60525495Y-57798796D01*
X60501227Y-57795196D01*
X60477428Y-57789235D01*
X60454329Y-57780970D01*
X60432150Y-57770480D01*
X60411107Y-57757868D01*
X60391401Y-57743253D01*
X60373223Y-57726777D01*
X60356747Y-57708599D01*
X60342132Y-57688893D01*
X60329520Y-57667850D01*
X60319030Y-57645671D01*
X60310765Y-57622572D01*
X60304804Y-57598773D01*
X60301204Y-57574505D01*
X60300000Y-57550001D01*
X60300000Y-56899999D01*
X60301204Y-56875495D01*
X60304804Y-56851227D01*
X60310765Y-56827428D01*
X60319030Y-56804329D01*
X60329520Y-56782150D01*
X60342132Y-56761107D01*
X60356747Y-56741401D01*
X60373223Y-56723223D01*
X60391401Y-56706747D01*
X60411107Y-56692132D01*
X60432150Y-56679520D01*
X60454329Y-56669030D01*
X60477428Y-56660765D01*
X60501227Y-56654804D01*
X60525495Y-56651204D01*
X60549999Y-56650000D01*
X61450001Y-56650000D01*
X61474505Y-56651204D01*
G37*
M02*
