M48
; DRILL file {KiCad (5.1.5-0-10_14)} date 2020 May 10, Sunday 22:12:44
; FORMAT={-:-/ absolute / inch / decimal}
; #@! TF.CreationDate,2020-05-10T22:12:44+02:00
; #@! TF.GenerationSoftware,Kicad,Pcbnew,(5.1.5-0-10_14)
; #@! TF.FileFunction,Plated,1,2,PTH
FMAT,2
INCH
T1C0.0157
T2C0.0315
T3C0.0394
%
G90
G05
T1
X1.9094Y-1.7598
X1.937Y-2.0394
X1.9685Y-1.3386
X2.0551Y-1.7992
X2.1614Y-1.8189
X2.2441Y-1.874
X2.252Y-2.0748
X2.2559Y-2.0079
X2.2677Y-1.4961
X2.2835Y-2.5394
X2.3189Y-1.6811
X2.3425Y-1.9606
X2.374Y-1.437
X2.4016Y-2.1063
X2.4252Y-1.4961
X2.4252Y-1.437
X2.5Y-2.1457
X2.5315Y-1.6811
X2.6378Y-1.9016
X2.6732Y-1.7323
X2.689Y-1.3583
X2.7165Y-1.9882
X2.7559Y-2.4961
X2.7795Y-1.5079
X2.9331Y-2.4961
X2.9449Y-1.5787
X2.9882Y-1.4843
X3.0512Y-1.6102
X3.1614Y-2.5
X3.1969Y-1.4764
X3.2008Y-1.6969
X3.2126Y-1.4173
X3.2717Y-1.5157
X3.2756Y-1.6929
X3.3622Y-1.4488
X3.4331Y-1.5315
X3.5669Y-1.5236
X3.5906Y-2.1102
X3.5968Y-2.3666
X3.9488Y-2.1063
X3.9488Y-2.2835
X3.9685Y-1.6063
X4.0512Y-1.3937
X4.0945Y-1.5984
X4.1535Y-2.5197
X4.1732Y-1.8819
X4.2953Y-2.5591
X4.4606Y-1.8819
T2
X2.3543Y-2.4016
X2.5465Y-2.4016
T3
X1.9488Y-1.5654
X1.9488Y-1.6654
X2.0102Y-2.0409
X2.0102Y-2.1409
X2.0102Y-2.2409
X2.0102Y-2.3409
X2.0102Y-2.4409
X2.1102Y-2.0409
X2.1102Y-2.1409
X2.1102Y-2.2409
X2.1102Y-2.3409
X2.1102Y-2.4409
X2.0748Y-1.3425
X2.1748Y-1.3425
X2.2748Y-1.3425
X2.3748Y-1.3425
X2.4748Y-1.3425
X2.5748Y-1.3425
X4.2913Y-1.5929
X4.2913Y-1.6929
X4.2913Y-2.1047
X4.2913Y-2.2047
X2.815Y-1.3465
X2.915Y-1.3465
X3.015Y-1.3465
X3.115Y-1.3465
X3.215Y-1.3465
X3.315Y-1.3465
T0
M30
