G04 #@! TF.GenerationSoftware,KiCad,Pcbnew,(5.1.5-0-10_14)*
G04 #@! TF.CreationDate,2020-05-10T22:12:37+02:00*
G04 #@! TF.ProjectId,sensor,73656e73-6f72-42e6-9b69-6361645f7063,rev?*
G04 #@! TF.SameCoordinates,Original*
G04 #@! TF.FileFunction,Soldermask,Bot*
G04 #@! TF.FilePolarity,Negative*
%FSLAX46Y46*%
G04 Gerber Fmt 4.6, Leading zero omitted, Abs format (unit mm)*
G04 Created by KiCad (PCBNEW (5.1.5-0-10_14)) date 2020-05-10 22:12:37*
%MOMM*%
%LPD*%
G04 APERTURE LIST*
%ADD10C,0.100000*%
G04 APERTURE END LIST*
D10*
G36*
X113379487Y-61748996D02*
G01*
X113616253Y-61847068D01*
X113616255Y-61847069D01*
X113829339Y-61989447D01*
X114010553Y-62170661D01*
X114072126Y-62262811D01*
X114152932Y-62383747D01*
X114251004Y-62620513D01*
X114301000Y-62871861D01*
X114301000Y-63128139D01*
X114251004Y-63379487D01*
X114152932Y-63616253D01*
X114152931Y-63616255D01*
X114010553Y-63829339D01*
X113829339Y-64010553D01*
X113616255Y-64152931D01*
X113616254Y-64152932D01*
X113616253Y-64152932D01*
X113379487Y-64251004D01*
X113128139Y-64301000D01*
X112871861Y-64301000D01*
X112620513Y-64251004D01*
X112383747Y-64152932D01*
X112383746Y-64152932D01*
X112383745Y-64152931D01*
X112170661Y-64010553D01*
X111989447Y-63829339D01*
X111847069Y-63616255D01*
X111847068Y-63616253D01*
X111748996Y-63379487D01*
X111699000Y-63128139D01*
X111699000Y-62871861D01*
X111748996Y-62620513D01*
X111847068Y-62383747D01*
X111927875Y-62262811D01*
X111989447Y-62170661D01*
X112170661Y-61989447D01*
X112383745Y-61847069D01*
X112383747Y-61847068D01*
X112620513Y-61748996D01*
X112871861Y-61699000D01*
X113128139Y-61699000D01*
X113379487Y-61748996D01*
G37*
G36*
X45379487Y-61748996D02*
G01*
X45616253Y-61847068D01*
X45616255Y-61847069D01*
X45829339Y-61989447D01*
X46010553Y-62170661D01*
X46072126Y-62262811D01*
X46152932Y-62383747D01*
X46251004Y-62620513D01*
X46301000Y-62871861D01*
X46301000Y-63128139D01*
X46251004Y-63379487D01*
X46152932Y-63616253D01*
X46152931Y-63616255D01*
X46010553Y-63829339D01*
X45829339Y-64010553D01*
X45616255Y-64152931D01*
X45616254Y-64152932D01*
X45616253Y-64152932D01*
X45379487Y-64251004D01*
X45128139Y-64301000D01*
X44871861Y-64301000D01*
X44620513Y-64251004D01*
X44383747Y-64152932D01*
X44383746Y-64152932D01*
X44383745Y-64152931D01*
X44170661Y-64010553D01*
X43989447Y-63829339D01*
X43847069Y-63616255D01*
X43847068Y-63616253D01*
X43748996Y-63379487D01*
X43699000Y-63128139D01*
X43699000Y-62871861D01*
X43748996Y-62620513D01*
X43847068Y-62383747D01*
X43927875Y-62262811D01*
X43989447Y-62170661D01*
X44170661Y-61989447D01*
X44383745Y-61847069D01*
X44383747Y-61847068D01*
X44620513Y-61748996D01*
X44871861Y-61699000D01*
X45128139Y-61699000D01*
X45379487Y-61748996D01*
G37*
G36*
X25379487Y-61748996D02*
G01*
X25616253Y-61847068D01*
X25616255Y-61847069D01*
X25829339Y-61989447D01*
X26010553Y-62170661D01*
X26072126Y-62262811D01*
X26152932Y-62383747D01*
X26251004Y-62620513D01*
X26301000Y-62871861D01*
X26301000Y-63128139D01*
X26251004Y-63379487D01*
X26152932Y-63616253D01*
X26152931Y-63616255D01*
X26010553Y-63829339D01*
X25829339Y-64010553D01*
X25616255Y-64152931D01*
X25616254Y-64152932D01*
X25616253Y-64152932D01*
X25379487Y-64251004D01*
X25128139Y-64301000D01*
X24871861Y-64301000D01*
X24620513Y-64251004D01*
X24383747Y-64152932D01*
X24383746Y-64152932D01*
X24383745Y-64152931D01*
X24170661Y-64010553D01*
X23989447Y-63829339D01*
X23847069Y-63616255D01*
X23847068Y-63616253D01*
X23748996Y-63379487D01*
X23699000Y-63128139D01*
X23699000Y-62871861D01*
X23748996Y-62620513D01*
X23847068Y-62383747D01*
X23927875Y-62262811D01*
X23989447Y-62170661D01*
X24170661Y-61989447D01*
X24383745Y-61847069D01*
X24383747Y-61847068D01*
X24620513Y-61748996D01*
X24871861Y-61699000D01*
X25128139Y-61699000D01*
X25379487Y-61748996D01*
G37*
G36*
X18379487Y-61748996D02*
G01*
X18616253Y-61847068D01*
X18616255Y-61847069D01*
X18829339Y-61989447D01*
X19010553Y-62170661D01*
X19072126Y-62262811D01*
X19152932Y-62383747D01*
X19251004Y-62620513D01*
X19301000Y-62871861D01*
X19301000Y-63128139D01*
X19251004Y-63379487D01*
X19152932Y-63616253D01*
X19152931Y-63616255D01*
X19010553Y-63829339D01*
X18829339Y-64010553D01*
X18616255Y-64152931D01*
X18616254Y-64152932D01*
X18616253Y-64152932D01*
X18379487Y-64251004D01*
X18128139Y-64301000D01*
X17871861Y-64301000D01*
X17620513Y-64251004D01*
X17383747Y-64152932D01*
X17383746Y-64152932D01*
X17383745Y-64152931D01*
X17170661Y-64010553D01*
X16989447Y-63829339D01*
X16847069Y-63616255D01*
X16847068Y-63616253D01*
X16748996Y-63379487D01*
X16699000Y-63128139D01*
X16699000Y-62871861D01*
X16748996Y-62620513D01*
X16847068Y-62383747D01*
X16927875Y-62262811D01*
X16989447Y-62170661D01*
X17170661Y-61989447D01*
X17383745Y-61847069D01*
X17383747Y-61847068D01*
X17620513Y-61748996D01*
X17871861Y-61699000D01*
X18128139Y-61699000D01*
X18379487Y-61748996D01*
G37*
G36*
X54501000Y-62901000D02*
G01*
X52699000Y-62901000D01*
X52699000Y-61099000D01*
X54501000Y-61099000D01*
X54501000Y-62901000D01*
G37*
G36*
X51173512Y-61103927D02*
G01*
X51322812Y-61133624D01*
X51486784Y-61201544D01*
X51634354Y-61300147D01*
X51759853Y-61425646D01*
X51858456Y-61573216D01*
X51926376Y-61737188D01*
X51961000Y-61911259D01*
X51961000Y-62088741D01*
X51926376Y-62262812D01*
X51858456Y-62426784D01*
X51759853Y-62574354D01*
X51634354Y-62699853D01*
X51486784Y-62798456D01*
X51322812Y-62866376D01*
X51173512Y-62896073D01*
X51148742Y-62901000D01*
X50971258Y-62901000D01*
X50946488Y-62896073D01*
X50797188Y-62866376D01*
X50633216Y-62798456D01*
X50485646Y-62699853D01*
X50360147Y-62574354D01*
X50261544Y-62426784D01*
X50193624Y-62262812D01*
X50159000Y-62088741D01*
X50159000Y-61911259D01*
X50193624Y-61737188D01*
X50261544Y-61573216D01*
X50360147Y-61425646D01*
X50485646Y-61300147D01*
X50633216Y-61201544D01*
X50797188Y-61133624D01*
X50946488Y-61103927D01*
X50971258Y-61099000D01*
X51148742Y-61099000D01*
X51173512Y-61103927D01*
G37*
G36*
X60033642Y-60229781D02*
G01*
X60179414Y-60290162D01*
X60179416Y-60290163D01*
X60310608Y-60377822D01*
X60422178Y-60489392D01*
X60509837Y-60620584D01*
X60509838Y-60620586D01*
X60570219Y-60766358D01*
X60601000Y-60921107D01*
X60601000Y-61078893D01*
X60570219Y-61233642D01*
X60542671Y-61300148D01*
X60509837Y-61379416D01*
X60422178Y-61510608D01*
X60310608Y-61622178D01*
X60179416Y-61709837D01*
X60179415Y-61709838D01*
X60179414Y-61709838D01*
X60033642Y-61770219D01*
X59878893Y-61801000D01*
X59721107Y-61801000D01*
X59566358Y-61770219D01*
X59420586Y-61709838D01*
X59420585Y-61709838D01*
X59420584Y-61709837D01*
X59289392Y-61622178D01*
X59177822Y-61510608D01*
X59090163Y-61379416D01*
X59057329Y-61300148D01*
X59029781Y-61233642D01*
X58999000Y-61078893D01*
X58999000Y-60921107D01*
X59029781Y-60766358D01*
X59090162Y-60620586D01*
X59090163Y-60620584D01*
X59177822Y-60489392D01*
X59289392Y-60377822D01*
X59420584Y-60290163D01*
X59420586Y-60290162D01*
X59566358Y-60229781D01*
X59721107Y-60199000D01*
X59878893Y-60199000D01*
X60033642Y-60229781D01*
G37*
G36*
X64913642Y-60229781D02*
G01*
X65059414Y-60290162D01*
X65059416Y-60290163D01*
X65190608Y-60377822D01*
X65302178Y-60489392D01*
X65389837Y-60620584D01*
X65389838Y-60620586D01*
X65450219Y-60766358D01*
X65481000Y-60921107D01*
X65481000Y-61078893D01*
X65450219Y-61233642D01*
X65422671Y-61300148D01*
X65389837Y-61379416D01*
X65302178Y-61510608D01*
X65190608Y-61622178D01*
X65059416Y-61709837D01*
X65059415Y-61709838D01*
X65059414Y-61709838D01*
X64913642Y-61770219D01*
X64758893Y-61801000D01*
X64601107Y-61801000D01*
X64446358Y-61770219D01*
X64300586Y-61709838D01*
X64300585Y-61709838D01*
X64300584Y-61709837D01*
X64169392Y-61622178D01*
X64057822Y-61510608D01*
X63970163Y-61379416D01*
X63937329Y-61300148D01*
X63909781Y-61233642D01*
X63879000Y-61078893D01*
X63879000Y-60921107D01*
X63909781Y-60766358D01*
X63970162Y-60620586D01*
X63970163Y-60620584D01*
X64057822Y-60489392D01*
X64169392Y-60377822D01*
X64300584Y-60290163D01*
X64300586Y-60290162D01*
X64446358Y-60229781D01*
X64601107Y-60199000D01*
X64758893Y-60199000D01*
X64913642Y-60229781D01*
G37*
G36*
X53713512Y-58563927D02*
G01*
X53862812Y-58593624D01*
X54026784Y-58661544D01*
X54174354Y-58760147D01*
X54299853Y-58885646D01*
X54398456Y-59033216D01*
X54466376Y-59197188D01*
X54501000Y-59371259D01*
X54501000Y-59548741D01*
X54466376Y-59722812D01*
X54398456Y-59886784D01*
X54299853Y-60034354D01*
X54174354Y-60159853D01*
X54026784Y-60258456D01*
X53862812Y-60326376D01*
X53713512Y-60356073D01*
X53688742Y-60361000D01*
X53511258Y-60361000D01*
X53486488Y-60356073D01*
X53337188Y-60326376D01*
X53173216Y-60258456D01*
X53025646Y-60159853D01*
X52900147Y-60034354D01*
X52801544Y-59886784D01*
X52733624Y-59722812D01*
X52699000Y-59548741D01*
X52699000Y-59371259D01*
X52733624Y-59197188D01*
X52801544Y-59033216D01*
X52900147Y-58885646D01*
X53025646Y-58760147D01*
X53173216Y-58661544D01*
X53337188Y-58593624D01*
X53486488Y-58563927D01*
X53511258Y-58559000D01*
X53688742Y-58559000D01*
X53713512Y-58563927D01*
G37*
G36*
X51173512Y-58563927D02*
G01*
X51322812Y-58593624D01*
X51486784Y-58661544D01*
X51634354Y-58760147D01*
X51759853Y-58885646D01*
X51858456Y-59033216D01*
X51926376Y-59197188D01*
X51961000Y-59371259D01*
X51961000Y-59548741D01*
X51926376Y-59722812D01*
X51858456Y-59886784D01*
X51759853Y-60034354D01*
X51634354Y-60159853D01*
X51486784Y-60258456D01*
X51322812Y-60326376D01*
X51173512Y-60356073D01*
X51148742Y-60361000D01*
X50971258Y-60361000D01*
X50946488Y-60356073D01*
X50797188Y-60326376D01*
X50633216Y-60258456D01*
X50485646Y-60159853D01*
X50360147Y-60034354D01*
X50261544Y-59886784D01*
X50193624Y-59722812D01*
X50159000Y-59548741D01*
X50159000Y-59371259D01*
X50193624Y-59197188D01*
X50261544Y-59033216D01*
X50360147Y-58885646D01*
X50485646Y-58760147D01*
X50633216Y-58661544D01*
X50797188Y-58593624D01*
X50946488Y-58563927D01*
X50971258Y-58559000D01*
X51148742Y-58559000D01*
X51173512Y-58563927D01*
G37*
G36*
X51173512Y-56023927D02*
G01*
X51322812Y-56053624D01*
X51486784Y-56121544D01*
X51634354Y-56220147D01*
X51759853Y-56345646D01*
X51858456Y-56493216D01*
X51926376Y-56657188D01*
X51961000Y-56831259D01*
X51961000Y-57008741D01*
X51926376Y-57182812D01*
X51858456Y-57346784D01*
X51759853Y-57494354D01*
X51634354Y-57619853D01*
X51486784Y-57718456D01*
X51322812Y-57786376D01*
X51173512Y-57816073D01*
X51148742Y-57821000D01*
X50971258Y-57821000D01*
X50946488Y-57816073D01*
X50797188Y-57786376D01*
X50633216Y-57718456D01*
X50485646Y-57619853D01*
X50360147Y-57494354D01*
X50261544Y-57346784D01*
X50193624Y-57182812D01*
X50159000Y-57008741D01*
X50159000Y-56831259D01*
X50193624Y-56657188D01*
X50261544Y-56493216D01*
X50360147Y-56345646D01*
X50485646Y-56220147D01*
X50633216Y-56121544D01*
X50797188Y-56053624D01*
X50946488Y-56023927D01*
X50971258Y-56019000D01*
X51148742Y-56019000D01*
X51173512Y-56023927D01*
G37*
G36*
X53713512Y-56023927D02*
G01*
X53862812Y-56053624D01*
X54026784Y-56121544D01*
X54174354Y-56220147D01*
X54299853Y-56345646D01*
X54398456Y-56493216D01*
X54466376Y-56657188D01*
X54501000Y-56831259D01*
X54501000Y-57008741D01*
X54466376Y-57182812D01*
X54398456Y-57346784D01*
X54299853Y-57494354D01*
X54174354Y-57619853D01*
X54026784Y-57718456D01*
X53862812Y-57786376D01*
X53713512Y-57816073D01*
X53688742Y-57821000D01*
X53511258Y-57821000D01*
X53486488Y-57816073D01*
X53337188Y-57786376D01*
X53173216Y-57718456D01*
X53025646Y-57619853D01*
X52900147Y-57494354D01*
X52801544Y-57346784D01*
X52733624Y-57182812D01*
X52699000Y-57008741D01*
X52699000Y-56831259D01*
X52733624Y-56657188D01*
X52801544Y-56493216D01*
X52900147Y-56345646D01*
X53025646Y-56220147D01*
X53173216Y-56121544D01*
X53337188Y-56053624D01*
X53486488Y-56023927D01*
X53511258Y-56019000D01*
X53688742Y-56019000D01*
X53713512Y-56023927D01*
G37*
G36*
X109901000Y-56901000D02*
G01*
X108099000Y-56901000D01*
X108099000Y-55099000D01*
X109901000Y-55099000D01*
X109901000Y-56901000D01*
G37*
G36*
X51173512Y-53483927D02*
G01*
X51322812Y-53513624D01*
X51486784Y-53581544D01*
X51634354Y-53680147D01*
X51759853Y-53805646D01*
X51858456Y-53953216D01*
X51926376Y-54117188D01*
X51961000Y-54291259D01*
X51961000Y-54468741D01*
X51926376Y-54642812D01*
X51858456Y-54806784D01*
X51759853Y-54954354D01*
X51634354Y-55079853D01*
X51486784Y-55178456D01*
X51322812Y-55246376D01*
X51173512Y-55276073D01*
X51148742Y-55281000D01*
X50971258Y-55281000D01*
X50946488Y-55276073D01*
X50797188Y-55246376D01*
X50633216Y-55178456D01*
X50485646Y-55079853D01*
X50360147Y-54954354D01*
X50261544Y-54806784D01*
X50193624Y-54642812D01*
X50159000Y-54468741D01*
X50159000Y-54291259D01*
X50193624Y-54117188D01*
X50261544Y-53953216D01*
X50360147Y-53805646D01*
X50485646Y-53680147D01*
X50633216Y-53581544D01*
X50797188Y-53513624D01*
X50946488Y-53483927D01*
X50971258Y-53479000D01*
X51148742Y-53479000D01*
X51173512Y-53483927D01*
G37*
G36*
X53713512Y-53483927D02*
G01*
X53862812Y-53513624D01*
X54026784Y-53581544D01*
X54174354Y-53680147D01*
X54299853Y-53805646D01*
X54398456Y-53953216D01*
X54466376Y-54117188D01*
X54501000Y-54291259D01*
X54501000Y-54468741D01*
X54466376Y-54642812D01*
X54398456Y-54806784D01*
X54299853Y-54954354D01*
X54174354Y-55079853D01*
X54026784Y-55178456D01*
X53862812Y-55246376D01*
X53713512Y-55276073D01*
X53688742Y-55281000D01*
X53511258Y-55281000D01*
X53486488Y-55276073D01*
X53337188Y-55246376D01*
X53173216Y-55178456D01*
X53025646Y-55079853D01*
X52900147Y-54954354D01*
X52801544Y-54806784D01*
X52733624Y-54642812D01*
X52699000Y-54468741D01*
X52699000Y-54291259D01*
X52733624Y-54117188D01*
X52801544Y-53953216D01*
X52900147Y-53805646D01*
X53025646Y-53680147D01*
X53173216Y-53581544D01*
X53337188Y-53513624D01*
X53486488Y-53483927D01*
X53511258Y-53479000D01*
X53688742Y-53479000D01*
X53713512Y-53483927D01*
G37*
G36*
X109113512Y-52563927D02*
G01*
X109262812Y-52593624D01*
X109426784Y-52661544D01*
X109574354Y-52760147D01*
X109699853Y-52885646D01*
X109798456Y-53033216D01*
X109866376Y-53197188D01*
X109901000Y-53371259D01*
X109901000Y-53548741D01*
X109866376Y-53722812D01*
X109798456Y-53886784D01*
X109699853Y-54034354D01*
X109574354Y-54159853D01*
X109426784Y-54258456D01*
X109262812Y-54326376D01*
X109113512Y-54356073D01*
X109088742Y-54361000D01*
X108911258Y-54361000D01*
X108886488Y-54356073D01*
X108737188Y-54326376D01*
X108573216Y-54258456D01*
X108425646Y-54159853D01*
X108300147Y-54034354D01*
X108201544Y-53886784D01*
X108133624Y-53722812D01*
X108099000Y-53548741D01*
X108099000Y-53371259D01*
X108133624Y-53197188D01*
X108201544Y-53033216D01*
X108300147Y-52885646D01*
X108425646Y-52760147D01*
X108573216Y-52661544D01*
X108737188Y-52593624D01*
X108886488Y-52563927D01*
X108911258Y-52559000D01*
X109088742Y-52559000D01*
X109113512Y-52563927D01*
G37*
G36*
X51173512Y-50943927D02*
G01*
X51322812Y-50973624D01*
X51486784Y-51041544D01*
X51634354Y-51140147D01*
X51759853Y-51265646D01*
X51858456Y-51413216D01*
X51926376Y-51577188D01*
X51961000Y-51751259D01*
X51961000Y-51928741D01*
X51926376Y-52102812D01*
X51858456Y-52266784D01*
X51759853Y-52414354D01*
X51634354Y-52539853D01*
X51486784Y-52638456D01*
X51322812Y-52706376D01*
X51173512Y-52736073D01*
X51148742Y-52741000D01*
X50971258Y-52741000D01*
X50946488Y-52736073D01*
X50797188Y-52706376D01*
X50633216Y-52638456D01*
X50485646Y-52539853D01*
X50360147Y-52414354D01*
X50261544Y-52266784D01*
X50193624Y-52102812D01*
X50159000Y-51928741D01*
X50159000Y-51751259D01*
X50193624Y-51577188D01*
X50261544Y-51413216D01*
X50360147Y-51265646D01*
X50485646Y-51140147D01*
X50633216Y-51041544D01*
X50797188Y-50973624D01*
X50946488Y-50943927D01*
X50971258Y-50939000D01*
X51148742Y-50939000D01*
X51173512Y-50943927D01*
G37*
G36*
X53713512Y-50943927D02*
G01*
X53862812Y-50973624D01*
X54026784Y-51041544D01*
X54174354Y-51140147D01*
X54299853Y-51265646D01*
X54398456Y-51413216D01*
X54466376Y-51577188D01*
X54501000Y-51751259D01*
X54501000Y-51928741D01*
X54466376Y-52102812D01*
X54398456Y-52266784D01*
X54299853Y-52414354D01*
X54174354Y-52539853D01*
X54026784Y-52638456D01*
X53862812Y-52706376D01*
X53713512Y-52736073D01*
X53688742Y-52741000D01*
X53511258Y-52741000D01*
X53486488Y-52736073D01*
X53337188Y-52706376D01*
X53173216Y-52638456D01*
X53025646Y-52539853D01*
X52900147Y-52414354D01*
X52801544Y-52266784D01*
X52733624Y-52102812D01*
X52699000Y-51928741D01*
X52699000Y-51751259D01*
X52733624Y-51577188D01*
X52801544Y-51413216D01*
X52900147Y-51265646D01*
X53025646Y-51140147D01*
X53173216Y-51041544D01*
X53337188Y-50973624D01*
X53486488Y-50943927D01*
X53511258Y-50939000D01*
X53688742Y-50939000D01*
X53713512Y-50943927D01*
G37*
G36*
X109901000Y-43901000D02*
G01*
X108099000Y-43901000D01*
X108099000Y-42099000D01*
X109901000Y-42099000D01*
X109901000Y-43901000D01*
G37*
G36*
X50401000Y-43201000D02*
G01*
X48599000Y-43201000D01*
X48599000Y-41399000D01*
X50401000Y-41399000D01*
X50401000Y-43201000D01*
G37*
G36*
X109113512Y-39563927D02*
G01*
X109262812Y-39593624D01*
X109426784Y-39661544D01*
X109574354Y-39760147D01*
X109699853Y-39885646D01*
X109798456Y-40033216D01*
X109866376Y-40197188D01*
X109901000Y-40371259D01*
X109901000Y-40548741D01*
X109866376Y-40722812D01*
X109798456Y-40886784D01*
X109699853Y-41034354D01*
X109574354Y-41159853D01*
X109426784Y-41258456D01*
X109262812Y-41326376D01*
X109113512Y-41356073D01*
X109088742Y-41361000D01*
X108911258Y-41361000D01*
X108886488Y-41356073D01*
X108737188Y-41326376D01*
X108573216Y-41258456D01*
X108425646Y-41159853D01*
X108300147Y-41034354D01*
X108201544Y-40886784D01*
X108133624Y-40722812D01*
X108099000Y-40548741D01*
X108099000Y-40371259D01*
X108133624Y-40197188D01*
X108201544Y-40033216D01*
X108300147Y-39885646D01*
X108425646Y-39760147D01*
X108573216Y-39661544D01*
X108737188Y-39593624D01*
X108886488Y-39563927D01*
X108911258Y-39559000D01*
X109088742Y-39559000D01*
X109113512Y-39563927D01*
G37*
G36*
X49613512Y-38863927D02*
G01*
X49762812Y-38893624D01*
X49926784Y-38961544D01*
X50074354Y-39060147D01*
X50199853Y-39185646D01*
X50298456Y-39333216D01*
X50366376Y-39497188D01*
X50401000Y-39671259D01*
X50401000Y-39848741D01*
X50366376Y-40022812D01*
X50298456Y-40186784D01*
X50199853Y-40334354D01*
X50074354Y-40459853D01*
X49926784Y-40558456D01*
X49762812Y-40626376D01*
X49613512Y-40656073D01*
X49588742Y-40661000D01*
X49411258Y-40661000D01*
X49386488Y-40656073D01*
X49237188Y-40626376D01*
X49073216Y-40558456D01*
X48925646Y-40459853D01*
X48800147Y-40334354D01*
X48701544Y-40186784D01*
X48633624Y-40022812D01*
X48599000Y-39848741D01*
X48599000Y-39671259D01*
X48633624Y-39497188D01*
X48701544Y-39333216D01*
X48800147Y-39185646D01*
X48925646Y-39060147D01*
X49073216Y-38961544D01*
X49237188Y-38893624D01*
X49386488Y-38863927D01*
X49411258Y-38859000D01*
X49588742Y-38859000D01*
X49613512Y-38863927D01*
G37*
G36*
X18379487Y-33748996D02*
G01*
X18592403Y-33837189D01*
X18616255Y-33847069D01*
X18751128Y-33937188D01*
X18829339Y-33989447D01*
X19010553Y-34170661D01*
X19152932Y-34383747D01*
X19251004Y-34620513D01*
X19301000Y-34871861D01*
X19301000Y-35128139D01*
X19251004Y-35379487D01*
X19152932Y-35616253D01*
X19152931Y-35616255D01*
X19010553Y-35829339D01*
X18829339Y-36010553D01*
X18616255Y-36152931D01*
X18616254Y-36152932D01*
X18616253Y-36152932D01*
X18379487Y-36251004D01*
X18128139Y-36301000D01*
X17871861Y-36301000D01*
X17620513Y-36251004D01*
X17383747Y-36152932D01*
X17383746Y-36152932D01*
X17383745Y-36152931D01*
X17170661Y-36010553D01*
X16989447Y-35829339D01*
X16847069Y-35616255D01*
X16847068Y-35616253D01*
X16748996Y-35379487D01*
X16699000Y-35128139D01*
X16699000Y-34871861D01*
X16748996Y-34620513D01*
X16847068Y-34383747D01*
X16989447Y-34170661D01*
X17170661Y-33989447D01*
X17248872Y-33937188D01*
X17383745Y-33847069D01*
X17407597Y-33837189D01*
X17620513Y-33748996D01*
X17871861Y-33699000D01*
X18128139Y-33699000D01*
X18379487Y-33748996D01*
G37*
G36*
X113379487Y-33748996D02*
G01*
X113592403Y-33837189D01*
X113616255Y-33847069D01*
X113751128Y-33937188D01*
X113829339Y-33989447D01*
X114010553Y-34170661D01*
X114152932Y-34383747D01*
X114251004Y-34620513D01*
X114301000Y-34871861D01*
X114301000Y-35128139D01*
X114251004Y-35379487D01*
X114152932Y-35616253D01*
X114152931Y-35616255D01*
X114010553Y-35829339D01*
X113829339Y-36010553D01*
X113616255Y-36152931D01*
X113616254Y-36152932D01*
X113616253Y-36152932D01*
X113379487Y-36251004D01*
X113128139Y-36301000D01*
X112871861Y-36301000D01*
X112620513Y-36251004D01*
X112383747Y-36152932D01*
X112383746Y-36152932D01*
X112383745Y-36152931D01*
X112170661Y-36010553D01*
X111989447Y-35829339D01*
X111847069Y-35616255D01*
X111847068Y-35616253D01*
X111748996Y-35379487D01*
X111699000Y-35128139D01*
X111699000Y-34871861D01*
X111748996Y-34620513D01*
X111847068Y-34383747D01*
X111989447Y-34170661D01*
X112170661Y-33989447D01*
X112248872Y-33937188D01*
X112383745Y-33847069D01*
X112407597Y-33837189D01*
X112620513Y-33748996D01*
X112871861Y-33699000D01*
X113128139Y-33699000D01*
X113379487Y-33748996D01*
G37*
G36*
X84301531Y-33301544D02*
G01*
X84462812Y-33333624D01*
X84626784Y-33401544D01*
X84774354Y-33500147D01*
X84899853Y-33625646D01*
X84998456Y-33773216D01*
X85066376Y-33937188D01*
X85101000Y-34111259D01*
X85101000Y-34288741D01*
X85066376Y-34462812D01*
X84998456Y-34626784D01*
X84899853Y-34774354D01*
X84774354Y-34899853D01*
X84626784Y-34998456D01*
X84462812Y-35066376D01*
X84313512Y-35096073D01*
X84288742Y-35101000D01*
X84111258Y-35101000D01*
X84086488Y-35096073D01*
X83937188Y-35066376D01*
X83773216Y-34998456D01*
X83625646Y-34899853D01*
X83500147Y-34774354D01*
X83401544Y-34626784D01*
X83333624Y-34462812D01*
X83299000Y-34288741D01*
X83299000Y-34111259D01*
X83333624Y-33937188D01*
X83401544Y-33773216D01*
X83500147Y-33625646D01*
X83625646Y-33500147D01*
X83773216Y-33401544D01*
X83937188Y-33333624D01*
X84098469Y-33301544D01*
X84111258Y-33299000D01*
X84288742Y-33299000D01*
X84301531Y-33301544D01*
G37*
G36*
X81761531Y-33301544D02*
G01*
X81922812Y-33333624D01*
X82086784Y-33401544D01*
X82234354Y-33500147D01*
X82359853Y-33625646D01*
X82458456Y-33773216D01*
X82526376Y-33937188D01*
X82561000Y-34111259D01*
X82561000Y-34288741D01*
X82526376Y-34462812D01*
X82458456Y-34626784D01*
X82359853Y-34774354D01*
X82234354Y-34899853D01*
X82086784Y-34998456D01*
X81922812Y-35066376D01*
X81773512Y-35096073D01*
X81748742Y-35101000D01*
X81571258Y-35101000D01*
X81546488Y-35096073D01*
X81397188Y-35066376D01*
X81233216Y-34998456D01*
X81085646Y-34899853D01*
X80960147Y-34774354D01*
X80861544Y-34626784D01*
X80793624Y-34462812D01*
X80759000Y-34288741D01*
X80759000Y-34111259D01*
X80793624Y-33937188D01*
X80861544Y-33773216D01*
X80960147Y-33625646D01*
X81085646Y-33500147D01*
X81233216Y-33401544D01*
X81397188Y-33333624D01*
X81558469Y-33301544D01*
X81571258Y-33299000D01*
X81748742Y-33299000D01*
X81761531Y-33301544D01*
G37*
G36*
X79221531Y-33301544D02*
G01*
X79382812Y-33333624D01*
X79546784Y-33401544D01*
X79694354Y-33500147D01*
X79819853Y-33625646D01*
X79918456Y-33773216D01*
X79986376Y-33937188D01*
X80021000Y-34111259D01*
X80021000Y-34288741D01*
X79986376Y-34462812D01*
X79918456Y-34626784D01*
X79819853Y-34774354D01*
X79694354Y-34899853D01*
X79546784Y-34998456D01*
X79382812Y-35066376D01*
X79233512Y-35096073D01*
X79208742Y-35101000D01*
X79031258Y-35101000D01*
X79006488Y-35096073D01*
X78857188Y-35066376D01*
X78693216Y-34998456D01*
X78545646Y-34899853D01*
X78420147Y-34774354D01*
X78321544Y-34626784D01*
X78253624Y-34462812D01*
X78219000Y-34288741D01*
X78219000Y-34111259D01*
X78253624Y-33937188D01*
X78321544Y-33773216D01*
X78420147Y-33625646D01*
X78545646Y-33500147D01*
X78693216Y-33401544D01*
X78857188Y-33333624D01*
X79018469Y-33301544D01*
X79031258Y-33299000D01*
X79208742Y-33299000D01*
X79221531Y-33301544D01*
G37*
G36*
X76681531Y-33301544D02*
G01*
X76842812Y-33333624D01*
X77006784Y-33401544D01*
X77154354Y-33500147D01*
X77279853Y-33625646D01*
X77378456Y-33773216D01*
X77446376Y-33937188D01*
X77481000Y-34111259D01*
X77481000Y-34288741D01*
X77446376Y-34462812D01*
X77378456Y-34626784D01*
X77279853Y-34774354D01*
X77154354Y-34899853D01*
X77006784Y-34998456D01*
X76842812Y-35066376D01*
X76693512Y-35096073D01*
X76668742Y-35101000D01*
X76491258Y-35101000D01*
X76466488Y-35096073D01*
X76317188Y-35066376D01*
X76153216Y-34998456D01*
X76005646Y-34899853D01*
X75880147Y-34774354D01*
X75781544Y-34626784D01*
X75713624Y-34462812D01*
X75679000Y-34288741D01*
X75679000Y-34111259D01*
X75713624Y-33937188D01*
X75781544Y-33773216D01*
X75880147Y-33625646D01*
X76005646Y-33500147D01*
X76153216Y-33401544D01*
X76317188Y-33333624D01*
X76478469Y-33301544D01*
X76491258Y-33299000D01*
X76668742Y-33299000D01*
X76681531Y-33301544D01*
G37*
G36*
X74141531Y-33301544D02*
G01*
X74302812Y-33333624D01*
X74466784Y-33401544D01*
X74614354Y-33500147D01*
X74739853Y-33625646D01*
X74838456Y-33773216D01*
X74906376Y-33937188D01*
X74941000Y-34111259D01*
X74941000Y-34288741D01*
X74906376Y-34462812D01*
X74838456Y-34626784D01*
X74739853Y-34774354D01*
X74614354Y-34899853D01*
X74466784Y-34998456D01*
X74302812Y-35066376D01*
X74153512Y-35096073D01*
X74128742Y-35101000D01*
X73951258Y-35101000D01*
X73926488Y-35096073D01*
X73777188Y-35066376D01*
X73613216Y-34998456D01*
X73465646Y-34899853D01*
X73340147Y-34774354D01*
X73241544Y-34626784D01*
X73173624Y-34462812D01*
X73139000Y-34288741D01*
X73139000Y-34111259D01*
X73173624Y-33937188D01*
X73241544Y-33773216D01*
X73340147Y-33625646D01*
X73465646Y-33500147D01*
X73613216Y-33401544D01*
X73777188Y-33333624D01*
X73938469Y-33301544D01*
X73951258Y-33299000D01*
X74128742Y-33299000D01*
X74141531Y-33301544D01*
G37*
G36*
X72401000Y-35101000D02*
G01*
X70599000Y-35101000D01*
X70599000Y-33299000D01*
X72401000Y-33299000D01*
X72401000Y-35101000D01*
G37*
G36*
X52813512Y-33203927D02*
G01*
X52962812Y-33233624D01*
X53126784Y-33301544D01*
X53274354Y-33400147D01*
X53399853Y-33525646D01*
X53498456Y-33673216D01*
X53566376Y-33837188D01*
X53601000Y-34011259D01*
X53601000Y-34188741D01*
X53566376Y-34362812D01*
X53498456Y-34526784D01*
X53399853Y-34674354D01*
X53274354Y-34799853D01*
X53126784Y-34898456D01*
X52962812Y-34966376D01*
X52813512Y-34996073D01*
X52788742Y-35001000D01*
X52611258Y-35001000D01*
X52586488Y-34996073D01*
X52437188Y-34966376D01*
X52273216Y-34898456D01*
X52125646Y-34799853D01*
X52000147Y-34674354D01*
X51901544Y-34526784D01*
X51833624Y-34362812D01*
X51799000Y-34188741D01*
X51799000Y-34011259D01*
X51833624Y-33837188D01*
X51901544Y-33673216D01*
X52000147Y-33525646D01*
X52125646Y-33400147D01*
X52273216Y-33301544D01*
X52437188Y-33233624D01*
X52586488Y-33203927D01*
X52611258Y-33199000D01*
X52788742Y-33199000D01*
X52813512Y-33203927D01*
G37*
G36*
X55353512Y-33203927D02*
G01*
X55502812Y-33233624D01*
X55666784Y-33301544D01*
X55814354Y-33400147D01*
X55939853Y-33525646D01*
X56038456Y-33673216D01*
X56106376Y-33837188D01*
X56141000Y-34011259D01*
X56141000Y-34188741D01*
X56106376Y-34362812D01*
X56038456Y-34526784D01*
X55939853Y-34674354D01*
X55814354Y-34799853D01*
X55666784Y-34898456D01*
X55502812Y-34966376D01*
X55353512Y-34996073D01*
X55328742Y-35001000D01*
X55151258Y-35001000D01*
X55126488Y-34996073D01*
X54977188Y-34966376D01*
X54813216Y-34898456D01*
X54665646Y-34799853D01*
X54540147Y-34674354D01*
X54441544Y-34526784D01*
X54373624Y-34362812D01*
X54339000Y-34188741D01*
X54339000Y-34011259D01*
X54373624Y-33837188D01*
X54441544Y-33673216D01*
X54540147Y-33525646D01*
X54665646Y-33400147D01*
X54813216Y-33301544D01*
X54977188Y-33233624D01*
X55126488Y-33203927D01*
X55151258Y-33199000D01*
X55328742Y-33199000D01*
X55353512Y-33203927D01*
G37*
G36*
X57893512Y-33203927D02*
G01*
X58042812Y-33233624D01*
X58206784Y-33301544D01*
X58354354Y-33400147D01*
X58479853Y-33525646D01*
X58578456Y-33673216D01*
X58646376Y-33837188D01*
X58681000Y-34011259D01*
X58681000Y-34188741D01*
X58646376Y-34362812D01*
X58578456Y-34526784D01*
X58479853Y-34674354D01*
X58354354Y-34799853D01*
X58206784Y-34898456D01*
X58042812Y-34966376D01*
X57893512Y-34996073D01*
X57868742Y-35001000D01*
X57691258Y-35001000D01*
X57666488Y-34996073D01*
X57517188Y-34966376D01*
X57353216Y-34898456D01*
X57205646Y-34799853D01*
X57080147Y-34674354D01*
X56981544Y-34526784D01*
X56913624Y-34362812D01*
X56879000Y-34188741D01*
X56879000Y-34011259D01*
X56913624Y-33837188D01*
X56981544Y-33673216D01*
X57080147Y-33525646D01*
X57205646Y-33400147D01*
X57353216Y-33301544D01*
X57517188Y-33233624D01*
X57666488Y-33203927D01*
X57691258Y-33199000D01*
X57868742Y-33199000D01*
X57893512Y-33203927D01*
G37*
G36*
X60433512Y-33203927D02*
G01*
X60582812Y-33233624D01*
X60746784Y-33301544D01*
X60894354Y-33400147D01*
X61019853Y-33525646D01*
X61118456Y-33673216D01*
X61186376Y-33837188D01*
X61221000Y-34011259D01*
X61221000Y-34188741D01*
X61186376Y-34362812D01*
X61118456Y-34526784D01*
X61019853Y-34674354D01*
X60894354Y-34799853D01*
X60746784Y-34898456D01*
X60582812Y-34966376D01*
X60433512Y-34996073D01*
X60408742Y-35001000D01*
X60231258Y-35001000D01*
X60206488Y-34996073D01*
X60057188Y-34966376D01*
X59893216Y-34898456D01*
X59745646Y-34799853D01*
X59620147Y-34674354D01*
X59521544Y-34526784D01*
X59453624Y-34362812D01*
X59419000Y-34188741D01*
X59419000Y-34011259D01*
X59453624Y-33837188D01*
X59521544Y-33673216D01*
X59620147Y-33525646D01*
X59745646Y-33400147D01*
X59893216Y-33301544D01*
X60057188Y-33233624D01*
X60206488Y-33203927D01*
X60231258Y-33199000D01*
X60408742Y-33199000D01*
X60433512Y-33203927D01*
G37*
G36*
X62973512Y-33203927D02*
G01*
X63122812Y-33233624D01*
X63286784Y-33301544D01*
X63434354Y-33400147D01*
X63559853Y-33525646D01*
X63658456Y-33673216D01*
X63726376Y-33837188D01*
X63761000Y-34011259D01*
X63761000Y-34188741D01*
X63726376Y-34362812D01*
X63658456Y-34526784D01*
X63559853Y-34674354D01*
X63434354Y-34799853D01*
X63286784Y-34898456D01*
X63122812Y-34966376D01*
X62973512Y-34996073D01*
X62948742Y-35001000D01*
X62771258Y-35001000D01*
X62746488Y-34996073D01*
X62597188Y-34966376D01*
X62433216Y-34898456D01*
X62285646Y-34799853D01*
X62160147Y-34674354D01*
X62061544Y-34526784D01*
X61993624Y-34362812D01*
X61959000Y-34188741D01*
X61959000Y-34011259D01*
X61993624Y-33837188D01*
X62061544Y-33673216D01*
X62160147Y-33525646D01*
X62285646Y-33400147D01*
X62433216Y-33301544D01*
X62597188Y-33233624D01*
X62746488Y-33203927D01*
X62771258Y-33199000D01*
X62948742Y-33199000D01*
X62973512Y-33203927D01*
G37*
G36*
X66301000Y-35001000D02*
G01*
X64499000Y-35001000D01*
X64499000Y-33199000D01*
X66301000Y-33199000D01*
X66301000Y-35001000D01*
G37*
M02*
